M48
;Layer_Color=9474304
;FILE_FORMAT=2:5
INCH,TZ
;TYPE=PLATED
T1F00S00C0.01181
T2F00S00C0.02362
T3F00S00C0.02756
T4F00S00C0.03543
T5F00S00C0.03937
T6F00S00C0.04331
T7F00S00C0.05118
T8F00S00C0.05512
T9F00S00C0.05906
;TYPE=NON_PLATED
T10F00S00C0.03543
T11F00S00C0.05906
T12F00S00C0.13780
%
T01
X317500Y24000
X328973Y65519
X324073Y87719
X293672Y69019
X263873Y45119
X241000Y37500
X214173Y31119
Y50819
X201500Y56000
X210273Y81219
X182173Y78019
X149773Y85619
X128500Y90000
X124723Y87019
X124500Y51000
X186472Y26219
X109039Y70039
X110236Y86614
X96245Y82326
X83573Y80319
X71372Y87719
X45500Y88500
X48173Y64719
X62673Y104719
X65000Y122500
X51573Y126181
X78272Y109719
X89500Y108000
X98000Y111000
X101500Y112000
X106000Y102500
X105355Y94044
X112897Y99881
X87137Y97869
X90500Y92500
X110110Y125582
X19000Y159519
X5000Y170000
X121773Y108019
X124998Y103169
X125873Y97719
X117984Y98019
X143173Y101819
X146272Y103619
X140000Y111500
X152573Y125419
X165472Y127819
X177822Y137069
X186972Y132019
X205000Y128000
X219000Y136500
X250673Y131619
X258372Y129819
X268473Y96019
X180572Y106119
X211000Y174000
X275500Y124500
X328000Y100500
X336372Y102369
X332000Y92500
T02
X120000Y10000
X130000
X140000
X150000
X160000
X170000
X180000
X190000
X200000
X210000
X195000Y35000
X175000Y50000
X165000Y60000
X155000Y70000
X181000Y88000
X192500Y76500
X215000Y65000
X230000Y60000
X220000Y45000
Y90000
X110000Y10000
X100000
X90000
X80000
X55000Y145000
Y150000
Y155000
Y160000
X80000Y190000
X75000Y195000
X140000Y120000
X191000Y101500
X290000Y135000
Y145000
X300000
Y155000
Y165000
X310000Y170000
Y160000
Y150000
X290000Y155000
T03
X5000Y190000
Y200000
X48000Y200500
X75000Y155000
X85000
X95000
X105000
X115000
X125000
X135000
X145000
X155000
X165000
X175000
X185000
X195000
X205000
X225000
X235000
X245000
X255000
X265000
X275000
T04
X12500Y154500
Y164500
Y174500
T05
X301953Y23874
Y33874
X311953Y28874
Y18874
X311500Y69000
Y79000
X301500Y84000
Y74000
X256500Y42000
X246657
Y32000
X256500
Y22000
X246657
Y12000
X256500
X333500Y132000
T06
X366142Y11811
Y21654
Y31496
Y41339
X169291Y87362
X27500Y40843
Y31000
Y21158
Y11315
X169291Y97362
Y107362
Y117362
T07
X108500Y183500
X123500
X138500
X153500
X168500
X183500
X198500
X213500
X228500
X243500
X258500
T08
X370000Y170158
Y189842
T09
X299500Y107315
Y197000
T10
X49275Y106732
X59905Y107913
Y122087
T11
X296047Y10252
Y41748
X295594Y60378
Y91874
T12
X334646Y23622
X59055
Y181102
X334646
M30
