G04 Layer_Physical_Order=2*
G04 Layer_Color=16711680*
%FSLAX25Y25*%
%MOIN*%
G70*
G01*
G75*
%ADD29C,0.07874*%
%ADD32C,0.01181*%
%ADD33C,0.00787*%
%ADD34C,0.03937*%
%ADD39C,0.13780*%
G04:AMPARAMS|DCode=40|XSize=70.87mil|YSize=70.87mil|CornerRadius=8.86mil|HoleSize=0mil|Usage=FLASHONLY|Rotation=0.000|XOffset=0mil|YOffset=0mil|HoleType=Round|Shape=RoundedRectangle|*
%AMROUNDEDRECTD40*
21,1,0.07087,0.05315,0,0,0.0*
21,1,0.05315,0.07087,0,0,0.0*
1,1,0.01772,0.02657,-0.02657*
1,1,0.01772,-0.02657,-0.02657*
1,1,0.01772,-0.02657,0.02657*
1,1,0.01772,0.02657,0.02657*
%
%ADD40ROUNDEDRECTD40*%
%ADD41C,0.07087*%
%ADD42C,0.06693*%
%ADD43R,0.06693X0.06693*%
%ADD44C,0.07874*%
%ADD45R,0.07874X0.07874*%
%ADD46C,0.05905*%
%ADD47R,0.05905X0.05905*%
%ADD48R,0.06693X0.06693*%
%ADD49C,0.05905*%
%ADD50C,0.11811*%
G04:AMPARAMS|DCode=51|XSize=98.42mil|YSize=98.42mil|CornerRadius=12.3mil|HoleSize=0mil|Usage=FLASHONLY|Rotation=90.000|XOffset=0mil|YOffset=0mil|HoleType=Round|Shape=RoundedRectangle|*
%AMROUNDEDRECTD51*
21,1,0.09842,0.07382,0,0,90.0*
21,1,0.07382,0.09842,0,0,90.0*
1,1,0.02461,0.03691,0.03691*
1,1,0.02461,0.03691,-0.03691*
1,1,0.02461,-0.03691,-0.03691*
1,1,0.02461,-0.03691,0.03691*
%
%ADD51ROUNDEDRECTD51*%
%ADD52C,0.09842*%
%ADD53C,0.04724*%
%ADD54C,0.03937*%
%ADD55C,0.02362*%
%ADD56R,0.03937X0.12598*%
G36*
X387538Y179538D02*
X387500Y179500D01*
Y150000D01*
X371000D01*
X347966Y126965D01*
X340966Y133966D01*
X340390Y134407D01*
X339719Y134685D01*
X339000Y134780D01*
X336021D01*
X335386Y135267D01*
X334476Y135644D01*
X333500Y135772D01*
X332524Y135644D01*
X331614Y135267D01*
X330833Y134668D01*
X330233Y133886D01*
X329856Y132976D01*
X329728Y132000D01*
X329856Y131024D01*
X330233Y130114D01*
X330833Y129332D01*
X331614Y128733D01*
X332524Y128356D01*
X333500Y128228D01*
X334476Y128356D01*
X335386Y128733D01*
X336021Y129220D01*
X337849D01*
X344035Y123035D01*
X318500Y97500D01*
X280000D01*
Y112500D01*
X333855Y166355D01*
X334646Y166293D01*
X336962Y166475D01*
X339222Y167018D01*
X341369Y167907D01*
X343350Y169121D01*
X345117Y170631D01*
X346627Y172398D01*
X347841Y174379D01*
X348730Y176526D01*
X349273Y178786D01*
X349368Y180000D01*
X387347D01*
X387538Y179538D01*
D02*
G37*
G36*
X65603Y93753D02*
X21321Y49470D01*
X21060Y49080D01*
X20968Y48619D01*
X20968Y48619D01*
Y26485D01*
X20968Y26485D01*
X21060Y26024D01*
X21321Y25634D01*
X23837Y23117D01*
X23472Y22237D01*
X23330Y21158D01*
X23472Y20078D01*
X23889Y19073D01*
X24552Y18209D01*
X25415Y17547D01*
X26421Y17130D01*
X27500Y16988D01*
X28579Y17130D01*
X29585Y17547D01*
X30448Y18209D01*
X31111Y19073D01*
X31527Y20078D01*
X31670Y21158D01*
X31527Y22237D01*
X31111Y23242D01*
X30448Y24106D01*
X29585Y24768D01*
X28579Y25185D01*
X27500Y25327D01*
X26421Y25185D01*
X25540Y24820D01*
X23377Y26984D01*
Y28846D01*
X23877Y28945D01*
X23889Y28915D01*
X24552Y28052D01*
X25415Y27389D01*
X26421Y26973D01*
X27500Y26831D01*
X28579Y26973D01*
X29585Y27389D01*
X30448Y28052D01*
X31111Y28915D01*
X31527Y29921D01*
X31670Y31000D01*
X31527Y32079D01*
X31111Y33085D01*
X30448Y33948D01*
X29585Y34611D01*
X28579Y35028D01*
X27500Y35170D01*
X26421Y35028D01*
X25540Y34663D01*
X24564Y35639D01*
Y37319D01*
X25012Y37541D01*
X25415Y37232D01*
X26421Y36815D01*
X27500Y36673D01*
X28579Y36815D01*
X29585Y37232D01*
X30448Y37894D01*
X30578Y38063D01*
X34506D01*
X36720Y35849D01*
Y10500D01*
X36815Y9781D01*
X37093Y9110D01*
X37534Y8535D01*
X39827Y6242D01*
X39636Y5780D01*
X10651D01*
X8780Y7651D01*
Y44349D01*
X42988Y78557D01*
X43430Y79133D01*
X43708Y79803D01*
X43802Y80523D01*
Y86666D01*
X44302Y86933D01*
X44732Y86646D01*
X45500Y86493D01*
X46268Y86646D01*
X46919Y87081D01*
X47354Y87732D01*
X47507Y88500D01*
X47354Y89268D01*
X46919Y89919D01*
X46704Y90063D01*
Y92148D01*
X48771Y94215D01*
X65412D01*
X65603Y93753D01*
D02*
G37*
G36*
X392697Y142716D02*
X389741Y142571D01*
X385819Y141989D01*
X381973Y141025D01*
X378239Y139690D01*
X374655Y137994D01*
X371254Y135956D01*
X368070Y133594D01*
X365132Y130931D01*
X362469Y127994D01*
X360107Y124809D01*
X358069Y121408D01*
X356373Y117824D01*
X355038Y114091D01*
X354074Y110244D01*
X353492Y106322D01*
X353298Y102362D01*
X353492Y98402D01*
X354074Y94480D01*
X355038Y90634D01*
X356373Y86901D01*
X358069Y83316D01*
X360107Y79915D01*
X362469Y76731D01*
X365132Y73793D01*
X368070Y71130D01*
X371254Y68768D01*
X374655Y66730D01*
X378239Y65035D01*
X381973Y63699D01*
X385819Y62735D01*
X389741Y62154D01*
X392697Y62008D01*
Y1003D01*
X359972D01*
X359765Y1503D01*
X365931Y7669D01*
X366142Y7642D01*
X367221Y7784D01*
X368227Y8200D01*
X369090Y8863D01*
X369219Y9031D01*
X383811D01*
X384530Y9126D01*
X385201Y9404D01*
X385777Y9846D01*
X389465Y13534D01*
X389907Y14110D01*
X390185Y14781D01*
X390280Y15500D01*
Y42500D01*
X390185Y43219D01*
X389907Y43890D01*
X389465Y44466D01*
X351280Y82651D01*
Y122500D01*
X351185Y123219D01*
X350907Y123890D01*
X350465Y124466D01*
X348533Y126398D01*
X371333Y149197D01*
X387500D01*
X387807Y149258D01*
X388068Y149432D01*
X388242Y149693D01*
X388303Y150000D01*
Y179347D01*
X388341Y179538D01*
X388280Y179845D01*
X388280Y179845D01*
X388088Y180307D01*
X388088Y180307D01*
X387914Y180568D01*
X387654Y180742D01*
X387347Y180803D01*
X349732D01*
X349455Y181102D01*
X349273Y183419D01*
X348730Y185679D01*
X347841Y187826D01*
X346627Y189807D01*
X345117Y191574D01*
X343350Y193083D01*
X341369Y194298D01*
X339222Y195187D01*
X336962Y195729D01*
X334646Y195912D01*
X332329Y195729D01*
X330069Y195187D01*
X327922Y194298D01*
X325941Y193083D01*
X324174Y191574D01*
X322665Y189807D01*
X321450Y187826D01*
X320561Y185679D01*
X320019Y183419D01*
X319836Y181102D01*
X320019Y178786D01*
X320561Y176526D01*
X321450Y174379D01*
X322665Y172398D01*
X324174Y170631D01*
X325941Y169121D01*
X327922Y167907D01*
X330069Y167018D01*
X332171Y166513D01*
X332380Y166016D01*
X279432Y113068D01*
X279258Y112807D01*
X279197Y112500D01*
Y97500D01*
X279258Y97193D01*
X279432Y96932D01*
X279693Y96758D01*
X280000Y96697D01*
X318500D01*
X318807Y96758D01*
X319068Y96932D01*
X319068Y96932D01*
X344602Y122467D01*
X345720Y121349D01*
Y81500D01*
X345815Y80781D01*
X346093Y80110D01*
X346534Y79535D01*
X384720Y41349D01*
Y16651D01*
X382660Y14591D01*
X369219D01*
X369090Y14759D01*
X368227Y15422D01*
X367221Y15838D01*
X366142Y15981D01*
X365063Y15838D01*
X364057Y15422D01*
X363193Y14759D01*
X362531Y13896D01*
X362114Y12890D01*
X361972Y11811D01*
X362000Y11600D01*
X356179Y5780D01*
X48151D01*
X42280Y11651D01*
Y37000D01*
X42185Y37719D01*
X41907Y38390D01*
X41465Y38965D01*
X37623Y42808D01*
X37047Y43250D01*
X36377Y43527D01*
X35658Y43622D01*
X30578D01*
X30448Y43791D01*
X29585Y44453D01*
X28579Y44870D01*
X27500Y45012D01*
X26421Y44870D01*
X25415Y44453D01*
X25012Y44144D01*
X24564Y44366D01*
Y45827D01*
X46506Y67769D01*
X46968Y67578D01*
Y66282D01*
X46753Y66138D01*
X46318Y65487D01*
X46165Y64719D01*
X46318Y63951D01*
X46753Y63300D01*
X47405Y62865D01*
X48173Y62712D01*
X48941Y62865D01*
X49592Y63300D01*
X50027Y63951D01*
X50180Y64719D01*
X50027Y65487D01*
X49592Y66138D01*
X49377Y66282D01*
Y67895D01*
X68913Y87431D01*
X69455Y87267D01*
X69518Y86951D01*
X69953Y86300D01*
X70604Y85865D01*
X71372Y85712D01*
X72141Y85865D01*
X72792Y86300D01*
X72935Y86515D01*
X105930D01*
X105930Y86515D01*
X106391Y86607D01*
X106781Y86868D01*
X109978Y90065D01*
X110617D01*
X112285Y88396D01*
X112088Y87910D01*
X111748Y87895D01*
X111655Y88033D01*
X111004Y88468D01*
X110236Y88621D01*
X109468Y88468D01*
X108817Y88033D01*
X108382Y87382D01*
X108229Y86614D01*
X108382Y85846D01*
X108817Y85195D01*
X109468Y84760D01*
X110236Y84607D01*
X111004Y84760D01*
X111655Y85195D01*
X111799Y85410D01*
X112479D01*
X120721Y77168D01*
X120721Y77168D01*
X121112Y76907D01*
X121572Y76815D01*
X180610D01*
X180753Y76600D01*
X181404Y76165D01*
X182173Y76012D01*
X182941Y76165D01*
X183592Y76600D01*
X184027Y77251D01*
X184180Y78019D01*
X184027Y78787D01*
X183592Y79438D01*
X182941Y79873D01*
X182173Y80026D01*
X181404Y79873D01*
X180753Y79438D01*
X180610Y79223D01*
X122071D01*
X115242Y86053D01*
X115433Y86515D01*
X116507D01*
X121196Y81826D01*
X121196Y81826D01*
X121586Y81565D01*
X122047Y81473D01*
X122047Y81473D01*
X146831D01*
X146831Y81473D01*
X147292Y81565D01*
X147682Y81826D01*
X149519Y83662D01*
X149773Y83612D01*
X150541Y83765D01*
X151192Y84200D01*
X151627Y84851D01*
X151780Y85619D01*
X151722Y85908D01*
X152133Y86408D01*
X152365D01*
X152365Y86408D01*
X152826Y86499D01*
X153217Y86760D01*
X157371Y90915D01*
X164335D01*
Y88346D01*
X169291D01*
X174248D01*
Y91083D01*
X174524Y91268D01*
X183399Y100142D01*
X183399Y100142D01*
X183660Y100533D01*
X183752Y100994D01*
Y127095D01*
X186719Y130062D01*
X186972Y130012D01*
X187741Y130165D01*
X188392Y130600D01*
X188827Y131251D01*
X188980Y132019D01*
X188916Y132339D01*
X189326Y132839D01*
X190945D01*
X191335Y132916D01*
X191666Y133137D01*
X191887Y133468D01*
X191964Y133858D01*
Y139173D01*
X188976D01*
X185988D01*
Y133858D01*
X186011Y133744D01*
X185553Y133438D01*
X185118Y132787D01*
X184966Y132019D01*
X185016Y131765D01*
X181696Y128445D01*
X181435Y128055D01*
X181343Y127594D01*
X181343Y127594D01*
Y108483D01*
X180843Y108072D01*
X180572Y108126D01*
X179805Y107973D01*
X179153Y107538D01*
X178718Y106887D01*
X178566Y106119D01*
X178616Y105866D01*
X174174Y101423D01*
X172148D01*
X172148Y101423D01*
X171840Y101362D01*
X171674Y101489D01*
X170525Y101965D01*
X169423Y102110D01*
Y102614D01*
X170525Y102760D01*
X171674Y103235D01*
X172661Y103993D01*
X173418Y104980D01*
X173894Y106129D01*
X174056Y107362D01*
X173894Y108596D01*
X173418Y109745D01*
X172661Y110732D01*
X171674Y111489D01*
X170525Y111965D01*
X169423Y112110D01*
Y112614D01*
X170525Y112759D01*
X171674Y113235D01*
X172661Y113993D01*
X173418Y114980D01*
X173894Y116129D01*
X174056Y117362D01*
X173894Y118596D01*
X173418Y119745D01*
X172661Y120732D01*
X171674Y121489D01*
X170525Y121965D01*
X169291Y122127D01*
X168745Y122055D01*
X168511Y122529D01*
X185131Y139148D01*
X185131Y139148D01*
X185392Y139539D01*
X185484Y140000D01*
X185484Y140000D01*
Y144800D01*
X185488Y144803D01*
X185988Y144536D01*
Y141142D01*
X188976D01*
X191964D01*
Y144602D01*
X192426Y144794D01*
X200118Y137102D01*
Y127269D01*
X200118Y127269D01*
X200210Y126808D01*
X200471Y126418D01*
X202240Y124648D01*
X202240Y124648D01*
X202631Y124387D01*
X203092Y124296D01*
X203092Y124296D01*
X254053D01*
X254053Y124296D01*
X254514Y124387D01*
X254905Y124648D01*
X258119Y127862D01*
X258372Y127812D01*
X259141Y127965D01*
X259792Y128400D01*
X260227Y129051D01*
X260380Y129819D01*
X260227Y130587D01*
X259792Y131238D01*
X259141Y131673D01*
X258372Y131826D01*
X257605Y131673D01*
X256953Y131238D01*
X256518Y130587D01*
X256365Y129819D01*
X256416Y129566D01*
X253555Y126704D01*
X207032D01*
X206796Y127145D01*
X206854Y127232D01*
X207007Y128000D01*
X206854Y128768D01*
X206419Y129419D01*
X205929Y129747D01*
Y133055D01*
X206693D01*
X207000Y133117D01*
X207260Y133291D01*
X207435Y133551D01*
X207496Y133858D01*
Y135296D01*
X217437D01*
X217581Y135081D01*
X218232Y134646D01*
X219000Y134493D01*
X219768Y134646D01*
X220419Y135081D01*
X220854Y135732D01*
X221007Y136500D01*
X220854Y137268D01*
X220419Y137919D01*
X219768Y138354D01*
X219000Y138507D01*
X218232Y138354D01*
X217581Y137919D01*
X217437Y137704D01*
X207496D01*
Y146457D01*
X207440Y146734D01*
X207440Y146774D01*
X207722Y147234D01*
X233355D01*
X248716Y131873D01*
X248665Y131619D01*
X248818Y130851D01*
X249253Y130200D01*
X249904Y129765D01*
X250673Y129612D01*
X251441Y129765D01*
X252092Y130200D01*
X252527Y130851D01*
X252680Y131619D01*
X252527Y132387D01*
X252092Y133038D01*
X251441Y133473D01*
X250673Y133626D01*
X250419Y133576D01*
X235835Y148159D01*
X236027Y148621D01*
X244129D01*
X269102Y123649D01*
X269102Y123649D01*
X269493Y123387D01*
X269953Y123296D01*
X269953Y123296D01*
X273937D01*
X274081Y123081D01*
X274732Y122646D01*
X275500Y122493D01*
X276268Y122646D01*
X276919Y123081D01*
X277354Y123732D01*
X277507Y124500D01*
X277354Y125268D01*
X276919Y125919D01*
X276268Y126354D01*
X275500Y126507D01*
X274732Y126354D01*
X274081Y125919D01*
X273937Y125704D01*
X270452D01*
X245479Y150677D01*
X245089Y150938D01*
X244628Y151030D01*
X244628Y151030D01*
X143419D01*
X143419Y151030D01*
X142958Y150938D01*
X142567Y150677D01*
X142567Y150677D01*
X105094Y113204D01*
X103063D01*
X102919Y113419D01*
X102268Y113854D01*
X101500Y114007D01*
X100732Y113854D01*
X100081Y113419D01*
X99646Y112768D01*
X99108Y112627D01*
X98768Y112854D01*
X98000Y113007D01*
X97232Y112854D01*
X96581Y112419D01*
X96146Y111768D01*
X95993Y111000D01*
X96146Y110232D01*
X96581Y109581D01*
X97232Y109146D01*
X98000Y108993D01*
X98768Y109146D01*
X98873Y109216D01*
X100608Y107480D01*
X100697Y107353D01*
X100821Y107168D01*
X100831Y107161D01*
X100838Y107150D01*
X101026Y107030D01*
X101212Y106906D01*
X101224Y106904D01*
X101234Y106897D01*
X101454Y106858D01*
X101672Y106815D01*
X120210D01*
X120353Y106600D01*
X121004Y106165D01*
X121773Y106012D01*
X122541Y106165D01*
X123192Y106600D01*
X123335Y106815D01*
X136672D01*
X136672Y106815D01*
X137133Y106906D01*
X137524Y107168D01*
X139874Y109518D01*
X140000Y109493D01*
X140768Y109646D01*
X141419Y110081D01*
X141854Y110732D01*
X142007Y111500D01*
X141854Y112268D01*
X141419Y112919D01*
X140768Y113354D01*
X140000Y113507D01*
X139232Y113354D01*
X138581Y112919D01*
X138146Y112268D01*
X137993Y111500D01*
X138069Y111118D01*
X136174Y109223D01*
X123335D01*
X123192Y109438D01*
X122541Y109873D01*
X121773Y110026D01*
X121004Y109873D01*
X120353Y109438D01*
X120210Y109223D01*
X102271D01*
X101876Y109618D01*
X102022Y110097D01*
X102268Y110146D01*
X102919Y110581D01*
X103063Y110796D01*
X105593D01*
X105593Y110796D01*
X106054Y110887D01*
X106445Y111149D01*
X143918Y148621D01*
X176899D01*
X177091Y148159D01*
X154964Y126032D01*
X154473Y126120D01*
X154421Y126196D01*
X153992Y126838D01*
X153341Y127273D01*
X152573Y127426D01*
X151804Y127273D01*
X151153Y126838D01*
X150718Y126187D01*
X150566Y125419D01*
X150718Y124651D01*
X151153Y124000D01*
X151368Y123856D01*
Y118218D01*
X137524Y104373D01*
X126561D01*
X126417Y104588D01*
X125766Y105023D01*
X124998Y105176D01*
X124230Y105023D01*
X123579Y104588D01*
X123144Y103937D01*
X123098Y103704D01*
X122555Y103540D01*
X120474Y105621D01*
X120083Y105882D01*
X119623Y105973D01*
X119623Y105973D01*
X103823D01*
X103823Y105973D01*
X103362Y105882D01*
X102971Y105621D01*
X101521Y104171D01*
X101260Y103780D01*
X101168Y103319D01*
X101168Y103319D01*
Y99981D01*
X101168Y99981D01*
X101260Y99520D01*
X101521Y99130D01*
X101621Y99030D01*
X101743Y98948D01*
X101592Y98448D01*
X91247D01*
X80229Y109466D01*
X80280Y109719D01*
X80127Y110487D01*
X79692Y111138D01*
X79041Y111573D01*
X78272Y111726D01*
X77504Y111573D01*
X76853Y111138D01*
X76418Y110487D01*
X76296Y109871D01*
X75808Y109652D01*
X66178Y119281D01*
X66204Y119411D01*
X66204Y119411D01*
Y120937D01*
X66419Y121081D01*
X66854Y121732D01*
X67007Y122500D01*
X66854Y123268D01*
X66800Y123349D01*
X67036Y123790D01*
X75499D01*
X88296Y110993D01*
Y109563D01*
X88081Y109419D01*
X87646Y108768D01*
X87493Y108000D01*
X87646Y107232D01*
X88081Y106581D01*
X88732Y106146D01*
X89500Y105993D01*
X90268Y106146D01*
X90919Y106581D01*
X91354Y107232D01*
X91507Y108000D01*
X91354Y108768D01*
X90919Y109419D01*
X90704Y109563D01*
Y111492D01*
X90704Y111492D01*
X90613Y111952D01*
X90351Y112343D01*
X78180Y124515D01*
X78371Y124977D01*
X108223D01*
X108256Y124813D01*
X108691Y124162D01*
X109342Y123727D01*
X110110Y123574D01*
X110878Y123727D01*
X111529Y124162D01*
X111964Y124813D01*
X112117Y125582D01*
X111964Y126349D01*
X111529Y127001D01*
X110878Y127436D01*
X110110Y127589D01*
X109342Y127436D01*
X109267Y127385D01*
X53135D01*
X52992Y127601D01*
X52341Y128036D01*
X51573Y128188D01*
X50805Y128036D01*
X50153Y127601D01*
X49718Y126949D01*
X49566Y126181D01*
X49718Y125413D01*
X50153Y124762D01*
X50805Y124327D01*
X51573Y124174D01*
X52341Y124327D01*
X52992Y124762D01*
X53135Y124977D01*
X58799D01*
X58899Y124477D01*
X58768Y124423D01*
X58182Y124031D01*
X57961Y123810D01*
X57569Y123224D01*
X57449Y122935D01*
Y122934D01*
X57312Y122243D01*
X57312Y122243D01*
Y122164D01*
X57296Y122087D01*
X57312Y122009D01*
Y121930D01*
X57312Y121930D01*
X57449Y121239D01*
Y121239D01*
X57569Y120949D01*
X57961Y120363D01*
X58182Y120142D01*
X58768Y119750D01*
X59058Y119630D01*
X59058D01*
X59749Y119493D01*
X59749Y119493D01*
X59905D01*
X60062D01*
X60062Y119493D01*
X60753Y119630D01*
X60753D01*
X60968Y119719D01*
X61468Y119523D01*
Y110478D01*
X60968Y110281D01*
X60753Y110370D01*
X60753D01*
X60062Y110507D01*
X60062Y110507D01*
X59905D01*
X59749D01*
X59749Y110507D01*
X59058Y110370D01*
X59058D01*
X58768Y110250D01*
X58182Y109858D01*
X57961Y109637D01*
X57569Y109051D01*
X57449Y108761D01*
Y108761D01*
X57312Y108070D01*
X57312Y108070D01*
Y107991D01*
X57296Y107913D01*
X57312Y107836D01*
Y107757D01*
X57312Y107757D01*
X57449Y107066D01*
Y107066D01*
X57569Y106776D01*
X57961Y106190D01*
X58182Y105969D01*
X58768Y105577D01*
X59058Y105457D01*
X59058D01*
X59749Y105320D01*
X59749Y105320D01*
X59905D01*
X60062D01*
X60062Y105320D01*
X60284Y105364D01*
X60709Y104939D01*
X60666Y104719D01*
X60818Y103951D01*
X61253Y103300D01*
X61905Y102865D01*
X62673Y102712D01*
X63441Y102865D01*
X64092Y103300D01*
X64527Y103951D01*
X64680Y104719D01*
X64527Y105487D01*
X64092Y106138D01*
X63877Y106282D01*
Y117523D01*
X64339Y117715D01*
X84968Y97085D01*
X84777Y96623D01*
X48272D01*
X48237Y96616D01*
X48076Y96733D01*
X47837Y97047D01*
X47915Y97635D01*
Y103966D01*
X48415Y104281D01*
X48428Y104276D01*
X48428D01*
X49119Y104139D01*
X49119Y104139D01*
X49275D01*
X49432D01*
X49432Y104139D01*
X50123Y104276D01*
X50123D01*
X50413Y104396D01*
X50999Y104788D01*
X51220Y105009D01*
X51612Y105595D01*
X51732Y105884D01*
Y105884D01*
X51869Y106576D01*
X51869Y106576D01*
Y106655D01*
X51885Y106732D01*
X51869Y106810D01*
Y106889D01*
X51869Y106889D01*
X51732Y107580D01*
Y107580D01*
X51612Y107870D01*
X51220Y108456D01*
X50999Y108677D01*
X50413Y109069D01*
X50123Y109189D01*
X50123D01*
X49432Y109326D01*
X49432Y109326D01*
X49275D01*
X49119D01*
X49119Y109326D01*
X48428Y109189D01*
X48428D01*
X48415Y109183D01*
X47915Y109499D01*
Y128365D01*
X47820Y129084D01*
X47543Y129754D01*
X47101Y130330D01*
X30966Y146466D01*
X30390Y146907D01*
X29719Y147185D01*
X29000Y147280D01*
X10651D01*
X7780Y150151D01*
Y159849D01*
X9151Y161220D01*
X10644D01*
X11524Y160856D01*
X12500Y160728D01*
X13476Y160856D01*
X14386Y161233D01*
X15167Y161833D01*
X15767Y162614D01*
X16144Y163524D01*
X16248Y164317D01*
X23465Y171535D01*
X23907Y172110D01*
X24185Y172781D01*
X24280Y173500D01*
Y181349D01*
X40651Y197720D01*
X72848D01*
X73017Y197220D01*
X72883Y197117D01*
X72407Y196497D01*
X72195Y195984D01*
X77805D01*
X77593Y196497D01*
X77117Y197117D01*
X76983Y197220D01*
X77152Y197720D01*
X251697D01*
Y175000D01*
X251758Y174693D01*
X251932Y174432D01*
X252193Y174258D01*
X252500Y174197D01*
X289761D01*
X289761Y174197D01*
X290068Y174258D01*
X290329Y174432D01*
X290329Y174432D01*
X309068Y193171D01*
X309242Y193432D01*
X309303Y193739D01*
Y203721D01*
X392697D01*
Y142716D01*
D02*
G37*
G36*
X39053Y203221D02*
X38781Y203185D01*
X38110Y202907D01*
X37534Y202466D01*
X19534Y184466D01*
X19093Y183890D01*
X18815Y183219D01*
X18720Y182500D01*
Y174652D01*
X12317Y168248D01*
X11524Y168144D01*
X10614Y167767D01*
X9832Y167168D01*
X9535Y166780D01*
X8000D01*
X7281Y166685D01*
X6610Y166407D01*
X6035Y165965D01*
X3035Y162966D01*
X2593Y162390D01*
X2315Y161719D01*
X2220Y161000D01*
Y149000D01*
X2315Y148281D01*
X2593Y147610D01*
X3035Y147035D01*
X7521Y142548D01*
X7520Y142505D01*
X7315Y142073D01*
X3960Y142571D01*
X1003Y142716D01*
Y203721D01*
X3890D01*
X3990Y203221D01*
X3304Y202937D01*
X2602Y202398D01*
X2063Y201696D01*
X1768Y200984D01*
X5000D01*
X8231D01*
X7937Y201696D01*
X7398Y202398D01*
X6696Y202937D01*
X6010Y203221D01*
X6110Y203721D01*
X39020D01*
X39053Y203221D01*
D02*
G37*
G36*
X308500Y193739D02*
X289761Y175000D01*
X252500D01*
Y203721D01*
X296364D01*
X296489Y203221D01*
X295645Y202770D01*
X294593Y201907D01*
X293730Y200855D01*
X293089Y199655D01*
X292694Y198354D01*
X292658Y197984D01*
X299500D01*
X306342D01*
X306306Y198354D01*
X305911Y199655D01*
X305269Y200855D01*
X304406Y201907D01*
X303355Y202770D01*
X302511Y203221D01*
X302636Y203721D01*
X308500D01*
Y193739D01*
D02*
G37*
%LPC*%
G36*
X306342Y106331D02*
X300484D01*
Y100473D01*
X300854Y100510D01*
X302155Y100904D01*
X303355Y101546D01*
X304406Y102409D01*
X305269Y103460D01*
X305911Y104660D01*
X306306Y105961D01*
X306342Y106331D01*
D02*
G37*
G36*
X298516D02*
X292658D01*
X292694Y105961D01*
X293089Y104660D01*
X293730Y103460D01*
X294593Y102409D01*
X295645Y101546D01*
X296845Y100904D01*
X298146Y100510D01*
X298516Y100473D01*
Y106331D01*
D02*
G37*
G36*
Y114157D02*
X298146Y114121D01*
X296845Y113726D01*
X295645Y113085D01*
X294593Y112222D01*
X293730Y111170D01*
X293089Y109970D01*
X292694Y108669D01*
X292658Y108299D01*
X298516D01*
Y114157D01*
D02*
G37*
G36*
X300484D02*
Y108299D01*
X306342D01*
X306306Y108669D01*
X305911Y109970D01*
X305269Y111170D01*
X304406Y112222D01*
X303355Y113085D01*
X302155Y113726D01*
X300854Y114121D01*
X300484Y114157D01*
D02*
G37*
G36*
X375965Y169173D02*
X370984D01*
Y164192D01*
X373691D01*
X374561Y164366D01*
X375299Y164859D01*
X375792Y165596D01*
X375965Y166466D01*
Y169173D01*
D02*
G37*
G36*
X369016D02*
X364035D01*
Y166466D01*
X364208Y165596D01*
X364701Y164859D01*
X365439Y164366D01*
X366309Y164192D01*
X369016D01*
Y169173D01*
D02*
G37*
G36*
X373691Y176122D02*
X370984D01*
Y171142D01*
X375965D01*
Y173848D01*
X375792Y174719D01*
X375299Y175456D01*
X374561Y175949D01*
X373691Y176122D01*
D02*
G37*
G36*
X369016D02*
X366309D01*
X365439Y175949D01*
X364701Y175456D01*
X364208Y174719D01*
X364035Y173848D01*
Y171142D01*
X369016D01*
Y176122D01*
D02*
G37*
G36*
X31754Y10331D02*
X28484D01*
Y7061D01*
X28635Y7080D01*
X29692Y7518D01*
X30600Y8215D01*
X31297Y9123D01*
X31734Y10180D01*
X31754Y10331D01*
D02*
G37*
G36*
X26516D02*
X23246D01*
X23265Y10180D01*
X23703Y9123D01*
X24400Y8215D01*
X25308Y7518D01*
X26365Y7080D01*
X26516Y7061D01*
Y10331D01*
D02*
G37*
G36*
X28484Y15569D02*
Y12299D01*
X31754D01*
X31734Y12449D01*
X31297Y13507D01*
X30600Y14415D01*
X29692Y15112D01*
X28635Y15550D01*
X28484Y15569D01*
D02*
G37*
G36*
X26516D02*
X26365Y15550D01*
X25308Y15112D01*
X24400Y14415D01*
X23703Y13507D01*
X23265Y12449D01*
X23246Y12299D01*
X26516D01*
Y15569D01*
D02*
G37*
G36*
X292688Y70985D02*
X292100Y70592D01*
X291707Y70003D01*
X292688D01*
Y70985D01*
D02*
G37*
G36*
X294657D02*
Y70003D01*
X295638D01*
X295245Y70592D01*
X294657Y70985D01*
D02*
G37*
G36*
X155984Y72805D02*
Y70984D01*
X157805D01*
X157593Y71497D01*
X157117Y72117D01*
X156497Y72593D01*
X155984Y72805D01*
D02*
G37*
G36*
X154016D02*
X153503Y72593D01*
X152883Y72117D01*
X152407Y71497D01*
X152195Y70984D01*
X154016D01*
Y72805D01*
D02*
G37*
G36*
X111005Y69055D02*
X110024D01*
Y68074D01*
X110612Y68467D01*
X111005Y69055D01*
D02*
G37*
G36*
X108055D02*
X107074D01*
X107467Y68467D01*
X108055Y68074D01*
Y69055D01*
D02*
G37*
G36*
X301500Y78170D02*
X300421Y78027D01*
X299415Y77611D01*
X298552Y76948D01*
X297889Y76085D01*
X297473Y75079D01*
X297330Y74000D01*
X297473Y72921D01*
X297889Y71915D01*
X298552Y71052D01*
X299415Y70389D01*
X300421Y69973D01*
X301500Y69831D01*
X302579Y69973D01*
X303585Y70389D01*
X304448Y71052D01*
X305111Y71915D01*
X305527Y72921D01*
X305669Y74000D01*
X305527Y75079D01*
X305111Y76085D01*
X304448Y76948D01*
X303585Y77611D01*
X302579Y78027D01*
X301500Y78170D01*
D02*
G37*
G36*
X314846Y73366D02*
X312484D01*
Y69984D01*
X315866D01*
Y72347D01*
X315788Y72737D01*
X315567Y73067D01*
X315237Y73289D01*
X314846Y73366D01*
D02*
G37*
G36*
X310516D02*
X308154D01*
X307763Y73289D01*
X307433Y73067D01*
X307211Y72737D01*
X307134Y72347D01*
Y69984D01*
X310516D01*
Y73366D01*
D02*
G37*
G36*
X193484Y79305D02*
Y77484D01*
X195305D01*
X195093Y77997D01*
X194617Y78617D01*
X193997Y79093D01*
X193484Y79305D01*
D02*
G37*
G36*
X191516D02*
X191003Y79093D01*
X190383Y78617D01*
X189907Y77997D01*
X189695Y77484D01*
X191516D01*
Y79305D01*
D02*
G37*
G36*
X301500Y88170D02*
X300421Y88028D01*
X299415Y87611D01*
X298552Y86948D01*
X297889Y86085D01*
X297473Y85079D01*
X297330Y84000D01*
X297473Y82921D01*
X297889Y81915D01*
X298552Y81052D01*
X299415Y80389D01*
X300421Y79973D01*
X301500Y79831D01*
X302579Y79973D01*
X303585Y80389D01*
X304448Y81052D01*
X305111Y81915D01*
X305527Y82921D01*
X305669Y84000D01*
X305527Y85079D01*
X305111Y86085D01*
X304448Y86948D01*
X303585Y87611D01*
X302579Y88028D01*
X301500Y88170D01*
D02*
G37*
G36*
X191964Y87992D02*
X189961D01*
Y81657D01*
X190945D01*
X191335Y81735D01*
X191666Y81956D01*
X191887Y82287D01*
X191964Y82677D01*
Y87992D01*
D02*
G37*
G36*
X187992D02*
X185988D01*
Y82677D01*
X186066Y82287D01*
X186287Y81956D01*
X186618Y81735D01*
X187008Y81657D01*
X187992D01*
Y87992D01*
D02*
G37*
G36*
X110024Y72005D02*
Y71024D01*
X111005D01*
X110612Y71612D01*
X110024Y72005D01*
D02*
G37*
G36*
X108055D02*
X107467Y71612D01*
X107074Y71024D01*
X108055D01*
Y72005D01*
D02*
G37*
G36*
X191516Y75516D02*
X189695D01*
X189907Y75003D01*
X190383Y74383D01*
X191003Y73907D01*
X191516Y73695D01*
Y75516D01*
D02*
G37*
G36*
X311500Y83170D02*
X310421Y83027D01*
X309415Y82611D01*
X308552Y81948D01*
X307889Y81085D01*
X307472Y80079D01*
X307330Y79000D01*
X307472Y77921D01*
X307889Y76915D01*
X308552Y76052D01*
X309415Y75389D01*
X310421Y74973D01*
X311500Y74831D01*
X312579Y74973D01*
X313585Y75389D01*
X314448Y76052D01*
X315111Y76915D01*
X315527Y77921D01*
X315669Y79000D01*
X315527Y80079D01*
X315111Y81085D01*
X314448Y81948D01*
X313585Y82611D01*
X312579Y83027D01*
X311500Y83170D01*
D02*
G37*
G36*
X195305Y75516D02*
X193484D01*
Y73695D01*
X193997Y73907D01*
X194617Y74383D01*
X195093Y75003D01*
X195305Y75516D01*
D02*
G37*
G36*
X157805Y69016D02*
X155984D01*
Y67195D01*
X156497Y67407D01*
X157117Y67883D01*
X157593Y68503D01*
X157805Y69016D01*
D02*
G37*
G36*
X229016Y62805D02*
X228503Y62593D01*
X227883Y62117D01*
X227407Y61497D01*
X227195Y60984D01*
X229016D01*
Y62805D01*
D02*
G37*
G36*
X165984D02*
Y60984D01*
X167805D01*
X167593Y61497D01*
X167117Y62117D01*
X166497Y62593D01*
X165984Y62805D01*
D02*
G37*
G36*
X230984D02*
Y60984D01*
X232805D01*
X232593Y61497D01*
X232117Y62117D01*
X231497Y62593D01*
X230984Y62805D01*
D02*
G37*
G36*
X217805Y64016D02*
X215984D01*
Y62195D01*
X216497Y62407D01*
X217117Y62883D01*
X217593Y63503D01*
X217805Y64016D01*
D02*
G37*
G36*
X214016D02*
X212195D01*
X212407Y63503D01*
X212883Y62883D01*
X213503Y62407D01*
X214016Y62195D01*
Y64016D01*
D02*
G37*
G36*
X164016Y62805D02*
X163503Y62593D01*
X162883Y62117D01*
X162407Y61497D01*
X162195Y60984D01*
X164016D01*
Y62805D01*
D02*
G37*
G36*
X229016Y59016D02*
X227195D01*
X227407Y58503D01*
X227883Y57883D01*
X228503Y57407D01*
X229016Y57195D01*
Y59016D01*
D02*
G37*
G36*
X167805D02*
X165984D01*
Y57195D01*
X166497Y57407D01*
X167117Y57883D01*
X167593Y58503D01*
X167805Y59016D01*
D02*
G37*
G36*
X232805D02*
X230984D01*
Y57195D01*
X231497Y57407D01*
X232117Y57883D01*
X232593Y58503D01*
X232805Y59016D01*
D02*
G37*
G36*
X191964Y63583D02*
X189961D01*
Y57248D01*
X190945D01*
X191335Y57326D01*
X191666Y57547D01*
X191887Y57877D01*
X191964Y58268D01*
Y63583D01*
D02*
G37*
G36*
X187992D02*
X185988D01*
Y58268D01*
X186066Y57877D01*
X186287Y57547D01*
X186618Y57326D01*
X187008Y57248D01*
X187992D01*
Y63583D01*
D02*
G37*
G36*
X215984Y67805D02*
Y65984D01*
X217805D01*
X217593Y66497D01*
X217117Y67117D01*
X216497Y67593D01*
X215984Y67805D01*
D02*
G37*
G36*
X214016D02*
X213503Y67593D01*
X212883Y67117D01*
X212407Y66497D01*
X212195Y65984D01*
X214016D01*
Y67805D01*
D02*
G37*
G36*
X292688Y68035D02*
X291707D01*
X292100Y67447D01*
X292688Y67054D01*
Y68035D01*
D02*
G37*
G36*
X154016Y69016D02*
X152195D01*
X152407Y68503D01*
X152883Y67883D01*
X153503Y67407D01*
X154016Y67195D01*
Y69016D01*
D02*
G37*
G36*
X295638Y68035D02*
X294657D01*
Y67054D01*
X295245Y67447D01*
X295638Y68035D01*
D02*
G37*
G36*
X190945Y71886D02*
X189961D01*
Y65551D01*
X191964D01*
Y70866D01*
X191887Y71256D01*
X191666Y71587D01*
X191335Y71808D01*
X190945Y71886D01*
D02*
G37*
G36*
X295699Y64152D02*
X295620Y64147D01*
X295594Y64151D01*
X295568Y64147D01*
X295490Y64152D01*
X294719Y64051D01*
X294644Y64025D01*
X294618Y64022D01*
X294594Y64012D01*
X294516Y63997D01*
X293798Y63699D01*
X293732Y63655D01*
X293708Y63645D01*
X293688Y63629D01*
X293617Y63594D01*
X293000Y63121D01*
X292948Y63061D01*
X292927Y63046D01*
X292911Y63025D01*
X292851Y62973D01*
X292378Y62356D01*
X292343Y62285D01*
X292327Y62264D01*
X292317Y62240D01*
X292273Y62174D01*
X291976Y61456D01*
X291960Y61379D01*
X291950Y61354D01*
X291947Y61329D01*
X291922Y61254D01*
X291820Y60483D01*
X291824Y60430D01*
X291813Y60378D01*
X291824Y60326D01*
X291820Y60273D01*
X291922Y59503D01*
X291947Y59428D01*
X291950Y59402D01*
X291960Y59378D01*
X291976Y59300D01*
X292273Y58582D01*
X292317Y58516D01*
X292327Y58492D01*
X292343Y58471D01*
X292378Y58400D01*
X292851Y57783D01*
X292911Y57731D01*
X292927Y57711D01*
X292948Y57695D01*
X293000Y57635D01*
X293617Y57162D01*
X293688Y57127D01*
X293708Y57111D01*
X293732Y57101D01*
X293798Y57057D01*
X294516Y56760D01*
X294594Y56744D01*
X294618Y56734D01*
X294644Y56731D01*
X294719Y56705D01*
X295490Y56604D01*
X295568Y56609D01*
X295594Y56606D01*
X295620Y56609D01*
X295699Y56604D01*
X296470Y56705D01*
X296545Y56731D01*
X296571Y56734D01*
X296595Y56744D01*
X296672Y56760D01*
X297391Y57057D01*
X297457Y57101D01*
X297481Y57111D01*
X297501Y57127D01*
X297572Y57162D01*
X298189Y57635D01*
X298241Y57695D01*
X298262Y57711D01*
X298278Y57731D01*
X298337Y57783D01*
X298811Y58400D01*
X298846Y58471D01*
X298861Y58492D01*
X298871Y58516D01*
X298915Y58582D01*
X299213Y59300D01*
X299228Y59378D01*
X299238Y59402D01*
X299242Y59428D01*
X299267Y59503D01*
X299369Y60273D01*
X299365Y60326D01*
X299375Y60378D01*
X299365Y60430D01*
X299369Y60483D01*
X299267Y61254D01*
X299242Y61329D01*
X299238Y61354D01*
X299228Y61379D01*
X299213Y61456D01*
X298915Y62174D01*
X298871Y62240D01*
X298861Y62264D01*
X298846Y62285D01*
X298811Y62356D01*
X298337Y62973D01*
X298278Y63025D01*
X298262Y63046D01*
X298241Y63061D01*
X298189Y63121D01*
X297572Y63594D01*
X297501Y63629D01*
X297481Y63645D01*
X297457Y63655D01*
X297391Y63699D01*
X296672Y63997D01*
X296595Y64012D01*
X296571Y64022D01*
X296545Y64025D01*
X296470Y64051D01*
X295699Y64152D01*
D02*
G37*
G36*
X206693Y122850D02*
X202756D01*
X202449Y122789D01*
X202188Y122615D01*
X202014Y122354D01*
X201953Y122047D01*
Y109449D01*
X202014Y109142D01*
X202188Y108881D01*
X202449Y108707D01*
X202756Y108646D01*
X203520D01*
Y96078D01*
X202756D01*
X202449Y96017D01*
X202188Y95843D01*
X202014Y95583D01*
X201953Y95275D01*
Y82677D01*
X202014Y82370D01*
X202188Y82109D01*
X202449Y81935D01*
X202756Y81874D01*
X206693D01*
X207000Y81935D01*
X207260Y82109D01*
X207642Y82147D01*
X208316Y81473D01*
X208265Y81219D01*
X208418Y80451D01*
X208853Y79800D01*
X209505Y79365D01*
X210273Y79212D01*
X211041Y79365D01*
X211692Y79800D01*
X211835Y80015D01*
X227274D01*
X254803Y52485D01*
X254612Y52023D01*
X215735D01*
X215592Y52238D01*
X214941Y52673D01*
X214173Y52826D01*
X213404Y52673D01*
X212753Y52238D01*
X212318Y51587D01*
X212165Y50819D01*
X212318Y50051D01*
X212753Y49400D01*
X213404Y48965D01*
X214173Y48812D01*
X214941Y48965D01*
X215592Y49400D01*
X215735Y49615D01*
X255574D01*
X259200Y45989D01*
X259168Y45794D01*
X258626Y45579D01*
X258585Y45611D01*
X257579Y46027D01*
X256500Y46170D01*
X255421Y46027D01*
X254415Y45611D01*
X253552Y44948D01*
X252889Y44085D01*
X252472Y43079D01*
X252330Y42000D01*
X252472Y40921D01*
X252889Y39915D01*
X253552Y39052D01*
X254005Y38704D01*
X253835Y38204D01*
X249628D01*
X249468Y38678D01*
X249758Y38900D01*
X250454Y39808D01*
X250892Y40865D01*
X250912Y41016D01*
X246657D01*
X242403D01*
X242423Y40865D01*
X242861Y39808D01*
X243558Y38900D01*
X244144Y38450D01*
X244148Y37860D01*
X244129Y37832D01*
X243447Y37150D01*
X242986Y37397D01*
X243007Y37500D01*
X242854Y38268D01*
X242419Y38919D01*
X241768Y39354D01*
X241000Y39507D01*
X240232Y39354D01*
X239581Y38919D01*
X239146Y38268D01*
X238993Y37500D01*
X239146Y36732D01*
X239581Y36081D01*
X239490Y35540D01*
X231374Y27423D01*
X188035D01*
X187892Y27638D01*
X187241Y28073D01*
X186472Y28226D01*
X185705Y28073D01*
X185053Y27638D01*
X184618Y26987D01*
X184466Y26219D01*
X184618Y25451D01*
X185053Y24800D01*
X185705Y24365D01*
X186472Y24212D01*
X187241Y24365D01*
X187892Y24800D01*
X188035Y25015D01*
X231873D01*
X231873Y25015D01*
X232333Y25106D01*
X232724Y25368D01*
X239206Y31850D01*
X239668Y31659D01*
Y9519D01*
X239668Y9519D01*
X239760Y9058D01*
X240021Y8668D01*
X241721Y6968D01*
X241721Y6967D01*
X242112Y6707D01*
X242572Y6615D01*
X253472D01*
X253472Y6615D01*
X253933Y6707D01*
X254324Y6967D01*
X255207Y7851D01*
X259846D01*
X260154Y7912D01*
X260414Y8086D01*
X260588Y8346D01*
X260649Y8654D01*
Y15347D01*
X260588Y15654D01*
X260414Y15914D01*
X260154Y16088D01*
X259846Y16149D01*
X253153D01*
X252846Y16088D01*
X252586Y15914D01*
X252412Y15654D01*
X252351Y15347D01*
Y9023D01*
X250214D01*
X249968Y9523D01*
X250268Y9915D01*
X250685Y10921D01*
X250827Y12000D01*
X250685Y13079D01*
X250268Y14085D01*
X249606Y14948D01*
X248742Y15611D01*
X247737Y16027D01*
X246657Y16170D01*
X245578Y16027D01*
X244573Y15611D01*
X243709Y14948D01*
X243047Y14085D01*
X242630Y13079D01*
X242577Y12674D01*
X242077Y12707D01*
Y21293D01*
X242577Y21326D01*
X242630Y20921D01*
X243047Y19915D01*
X243709Y19052D01*
X244573Y18389D01*
X245578Y17973D01*
X246657Y17831D01*
X247737Y17973D01*
X248742Y18389D01*
X249606Y19052D01*
X250268Y19915D01*
X250685Y20921D01*
X250827Y22000D01*
X250685Y23079D01*
X250268Y24085D01*
X249606Y24948D01*
X248742Y25611D01*
X247737Y26028D01*
X246657Y26170D01*
X245578Y26028D01*
X244573Y25611D01*
X243709Y24948D01*
X243047Y24085D01*
X242630Y23079D01*
X242577Y22674D01*
X242077Y22707D01*
Y31293D01*
X242577Y31326D01*
X242630Y30921D01*
X243047Y29915D01*
X243709Y29052D01*
X244573Y28389D01*
X245578Y27973D01*
X246657Y27831D01*
X247737Y27973D01*
X248617Y28337D01*
X250787Y26168D01*
X250787Y26168D01*
X251178Y25907D01*
X251639Y25815D01*
X251639Y25815D01*
X253859D01*
X254029Y25315D01*
X253552Y24948D01*
X252889Y24085D01*
X252472Y23079D01*
X252330Y22000D01*
X252472Y20921D01*
X252889Y19915D01*
X253552Y19052D01*
X254415Y18389D01*
X255421Y17973D01*
X256500Y17831D01*
X257579Y17973D01*
X258585Y18389D01*
X259448Y19052D01*
X260111Y19915D01*
X260527Y20921D01*
X260669Y22000D01*
X260527Y23079D01*
X260111Y24085D01*
X259448Y24948D01*
X258971Y25315D01*
X259140Y25815D01*
X276984D01*
X276984Y25815D01*
X277445Y25907D01*
X277836Y26168D01*
X279383Y27715D01*
X299346D01*
X299516Y27215D01*
X299004Y26822D01*
X298342Y25959D01*
X297925Y24953D01*
X297783Y23874D01*
X297925Y22795D01*
X298342Y21789D01*
X299004Y20926D01*
X299868Y20263D01*
X300874Y19847D01*
X301953Y19705D01*
X303032Y19847D01*
X304037Y20263D01*
X304901Y20926D01*
X305564Y21789D01*
X305980Y22795D01*
X305980Y22796D01*
X307232D01*
X307602Y22296D01*
X307587Y22220D01*
Y19858D01*
X311953D01*
X316319D01*
Y21820D01*
X316493Y21958D01*
X316819Y22128D01*
X317500Y21993D01*
X318268Y22146D01*
X318919Y22581D01*
X319354Y23232D01*
X319362Y23272D01*
X319866Y23242D01*
X320019Y21305D01*
X320561Y19046D01*
X321450Y16899D01*
X322665Y14917D01*
X324174Y13150D01*
X325941Y11641D01*
X327922Y10427D01*
X330069Y9538D01*
X332329Y8995D01*
X334646Y8813D01*
X336962Y8995D01*
X339222Y9538D01*
X341369Y10427D01*
X343350Y11641D01*
X345117Y13150D01*
X346627Y14917D01*
X347841Y16899D01*
X348730Y19046D01*
X349273Y21305D01*
X349455Y23622D01*
X349273Y25939D01*
X348730Y28198D01*
X347841Y30345D01*
X346627Y32327D01*
X345117Y34094D01*
X343350Y35603D01*
X341536Y36715D01*
X341677Y37215D01*
X358720D01*
X362479Y33456D01*
X362114Y32575D01*
X361972Y31496D01*
X362114Y30417D01*
X362531Y29411D01*
X363193Y28548D01*
X364057Y27885D01*
X365063Y27469D01*
X366142Y27327D01*
X367221Y27469D01*
X368227Y27885D01*
X369090Y28548D01*
X369753Y29411D01*
X369796Y29515D01*
X370296Y29416D01*
Y27511D01*
X368101Y25316D01*
X367221Y25681D01*
X366142Y25823D01*
X365063Y25681D01*
X364057Y25264D01*
X363193Y24602D01*
X362531Y23738D01*
X362114Y22733D01*
X361972Y21654D01*
X362114Y20574D01*
X362531Y19569D01*
X363193Y18705D01*
X364057Y18043D01*
X365063Y17626D01*
X366142Y17484D01*
X367221Y17626D01*
X368227Y18043D01*
X369090Y18705D01*
X369753Y19569D01*
X370169Y20574D01*
X370311Y21654D01*
X370169Y22733D01*
X369805Y23613D01*
X372352Y26160D01*
X372352Y26160D01*
X372613Y26551D01*
X372704Y27012D01*
Y34692D01*
X372704Y34692D01*
X372613Y35153D01*
X372352Y35543D01*
X372352Y35543D01*
X370543Y37352D01*
X370152Y37613D01*
X369692Y37704D01*
X369692Y37704D01*
X369323D01*
X369162Y38178D01*
X369242Y38239D01*
X369938Y39147D01*
X370376Y40204D01*
X370396Y40354D01*
X366142D01*
Y41339D01*
X365158D01*
Y45593D01*
X365007Y45573D01*
X363950Y45135D01*
X363042Y44439D01*
X362345Y43531D01*
X361907Y42473D01*
X361797Y41635D01*
X361269Y41455D01*
X360753Y41971D01*
X360363Y42232D01*
X359902Y42323D01*
X359902Y42323D01*
X302119D01*
X301658Y42232D01*
X301268Y41971D01*
X301268Y41971D01*
X300233Y40936D01*
X299759Y41169D01*
X299821Y41643D01*
X299818Y41696D01*
X299828Y41748D01*
X299818Y41800D01*
X299821Y41853D01*
X299720Y42624D01*
X299694Y42699D01*
X299691Y42724D01*
X299681Y42748D01*
X299666Y42826D01*
X299368Y43544D01*
X299324Y43610D01*
X299314Y43634D01*
X299298Y43655D01*
X299263Y43726D01*
X298790Y44343D01*
X298730Y44395D01*
X298715Y44416D01*
X298694Y44431D01*
X298642Y44491D01*
X298025Y44964D01*
X297954Y44999D01*
X297933Y45015D01*
X297909Y45025D01*
X297844Y45069D01*
X297125Y45367D01*
X297048Y45382D01*
X297024Y45392D01*
X296998Y45395D01*
X296923Y45421D01*
X296152Y45522D01*
X296073Y45517D01*
X296047Y45520D01*
X296021Y45517D01*
X295942Y45522D01*
X295171Y45421D01*
X295097Y45395D01*
X295071Y45392D01*
X295047Y45382D01*
X294969Y45367D01*
X294251Y45069D01*
X294185Y45025D01*
X294161Y45015D01*
X294140Y44999D01*
X294069Y44964D01*
X293453Y44491D01*
X293400Y44431D01*
X293380Y44416D01*
X293364Y44395D01*
X293304Y44343D01*
X292831Y43726D01*
X292796Y43655D01*
X292780Y43634D01*
X292770Y43610D01*
X292726Y43544D01*
X292429Y42826D01*
X292413Y42748D01*
X292403Y42724D01*
X292400Y42699D01*
X292374Y42624D01*
X292273Y41853D01*
X292276Y41800D01*
X292266Y41748D01*
X292276Y41696D01*
X292273Y41643D01*
X292374Y40872D01*
X292400Y40798D01*
X292403Y40772D01*
X292413Y40748D01*
X292429Y40670D01*
X292726Y39952D01*
X292770Y39886D01*
X292780Y39862D01*
X292796Y39841D01*
X292831Y39770D01*
X293304Y39153D01*
X293364Y39101D01*
X293380Y39081D01*
X293400Y39065D01*
X293453Y39005D01*
X294069Y38532D01*
X294140Y38497D01*
X294161Y38481D01*
X294185Y38471D01*
X294251Y38427D01*
X294969Y38130D01*
X295047Y38114D01*
X295071Y38104D01*
X295097Y38101D01*
X295171Y38075D01*
X295942Y37974D01*
X296021Y37979D01*
X296047Y37976D01*
X296073Y37979D01*
X296152Y37974D01*
X296626Y38036D01*
X296860Y37563D01*
X292501Y33204D01*
X260476D01*
X260111Y34085D01*
X259448Y34948D01*
X258996Y35296D01*
X259165Y35796D01*
X270000D01*
X270000Y35796D01*
X270461Y35887D01*
X270851Y36149D01*
X274663Y39960D01*
X274824Y40067D01*
X281052Y46296D01*
X310953D01*
X310953Y46296D01*
X311414Y46387D01*
X311805Y46648D01*
X328719Y63563D01*
X328973Y63512D01*
X329741Y63665D01*
X330392Y64100D01*
X330827Y64751D01*
X330980Y65519D01*
X330827Y66287D01*
X330392Y66938D01*
X329741Y67373D01*
X328973Y67526D01*
X328204Y67373D01*
X327553Y66938D01*
X327118Y66287D01*
X326965Y65519D01*
X327016Y65266D01*
X310455Y48704D01*
X280554D01*
X280554Y48704D01*
X280093Y48613D01*
X279702Y48351D01*
X279702Y48351D01*
X273474Y42123D01*
X263071D01*
X262009Y43185D01*
X262045Y43417D01*
X262162Y43498D01*
X262581Y43614D01*
X263105Y43265D01*
X263873Y43112D01*
X264641Y43265D01*
X265292Y43700D01*
X265727Y44351D01*
X265880Y45119D01*
X265727Y45887D01*
X265292Y46538D01*
X264641Y46973D01*
X263873Y47126D01*
X263619Y47076D01*
X228624Y82071D01*
X228233Y82332D01*
X227772Y82423D01*
X227772Y82423D01*
X211835D01*
X211692Y82638D01*
X211041Y83073D01*
X210273Y83226D01*
X210019Y83176D01*
X207496Y85699D01*
Y95275D01*
X207435Y95583D01*
X207260Y95843D01*
X207000Y96017D01*
X206693Y96078D01*
X205929D01*
Y108646D01*
X206693D01*
X207000Y108707D01*
X207260Y108881D01*
X207435Y109142D01*
X207496Y109449D01*
Y122047D01*
X207435Y122354D01*
X207260Y122615D01*
X207000Y122789D01*
X206693Y122850D01*
D02*
G37*
G36*
X310516Y68016D02*
X307134D01*
Y65654D01*
X307211Y65263D01*
X307433Y64933D01*
X307763Y64712D01*
X308154Y64634D01*
X310516D01*
Y68016D01*
D02*
G37*
G36*
X187992Y71886D02*
X187008D01*
X186618Y71808D01*
X186287Y71587D01*
X186066Y71256D01*
X185988Y70866D01*
Y65551D01*
X187992D01*
Y71886D01*
D02*
G37*
G36*
X315866Y68016D02*
X312484D01*
Y64634D01*
X314846D01*
X315237Y64712D01*
X315567Y64933D01*
X315788Y65263D01*
X315866Y65654D01*
Y68016D01*
D02*
G37*
G36*
X168307Y86378D02*
X164335D01*
Y83425D01*
X164412Y83035D01*
X164633Y82704D01*
X164964Y82483D01*
X165354Y82406D01*
X168307D01*
Y86378D01*
D02*
G37*
G36*
X190016Y104305D02*
X189503Y104093D01*
X188883Y103617D01*
X188407Y102997D01*
X188195Y102484D01*
X190016D01*
Y104305D01*
D02*
G37*
G36*
X191984D02*
Y102484D01*
X193805D01*
X193593Y102997D01*
X193117Y103617D01*
X192497Y104093D01*
X191984Y104305D01*
D02*
G37*
G36*
X337357Y104335D02*
Y103353D01*
X338338D01*
X337945Y103942D01*
X337357Y104335D01*
D02*
G37*
G36*
X335388D02*
X334800Y103942D01*
X334407Y103353D01*
X335388D01*
Y104335D01*
D02*
G37*
G36*
X193805Y100516D02*
X191984D01*
Y98695D01*
X192497Y98907D01*
X193117Y99383D01*
X193593Y100003D01*
X193805Y100516D01*
D02*
G37*
G36*
X190016D02*
X188195D01*
X188407Y100003D01*
X188883Y99383D01*
X189503Y98907D01*
X190016Y98695D01*
Y100516D01*
D02*
G37*
G36*
X335388Y101385D02*
X334407D01*
X334800Y100797D01*
X335388Y100403D01*
Y101385D01*
D02*
G37*
G36*
X338338D02*
X337357D01*
Y100403D01*
X337945Y100797D01*
X338338Y101385D01*
D02*
G37*
G36*
X142805Y119016D02*
X140984D01*
Y117195D01*
X141497Y117407D01*
X142117Y117883D01*
X142593Y118503D01*
X142805Y119016D01*
D02*
G37*
G36*
X139016D02*
X137195D01*
X137407Y118503D01*
X137883Y117883D01*
X138503Y117407D01*
X139016Y117195D01*
Y119016D01*
D02*
G37*
G36*
Y122805D02*
X138503Y122593D01*
X137883Y122117D01*
X137407Y121497D01*
X137195Y120984D01*
X139016D01*
Y122805D01*
D02*
G37*
G36*
X289016Y134016D02*
X287195D01*
X287407Y133503D01*
X287883Y132883D01*
X288503Y132407D01*
X289016Y132195D01*
Y134016D01*
D02*
G37*
G36*
X140984Y122805D02*
Y120984D01*
X142805D01*
X142593Y121497D01*
X142117Y122117D01*
X141497Y122593D01*
X140984Y122805D01*
D02*
G37*
G36*
X187992Y114764D02*
X185988D01*
Y109449D01*
X186066Y109059D01*
X186287Y108728D01*
X186618Y108507D01*
X187008Y108429D01*
X187992D01*
Y114764D01*
D02*
G37*
G36*
X191964D02*
X189961D01*
Y108429D01*
X190945D01*
X191335Y108507D01*
X191666Y108728D01*
X191887Y109059D01*
X191964Y109449D01*
Y114764D01*
D02*
G37*
G36*
X190945Y123067D02*
X189961D01*
Y116732D01*
X191964D01*
Y122047D01*
X191887Y122438D01*
X191666Y122768D01*
X191335Y122989D01*
X190945Y123067D01*
D02*
G37*
G36*
X187992D02*
X187008D01*
X186618Y122989D01*
X186287Y122768D01*
X186066Y122438D01*
X185988Y122047D01*
Y116732D01*
X187992D01*
Y123067D01*
D02*
G37*
G36*
X269457Y97985D02*
Y97003D01*
X270438D01*
X270045Y97592D01*
X269457Y97985D01*
D02*
G37*
G36*
X219016Y89016D02*
X217195D01*
X217407Y88503D01*
X217883Y87883D01*
X218503Y87407D01*
X219016Y87195D01*
Y89016D01*
D02*
G37*
G36*
X326038Y86735D02*
X325057D01*
Y85754D01*
X325645Y86147D01*
X326038Y86735D01*
D02*
G37*
G36*
X222805Y89016D02*
X220984D01*
Y87195D01*
X221497Y87407D01*
X222117Y87883D01*
X222593Y88503D01*
X222805Y89016D01*
D02*
G37*
G36*
X325057Y89685D02*
Y88703D01*
X326038D01*
X325645Y89292D01*
X325057Y89685D01*
D02*
G37*
G36*
X323088D02*
X322500Y89292D01*
X322107Y88703D01*
X323088D01*
Y89685D01*
D02*
G37*
G36*
X96245Y84333D02*
X95477Y84180D01*
X94825Y83745D01*
X94682Y83530D01*
X85580D01*
X85580Y83530D01*
X85119Y83439D01*
X84728Y83178D01*
X84728Y83178D01*
X83826Y82276D01*
X83573Y82326D01*
X82805Y82173D01*
X82153Y81738D01*
X81718Y81087D01*
X81565Y80319D01*
X81718Y79551D01*
X82153Y78900D01*
X82805Y78465D01*
X83573Y78312D01*
X84341Y78465D01*
X84992Y78900D01*
X85427Y79551D01*
X85580Y80319D01*
X85529Y80573D01*
X86078Y81122D01*
X94682D01*
X94825Y80907D01*
X95477Y80472D01*
X96245Y80319D01*
X97013Y80472D01*
X97664Y80907D01*
X98099Y81558D01*
X98252Y82326D01*
X98099Y83094D01*
X97664Y83745D01*
X97013Y84180D01*
X96245Y84333D01*
D02*
G37*
G36*
X174248Y86378D02*
X170276D01*
Y82406D01*
X173228D01*
X173618Y82483D01*
X173949Y82704D01*
X174170Y83035D01*
X174248Y83425D01*
Y86378D01*
D02*
G37*
G36*
X180016Y87016D02*
X178195D01*
X178407Y86503D01*
X178883Y85883D01*
X179503Y85407D01*
X180016Y85195D01*
Y87016D01*
D02*
G37*
G36*
X323088Y86735D02*
X322107D01*
X322500Y86147D01*
X323088Y85754D01*
Y86735D01*
D02*
G37*
G36*
X183805Y87016D02*
X181984D01*
Y85195D01*
X182497Y85407D01*
X183117Y85883D01*
X183593Y86503D01*
X183805Y87016D01*
D02*
G37*
G36*
X180016Y90805D02*
X179503Y90593D01*
X178883Y90117D01*
X178407Y89497D01*
X178195Y88984D01*
X180016D01*
Y90805D01*
D02*
G37*
G36*
X267488Y95035D02*
X266507D01*
X266900Y94447D01*
X267488Y94054D01*
Y95035D01*
D02*
G37*
G36*
X220984Y92805D02*
Y90984D01*
X222805D01*
X222593Y91497D01*
X222117Y92117D01*
X221497Y92593D01*
X220984Y92805D01*
D02*
G37*
G36*
X270438Y95035D02*
X269457D01*
Y94054D01*
X270045Y94447D01*
X270438Y95035D01*
D02*
G37*
G36*
X267488Y97985D02*
X266900Y97592D01*
X266507Y97003D01*
X267488D01*
Y97985D01*
D02*
G37*
G36*
X295699Y95648D02*
X295620Y95643D01*
X295594Y95647D01*
X295568Y95643D01*
X295490Y95648D01*
X294719Y95547D01*
X294644Y95521D01*
X294618Y95518D01*
X294594Y95508D01*
X294516Y95493D01*
X293798Y95195D01*
X293732Y95151D01*
X293708Y95141D01*
X293688Y95125D01*
X293617Y95090D01*
X293000Y94617D01*
X292948Y94557D01*
X292927Y94542D01*
X292911Y94521D01*
X292851Y94469D01*
X292378Y93852D01*
X292343Y93781D01*
X292327Y93760D01*
X292317Y93736D01*
X292273Y93670D01*
X291976Y92952D01*
X291960Y92874D01*
X291950Y92851D01*
X291947Y92825D01*
X291922Y92750D01*
X291820Y91979D01*
X291824Y91926D01*
X291813Y91874D01*
X291824Y91822D01*
X291820Y91769D01*
X291922Y90999D01*
X291947Y90924D01*
X291950Y90898D01*
X291960Y90874D01*
X291976Y90796D01*
X292273Y90078D01*
X292317Y90012D01*
X292327Y89988D01*
X292343Y89967D01*
X292378Y89896D01*
X292851Y89279D01*
X292911Y89227D01*
X292927Y89207D01*
X292948Y89191D01*
X293000Y89131D01*
X293617Y88658D01*
X293688Y88623D01*
X293708Y88607D01*
X293732Y88597D01*
X293798Y88553D01*
X294516Y88256D01*
X294594Y88240D01*
X294618Y88230D01*
X294644Y88227D01*
X294719Y88201D01*
X295490Y88100D01*
X295568Y88105D01*
X295594Y88102D01*
X295620Y88105D01*
X295699Y88100D01*
X296470Y88201D01*
X296545Y88227D01*
X296571Y88230D01*
X296595Y88240D01*
X296672Y88256D01*
X297391Y88553D01*
X297457Y88597D01*
X297481Y88607D01*
X297501Y88623D01*
X297572Y88658D01*
X298189Y89131D01*
X298241Y89191D01*
X298262Y89207D01*
X298278Y89227D01*
X298337Y89279D01*
X298811Y89896D01*
X298846Y89967D01*
X298861Y89988D01*
X298871Y90012D01*
X298915Y90078D01*
X299213Y90796D01*
X299228Y90874D01*
X299238Y90898D01*
X299242Y90924D01*
X299267Y90999D01*
X299369Y91769D01*
X299365Y91822D01*
X299375Y91874D01*
X299365Y91926D01*
X299369Y91979D01*
X299267Y92750D01*
X299242Y92825D01*
X299238Y92851D01*
X299228Y92874D01*
X299213Y92952D01*
X298915Y93670D01*
X298871Y93736D01*
X298861Y93760D01*
X298846Y93781D01*
X298811Y93852D01*
X298337Y94469D01*
X298278Y94521D01*
X298262Y94542D01*
X298241Y94557D01*
X298189Y94617D01*
X297572Y95090D01*
X297501Y95125D01*
X297481Y95141D01*
X297457Y95151D01*
X297391Y95195D01*
X296672Y95493D01*
X296595Y95508D01*
X296571Y95518D01*
X296545Y95521D01*
X296470Y95547D01*
X295699Y95648D01*
D02*
G37*
G36*
X187992Y96295D02*
X187008D01*
X186618Y96218D01*
X186287Y95996D01*
X186066Y95666D01*
X185988Y95275D01*
Y89960D01*
X187992D01*
Y96295D01*
D02*
G37*
G36*
X181984Y90805D02*
Y88984D01*
X183805D01*
X183593Y89497D01*
X183117Y90117D01*
X182497Y90593D01*
X181984Y90805D01*
D02*
G37*
G36*
X190945Y96295D02*
X189961D01*
Y89960D01*
X191964D01*
Y95275D01*
X191887Y95666D01*
X191666Y95996D01*
X191335Y96218D01*
X190945Y96295D01*
D02*
G37*
G36*
X219016Y92805D02*
X218503Y92593D01*
X217883Y92117D01*
X217407Y91497D01*
X217195Y90984D01*
X219016D01*
Y92805D01*
D02*
G37*
G36*
X328000Y102507D02*
X327232Y102354D01*
X326581Y101919D01*
X326146Y101268D01*
X325993Y100500D01*
X326146Y99732D01*
X326581Y99081D01*
X327020Y98787D01*
X327149Y98595D01*
X330796Y94948D01*
Y94063D01*
X330581Y93919D01*
X330146Y93268D01*
X329993Y92500D01*
X330146Y91732D01*
X330581Y91081D01*
X331232Y90646D01*
X332000Y90493D01*
X332768Y90646D01*
X333419Y91081D01*
X333854Y91732D01*
X334007Y92500D01*
X333854Y93268D01*
X333419Y93919D01*
X333204Y94063D01*
Y95446D01*
X333113Y95907D01*
X332852Y96298D01*
X332852Y96298D01*
X329679Y99470D01*
X329854Y99732D01*
X330007Y100500D01*
X329854Y101268D01*
X329419Y101919D01*
X328768Y102354D01*
X328000Y102507D01*
D02*
G37*
G36*
X209016Y9016D02*
X207195D01*
X207407Y8503D01*
X207883Y7883D01*
X208503Y7407D01*
X209016Y7195D01*
Y9016D01*
D02*
G37*
G36*
X202805D02*
X200984D01*
Y7195D01*
X201497Y7407D01*
X202117Y7883D01*
X202593Y8503D01*
X202805Y9016D01*
D02*
G37*
G36*
X212805D02*
X210984D01*
Y7195D01*
X211497Y7407D01*
X212117Y7883D01*
X212593Y8503D01*
X212805Y9016D01*
D02*
G37*
G36*
X79016Y12805D02*
X78503Y12593D01*
X77883Y12117D01*
X77407Y11497D01*
X77195Y10984D01*
X79016D01*
Y12805D01*
D02*
G37*
G36*
X59055Y38432D02*
X56738Y38249D01*
X54479Y37707D01*
X52332Y36817D01*
X50350Y35603D01*
X48583Y34094D01*
X47074Y32327D01*
X45860Y30345D01*
X44971Y28198D01*
X44428Y25939D01*
X44246Y23622D01*
X44428Y21305D01*
X44971Y19046D01*
X45860Y16899D01*
X47074Y14917D01*
X48583Y13150D01*
X50350Y11641D01*
X52332Y10427D01*
X54479Y9538D01*
X56738Y8995D01*
X59055Y8813D01*
X61372Y8995D01*
X63631Y9538D01*
X65778Y10427D01*
X67760Y11641D01*
X69527Y13150D01*
X71036Y14917D01*
X72250Y16899D01*
X73140Y19046D01*
X73682Y21305D01*
X73865Y23622D01*
X73682Y25939D01*
X73140Y28198D01*
X72250Y30345D01*
X71036Y32327D01*
X69527Y34094D01*
X67760Y35603D01*
X65778Y36817D01*
X63631Y37707D01*
X61372Y38249D01*
X59055Y38432D01*
D02*
G37*
G36*
X182805Y9016D02*
X180984D01*
Y7195D01*
X181497Y7407D01*
X182117Y7883D01*
X182593Y8503D01*
X182805Y9016D01*
D02*
G37*
G36*
X179016D02*
X177195D01*
X177407Y8503D01*
X177883Y7883D01*
X178503Y7407D01*
X179016Y7195D01*
Y9016D01*
D02*
G37*
G36*
X189016D02*
X187195D01*
X187407Y8503D01*
X187883Y7883D01*
X188503Y7407D01*
X189016Y7195D01*
Y9016D01*
D02*
G37*
G36*
X199016D02*
X197195D01*
X197407Y8503D01*
X197883Y7883D01*
X198503Y7407D01*
X199016Y7195D01*
Y9016D01*
D02*
G37*
G36*
X192805D02*
X190984D01*
Y7195D01*
X191497Y7407D01*
X192117Y7883D01*
X192593Y8503D01*
X192805Y9016D01*
D02*
G37*
G36*
X80984Y12805D02*
Y10984D01*
X82805D01*
X82593Y11497D01*
X82117Y12117D01*
X81497Y12593D01*
X80984Y12805D01*
D02*
G37*
G36*
X119016D02*
X118503Y12593D01*
X117883Y12117D01*
X117407Y11497D01*
X117195Y10984D01*
X119016D01*
Y12805D01*
D02*
G37*
G36*
X110984D02*
Y10984D01*
X112805D01*
X112593Y11497D01*
X112117Y12117D01*
X111497Y12593D01*
X110984Y12805D01*
D02*
G37*
G36*
X120984D02*
Y10984D01*
X122805D01*
X122593Y11497D01*
X122117Y12117D01*
X121497Y12593D01*
X120984Y12805D01*
D02*
G37*
G36*
X130984D02*
Y10984D01*
X132805D01*
X132593Y11497D01*
X132117Y12117D01*
X131497Y12593D01*
X130984Y12805D01*
D02*
G37*
G36*
X129016D02*
X128503Y12593D01*
X127883Y12117D01*
X127407Y11497D01*
X127195Y10984D01*
X129016D01*
Y12805D01*
D02*
G37*
G36*
X90984D02*
Y10984D01*
X92805D01*
X92593Y11497D01*
X92117Y12117D01*
X91497Y12593D01*
X90984Y12805D01*
D02*
G37*
G36*
X89016D02*
X88503Y12593D01*
X87883Y12117D01*
X87407Y11497D01*
X87195Y10984D01*
X89016D01*
Y12805D01*
D02*
G37*
G36*
X99016D02*
X98503Y12593D01*
X97883Y12117D01*
X97407Y11497D01*
X97195Y10984D01*
X99016D01*
Y12805D01*
D02*
G37*
G36*
X109016D02*
X108503Y12593D01*
X107883Y12117D01*
X107407Y11497D01*
X107195Y10984D01*
X109016D01*
Y12805D01*
D02*
G37*
G36*
X100984D02*
Y10984D01*
X102805D01*
X102593Y11497D01*
X102117Y12117D01*
X101497Y12593D01*
X100984Y12805D01*
D02*
G37*
G36*
X172805Y9016D02*
X170984D01*
Y7195D01*
X171497Y7407D01*
X172117Y7883D01*
X172593Y8503D01*
X172805Y9016D01*
D02*
G37*
G36*
X99016D02*
X97195D01*
X97407Y8503D01*
X97883Y7883D01*
X98503Y7407D01*
X99016Y7195D01*
Y9016D01*
D02*
G37*
G36*
X92805D02*
X90984D01*
Y7195D01*
X91497Y7407D01*
X92117Y7883D01*
X92593Y8503D01*
X92805Y9016D01*
D02*
G37*
G36*
X102805D02*
X100984D01*
Y7195D01*
X101497Y7407D01*
X102117Y7883D01*
X102593Y8503D01*
X102805Y9016D01*
D02*
G37*
G36*
X112805D02*
X110984D01*
Y7195D01*
X111497Y7407D01*
X112117Y7883D01*
X112593Y8503D01*
X112805Y9016D01*
D02*
G37*
G36*
X109016D02*
X107195D01*
X107407Y8503D01*
X107883Y7883D01*
X108503Y7407D01*
X109016Y7195D01*
Y9016D01*
D02*
G37*
G36*
X79016D02*
X77195D01*
X77407Y8503D01*
X77883Y7883D01*
X78503Y7407D01*
X79016Y7195D01*
Y9016D01*
D02*
G37*
G36*
X89016D02*
X87195D01*
X87407Y8503D01*
X87883Y7883D01*
X88503Y7407D01*
X89016Y7195D01*
Y9016D01*
D02*
G37*
G36*
X82805D02*
X80984D01*
Y7195D01*
X81497Y7407D01*
X82117Y7883D01*
X82593Y8503D01*
X82805Y9016D01*
D02*
G37*
G36*
X119016D02*
X117195D01*
X117407Y8503D01*
X117883Y7883D01*
X118503Y7407D01*
X119016Y7195D01*
Y9016D01*
D02*
G37*
G36*
X152805D02*
X150984D01*
Y7195D01*
X151497Y7407D01*
X152117Y7883D01*
X152593Y8503D01*
X152805Y9016D01*
D02*
G37*
G36*
X149016D02*
X147195D01*
X147407Y8503D01*
X147883Y7883D01*
X148503Y7407D01*
X149016Y7195D01*
Y9016D01*
D02*
G37*
G36*
X159016D02*
X157195D01*
X157407Y8503D01*
X157883Y7883D01*
X158503Y7407D01*
X159016Y7195D01*
Y9016D01*
D02*
G37*
G36*
X169016D02*
X167195D01*
X167407Y8503D01*
X167883Y7883D01*
X168503Y7407D01*
X169016Y7195D01*
Y9016D01*
D02*
G37*
G36*
X162805D02*
X160984D01*
Y7195D01*
X161497Y7407D01*
X162117Y7883D01*
X162593Y8503D01*
X162805Y9016D01*
D02*
G37*
G36*
X129016D02*
X127195D01*
X127407Y8503D01*
X127883Y7883D01*
X128503Y7407D01*
X129016Y7195D01*
Y9016D01*
D02*
G37*
G36*
X122805D02*
X120984D01*
Y7195D01*
X121497Y7407D01*
X122117Y7883D01*
X122593Y8503D01*
X122805Y9016D01*
D02*
G37*
G36*
X132805D02*
X130984D01*
Y7195D01*
X131497Y7407D01*
X132117Y7883D01*
X132593Y8503D01*
X132805Y9016D01*
D02*
G37*
G36*
X142805D02*
X140984D01*
Y7195D01*
X141497Y7407D01*
X142117Y7883D01*
X142593Y8503D01*
X142805Y9016D01*
D02*
G37*
G36*
X139016D02*
X137195D01*
X137407Y8503D01*
X137883Y7883D01*
X138503Y7407D01*
X139016Y7195D01*
Y9016D01*
D02*
G37*
G36*
Y12805D02*
X138503Y12593D01*
X137883Y12117D01*
X137407Y11497D01*
X137195Y10984D01*
X139016D01*
Y12805D01*
D02*
G37*
G36*
X222805Y44016D02*
X220984D01*
Y42195D01*
X221497Y42407D01*
X222117Y42883D01*
X222593Y43503D01*
X222805Y44016D01*
D02*
G37*
G36*
X219016D02*
X217195D01*
X217407Y43503D01*
X217883Y42883D01*
X218503Y42407D01*
X219016Y42195D01*
Y44016D01*
D02*
G37*
G36*
X367126Y45593D02*
Y42323D01*
X370396D01*
X370376Y42473D01*
X369938Y43531D01*
X369242Y44439D01*
X368334Y45135D01*
X367276Y45573D01*
X367126Y45593D01*
D02*
G37*
G36*
X247642Y46255D02*
Y42984D01*
X250912D01*
X250892Y43135D01*
X250454Y44192D01*
X249758Y45100D01*
X248850Y45797D01*
X247792Y46235D01*
X247642Y46255D01*
D02*
G37*
G36*
X245673D02*
X245523Y46235D01*
X244466Y45797D01*
X243558Y45100D01*
X242861Y44192D01*
X242423Y43135D01*
X242403Y42984D01*
X245673D01*
Y46255D01*
D02*
G37*
G36*
X195984Y37805D02*
Y35984D01*
X197805D01*
X197593Y36497D01*
X197117Y37117D01*
X196497Y37593D01*
X195984Y37805D01*
D02*
G37*
G36*
X197805Y34016D02*
X195984D01*
Y32195D01*
X196497Y32407D01*
X197117Y32883D01*
X197593Y33503D01*
X197805Y34016D01*
D02*
G37*
G36*
X194016Y37805D02*
X193503Y37593D01*
X192883Y37117D01*
X192464Y36572D01*
X192180Y36605D01*
X191964Y36708D01*
Y36811D01*
X189961D01*
Y30476D01*
X190945D01*
X191335Y30554D01*
X191666Y30775D01*
X191887Y31106D01*
X191964Y31496D01*
Y33292D01*
X192180Y33395D01*
X192464Y33428D01*
X192883Y32883D01*
X193503Y32407D01*
X194016Y32195D01*
Y35000D01*
Y37805D01*
D02*
G37*
G36*
X190945Y45114D02*
X189961D01*
Y38780D01*
X191964D01*
Y44094D01*
X191887Y44485D01*
X191666Y44815D01*
X191335Y45037D01*
X190945Y45114D01*
D02*
G37*
G36*
X187992D02*
X187008D01*
X186618Y45037D01*
X186287Y44815D01*
X186066Y44485D01*
X185988Y44094D01*
Y38780D01*
X187992D01*
Y45114D01*
D02*
G37*
G36*
X219016Y47805D02*
X218503Y47593D01*
X217883Y47117D01*
X217407Y46497D01*
X217195Y45984D01*
X219016D01*
Y47805D01*
D02*
G37*
G36*
X175984Y52805D02*
Y50984D01*
X177805D01*
X177593Y51497D01*
X177117Y52117D01*
X176497Y52593D01*
X175984Y52805D01*
D02*
G37*
G36*
X174016D02*
X173503Y52593D01*
X172883Y52117D01*
X172407Y51497D01*
X172195Y50984D01*
X174016D01*
Y52805D01*
D02*
G37*
G36*
X123516Y52966D02*
X122927Y52573D01*
X122534Y51984D01*
X123516D01*
Y52966D01*
D02*
G37*
G36*
X164016Y59016D02*
X162195D01*
X162407Y58503D01*
X162883Y57883D01*
X163503Y57407D01*
X164016Y57195D01*
Y59016D01*
D02*
G37*
G36*
X125484Y52966D02*
Y51984D01*
X126465D01*
X126072Y52573D01*
X125484Y52966D01*
D02*
G37*
G36*
X174016Y49016D02*
X172195D01*
X172407Y48503D01*
X172883Y47883D01*
X173503Y47407D01*
X174016Y47195D01*
Y49016D01*
D02*
G37*
G36*
X220984Y47805D02*
Y45984D01*
X222805D01*
X222593Y46497D01*
X222117Y47117D01*
X221497Y47593D01*
X220984Y47805D01*
D02*
G37*
G36*
X177805Y49016D02*
X175984D01*
Y47195D01*
X176497Y47407D01*
X177117Y47883D01*
X177593Y48503D01*
X177805Y49016D01*
D02*
G37*
G36*
X126465Y50016D02*
X125484D01*
Y49035D01*
X126072Y49428D01*
X126465Y50016D01*
D02*
G37*
G36*
X123516D02*
X122534D01*
X122927Y49428D01*
X123516Y49035D01*
Y50016D01*
D02*
G37*
G36*
X187992Y36811D02*
X185988D01*
Y31496D01*
X186066Y31106D01*
X186287Y30775D01*
X186618Y30554D01*
X187008Y30476D01*
X187992D01*
Y36811D01*
D02*
G37*
G36*
X170984Y12805D02*
Y10984D01*
X172805D01*
X172593Y11497D01*
X172117Y12117D01*
X171497Y12593D01*
X170984Y12805D01*
D02*
G37*
G36*
X169016D02*
X168503Y12593D01*
X167883Y12117D01*
X167407Y11497D01*
X167195Y10984D01*
X169016D01*
Y12805D01*
D02*
G37*
G36*
X179016D02*
X178503Y12593D01*
X177883Y12117D01*
X177407Y11497D01*
X177195Y10984D01*
X179016D01*
Y12805D01*
D02*
G37*
G36*
X189016D02*
X188503Y12593D01*
X187883Y12117D01*
X187407Y11497D01*
X187195Y10984D01*
X189016D01*
Y12805D01*
D02*
G37*
G36*
X180984D02*
Y10984D01*
X182805D01*
X182593Y11497D01*
X182117Y12117D01*
X181497Y12593D01*
X180984Y12805D01*
D02*
G37*
G36*
X149016D02*
X148503Y12593D01*
X147883Y12117D01*
X147407Y11497D01*
X147195Y10984D01*
X149016D01*
Y12805D01*
D02*
G37*
G36*
X140984D02*
Y10984D01*
X142805D01*
X142593Y11497D01*
X142117Y12117D01*
X141497Y12593D01*
X140984Y12805D01*
D02*
G37*
G36*
X150984D02*
Y10984D01*
X152805D01*
X152593Y11497D01*
X152117Y12117D01*
X151497Y12593D01*
X150984Y12805D01*
D02*
G37*
G36*
X160984D02*
Y10984D01*
X162805D01*
X162593Y11497D01*
X162117Y12117D01*
X161497Y12593D01*
X160984Y12805D01*
D02*
G37*
G36*
X159016D02*
X158503Y12593D01*
X157883Y12117D01*
X157407Y11497D01*
X157195Y10984D01*
X159016D01*
Y12805D01*
D02*
G37*
G36*
X190984D02*
Y10984D01*
X192805D01*
X192593Y11497D01*
X192117Y12117D01*
X191497Y12593D01*
X190984Y12805D01*
D02*
G37*
G36*
X296152Y14026D02*
X296073Y14021D01*
X296047Y14025D01*
X296021Y14021D01*
X295942Y14026D01*
X295171Y13925D01*
X295097Y13899D01*
X295071Y13896D01*
X295047Y13886D01*
X294969Y13871D01*
X294251Y13573D01*
X294185Y13529D01*
X294161Y13519D01*
X294140Y13503D01*
X294069Y13468D01*
X293453Y12995D01*
X293400Y12935D01*
X293380Y12920D01*
X293364Y12899D01*
X293304Y12847D01*
X292831Y12230D01*
X292796Y12159D01*
X292780Y12138D01*
X292770Y12114D01*
X292726Y12048D01*
X292429Y11330D01*
X292413Y11253D01*
X292403Y11228D01*
X292400Y11203D01*
X292374Y11128D01*
X292273Y10357D01*
X292276Y10304D01*
X292266Y10252D01*
X292276Y10200D01*
X292273Y10147D01*
X292374Y9376D01*
X292400Y9302D01*
X292403Y9276D01*
X292413Y9252D01*
X292429Y9174D01*
X292726Y8456D01*
X292770Y8390D01*
X292780Y8366D01*
X292796Y8345D01*
X292831Y8274D01*
X293304Y7657D01*
X293364Y7605D01*
X293380Y7585D01*
X293400Y7569D01*
X293453Y7509D01*
X294069Y7036D01*
X294140Y7001D01*
X294161Y6985D01*
X294185Y6975D01*
X294251Y6931D01*
X294969Y6634D01*
X295047Y6618D01*
X295071Y6608D01*
X295097Y6605D01*
X295171Y6579D01*
X295942Y6478D01*
X296021Y6483D01*
X296047Y6480D01*
X296073Y6483D01*
X296152Y6478D01*
X296923Y6579D01*
X296998Y6605D01*
X297024Y6608D01*
X297048Y6618D01*
X297125Y6634D01*
X297844Y6931D01*
X297909Y6975D01*
X297933Y6985D01*
X297954Y7001D01*
X298025Y7036D01*
X298642Y7509D01*
X298694Y7569D01*
X298715Y7585D01*
X298730Y7605D01*
X298790Y7657D01*
X299263Y8274D01*
X299298Y8345D01*
X299314Y8366D01*
X299324Y8390D01*
X299368Y8456D01*
X299666Y9174D01*
X299681Y9252D01*
X299691Y9276D01*
X299694Y9302D01*
X299720Y9376D01*
X299821Y10147D01*
X299818Y10200D01*
X299828Y10252D01*
X299818Y10304D01*
X299821Y10357D01*
X299720Y11128D01*
X299694Y11203D01*
X299691Y11228D01*
X299681Y11253D01*
X299666Y11330D01*
X299368Y12048D01*
X299324Y12114D01*
X299314Y12138D01*
X299298Y12159D01*
X299263Y12230D01*
X298790Y12847D01*
X298730Y12899D01*
X298715Y12920D01*
X298694Y12935D01*
X298642Y12995D01*
X298025Y13468D01*
X297954Y13503D01*
X297933Y13519D01*
X297909Y13529D01*
X297844Y13573D01*
X297125Y13871D01*
X297048Y13886D01*
X297024Y13896D01*
X296998Y13899D01*
X296923Y13925D01*
X296152Y14026D01*
D02*
G37*
G36*
X310968Y17890D02*
X307587D01*
Y15528D01*
X307664Y15137D01*
X307885Y14807D01*
X308216Y14586D01*
X308606Y14508D01*
X310968D01*
Y17890D01*
D02*
G37*
G36*
X206693Y71669D02*
X202756D01*
X202449Y71608D01*
X202188Y71434D01*
X202014Y71173D01*
X201953Y70866D01*
Y58427D01*
X201661Y58100D01*
X201500Y58007D01*
X200732Y57854D01*
X200081Y57419D01*
X199646Y56768D01*
X199493Y56000D01*
X199646Y55232D01*
X200081Y54581D01*
X200732Y54146D01*
X201500Y53993D01*
X202268Y54146D01*
X202919Y54581D01*
X203020Y54732D01*
X203520Y54727D01*
Y44897D01*
X202756D01*
X202449Y44836D01*
X202188Y44662D01*
X202014Y44402D01*
X201953Y44094D01*
Y31496D01*
X202014Y31189D01*
X202188Y30928D01*
X202449Y30754D01*
X202756Y30693D01*
X206693D01*
X207000Y30754D01*
X207260Y30928D01*
X207435Y31189D01*
X207496Y31496D01*
Y35440D01*
X207958Y35631D01*
X212216Y31373D01*
X212165Y31119D01*
X212318Y30351D01*
X212753Y29700D01*
X213404Y29265D01*
X214173Y29112D01*
X214941Y29265D01*
X215592Y29700D01*
X216027Y30351D01*
X216180Y31119D01*
X216027Y31887D01*
X215592Y32538D01*
X214941Y32973D01*
X214173Y33126D01*
X213919Y33076D01*
X208348Y38647D01*
X207957Y38908D01*
X207496Y39000D01*
X207496Y39471D01*
Y44094D01*
X207435Y44402D01*
X207260Y44662D01*
X207000Y44836D01*
X206693Y44897D01*
X205929D01*
Y56919D01*
X205929Y56919D01*
X205929Y56919D01*
Y57465D01*
X206693D01*
X207000Y57526D01*
X207260Y57700D01*
X207435Y57960D01*
X207496Y58268D01*
Y70866D01*
X207435Y71173D01*
X207260Y71434D01*
X207000Y71608D01*
X206693Y71669D01*
D02*
G37*
G36*
X316319Y17890D02*
X312937D01*
Y14508D01*
X315299D01*
X315689Y14586D01*
X316020Y14807D01*
X316241Y15137D01*
X316319Y15528D01*
Y17890D01*
D02*
G37*
G36*
X200984Y12805D02*
Y10984D01*
X202805D01*
X202593Y11497D01*
X202117Y12117D01*
X201497Y12593D01*
X200984Y12805D01*
D02*
G37*
G36*
X199016D02*
X198503Y12593D01*
X197883Y12117D01*
X197407Y11497D01*
X197195Y10984D01*
X199016D01*
Y12805D01*
D02*
G37*
G36*
X209016D02*
X208503Y12593D01*
X207883Y12117D01*
X207407Y11497D01*
X207195Y10984D01*
X209016D01*
Y12805D01*
D02*
G37*
G36*
X210984D02*
Y10984D01*
X212805D01*
X212593Y11497D01*
X212117Y12117D01*
X211497Y12593D01*
X210984Y12805D01*
D02*
G37*
G36*
X18016Y161485D02*
X17427Y161092D01*
X17034Y160503D01*
X18016D01*
Y161485D01*
D02*
G37*
G36*
X191964Y165945D02*
X189961D01*
Y159610D01*
X190945D01*
X191335Y159688D01*
X191666Y159909D01*
X191887Y160240D01*
X191964Y160630D01*
Y165945D01*
D02*
G37*
G36*
X19984Y161485D02*
Y160503D01*
X20966D01*
X20572Y161092D01*
X19984Y161485D01*
D02*
G37*
G36*
X55984Y162805D02*
Y160984D01*
X57805D01*
X57593Y161497D01*
X57117Y162117D01*
X56497Y162593D01*
X55984Y162805D01*
D02*
G37*
G36*
X54016D02*
X53503Y162593D01*
X52883Y162117D01*
X52407Y161497D01*
X52195Y160984D01*
X54016D01*
Y162805D01*
D02*
G37*
G36*
X312805Y159016D02*
X310984D01*
Y157195D01*
X311497Y157407D01*
X312117Y157883D01*
X312593Y158503D01*
X312805Y159016D01*
D02*
G37*
G36*
X309016D02*
X307195D01*
X307407Y158503D01*
X307883Y157883D01*
X308503Y157407D01*
X309016Y157195D01*
Y159016D01*
D02*
G37*
G36*
X18016Y158535D02*
X17034D01*
X17427Y157947D01*
X18016Y157554D01*
Y158535D01*
D02*
G37*
G36*
X187992Y165945D02*
X185988D01*
Y160630D01*
X186066Y160240D01*
X186287Y159909D01*
X186618Y159688D01*
X187008Y159610D01*
X187992D01*
Y165945D01*
D02*
G37*
G36*
X20966Y158535D02*
X19984D01*
Y157554D01*
X20572Y157947D01*
X20966Y158535D01*
D02*
G37*
G36*
X309016Y162805D02*
X308503Y162593D01*
X307883Y162117D01*
X307407Y161497D01*
X307195Y160984D01*
X309016D01*
Y162805D01*
D02*
G37*
G36*
X300984Y167805D02*
Y165984D01*
X302805D01*
X302593Y166497D01*
X302117Y167117D01*
X301497Y167593D01*
X300984Y167805D01*
D02*
G37*
G36*
X299016D02*
X298503Y167593D01*
X297883Y167117D01*
X297407Y166497D01*
X297195Y165984D01*
X299016D01*
Y167805D01*
D02*
G37*
G36*
X59055Y195912D02*
X56738Y195729D01*
X54479Y195187D01*
X52332Y194298D01*
X50350Y193083D01*
X48583Y191574D01*
X47074Y189807D01*
X45860Y187826D01*
X44971Y185679D01*
X44428Y183419D01*
X44246Y181102D01*
X44428Y178786D01*
X44971Y176526D01*
X45860Y174379D01*
X47074Y172398D01*
X48583Y170631D01*
X50350Y169121D01*
X52332Y167907D01*
X54479Y167018D01*
X56738Y166475D01*
X59055Y166293D01*
X61372Y166475D01*
X63631Y167018D01*
X65778Y167907D01*
X67760Y169121D01*
X69527Y170631D01*
X71036Y172398D01*
X72250Y174379D01*
X73140Y176526D01*
X73682Y178786D01*
X73865Y181102D01*
X73682Y183419D01*
X73140Y185679D01*
X72250Y187826D01*
X71036Y189807D01*
X69527Y191574D01*
X67760Y193083D01*
X65778Y194298D01*
X63631Y195187D01*
X61372Y195729D01*
X59055Y195912D01*
D02*
G37*
G36*
X312805Y169016D02*
X310984D01*
Y167195D01*
X311497Y167407D01*
X312117Y167883D01*
X312593Y168503D01*
X312805Y169016D01*
D02*
G37*
G36*
X309016D02*
X307195D01*
X307407Y168503D01*
X307883Y167883D01*
X308503Y167407D01*
X309016Y167195D01*
Y169016D01*
D02*
G37*
G36*
X299016Y164016D02*
X297195D01*
X297407Y163503D01*
X297883Y162883D01*
X298503Y162407D01*
X299016Y162195D01*
Y164016D01*
D02*
G37*
G36*
X310984Y162805D02*
Y160984D01*
X312805D01*
X312593Y161497D01*
X312117Y162117D01*
X311497Y162593D01*
X310984Y162805D01*
D02*
G37*
G36*
X302805Y164016D02*
X300984D01*
Y162195D01*
X301497Y162407D01*
X302117Y162883D01*
X302593Y163503D01*
X302805Y164016D01*
D02*
G37*
G36*
X275984Y157806D02*
Y155984D01*
X277805D01*
X277593Y156497D01*
X277117Y157117D01*
X276497Y157593D01*
X275984Y157806D01*
D02*
G37*
G36*
X194016D02*
X193503Y157593D01*
X192883Y157117D01*
X192407Y156497D01*
X192194Y155984D01*
X194016D01*
Y157806D01*
D02*
G37*
G36*
X185984D02*
Y155984D01*
X187805D01*
X187593Y156497D01*
X187117Y157117D01*
X186497Y157593D01*
X185984Y157806D01*
D02*
G37*
G36*
X195984D02*
Y155984D01*
X197805D01*
X197593Y156497D01*
X197117Y157117D01*
X196497Y157593D01*
X195984Y157806D01*
D02*
G37*
G36*
X205984D02*
Y155984D01*
X207805D01*
X207593Y156497D01*
X207117Y157117D01*
X206497Y157593D01*
X205984Y157806D01*
D02*
G37*
G36*
X204016D02*
X203503Y157593D01*
X202883Y157117D01*
X202407Y156497D01*
X202194Y155984D01*
X204016D01*
Y157806D01*
D02*
G37*
G36*
X165984D02*
Y155984D01*
X167805D01*
X167593Y156497D01*
X167117Y157117D01*
X166497Y157593D01*
X165984Y157806D01*
D02*
G37*
G36*
X164016D02*
X163503Y157593D01*
X162883Y157117D01*
X162407Y156497D01*
X162195Y155984D01*
X164016D01*
Y157806D01*
D02*
G37*
G36*
X174016D02*
X173503Y157593D01*
X172883Y157117D01*
X172407Y156497D01*
X172195Y155984D01*
X174016D01*
Y157806D01*
D02*
G37*
G36*
X184016D02*
X183503Y157593D01*
X182883Y157117D01*
X182407Y156497D01*
X182194Y155984D01*
X184016D01*
Y157806D01*
D02*
G37*
G36*
X175984D02*
Y155984D01*
X177805D01*
X177593Y156497D01*
X177117Y157117D01*
X176497Y157593D01*
X175984Y157806D01*
D02*
G37*
G36*
X224016D02*
X223503Y157593D01*
X222883Y157117D01*
X222407Y156497D01*
X222195Y155984D01*
X224016D01*
Y157806D01*
D02*
G37*
G36*
X255984D02*
Y155984D01*
X257805D01*
X257593Y156497D01*
X257117Y157117D01*
X256497Y157593D01*
X255984Y157806D01*
D02*
G37*
G36*
X254016D02*
X253503Y157593D01*
X252883Y157117D01*
X252407Y156497D01*
X252194Y155984D01*
X254016D01*
Y157806D01*
D02*
G37*
G36*
X264016D02*
X263503Y157593D01*
X262883Y157117D01*
X262407Y156497D01*
X262194Y155984D01*
X264016D01*
Y157806D01*
D02*
G37*
G36*
X274016D02*
X273503Y157593D01*
X272883Y157117D01*
X272407Y156497D01*
X272195Y155984D01*
X274016D01*
Y157806D01*
D02*
G37*
G36*
X265984D02*
Y155984D01*
X267805D01*
X267593Y156497D01*
X267117Y157117D01*
X266497Y157593D01*
X265984Y157806D01*
D02*
G37*
G36*
X234016D02*
X233503Y157593D01*
X232883Y157117D01*
X232407Y156497D01*
X232194Y155984D01*
X234016D01*
Y157806D01*
D02*
G37*
G36*
X225984D02*
Y155984D01*
X227805D01*
X227593Y156497D01*
X227117Y157117D01*
X226497Y157593D01*
X225984Y157806D01*
D02*
G37*
G36*
X235984D02*
Y155984D01*
X237805D01*
X237593Y156497D01*
X237117Y157117D01*
X236497Y157593D01*
X235984Y157806D01*
D02*
G37*
G36*
X245984D02*
Y155984D01*
X247805D01*
X247593Y156497D01*
X247117Y157117D01*
X246497Y157593D01*
X245984Y157806D01*
D02*
G37*
G36*
X244016D02*
X243503Y157593D01*
X242883Y157117D01*
X242407Y156497D01*
X242195Y155984D01*
X244016D01*
Y157806D01*
D02*
G37*
G36*
X187992Y174248D02*
X187008D01*
X186618Y174170D01*
X186287Y173949D01*
X186066Y173618D01*
X185988Y173228D01*
Y167913D01*
X187992D01*
Y174248D01*
D02*
G37*
G36*
X79016Y189016D02*
X77195D01*
X77407Y188503D01*
X77883Y187883D01*
X78503Y187407D01*
X79016Y187195D01*
Y189016D01*
D02*
G37*
G36*
X82805D02*
X80984D01*
Y187195D01*
X81497Y187407D01*
X82117Y187883D01*
X82593Y188503D01*
X82805Y189016D01*
D02*
G37*
G36*
X369016Y188858D02*
X364147D01*
X364164Y188682D01*
X364503Y187566D01*
X365053Y186537D01*
X365793Y185635D01*
X366694Y184895D01*
X367723Y184345D01*
X368839Y184007D01*
X369016Y183990D01*
Y188858D01*
D02*
G37*
G36*
X111157Y187864D02*
X105842D01*
X105190Y187734D01*
X104636Y187364D01*
X104266Y186810D01*
X104137Y186158D01*
Y180843D01*
X104266Y180190D01*
X104636Y179636D01*
X105190Y179267D01*
X105842Y179137D01*
X111157D01*
X111810Y179267D01*
X112364Y179636D01*
X112734Y180190D01*
X112863Y180843D01*
Y186158D01*
X112734Y186810D01*
X112364Y187364D01*
X111810Y187734D01*
X111157Y187864D01*
D02*
G37*
G36*
X375853Y188858D02*
X370984D01*
Y183990D01*
X371161Y184007D01*
X372277Y184345D01*
X373306Y184895D01*
X374207Y185635D01*
X374947Y186537D01*
X375497Y187566D01*
X375835Y188682D01*
X375853Y188858D01*
D02*
G37*
G36*
X74016Y194016D02*
X72195D01*
X72407Y193503D01*
X72883Y192883D01*
X73503Y192407D01*
X74016Y192195D01*
Y194016D01*
D02*
G37*
G36*
X77805D02*
X75984D01*
Y192195D01*
X76497Y192407D01*
X77117Y192883D01*
X77593Y193503D01*
X77805Y194016D01*
D02*
G37*
G36*
X370984Y195695D02*
Y190827D01*
X375853D01*
X375835Y191003D01*
X375497Y192119D01*
X374947Y193148D01*
X374207Y194050D01*
X373306Y194790D01*
X372277Y195340D01*
X371161Y195678D01*
X370984Y195695D01*
D02*
G37*
G36*
X369016D02*
X368839Y195678D01*
X367723Y195340D01*
X366694Y194790D01*
X365793Y194050D01*
X365053Y193148D01*
X364503Y192119D01*
X364164Y191003D01*
X364147Y190827D01*
X369016D01*
Y195695D01*
D02*
G37*
G36*
X79016Y192805D02*
X78503Y192593D01*
X77883Y192117D01*
X77407Y191497D01*
X77195Y190984D01*
X79016D01*
Y192805D01*
D02*
G37*
G36*
X80984D02*
Y190984D01*
X82805D01*
X82593Y191497D01*
X82117Y192117D01*
X81497Y192593D01*
X80984Y192805D01*
D02*
G37*
G36*
X243500Y187868D02*
X242369Y187719D01*
X241316Y187283D01*
X240411Y186589D01*
X239717Y185684D01*
X239281Y184631D01*
X239132Y183500D01*
X239281Y182369D01*
X239717Y181316D01*
X240411Y180411D01*
X241316Y179717D01*
X242369Y179281D01*
X243500Y179132D01*
X244631Y179281D01*
X245684Y179717D01*
X246589Y180411D01*
X247283Y181316D01*
X247719Y182369D01*
X247868Y183500D01*
X247719Y184631D01*
X247283Y185684D01*
X246589Y186589D01*
X245684Y187283D01*
X244631Y187719D01*
X243500Y187868D01*
D02*
G37*
G36*
X309016Y172805D02*
X308503Y172593D01*
X307883Y172117D01*
X307407Y171497D01*
X307195Y170984D01*
X309016D01*
Y172805D01*
D02*
G37*
G36*
X310984D02*
Y170984D01*
X312805D01*
X312593Y171497D01*
X312117Y172117D01*
X311497Y172593D01*
X310984Y172805D01*
D02*
G37*
G36*
X190945Y174248D02*
X189961D01*
Y167913D01*
X191964D01*
Y173228D01*
X191887Y173618D01*
X191666Y173949D01*
X191335Y174170D01*
X190945Y174248D01*
D02*
G37*
G36*
X211000Y176007D02*
X210232Y175854D01*
X209581Y175419D01*
X209146Y174768D01*
X208993Y174000D01*
X208996Y173983D01*
X207958Y172945D01*
X207496Y173136D01*
Y173228D01*
X207435Y173536D01*
X207260Y173796D01*
X207000Y173970D01*
X206693Y174031D01*
X202756D01*
X202449Y173970D01*
X202188Y173796D01*
X202014Y173536D01*
X201953Y173228D01*
Y160630D01*
X202014Y160323D01*
X202188Y160062D01*
X202449Y159888D01*
X202756Y159827D01*
X206693D01*
X207000Y159888D01*
X207260Y160062D01*
X207435Y160323D01*
X207496Y160630D01*
Y168509D01*
X210983Y171996D01*
X211000Y171993D01*
X211768Y172146D01*
X212419Y172581D01*
X212854Y173232D01*
X213007Y174000D01*
X212854Y174768D01*
X212419Y175419D01*
X211768Y175854D01*
X211000Y176007D01*
D02*
G37*
G36*
X183500Y187868D02*
X182369Y187719D01*
X181316Y187283D01*
X180411Y186589D01*
X179717Y185684D01*
X179281Y184631D01*
X179132Y183500D01*
X179281Y182369D01*
X179717Y181316D01*
X180411Y180411D01*
X181316Y179717D01*
X182369Y179281D01*
X183500Y179132D01*
X184631Y179281D01*
X185684Y179717D01*
X186589Y180411D01*
X187283Y181316D01*
X187719Y182369D01*
X187868Y183500D01*
X187719Y184631D01*
X187283Y185684D01*
X186589Y186589D01*
X185684Y187283D01*
X184631Y187719D01*
X183500Y187868D01*
D02*
G37*
G36*
X168500D02*
X167369Y187719D01*
X166316Y187283D01*
X165411Y186589D01*
X164717Y185684D01*
X164281Y184631D01*
X164132Y183500D01*
X164281Y182369D01*
X164717Y181316D01*
X165411Y180411D01*
X166316Y179717D01*
X167369Y179281D01*
X168500Y179132D01*
X169631Y179281D01*
X170684Y179717D01*
X171589Y180411D01*
X172283Y181316D01*
X172719Y182369D01*
X172868Y183500D01*
X172719Y184631D01*
X172283Y185684D01*
X171589Y186589D01*
X170684Y187283D01*
X169631Y187719D01*
X168500Y187868D01*
D02*
G37*
G36*
X198500D02*
X197369Y187719D01*
X196316Y187283D01*
X195411Y186589D01*
X194717Y185684D01*
X194281Y184631D01*
X194132Y183500D01*
X194281Y182369D01*
X194717Y181316D01*
X195411Y180411D01*
X196316Y179717D01*
X197369Y179281D01*
X198500Y179132D01*
X199630Y179281D01*
X200684Y179717D01*
X201589Y180411D01*
X202283Y181316D01*
X202719Y182369D01*
X202868Y183500D01*
X202719Y184631D01*
X202283Y185684D01*
X201589Y186589D01*
X200684Y187283D01*
X199630Y187719D01*
X198500Y187868D01*
D02*
G37*
G36*
X228500D02*
X227369Y187719D01*
X226316Y187283D01*
X225411Y186589D01*
X224717Y185684D01*
X224281Y184631D01*
X224132Y183500D01*
X224281Y182369D01*
X224717Y181316D01*
X225411Y180411D01*
X226316Y179717D01*
X227369Y179281D01*
X228500Y179132D01*
X229630Y179281D01*
X230684Y179717D01*
X231589Y180411D01*
X232283Y181316D01*
X232719Y182369D01*
X232868Y183500D01*
X232719Y184631D01*
X232283Y185684D01*
X231589Y186589D01*
X230684Y187283D01*
X229630Y187719D01*
X228500Y187868D01*
D02*
G37*
G36*
X213500D02*
X212369Y187719D01*
X211316Y187283D01*
X210411Y186589D01*
X209717Y185684D01*
X209281Y184631D01*
X209132Y183500D01*
X209281Y182369D01*
X209717Y181316D01*
X210411Y180411D01*
X211316Y179717D01*
X212369Y179281D01*
X213500Y179132D01*
X214631Y179281D01*
X215684Y179717D01*
X216589Y180411D01*
X217283Y181316D01*
X217719Y182369D01*
X217868Y183500D01*
X217719Y184631D01*
X217283Y185684D01*
X216589Y186589D01*
X215684Y187283D01*
X214631Y187719D01*
X213500Y187868D01*
D02*
G37*
G36*
X123500D02*
X122369Y187719D01*
X121316Y187283D01*
X120411Y186589D01*
X119717Y185684D01*
X119281Y184631D01*
X119132Y183500D01*
X119281Y182369D01*
X119717Y181316D01*
X120411Y180411D01*
X121316Y179717D01*
X122369Y179281D01*
X123500Y179132D01*
X124630Y179281D01*
X125684Y179717D01*
X126589Y180411D01*
X127283Y181316D01*
X127719Y182369D01*
X127868Y183500D01*
X127719Y184631D01*
X127283Y185684D01*
X126589Y186589D01*
X125684Y187283D01*
X124630Y187719D01*
X123500Y187868D01*
D02*
G37*
G36*
X153500D02*
X152369Y187719D01*
X151316Y187283D01*
X150411Y186589D01*
X149717Y185684D01*
X149281Y184631D01*
X149132Y183500D01*
X149281Y182369D01*
X149717Y181316D01*
X150411Y180411D01*
X151316Y179717D01*
X152369Y179281D01*
X153500Y179132D01*
X154630Y179281D01*
X155684Y179717D01*
X156589Y180411D01*
X157283Y181316D01*
X157719Y182369D01*
X157868Y183500D01*
X157719Y184631D01*
X157283Y185684D01*
X156589Y186589D01*
X155684Y187283D01*
X154630Y187719D01*
X153500Y187868D01*
D02*
G37*
G36*
X138500D02*
X137369Y187719D01*
X136316Y187283D01*
X135411Y186589D01*
X134717Y185684D01*
X134281Y184631D01*
X134132Y183500D01*
X134281Y182369D01*
X134717Y181316D01*
X135411Y180411D01*
X136316Y179717D01*
X137369Y179281D01*
X138500Y179132D01*
X139630Y179281D01*
X140684Y179717D01*
X141589Y180411D01*
X142283Y181316D01*
X142719Y182369D01*
X142868Y183500D01*
X142719Y184631D01*
X142283Y185684D01*
X141589Y186589D01*
X140684Y187283D01*
X139630Y187719D01*
X138500Y187868D01*
D02*
G37*
G36*
X94016Y154016D02*
X92194D01*
X92407Y153503D01*
X92883Y152883D01*
X93503Y152407D01*
X94016Y152195D01*
Y154016D01*
D02*
G37*
G36*
X87805D02*
X85984D01*
Y152195D01*
X86497Y152407D01*
X87117Y152883D01*
X87593Y153503D01*
X87805Y154016D01*
D02*
G37*
G36*
X97805D02*
X95984D01*
Y152195D01*
X96497Y152407D01*
X97117Y152883D01*
X97593Y153503D01*
X97805Y154016D01*
D02*
G37*
G36*
X107805D02*
X105984D01*
Y152195D01*
X106497Y152407D01*
X107117Y152883D01*
X107593Y153503D01*
X107805Y154016D01*
D02*
G37*
G36*
X104016D02*
X102194D01*
X102407Y153503D01*
X102883Y152883D01*
X103503Y152407D01*
X104016Y152195D01*
Y154016D01*
D02*
G37*
G36*
X302805Y154016D02*
X300984D01*
Y152195D01*
X301497Y152407D01*
X302117Y152883D01*
X302593Y153503D01*
X302805Y154016D01*
D02*
G37*
G36*
X299016D02*
X297195D01*
X297407Y153503D01*
X297883Y152883D01*
X298503Y152407D01*
X299016Y152195D01*
Y154016D01*
D02*
G37*
G36*
X74016Y154016D02*
X72194D01*
X72407Y153503D01*
X72883Y152883D01*
X73503Y152407D01*
X74016Y152195D01*
Y154016D01*
D02*
G37*
G36*
X84016D02*
X82195D01*
X82407Y153503D01*
X82883Y152883D01*
X83503Y152407D01*
X84016Y152195D01*
Y154016D01*
D02*
G37*
G36*
X77805D02*
X75984D01*
Y152195D01*
X76497Y152407D01*
X77117Y152883D01*
X77593Y153503D01*
X77805Y154016D01*
D02*
G37*
G36*
X114016D02*
X112195D01*
X112407Y153503D01*
X112883Y152883D01*
X113503Y152407D01*
X114016Y152195D01*
Y154016D01*
D02*
G37*
G36*
X147805D02*
X145984D01*
Y152195D01*
X146497Y152407D01*
X147117Y152883D01*
X147593Y153503D01*
X147805Y154016D01*
D02*
G37*
G36*
X144016D02*
X142194D01*
X142407Y153503D01*
X142883Y152883D01*
X143503Y152407D01*
X144016Y152195D01*
Y154016D01*
D02*
G37*
G36*
X154016D02*
X152194D01*
X152407Y153503D01*
X152883Y152883D01*
X153503Y152407D01*
X154016Y152195D01*
Y154016D01*
D02*
G37*
G36*
X164016D02*
X162195D01*
X162407Y153503D01*
X162883Y152883D01*
X163503Y152407D01*
X164016Y152195D01*
Y154016D01*
D02*
G37*
G36*
X157805D02*
X155984D01*
Y152195D01*
X156497Y152407D01*
X157117Y152883D01*
X157593Y153503D01*
X157805Y154016D01*
D02*
G37*
G36*
X124016D02*
X122195D01*
X122407Y153503D01*
X122883Y152883D01*
X123503Y152407D01*
X124016Y152195D01*
Y154016D01*
D02*
G37*
G36*
X117805D02*
X115984D01*
Y152195D01*
X116497Y152407D01*
X117117Y152883D01*
X117593Y153503D01*
X117805Y154016D01*
D02*
G37*
G36*
X127805D02*
X125984D01*
Y152195D01*
X126497Y152407D01*
X127117Y152883D01*
X127593Y153503D01*
X127805Y154016D01*
D02*
G37*
G36*
X137805D02*
X135984D01*
Y152195D01*
X136497Y152407D01*
X137117Y152883D01*
X137593Y153503D01*
X137805Y154016D01*
D02*
G37*
G36*
X134016D02*
X132194D01*
X132407Y153503D01*
X132883Y152883D01*
X133503Y152407D01*
X134016Y152195D01*
Y154016D01*
D02*
G37*
G36*
X292805Y154016D02*
X290984D01*
Y152195D01*
X291497Y152407D01*
X292117Y152883D01*
X292593Y153503D01*
X292805Y154016D01*
D02*
G37*
G36*
Y144016D02*
X290984D01*
Y142195D01*
X291497Y142407D01*
X292117Y142883D01*
X292593Y143503D01*
X292805Y144016D01*
D02*
G37*
G36*
X289016D02*
X287195D01*
X287407Y143503D01*
X287883Y142883D01*
X288503Y142407D01*
X289016Y142195D01*
Y144016D01*
D02*
G37*
G36*
X299016D02*
X297195D01*
X297407Y143503D01*
X297883Y142883D01*
X298503Y142407D01*
X299016Y142195D01*
Y144016D01*
D02*
G37*
G36*
X57805Y149016D02*
X52195D01*
X52407Y148503D01*
X52883Y147883D01*
X53056Y147750D01*
Y147250D01*
X52883Y147117D01*
X52407Y146497D01*
X52195Y145984D01*
X57805D01*
X57593Y146497D01*
X57117Y147117D01*
X56944Y147250D01*
Y147750D01*
X57117Y147883D01*
X57593Y148503D01*
X57805Y149016D01*
D02*
G37*
G36*
X302805Y144016D02*
X300984D01*
Y142195D01*
X301497Y142407D01*
X302117Y142883D01*
X302593Y143503D01*
X302805Y144016D01*
D02*
G37*
G36*
X289016Y137805D02*
X288503Y137593D01*
X287883Y137117D01*
X287407Y136497D01*
X287195Y135984D01*
X289016D01*
Y137805D01*
D02*
G37*
G36*
X292805Y134016D02*
X290984D01*
Y132195D01*
X291497Y132407D01*
X292117Y132883D01*
X292593Y133503D01*
X292805Y134016D01*
D02*
G37*
G36*
X290984Y137805D02*
Y135984D01*
X292805D01*
X292593Y136497D01*
X292117Y137117D01*
X291497Y137593D01*
X290984Y137805D01*
D02*
G37*
G36*
X57805Y144016D02*
X55984D01*
Y142195D01*
X56497Y142407D01*
X57117Y142883D01*
X57593Y143503D01*
X57805Y144016D01*
D02*
G37*
G36*
X54016D02*
X52195D01*
X52407Y143503D01*
X52883Y142883D01*
X53503Y142407D01*
X54016Y142195D01*
Y144016D01*
D02*
G37*
G36*
X289016Y147805D02*
X288503Y147593D01*
X287883Y147117D01*
X287407Y146497D01*
X287195Y145984D01*
X289016D01*
Y147805D01*
D02*
G37*
G36*
X57805Y154016D02*
X52195D01*
X52407Y153503D01*
X52883Y152883D01*
X53056Y152750D01*
Y152250D01*
X52883Y152117D01*
X52407Y151497D01*
X52195Y150984D01*
X57805D01*
X57593Y151497D01*
X57117Y152117D01*
X56944Y152250D01*
Y152750D01*
X57117Y152883D01*
X57593Y153503D01*
X57805Y154016D01*
D02*
G37*
G36*
X15453Y158256D02*
X9547D01*
X9240Y158195D01*
X8980Y158020D01*
X8805Y157760D01*
X8744Y157453D01*
Y151547D01*
X8805Y151240D01*
X8980Y150980D01*
X9240Y150806D01*
X9547Y150744D01*
X15453D01*
X15760Y150806D01*
X16020Y150980D01*
X16194Y151240D01*
X16255Y151547D01*
Y157453D01*
X16194Y157760D01*
X16020Y158020D01*
X15760Y158195D01*
X15453Y158256D01*
D02*
G37*
G36*
X309016Y152805D02*
X308503Y152593D01*
X307883Y152117D01*
X307407Y151497D01*
X307195Y150984D01*
X309016D01*
Y152805D01*
D02*
G37*
G36*
X289016Y154016D02*
X287195D01*
X287407Y153503D01*
X287883Y152883D01*
X288503Y152407D01*
X289016Y152195D01*
Y154016D01*
D02*
G37*
G36*
X310984Y152805D02*
Y150984D01*
X312805D01*
X312593Y151497D01*
X312117Y152117D01*
X311497Y152593D01*
X310984Y152805D01*
D02*
G37*
G36*
X299016Y147805D02*
X298503Y147593D01*
X297883Y147117D01*
X297407Y146497D01*
X297195Y145984D01*
X299016D01*
Y147805D01*
D02*
G37*
G36*
X290984D02*
Y145984D01*
X292805D01*
X292593Y146497D01*
X292117Y147117D01*
X291497Y147593D01*
X290984Y147805D01*
D02*
G37*
G36*
X300984D02*
Y145984D01*
X302805D01*
X302593Y146497D01*
X302117Y147117D01*
X301497Y147593D01*
X300984Y147805D01*
D02*
G37*
G36*
X312805Y149016D02*
X310984D01*
Y147195D01*
X311497Y147407D01*
X312117Y147883D01*
X312593Y148503D01*
X312805Y149016D01*
D02*
G37*
G36*
X309016D02*
X307195D01*
X307407Y148503D01*
X307883Y147883D01*
X308503Y147407D01*
X309016Y147195D01*
Y149016D01*
D02*
G37*
G36*
X167805Y154016D02*
X165984D01*
Y152195D01*
X166497Y152407D01*
X167117Y152883D01*
X167593Y153503D01*
X167805Y154016D01*
D02*
G37*
G36*
X85984Y157806D02*
Y155984D01*
X87805D01*
X87593Y156497D01*
X87117Y157117D01*
X86497Y157593D01*
X85984Y157806D01*
D02*
G37*
G36*
X84016D02*
X83503Y157593D01*
X82883Y157117D01*
X82407Y156497D01*
X82195Y155984D01*
X84016D01*
Y157806D01*
D02*
G37*
G36*
X94016D02*
X93503Y157593D01*
X92883Y157117D01*
X92407Y156497D01*
X92194Y155984D01*
X94016D01*
Y157806D01*
D02*
G37*
G36*
X104016D02*
X103503Y157593D01*
X102883Y157117D01*
X102407Y156497D01*
X102194Y155984D01*
X104016D01*
Y157806D01*
D02*
G37*
G36*
X95984D02*
Y155984D01*
X97805D01*
X97593Y156497D01*
X97117Y157117D01*
X96497Y157593D01*
X95984Y157806D01*
D02*
G37*
G36*
X299016Y157805D02*
X298503Y157593D01*
X297883Y157117D01*
X297407Y156497D01*
X297195Y155984D01*
X299016D01*
Y157805D01*
D02*
G37*
G36*
X290984D02*
Y155984D01*
X292805D01*
X292593Y156497D01*
X292117Y157117D01*
X291497Y157593D01*
X290984Y157805D01*
D02*
G37*
G36*
X300984D02*
Y155984D01*
X302805D01*
X302593Y156497D01*
X302117Y157117D01*
X301497Y157593D01*
X300984Y157805D01*
D02*
G37*
G36*
X75984Y157806D02*
Y155984D01*
X77805D01*
X77593Y156497D01*
X77117Y157117D01*
X76497Y157593D01*
X75984Y157806D01*
D02*
G37*
G36*
X74016D02*
X73503Y157593D01*
X72883Y157117D01*
X72407Y156497D01*
X72194Y155984D01*
X74016D01*
Y157806D01*
D02*
G37*
G36*
X105984D02*
Y155984D01*
X107805D01*
X107593Y156497D01*
X107117Y157117D01*
X106497Y157593D01*
X105984Y157806D01*
D02*
G37*
G36*
X144016D02*
X143503Y157593D01*
X142883Y157117D01*
X142407Y156497D01*
X142194Y155984D01*
X144016D01*
Y157806D01*
D02*
G37*
G36*
X135984D02*
Y155984D01*
X137805D01*
X137593Y156497D01*
X137117Y157117D01*
X136497Y157593D01*
X135984Y157806D01*
D02*
G37*
G36*
X145984D02*
Y155984D01*
X147805D01*
X147593Y156497D01*
X147117Y157117D01*
X146497Y157593D01*
X145984Y157806D01*
D02*
G37*
G36*
X155984D02*
Y155984D01*
X157805D01*
X157593Y156497D01*
X157117Y157117D01*
X156497Y157593D01*
X155984Y157806D01*
D02*
G37*
G36*
X154016D02*
X153503Y157593D01*
X152883Y157117D01*
X152407Y156497D01*
X152194Y155984D01*
X154016D01*
Y157806D01*
D02*
G37*
G36*
X115984D02*
Y155984D01*
X117805D01*
X117593Y156497D01*
X117117Y157117D01*
X116497Y157593D01*
X115984Y157806D01*
D02*
G37*
G36*
X114016D02*
X113503Y157593D01*
X112883Y157117D01*
X112407Y156497D01*
X112195Y155984D01*
X114016D01*
Y157806D01*
D02*
G37*
G36*
X124016D02*
X123503Y157593D01*
X122883Y157117D01*
X122407Y156497D01*
X122195Y155984D01*
X124016D01*
Y157806D01*
D02*
G37*
G36*
X134016D02*
X133503Y157593D01*
X132883Y157117D01*
X132407Y156497D01*
X132194Y155984D01*
X134016D01*
Y157806D01*
D02*
G37*
G36*
X125984D02*
Y155984D01*
X127805D01*
X127593Y156497D01*
X127117Y157117D01*
X126497Y157593D01*
X125984Y157806D01*
D02*
G37*
G36*
X289016Y157805D02*
X288503Y157593D01*
X287883Y157117D01*
X287407Y156497D01*
X287195Y155984D01*
X289016D01*
Y157805D01*
D02*
G37*
G36*
X204016Y154016D02*
X202194D01*
X202407Y153503D01*
X202883Y152883D01*
X203503Y152407D01*
X204016Y152195D01*
Y154016D01*
D02*
G37*
G36*
X197805D02*
X195984D01*
Y152195D01*
X196497Y152407D01*
X197117Y152883D01*
X197593Y153503D01*
X197805Y154016D01*
D02*
G37*
G36*
X207805D02*
X205984D01*
Y152195D01*
X206497Y152407D01*
X207117Y152883D01*
X207593Y153503D01*
X207805Y154016D01*
D02*
G37*
G36*
X227805D02*
X225984D01*
Y152195D01*
X226497Y152407D01*
X227117Y152883D01*
X227593Y153503D01*
X227805Y154016D01*
D02*
G37*
G36*
X224016D02*
X222195D01*
X222407Y153503D01*
X222883Y152883D01*
X223503Y152407D01*
X224016Y152195D01*
Y154016D01*
D02*
G37*
G36*
X177805D02*
X175984D01*
Y152195D01*
X176497Y152407D01*
X177117Y152883D01*
X177593Y153503D01*
X177805Y154016D01*
D02*
G37*
G36*
X174016D02*
X172195D01*
X172407Y153503D01*
X172883Y152883D01*
X173503Y152407D01*
X174016Y152195D01*
Y154016D01*
D02*
G37*
G36*
X184016D02*
X182194D01*
X182407Y153503D01*
X182883Y152883D01*
X183503Y152407D01*
X184016Y152195D01*
Y154016D01*
D02*
G37*
G36*
X194016D02*
X192194D01*
X192407Y153503D01*
X192883Y152883D01*
X193503Y152407D01*
X194016Y152195D01*
Y154016D01*
D02*
G37*
G36*
X187805D02*
X185984D01*
Y152195D01*
X186497Y152407D01*
X187117Y152883D01*
X187593Y153503D01*
X187805Y154016D01*
D02*
G37*
G36*
X234016D02*
X232194D01*
X232407Y153503D01*
X232883Y152883D01*
X233503Y152407D01*
X234016Y152195D01*
Y154016D01*
D02*
G37*
G36*
X267805D02*
X265984D01*
Y152195D01*
X266497Y152407D01*
X267117Y152883D01*
X267593Y153503D01*
X267805Y154016D01*
D02*
G37*
G36*
X264016D02*
X262194D01*
X262407Y153503D01*
X262883Y152883D01*
X263503Y152407D01*
X264016Y152195D01*
Y154016D01*
D02*
G37*
G36*
X274016D02*
X272195D01*
X272407Y153503D01*
X272883Y152883D01*
X273503Y152407D01*
X274016Y152195D01*
Y154016D01*
D02*
G37*
G36*
X57805Y159016D02*
X52195D01*
X52407Y158503D01*
X52883Y157883D01*
X53056Y157750D01*
Y157250D01*
X52883Y157117D01*
X52407Y156497D01*
X52195Y155984D01*
X57805D01*
X57593Y156497D01*
X57117Y157117D01*
X56944Y157250D01*
Y157750D01*
X57117Y157883D01*
X57593Y158503D01*
X57805Y159016D01*
D02*
G37*
G36*
X277805Y154016D02*
X275984D01*
Y152195D01*
X276497Y152407D01*
X277117Y152883D01*
X277593Y153503D01*
X277805Y154016D01*
D02*
G37*
G36*
X244016D02*
X242195D01*
X242407Y153503D01*
X242883Y152883D01*
X243503Y152407D01*
X244016Y152195D01*
Y154016D01*
D02*
G37*
G36*
X237805D02*
X235984D01*
Y152195D01*
X236497Y152407D01*
X237117Y152883D01*
X237593Y153503D01*
X237805Y154016D01*
D02*
G37*
G36*
X247805D02*
X245984D01*
Y152195D01*
X246497Y152407D01*
X247117Y152883D01*
X247593Y153503D01*
X247805Y154016D01*
D02*
G37*
G36*
X257805D02*
X255984D01*
Y152195D01*
X256497Y152407D01*
X257117Y152883D01*
X257593Y153503D01*
X257805Y154016D01*
D02*
G37*
G36*
X254016D02*
X252194D01*
X252407Y153503D01*
X252883Y152883D01*
X253503Y152407D01*
X254016Y152195D01*
Y154016D01*
D02*
G37*
G36*
X8231Y189016D02*
X5984D01*
Y186769D01*
X6696Y187063D01*
X7398Y187602D01*
X7937Y188304D01*
X8231Y189016D01*
D02*
G37*
G36*
X4016D02*
X1768D01*
X2063Y188304D01*
X2602Y187602D01*
X3304Y187063D01*
X4016Y186769D01*
Y189016D01*
D02*
G37*
G36*
X5984Y193232D02*
Y190984D01*
X8231D01*
X7937Y191696D01*
X7398Y192398D01*
X6696Y192937D01*
X5984Y193232D01*
D02*
G37*
G36*
X8231Y199016D02*
X5984D01*
Y196769D01*
X6696Y197063D01*
X7398Y197602D01*
X7937Y198304D01*
X8231Y199016D01*
D02*
G37*
G36*
X4016D02*
X1768D01*
X2063Y198304D01*
X2602Y197602D01*
X3304Y197063D01*
X4016Y196769D01*
Y199016D01*
D02*
G37*
G36*
Y193232D02*
X3304Y192937D01*
X2602Y192398D01*
X2063Y191696D01*
X1768Y190984D01*
X4016D01*
Y193232D01*
D02*
G37*
G36*
X5984Y171966D02*
Y170984D01*
X6966D01*
X6572Y171572D01*
X5984Y171966D01*
D02*
G37*
G36*
X4016Y169016D02*
X3035D01*
X3427Y168428D01*
X4016Y168035D01*
Y169016D01*
D02*
G37*
G36*
X6966D02*
X5984D01*
Y168035D01*
X6572Y168428D01*
X6966Y169016D01*
D02*
G37*
G36*
X4016Y171966D02*
X3427Y171572D01*
X3035Y170984D01*
X4016D01*
Y171966D01*
D02*
G37*
G36*
X12500Y178272D02*
X11524Y178144D01*
X10614Y177767D01*
X9832Y177168D01*
X9233Y176386D01*
X8856Y175476D01*
X8727Y174500D01*
X8856Y173524D01*
X9233Y172614D01*
X9832Y171833D01*
X10614Y171233D01*
X11524Y170856D01*
X12500Y170728D01*
X13476Y170856D01*
X14386Y171233D01*
X15167Y171833D01*
X15767Y172614D01*
X16144Y173524D01*
X16272Y174500D01*
X16144Y175476D01*
X15767Y176386D01*
X15167Y177168D01*
X14386Y177767D01*
X13476Y178144D01*
X12500Y178272D01*
D02*
G37*
G36*
X298516Y196016D02*
X292658D01*
X292694Y195646D01*
X293089Y194345D01*
X293730Y193145D01*
X294593Y192094D01*
X295645Y191231D01*
X296845Y190589D01*
X298146Y190194D01*
X298516Y190158D01*
Y196016D01*
D02*
G37*
G36*
X259484Y187953D02*
Y184484D01*
X262953D01*
X262926Y184686D01*
X262469Y185791D01*
X261740Y186740D01*
X260791Y187469D01*
X259686Y187926D01*
X259484Y187953D01*
D02*
G37*
G36*
X257516D02*
X257314Y187926D01*
X256209Y187469D01*
X255260Y186740D01*
X254531Y185791D01*
X254074Y184686D01*
X254047Y184484D01*
X257516D01*
Y187953D01*
D02*
G37*
G36*
X306342Y196016D02*
X300484D01*
Y190158D01*
X300854Y190194D01*
X302155Y190589D01*
X303355Y191231D01*
X304406Y192094D01*
X305269Y193145D01*
X305911Y194345D01*
X306306Y195646D01*
X306342Y196016D01*
D02*
G37*
G36*
X262953Y182516D02*
X259484D01*
Y179047D01*
X259686Y179074D01*
X260791Y179532D01*
X261740Y180260D01*
X262469Y181209D01*
X262926Y182314D01*
X262953Y182516D01*
D02*
G37*
G36*
X257516D02*
X254047D01*
X254074Y182314D01*
X254531Y181209D01*
X255260Y180260D01*
X256209Y179532D01*
X257314Y179074D01*
X257516Y179047D01*
Y182516D01*
D02*
G37*
%LPD*%
D29*
X351930Y189842D02*
X370000D01*
X342343Y199429D02*
X351930Y189842D01*
X320929Y199429D02*
X342343D01*
X277500Y156000D02*
X320929Y199429D01*
X75000Y155000D02*
X85000D01*
X95000D01*
X105000D01*
X115000D01*
X125000D01*
X135000D01*
X145000D01*
X155000D01*
X165000D01*
X175000D01*
X185000D01*
X195000D01*
X205000D01*
X225000D01*
X235000D01*
X245000D01*
X255000D01*
X265000D01*
X275000D01*
D32*
X204724Y166929D02*
Y167725D01*
X109039Y70039D02*
X124500Y54579D01*
Y51000D02*
Y54579D01*
X204724Y167725D02*
X211000Y174000D01*
D33*
X169291Y87362D02*
X178272D01*
X179886Y88976D01*
X188976Y64567D02*
Y88976D01*
Y37795D02*
Y64567D01*
Y115748D02*
Y140157D01*
X204724Y88976D02*
Y115748D01*
X185000Y155000D02*
X188976Y158976D01*
Y166929D01*
X275000Y155000D02*
X277500D01*
Y156000D01*
X240873Y9519D02*
X242572Y7819D01*
X253472D01*
X204724Y136719D02*
Y140157D01*
X207496Y37795D02*
X214173Y31119D01*
X204724Y37795D02*
X207496D01*
X70481Y159519D02*
X75000Y155000D01*
X268473Y96019D02*
X315773D01*
X124998Y103169D02*
X138022D01*
X152573Y117719D01*
Y125419D01*
X78272Y109719D02*
X90748Y97244D01*
X117209D02*
X117984Y98019D01*
X23360Y35140D02*
Y46326D01*
Y35140D02*
X27500Y31000D01*
X169291Y97362D02*
X172148Y100219D01*
X174672D01*
X180572Y106119D01*
X124723Y87019D02*
X147229D01*
X147821Y87612D01*
X173672Y92119D02*
X182547Y100994D01*
Y127594D01*
X186972Y132019D01*
X336010Y87844D02*
X337647Y89482D01*
Y100997D01*
X336372Y102272D02*
X337647Y100997D01*
X336372Y102272D02*
Y102369D01*
X260672Y42819D02*
X262573Y40919D01*
X260672Y42819D02*
Y46219D01*
X256072Y50819D02*
X260672Y46219D01*
X214173Y50819D02*
X256072D01*
X48173Y64719D02*
Y68394D01*
X186472Y26219D02*
X231873D01*
X124172Y96019D02*
X125873Y97719D01*
X231554Y42000D02*
X246657D01*
X165472Y126419D02*
Y127819D01*
X143173Y104119D02*
X165472Y126419D01*
X143173Y101819D02*
Y104119D01*
X163460Y122706D02*
X177822Y137069D01*
X163460Y120807D02*
Y122706D01*
X146272Y103619D02*
X163460Y120807D01*
X120671Y99695D02*
X146822D01*
X164497Y117369D01*
Y120218D01*
X191673Y147251D02*
X201323Y137601D01*
Y127269D02*
Y137601D01*
X233854Y148438D02*
X250673Y131619D01*
X179072Y148438D02*
X233854D01*
X154472Y123838D02*
X179072Y148438D01*
X154472Y117819D02*
Y123838D01*
X137773Y101119D02*
X154472Y117819D01*
X123273Y101119D02*
X137773D01*
X119623Y104769D02*
X123273Y101119D01*
X102373Y103319D02*
X103823Y104769D01*
X102373Y99981D02*
Y103319D01*
Y99981D02*
X102472Y99881D01*
X87137Y96619D02*
Y97869D01*
X22172Y26485D02*
X27500Y21158D01*
X22172Y26485D02*
Y48619D01*
X67598Y94044D01*
X146627Y94698D02*
X169291Y117362D01*
X307772Y30369D02*
Y37069D01*
X306323Y28919D02*
X307772Y30369D01*
X278884Y28919D02*
X306323D01*
X276984Y27019D02*
X278884Y28919D01*
X251639Y27019D02*
X276984D01*
X246657Y32000D02*
X251639Y27019D01*
X109510Y126181D02*
X110110Y125582D01*
X51573Y126181D02*
X109510D01*
X121572Y78019D02*
X182173D01*
X210273Y81219D02*
X227772D01*
X263873Y45119D01*
X121773Y108019D02*
X136672D01*
X101671Y108121D02*
X101672Y108019D01*
X101772D01*
X101671Y108121D02*
X101772Y108019D01*
X204724Y37795D02*
Y56919D01*
Y64567D01*
X101772Y108019D02*
X121773D01*
X102472Y99881D02*
X112897D01*
X103823Y104769D02*
X119623D01*
X106000Y102500D02*
X117865D01*
X120671Y99695D01*
X48173Y68394D02*
X69472Y89694D01*
X105947D01*
X156872Y92119D02*
X173672D01*
X155010Y93081D02*
X169291Y107362D01*
X147821Y87612D02*
X152365D01*
X156872Y92119D01*
X111607Y92456D02*
X112170Y91894D01*
X112797D01*
X112099Y93644D02*
X112662Y93081D01*
X112591Y94831D02*
X112724Y94698D01*
X146627D01*
X112662Y93081D02*
X155010D01*
X107972Y93644D02*
X112099D01*
X108710Y92456D02*
X111607D01*
X105947Y89694D02*
X108710Y92456D01*
X106247Y91919D02*
X107972Y93644D01*
X71372Y87719D02*
X105930D01*
X109480Y91269D01*
X111116D01*
X114665Y87719D01*
X117005D01*
X122047Y82677D01*
X146831D01*
X149773Y85619D01*
X112977Y86614D02*
X121572Y78019D01*
X110236Y86614D02*
X112977D01*
X85580Y82326D02*
X96245D01*
X83573Y80319D02*
X85580Y82326D01*
X204724Y86767D02*
Y88976D01*
Y86767D02*
X210273Y81219D01*
X184279Y145779D02*
X185751Y147251D01*
X184279Y140000D02*
Y145779D01*
X185751Y147251D02*
X191673D01*
X164497Y120218D02*
X184279Y140000D01*
X5000Y190000D02*
X5000Y190000D01*
Y170000D02*
Y190000D01*
X45500Y92646D02*
X48272Y95419D01*
X45500Y88500D02*
Y92646D01*
X98000Y111000D02*
X98792D01*
X101671Y108121D01*
X105593Y112000D02*
X143419Y149826D01*
X101500Y112000D02*
X105593D01*
X201500Y56000D02*
X203805D01*
X204724Y56919D01*
X140000Y111346D02*
Y111500D01*
X136672Y108019D02*
X140000Y111346D01*
X359219Y38419D02*
X366142Y31496D01*
X307772Y37069D02*
X309122Y38419D01*
X359219D01*
X302079Y24000D02*
X317500D01*
X301953Y23874D02*
X302079Y24000D01*
X315773Y96019D02*
X324073Y87719D01*
X359902Y41119D02*
X364521Y36500D01*
X369692D01*
X332000Y92500D02*
Y95446D01*
X328000Y99446D02*
X332000Y95446D01*
X328000Y99446D02*
Y100500D01*
X64672Y119084D02*
X65000Y119411D01*
Y122500D01*
X62673Y124000D02*
X63666Y124994D01*
X75998D01*
X62673Y104719D02*
Y124000D01*
X106142Y94831D02*
X112591D01*
X90748Y97244D02*
X117209D01*
X105355Y94044D02*
X106142Y94831D01*
X69534Y92500D02*
X90500D01*
X67598Y94044D02*
X89252D01*
X89682Y94475D01*
X48272Y95419D02*
X88947D01*
X106097Y92070D02*
X106247Y91919D01*
X90500Y92500D02*
X90930Y92070D01*
X106097D01*
X88947Y95419D02*
X89547Y96019D01*
X104924Y94475D02*
X105355Y94044D01*
X89682Y94475D02*
X104924D01*
X23360Y46326D02*
X69534Y92500D01*
X89547Y96019D02*
X124172D01*
X204724Y136719D02*
X204943Y136500D01*
X219000D01*
X201323Y127269D02*
X203092Y125500D01*
X254053D01*
X258372Y129819D01*
X204724Y128276D02*
X205000Y128000D01*
X204724Y128276D02*
Y136719D01*
X256500Y32000D02*
X293000D01*
X302119Y41119D01*
X359902D01*
X280554Y47500D02*
X310953D01*
X328973Y65519D01*
X273973Y40919D02*
X280554Y47500D01*
X273919Y40919D02*
X274000Y41000D01*
X262573Y40919D02*
X273919D01*
X273973D01*
X231873Y26219D02*
X241000Y35346D01*
Y37500D01*
X269953Y124500D02*
X275500D01*
X143419Y149826D02*
X244628D01*
X269953Y124500D01*
X112797Y91894D02*
X114691Y90000D01*
X128500D01*
X75998Y124994D02*
X89500Y111492D01*
Y108000D02*
Y111492D01*
X366142Y21654D02*
X371500Y27012D01*
Y34692D01*
X369692Y36500D02*
X371500Y34692D01*
X270000Y37000D02*
X273919Y40919D01*
X240873Y9519D02*
Y32873D01*
X245000Y37000D01*
X270000D01*
X256500Y10847D02*
Y12000D01*
X253472Y7819D02*
X256500Y10847D01*
X198272Y28500D02*
X218054D01*
X231554Y42000D01*
X64672Y119084D02*
X87137Y96619D01*
X19000Y159519D02*
X70481D01*
X188976Y37795D02*
X198272Y28500D01*
X179886Y88976D02*
X188976D01*
Y115748D01*
X324063Y87844D02*
X336010D01*
D34*
X258500Y183500D02*
Y200500D01*
X348500Y81500D02*
Y122500D01*
Y81500D02*
X387500Y42500D01*
Y15500D02*
Y42500D01*
X383811Y11811D02*
X387500Y15500D01*
X366142Y11811D02*
X383811D01*
X39500Y10500D02*
X47000Y3000D01*
X39500Y10500D02*
Y37000D01*
X35658Y40843D02*
X39500Y37000D01*
X27500Y40843D02*
X35658D01*
X272000Y197000D02*
X299500D01*
X258500Y183500D02*
X272000Y197000D01*
X339000Y132000D02*
X348500Y122500D01*
X333500Y132000D02*
X339000D01*
X21500Y182500D02*
X39500Y200500D01*
X12500Y164500D02*
X21500Y173500D01*
Y182500D01*
X12000Y164000D02*
X12500Y164500D01*
X8000Y164000D02*
X12000D01*
X5000Y161000D02*
X8000Y164000D01*
X5000Y149000D02*
Y161000D01*
Y149000D02*
X9500Y144500D01*
X29000D01*
X45135Y128365D01*
X41023Y93523D02*
X45135Y97635D01*
Y128365D01*
X6000Y6500D02*
X9500Y3000D01*
X47000D01*
X357331D01*
X6000Y6500D02*
Y45500D01*
X41023Y80523D01*
Y93523D01*
X357331Y3000D02*
X366142Y11811D01*
X39500Y200500D02*
X48000D01*
X258500D01*
D39*
X59055Y181102D02*
D03*
X334646D02*
D03*
Y23622D02*
D03*
X59055D02*
D03*
D40*
X108500Y183500D02*
D03*
D41*
X123500D02*
D03*
X138500D02*
D03*
X153500D02*
D03*
X168500D02*
D03*
X183500D02*
D03*
X198500D02*
D03*
X213500D02*
D03*
X228500D02*
D03*
X243500D02*
D03*
X258500D02*
D03*
D42*
X256500Y42000D02*
D03*
Y32000D02*
D03*
Y22000D02*
D03*
X246657Y12000D02*
D03*
Y22000D02*
D03*
Y32000D02*
D03*
Y42000D02*
D03*
X301953Y33874D02*
D03*
Y23874D02*
D03*
X311953Y28874D02*
D03*
X301500Y84000D02*
D03*
Y74000D02*
D03*
X311500Y79000D02*
D03*
X366142Y41339D02*
D03*
Y31496D02*
D03*
Y21654D02*
D03*
Y11811D02*
D03*
X27500Y11315D02*
D03*
Y21158D02*
D03*
Y31000D02*
D03*
Y40843D02*
D03*
D43*
X256500Y12000D02*
D03*
D44*
X169291Y117362D02*
D03*
Y107362D02*
D03*
Y97362D02*
D03*
D45*
Y87362D02*
D03*
D46*
X12500Y174500D02*
D03*
Y164500D02*
D03*
X333500Y132000D02*
D03*
D47*
X12500Y154500D02*
D03*
D48*
X311953Y18874D02*
D03*
X311500Y69000D02*
D03*
D49*
X296047Y10252D02*
D03*
Y41748D02*
D03*
X295594Y60378D02*
D03*
Y91874D02*
D03*
D50*
X299500Y197000D02*
D03*
Y107315D02*
D03*
D51*
X370000Y170158D02*
D03*
D52*
Y189842D02*
D03*
D53*
X5000Y190000D02*
D03*
Y200000D02*
D03*
D54*
X75000Y155000D02*
D03*
X85000D02*
D03*
X95000D02*
D03*
X105000D02*
D03*
X115000D02*
D03*
X125000D02*
D03*
X135000D02*
D03*
X145000D02*
D03*
X155000D02*
D03*
X165000D02*
D03*
X175000D02*
D03*
X185000D02*
D03*
X195000D02*
D03*
X205000D02*
D03*
X225000D02*
D03*
X235000D02*
D03*
X245000D02*
D03*
X255000D02*
D03*
X265000D02*
D03*
X275000D02*
D03*
X48000Y200500D02*
D03*
X80000Y10000D02*
D03*
X90000D02*
D03*
X100000D02*
D03*
X110000D02*
D03*
X120000D02*
D03*
X130000D02*
D03*
X140000D02*
D03*
X150000D02*
D03*
X160000D02*
D03*
X170000D02*
D03*
X180000D02*
D03*
X190000D02*
D03*
X200000D02*
D03*
X210000D02*
D03*
X140000Y120000D02*
D03*
X80000Y190000D02*
D03*
X75000Y195000D02*
D03*
X55000Y160000D02*
D03*
Y155000D02*
D03*
Y150000D02*
D03*
Y145000D02*
D03*
X310000Y170000D02*
D03*
Y160000D02*
D03*
X300000Y165000D02*
D03*
Y155000D02*
D03*
Y145000D02*
D03*
X290000Y155000D02*
D03*
Y145000D02*
D03*
Y135000D02*
D03*
X310000Y150000D02*
D03*
X155000Y70000D02*
D03*
X165000Y60000D02*
D03*
X175000Y50000D02*
D03*
X195000Y35000D02*
D03*
X230000Y60000D02*
D03*
X215000Y65000D02*
D03*
X220000Y45000D02*
D03*
Y90000D02*
D03*
X181000Y88000D02*
D03*
X191000Y101500D02*
D03*
X192500Y76500D02*
D03*
D55*
X109039Y70039D02*
D03*
X124500Y51000D02*
D03*
X214173Y31119D02*
D03*
X83573Y80319D02*
D03*
X324073Y87719D02*
D03*
X268473Y96019D02*
D03*
X124998Y103169D02*
D03*
X152573Y125419D02*
D03*
X78272Y109719D02*
D03*
X117984Y98019D02*
D03*
X149773Y85619D02*
D03*
X180572Y106119D02*
D03*
X124723Y87019D02*
D03*
X186972Y132019D02*
D03*
X336372Y102369D02*
D03*
X328973Y65519D02*
D03*
X214173Y50819D02*
D03*
X121773Y108019D02*
D03*
X48173Y64719D02*
D03*
X186472Y26219D02*
D03*
X125873Y97719D02*
D03*
X293672Y69019D02*
D03*
X165472Y127819D02*
D03*
X143173Y101819D02*
D03*
X177822Y137069D02*
D03*
X146272Y103619D02*
D03*
X258372Y129819D02*
D03*
X250673Y131619D02*
D03*
X87137Y97869D02*
D03*
X62673Y104719D02*
D03*
X110110Y125582D02*
D03*
X51573Y126181D02*
D03*
X182173Y78019D02*
D03*
X210273Y81219D02*
D03*
X263873Y45119D02*
D03*
X112897Y99881D02*
D03*
X106000Y102500D02*
D03*
X71372Y87719D02*
D03*
X110236Y86614D02*
D03*
X96245Y82326D02*
D03*
X19000Y159519D02*
D03*
X5000Y170000D02*
D03*
X45500Y88500D02*
D03*
X98000Y111000D02*
D03*
X101500Y112000D02*
D03*
X201500Y56000D02*
D03*
X140000Y111500D02*
D03*
X317500Y24000D02*
D03*
X332000Y92500D02*
D03*
X328000Y100500D02*
D03*
X65000Y122500D02*
D03*
X105355Y94044D02*
D03*
X90500Y92500D02*
D03*
X219000Y136500D02*
D03*
X205000Y128000D02*
D03*
X241000Y37500D02*
D03*
X275500Y124500D02*
D03*
X128500Y90000D02*
D03*
X89500Y108000D02*
D03*
X211000Y174000D02*
D03*
D56*
X188976Y166929D02*
D03*
Y140157D02*
D03*
X204724Y166929D02*
D03*
Y140157D02*
D03*
X188976Y115748D02*
D03*
Y88976D02*
D03*
X204724Y115748D02*
D03*
Y88976D02*
D03*
X188976Y64567D02*
D03*
Y37795D02*
D03*
X204724Y64567D02*
D03*
Y37795D02*
D03*
M02*
