G04 Layer_Color=65535*
%FSLAX25Y25*%
%MOIN*%
G70*
G01*
G75*
%ADD32C,0.01181*%
%ADD33C,0.00787*%
%ADD57C,0.02756*%
%ADD58C,0.01000*%
%ADD59C,0.00984*%
%ADD60C,0.01575*%
%ADD61C,0.00827*%
%ADD62C,0.00394*%
%ADD63C,0.00591*%
%ADD64C,0.01200*%
%ADD65R,0.16535X0.02362*%
%ADD66R,0.02362X0.01969*%
%ADD67R,0.05512X0.01969*%
%ADD68R,0.14173X0.01575*%
%ADD69R,0.02756X0.05512*%
%ADD70R,0.08661X0.03937*%
G36*
X357000Y4747D02*
X353348D01*
X353355Y4739D01*
X353370Y4725D01*
X353391Y4696D01*
X353428Y4652D01*
X353472Y4601D01*
X353515Y4543D01*
X353566Y4470D01*
X353625Y4389D01*
X353683Y4302D01*
X353741Y4207D01*
X353807Y4105D01*
X353865Y3996D01*
X353975Y3762D01*
X354077Y3500D01*
X353202D01*
Y3507D01*
X353195Y3515D01*
X353187Y3536D01*
X353180Y3566D01*
X353144Y3638D01*
X353100Y3741D01*
X353042Y3864D01*
X352961Y4003D01*
X352859Y4156D01*
X352743Y4316D01*
X352735Y4324D01*
X352728Y4338D01*
X352706Y4360D01*
X352677Y4389D01*
X352604Y4470D01*
X352509Y4557D01*
X352393Y4659D01*
X352247Y4761D01*
X352094Y4856D01*
X351926Y4929D01*
Y5716D01*
X357000D01*
Y4747D01*
D02*
G37*
G36*
X33267Y54516D02*
X33274Y54509D01*
X33281Y54487D01*
X33288Y54458D01*
X33325Y54385D01*
X33369Y54283D01*
X33427Y54159D01*
X33507Y54021D01*
X33609Y53868D01*
X33726Y53707D01*
X33733Y53700D01*
X33740Y53685D01*
X33762Y53663D01*
X33792Y53634D01*
X33864Y53554D01*
X33959Y53467D01*
X34076Y53364D01*
X34222Y53263D01*
X34375Y53168D01*
X34542Y53095D01*
Y52307D01*
X29469D01*
Y53277D01*
X33121D01*
X33114Y53284D01*
X33099Y53299D01*
X33077Y53328D01*
X33041Y53372D01*
X32997Y53423D01*
X32953Y53481D01*
X32902Y53554D01*
X32844Y53634D01*
X32785Y53722D01*
X32727Y53816D01*
X32662Y53919D01*
X32603Y54028D01*
X32494Y54261D01*
X32392Y54524D01*
X33267D01*
Y54516D01*
D02*
G37*
G36*
X96051Y172476D02*
X95081D01*
Y176129D01*
X95074Y176121D01*
X95059Y176107D01*
X95030Y176085D01*
X94986Y176049D01*
X94935Y176005D01*
X94877Y175961D01*
X94804Y175910D01*
X94724Y175852D01*
X94636Y175793D01*
X94542Y175735D01*
X94440Y175669D01*
X94330Y175611D01*
X94097Y175502D01*
X93835Y175400D01*
Y176275D01*
X93842D01*
X93849Y176282D01*
X93871Y176289D01*
X93900Y176296D01*
X93973Y176333D01*
X94075Y176376D01*
X94199Y176435D01*
X94338Y176515D01*
X94491Y176617D01*
X94651Y176734D01*
X94658Y176741D01*
X94673Y176748D01*
X94695Y176770D01*
X94724Y176799D01*
X94804Y176872D01*
X94892Y176967D01*
X94994Y177084D01*
X95096Y177229D01*
X95191Y177383D01*
X95263Y177550D01*
X96051D01*
Y172476D01*
D02*
G37*
G36*
X388504Y157624D02*
X384852D01*
X384859Y157617D01*
X384874Y157603D01*
X384895Y157573D01*
X384932Y157530D01*
X384976Y157479D01*
X385019Y157420D01*
X385070Y157348D01*
X385129Y157267D01*
X385187Y157180D01*
X385245Y157085D01*
X385311Y156983D01*
X385369Y156874D01*
X385479Y156640D01*
X385581Y156378D01*
X384706D01*
Y156385D01*
X384699Y156393D01*
X384691Y156414D01*
X384684Y156444D01*
X384647Y156517D01*
X384604Y156618D01*
X384545Y156743D01*
X384465Y156881D01*
X384363Y157034D01*
X384247Y157194D01*
X384239Y157202D01*
X384232Y157216D01*
X384210Y157238D01*
X384181Y157267D01*
X384108Y157348D01*
X384013Y157435D01*
X383897Y157537D01*
X383751Y157639D01*
X383598Y157734D01*
X383430Y157807D01*
Y158594D01*
X388504D01*
Y157624D01*
D02*
G37*
D32*
X232555Y76000D02*
G03*
X232555Y76000I-9055J0D01*
G01*
X255654D02*
G03*
X255654Y76000I-9055J0D01*
G01*
X348598Y110272D02*
G03*
X348598Y110272I-394J0D01*
G01*
X229126Y124173D02*
X244874Y96614D01*
X229126D02*
X244874Y124173D01*
D33*
X265350Y110362D02*
X271650D01*
X265350Y98945D02*
X271650D01*
Y117055D01*
X265350D02*
X271650D01*
X265350Y98945D02*
Y117055D01*
X162543Y89736D02*
Y94264D01*
X155457Y89736D02*
Y94264D01*
X104008Y84008D02*
X129992D01*
X104008Y109992D02*
X129992D01*
X104008Y84008D02*
Y109992D01*
X129992Y84008D02*
Y109992D01*
X7500Y149500D02*
X17500D01*
X7500D02*
Y179500D01*
X17500D01*
Y149500D02*
Y179500D01*
X354043Y80236D02*
Y84764D01*
X346957Y80236D02*
Y84764D01*
X318811Y84602D02*
X345189D01*
X318811Y97398D02*
X345189D01*
Y84602D02*
Y97398D01*
X318811Y84602D02*
Y97398D01*
X357543Y61736D02*
Y66264D01*
X350457Y61736D02*
Y66264D01*
X332862Y65351D02*
Y71650D01*
X321445Y65351D02*
Y71650D01*
Y65351D02*
X339555D01*
Y71650D01*
X321445D02*
X339555D01*
D57*
X242118Y100157D02*
G03*
X242118Y100157I-787J0D01*
G01*
D58*
X235425Y121024D02*
G03*
X231488Y117087I0J-3937D01*
G01*
X243299D02*
G03*
X239362Y121024I-3937J0D01*
G01*
X231488Y117087D02*
X233063Y100158D01*
X241331D01*
X243299Y117874D01*
X235425Y121024D02*
X239362D01*
X216256Y81433D02*
X231256Y71473D01*
X324411Y199550D02*
X321787D01*
Y197582D01*
X323099D01*
X321787D01*
Y195614D01*
X325723D02*
X327035D01*
X326379D01*
Y199550D01*
X325723Y198894D01*
X320500Y62436D02*
Y59812D01*
X321812Y58500D01*
X323124Y59812D01*
Y62436D01*
X327060Y58500D02*
X324436D01*
X327060Y61124D01*
Y61780D01*
X326404Y62436D01*
X325092D01*
X324436Y61780D01*
X320000Y37936D02*
Y35312D01*
X321312Y34000D01*
X322624Y35312D01*
Y37936D01*
X323936Y34000D02*
X325248D01*
X324592D01*
Y37936D01*
X323936Y37280D01*
X269500Y65436D02*
Y62156D01*
X270156Y61500D01*
X271468D01*
X272124Y62156D01*
Y65436D01*
X276060D02*
X274748Y64780D01*
X273436Y63468D01*
Y62156D01*
X274092Y61500D01*
X275404D01*
X276060Y62156D01*
Y62812D01*
X275404Y63468D01*
X273436D01*
X112500Y50936D02*
Y47656D01*
X113156Y47000D01*
X114468D01*
X115124Y47656D01*
Y50936D01*
X119060D02*
X116436D01*
Y48968D01*
X117748Y49624D01*
X118404D01*
X119060Y48968D01*
Y47656D01*
X118404Y47000D01*
X117092D01*
X116436Y47656D01*
X351500Y129436D02*
Y126156D01*
X352156Y125500D01*
X353468D01*
X354124Y126156D01*
Y129436D01*
X357404Y125500D02*
Y129436D01*
X355436Y127468D01*
X358060D01*
X322000Y92436D02*
Y89156D01*
X322656Y88500D01*
X323968D01*
X324624Y89156D01*
Y92436D01*
X325936Y91780D02*
X326592Y92436D01*
X327904D01*
X328560Y91780D01*
Y91124D01*
X327904Y90468D01*
X327248D01*
X327904D01*
X328560Y89812D01*
Y89156D01*
X327904Y88500D01*
X326592D01*
X325936Y89156D01*
X131000Y115436D02*
Y112156D01*
X131656Y111500D01*
X132968D01*
X133624Y112156D01*
Y115436D01*
X137560Y111500D02*
X134936D01*
X137560Y114124D01*
Y114780D01*
X136904Y115436D01*
X135592D01*
X134936Y114780D01*
X260000Y140936D02*
X262624D01*
X261312D01*
Y137000D01*
X263936D02*
X265248D01*
X264592D01*
Y140936D01*
X263936Y140280D01*
X267215Y137000D02*
X268527D01*
X267871D01*
Y140936D01*
X267215Y140280D01*
X239000Y140936D02*
X241624D01*
X240312D01*
Y137000D01*
X242936D02*
X244248D01*
X243592D01*
Y140936D01*
X242936Y140280D01*
X246216D02*
X246871Y140936D01*
X248183D01*
X248839Y140280D01*
Y137656D01*
X248183Y137000D01*
X246871D01*
X246216Y137656D01*
Y140280D01*
X218000Y140936D02*
X220624D01*
X219312D01*
Y137000D01*
X221936Y137656D02*
X222592Y137000D01*
X223904D01*
X224560Y137656D01*
Y140280D01*
X223904Y140936D01*
X222592D01*
X221936Y140280D01*
Y139624D01*
X222592Y138968D01*
X224560D01*
X197000Y140936D02*
X199624D01*
X198312D01*
Y137000D01*
X200936Y140280D02*
X201592Y140936D01*
X202904D01*
X203560Y140280D01*
Y139624D01*
X202904Y138968D01*
X203560Y138312D01*
Y137656D01*
X202904Y137000D01*
X201592D01*
X200936Y137656D01*
Y138312D01*
X201592Y138968D01*
X200936Y139624D01*
Y140280D01*
X201592Y138968D02*
X202904D01*
X176000Y140936D02*
X178624D01*
X177312D01*
Y137000D01*
X179936Y140936D02*
X182560D01*
Y140280D01*
X179936Y137656D01*
Y137000D01*
X155000Y140936D02*
X157624D01*
X156312D01*
Y137000D01*
X161560Y140936D02*
X160248Y140280D01*
X158936Y138968D01*
Y137656D01*
X159592Y137000D01*
X160904D01*
X161560Y137656D01*
Y138312D01*
X160904Y138968D01*
X158936D01*
X5000Y185436D02*
X7624D01*
X6312D01*
Y181500D01*
X11560Y185436D02*
X8936D01*
Y183468D01*
X10248Y184124D01*
X10904D01*
X11560Y183468D01*
Y182156D01*
X10904Y181500D01*
X9592D01*
X8936Y182156D01*
X134000Y140436D02*
X136624D01*
X135312D01*
Y136500D01*
X139904D02*
Y140436D01*
X137936Y138468D01*
X140560D01*
X113000Y140936D02*
X115624D01*
X114312D01*
Y137000D01*
X116936Y140280D02*
X117592Y140936D01*
X118904D01*
X119560Y140280D01*
Y139624D01*
X118904Y138968D01*
X118248D01*
X118904D01*
X119560Y138312D01*
Y137656D01*
X118904Y137000D01*
X117592D01*
X116936Y137656D01*
X92000Y140936D02*
X94624D01*
X93312D01*
Y137000D01*
X98560D02*
X95936D01*
X98560Y139624D01*
Y140280D01*
X97904Y140936D01*
X96592D01*
X95936Y140280D01*
X197500Y116000D02*
Y119936D01*
X199468D01*
X200124Y119280D01*
Y117968D01*
X199468Y117312D01*
X197500D01*
X198812D02*
X200124Y116000D01*
X203404D02*
Y119936D01*
X201436Y117968D01*
X204060D01*
X207339Y116000D02*
Y119936D01*
X205371Y117968D01*
X207995D01*
X197000Y93000D02*
Y96936D01*
X198968D01*
X199624Y96280D01*
Y94968D01*
X198968Y94312D01*
X197000D01*
X198312D02*
X199624Y93000D01*
X202904D02*
Y96936D01*
X200936Y94968D01*
X203560D01*
X204872Y96280D02*
X205527Y96936D01*
X206839D01*
X207495Y96280D01*
Y95624D01*
X206839Y94968D01*
X206183D01*
X206839D01*
X207495Y94312D01*
Y93656D01*
X206839Y93000D01*
X205527D01*
X204872Y93656D01*
X196500Y70500D02*
Y74436D01*
X198468D01*
X199124Y73780D01*
Y72468D01*
X198468Y71812D01*
X196500D01*
X197812D02*
X199124Y70500D01*
X202404D02*
Y74436D01*
X200436Y72468D01*
X203060D01*
X206995Y70500D02*
X204372D01*
X206995Y73124D01*
Y73780D01*
X206339Y74436D01*
X205027D01*
X204372Y73780D01*
X272000Y125000D02*
X268064D01*
Y126968D01*
X268720Y127624D01*
X270032D01*
X270688Y126968D01*
Y125000D01*
Y126312D02*
X272000Y127624D01*
Y131560D02*
Y128936D01*
X269376Y131560D01*
X268720D01*
X268064Y130904D01*
Y129592D01*
X268720Y128936D01*
X272000Y135495D02*
Y132871D01*
X269376Y135495D01*
X268720D01*
X268064Y134839D01*
Y133527D01*
X268720Y132871D01*
X251500Y126500D02*
X247564D01*
Y128468D01*
X248220Y129124D01*
X249532D01*
X250188Y128468D01*
Y126500D01*
Y127812D02*
X251500Y129124D01*
Y133060D02*
Y130436D01*
X248876Y133060D01*
X248220D01*
X247564Y132404D01*
Y131092D01*
X248220Y130436D01*
X251500Y134371D02*
Y135683D01*
Y135027D01*
X247564D01*
X248220Y134371D01*
X230500Y132000D02*
X226564D01*
Y133968D01*
X227220Y134624D01*
X228532D01*
X229188Y133968D01*
Y132000D01*
Y133312D02*
X230500Y134624D01*
Y138560D02*
Y135936D01*
X227876Y138560D01*
X227220D01*
X226564Y137904D01*
Y136592D01*
X227220Y135936D01*
Y139872D02*
X226564Y140527D01*
Y141839D01*
X227220Y142495D01*
X229844D01*
X230500Y141839D01*
Y140527D01*
X229844Y139872D01*
X227220D01*
X209500Y132000D02*
X205564D01*
Y133968D01*
X206220Y134624D01*
X207532D01*
X208188Y133968D01*
Y132000D01*
Y133312D02*
X209500Y134624D01*
Y135936D02*
Y137248D01*
Y136592D01*
X205564D01*
X206220Y135936D01*
X208844Y139216D02*
X209500Y139872D01*
Y141183D01*
X208844Y141839D01*
X206220D01*
X205564Y141183D01*
Y139872D01*
X206220Y139216D01*
X206876D01*
X207532Y139872D01*
Y141839D01*
X83500Y71500D02*
X79564D01*
Y73468D01*
X80220Y74124D01*
X81532D01*
X82188Y73468D01*
Y71500D01*
Y72812D02*
X83500Y74124D01*
Y75436D02*
Y76748D01*
Y76092D01*
X79564D01*
X80220Y75436D01*
Y78715D02*
X79564Y79372D01*
Y80683D01*
X80220Y81339D01*
X80876D01*
X81532Y80683D01*
X82188Y81339D01*
X82844D01*
X83500Y80683D01*
Y79372D01*
X82844Y78715D01*
X82188D01*
X81532Y79372D01*
X80876Y78715D01*
X80220D01*
X81532Y79372D02*
Y80683D01*
X29000Y193500D02*
Y197436D01*
X30968D01*
X31624Y196780D01*
Y195468D01*
X30968Y194812D01*
X29000D01*
X30312D02*
X31624Y193500D01*
X32936D02*
X34248D01*
X33592D01*
Y197436D01*
X32936Y196780D01*
X36215Y197436D02*
X38839D01*
Y196780D01*
X36215Y194156D01*
Y193500D01*
X257000Y98500D02*
X253064D01*
Y100468D01*
X253720Y101124D01*
X255032D01*
X255688Y100468D01*
Y98500D01*
Y99812D02*
X257000Y101124D01*
Y102436D02*
Y103748D01*
Y103092D01*
X253064D01*
X253720Y102436D01*
X253064Y108339D02*
X253720Y107027D01*
X255032Y105716D01*
X256344D01*
X257000Y106371D01*
Y107683D01*
X256344Y108339D01*
X255688D01*
X255032Y107683D01*
Y105716D01*
X257000Y112500D02*
X253064D01*
Y114468D01*
X253720Y115124D01*
X255032D01*
X255688Y114468D01*
Y112500D01*
Y113812D02*
X257000Y115124D01*
Y116436D02*
Y117748D01*
Y117092D01*
X253064D01*
X253720Y116436D01*
X253064Y122339D02*
Y119715D01*
X255032D01*
X254376Y121027D01*
Y121683D01*
X255032Y122339D01*
X256344D01*
X257000Y121683D01*
Y120371D01*
X256344Y119715D01*
X83500Y132000D02*
X79564D01*
Y133968D01*
X80220Y134624D01*
X81532D01*
X82188Y133968D01*
Y132000D01*
Y133312D02*
X83500Y134624D01*
Y135936D02*
Y137248D01*
Y136592D01*
X79564D01*
X80220Y135936D01*
X83500Y141183D02*
X79564D01*
X81532Y139216D01*
Y141839D01*
X65000Y76500D02*
X61064D01*
Y78468D01*
X61720Y79124D01*
X63032D01*
X63688Y78468D01*
Y76500D01*
Y77812D02*
X65000Y79124D01*
Y80436D02*
Y81748D01*
Y81092D01*
X61064D01*
X61720Y80436D01*
Y83715D02*
X61064Y84372D01*
Y85683D01*
X61720Y86339D01*
X62376D01*
X63032Y85683D01*
Y85027D01*
Y85683D01*
X63688Y86339D01*
X64344D01*
X65000Y85683D01*
Y84372D01*
X64344Y83715D01*
X46500Y76500D02*
X42564D01*
Y78468D01*
X43220Y79124D01*
X44532D01*
X45188Y78468D01*
Y76500D01*
Y77812D02*
X46500Y79124D01*
Y80436D02*
Y81748D01*
Y81092D01*
X42564D01*
X43220Y80436D01*
X46500Y86339D02*
Y83715D01*
X43876Y86339D01*
X43220D01*
X42564Y85683D01*
Y84372D01*
X43220Y83715D01*
X65000Y90000D02*
X61064D01*
Y91968D01*
X61720Y92624D01*
X63032D01*
X63688Y91968D01*
Y90000D01*
Y91312D02*
X65000Y92624D01*
Y93936D02*
Y95248D01*
Y94592D01*
X61064D01*
X61720Y93936D01*
X65000Y97215D02*
Y98527D01*
Y97872D01*
X61064D01*
X61720Y97215D01*
X46500Y90000D02*
X42564D01*
Y91968D01*
X43220Y92624D01*
X44532D01*
X45188Y91968D01*
Y90000D01*
Y91312D02*
X46500Y92624D01*
Y93936D02*
Y95248D01*
Y94592D01*
X42564D01*
X43220Y93936D01*
Y97215D02*
X42564Y97872D01*
Y99183D01*
X43220Y99839D01*
X45844D01*
X46500Y99183D01*
Y97872D01*
X45844Y97215D01*
X43220D01*
X39500Y184000D02*
X35564D01*
Y185968D01*
X36220Y186624D01*
X37532D01*
X38188Y185968D01*
Y184000D01*
Y185312D02*
X39500Y186624D01*
X38844Y187936D02*
X39500Y188592D01*
Y189904D01*
X38844Y190560D01*
X36220D01*
X35564Y189904D01*
Y188592D01*
X36220Y187936D01*
X36876D01*
X37532Y188592D01*
Y190560D01*
X177000Y99500D02*
Y103436D01*
X178968D01*
X179624Y102780D01*
Y101468D01*
X178968Y100812D01*
X177000D01*
X178312D02*
X179624Y99500D01*
X180936Y102780D02*
X181592Y103436D01*
X182904D01*
X183560Y102780D01*
Y102124D01*
X182904Y101468D01*
X183560Y100812D01*
Y100156D01*
X182904Y99500D01*
X181592D01*
X180936Y100156D01*
Y100812D01*
X181592Y101468D01*
X180936Y102124D01*
Y102780D01*
X181592Y101468D02*
X182904D01*
X177000Y121500D02*
Y125436D01*
X178968D01*
X179624Y124780D01*
Y123468D01*
X178968Y122812D01*
X177000D01*
X178312D02*
X179624Y121500D01*
X180936Y125436D02*
X183560D01*
Y124780D01*
X180936Y122156D01*
Y121500D01*
X78000Y118500D02*
X74064D01*
Y120468D01*
X74720Y121124D01*
X76032D01*
X76688Y120468D01*
Y118500D01*
Y119812D02*
X78000Y121124D01*
X74064Y125060D02*
X74720Y123748D01*
X76032Y122436D01*
X77344D01*
X78000Y123092D01*
Y124404D01*
X77344Y125060D01*
X76688D01*
X76032Y124404D01*
Y122436D01*
X188500Y132000D02*
X184564D01*
Y133968D01*
X185220Y134624D01*
X186532D01*
X187188Y133968D01*
Y132000D01*
Y133312D02*
X188500Y134624D01*
X184564Y138560D02*
Y135936D01*
X186532D01*
X185876Y137248D01*
Y137904D01*
X186532Y138560D01*
X187844D01*
X188500Y137904D01*
Y136592D01*
X187844Y135936D01*
X167500Y132000D02*
X163564D01*
Y133968D01*
X164220Y134624D01*
X165532D01*
X166188Y133968D01*
Y132000D01*
Y133312D02*
X167500Y134624D01*
Y137904D02*
X163564D01*
X165532Y135936D01*
Y138560D01*
X146500Y132000D02*
X142564D01*
Y133968D01*
X143220Y134624D01*
X144532D01*
X145188Y133968D01*
Y132000D01*
Y133312D02*
X146500Y134624D01*
X143220Y135936D02*
X142564Y136592D01*
Y137904D01*
X143220Y138560D01*
X143876D01*
X144532Y137904D01*
Y137248D01*
Y137904D01*
X145188Y138560D01*
X145844D01*
X146500Y137904D01*
Y136592D01*
X145844Y135936D01*
X125500Y132000D02*
X121564D01*
Y133968D01*
X122220Y134624D01*
X123532D01*
X124188Y133968D01*
Y132000D01*
Y133312D02*
X125500Y134624D01*
Y138560D02*
Y135936D01*
X122876Y138560D01*
X122220D01*
X121564Y137904D01*
Y136592D01*
X122220Y135936D01*
X104500Y132000D02*
X100564D01*
Y133968D01*
X101220Y134624D01*
X102532D01*
X103188Y133968D01*
Y132000D01*
Y133312D02*
X104500Y134624D01*
Y135936D02*
Y137248D01*
Y136592D01*
X100564D01*
X101220Y135936D01*
X81564Y52500D02*
X85500D01*
Y55124D01*
Y59060D02*
Y56436D01*
X82876Y59060D01*
X82220D01*
X81564Y58404D01*
Y57092D01*
X82220Y56436D01*
X247624Y55436D02*
X246312D01*
X246968D01*
Y52156D01*
X246312Y51500D01*
X245656D01*
X245000Y52156D01*
X248936Y51500D02*
X250248D01*
X249592D01*
Y55436D01*
X248936Y54780D01*
X252216D02*
X252871Y55436D01*
X254183D01*
X254839Y54780D01*
Y52156D01*
X254183Y51500D01*
X252871D01*
X252216Y52156D01*
Y54780D01*
X342108Y201802D02*
X340796D01*
X341452D01*
Y198522D01*
X340796Y197866D01*
X340140D01*
X339484Y198522D01*
X343420D02*
X344076Y197866D01*
X345388D01*
X346044Y198522D01*
Y201146D01*
X345388Y201802D01*
X344076D01*
X343420Y201146D01*
Y200490D01*
X344076Y199834D01*
X346044D01*
X283124Y99436D02*
X281812D01*
X282468D01*
Y96156D01*
X281812Y95500D01*
X281156D01*
X280500Y96156D01*
X284436Y99436D02*
X287060D01*
Y98780D01*
X284436Y96156D01*
Y95500D01*
X283124Y48936D02*
X281812D01*
X282468D01*
Y45656D01*
X281812Y45000D01*
X281156D01*
X280500Y45656D01*
X287060Y48936D02*
X285748Y48280D01*
X284436Y46968D01*
Y45656D01*
X285092Y45000D01*
X286404D01*
X287060Y45656D01*
Y46312D01*
X286404Y46968D01*
X284436D01*
X89183Y200365D02*
X87871D01*
X88527D01*
Y197085D01*
X87871Y196429D01*
X87215D01*
X86559Y197085D01*
X93119Y200365D02*
X90495D01*
Y198397D01*
X91807Y199053D01*
X92463D01*
X93119Y198397D01*
Y197085D01*
X92463Y196429D01*
X91151D01*
X90495Y197085D01*
X365624Y56936D02*
X364312D01*
X364968D01*
Y53656D01*
X364312Y53000D01*
X363656D01*
X363000Y53656D01*
X368904Y53000D02*
Y56936D01*
X366936Y54968D01*
X369560D01*
X18624Y56436D02*
X17312D01*
X17968D01*
Y53156D01*
X17312Y52500D01*
X16656D01*
X16000Y53156D01*
X19936Y55780D02*
X20592Y56436D01*
X21904D01*
X22560Y55780D01*
Y55124D01*
X21904Y54468D01*
X21248D01*
X21904D01*
X22560Y53812D01*
Y53156D01*
X21904Y52500D01*
X20592D01*
X19936Y53156D01*
X11124Y147436D02*
X9812D01*
X10468D01*
Y144156D01*
X9812Y143500D01*
X9156D01*
X8500Y144156D01*
X15060Y143500D02*
X12436D01*
X15060Y146124D01*
Y146780D01*
X14404Y147436D01*
X13092D01*
X12436Y146780D01*
X51096Y130755D02*
X49784D01*
X50440D01*
Y127475D01*
X49784Y126819D01*
X49128D01*
X48472Y127475D01*
X52408Y126819D02*
X53720D01*
X53064D01*
Y130755D01*
X52408Y130099D01*
X265500Y122936D02*
Y119000D01*
X267468D01*
X268124Y119656D01*
Y122280D01*
X267468Y122936D01*
X265500D01*
X269436Y119656D02*
X270092Y119000D01*
X271404D01*
X272060Y119656D01*
Y122280D01*
X271404Y122936D01*
X270092D01*
X269436Y122280D01*
Y121624D01*
X270092Y120968D01*
X272060D01*
X332000Y63436D02*
Y59500D01*
X333968D01*
X334624Y60156D01*
Y62780D01*
X333968Y63436D01*
X332000D01*
X335936Y62780D02*
X336592Y63436D01*
X337904D01*
X338560Y62780D01*
Y62124D01*
X337904Y61468D01*
X338560Y60812D01*
Y60156D01*
X337904Y59500D01*
X336592D01*
X335936Y60156D01*
Y60812D01*
X336592Y61468D01*
X335936Y62124D01*
Y62780D01*
X336592Y61468D02*
X337904D01*
X321172Y163655D02*
Y159719D01*
X323140D01*
X323796Y160375D01*
Y162999D01*
X323140Y163655D01*
X321172D01*
X325108D02*
X327732D01*
Y162999D01*
X325108Y160375D01*
Y159719D01*
X337173Y163655D02*
Y159719D01*
X339140D01*
X339796Y160375D01*
Y162999D01*
X339140Y163655D01*
X337173D01*
X343732D02*
X342420Y162999D01*
X341108Y161687D01*
Y160375D01*
X341764Y159719D01*
X343076D01*
X343732Y160375D01*
Y161031D01*
X343076Y161687D01*
X341108D01*
X352673Y163655D02*
Y159719D01*
X354640D01*
X355296Y160375D01*
Y162999D01*
X354640Y163655D01*
X352673D01*
X359232D02*
X356608D01*
Y161687D01*
X357920Y162343D01*
X358576D01*
X359232Y161687D01*
Y160375D01*
X358576Y159719D01*
X357264D01*
X356608Y160375D01*
X199624Y101780D02*
X198968Y102436D01*
X197656D01*
X197000Y101780D01*
Y99156D01*
X197656Y98500D01*
X198968D01*
X199624Y99156D01*
X200936Y101780D02*
X201592Y102436D01*
X202904D01*
X203560Y101780D01*
Y101124D01*
X202904Y100468D01*
X202248D01*
X202904D01*
X203560Y99812D01*
Y99156D01*
X202904Y98500D01*
X201592D01*
X200936Y99156D01*
X204872Y101780D02*
X205527Y102436D01*
X206839D01*
X207495Y101780D01*
Y101124D01*
X206839Y100468D01*
X206183D01*
X206839D01*
X207495Y99812D01*
Y99156D01*
X206839Y98500D01*
X205527D01*
X204872Y99156D01*
X199124Y79280D02*
X198468Y79936D01*
X197156D01*
X196500Y79280D01*
Y76656D01*
X197156Y76000D01*
X198468D01*
X199124Y76656D01*
X200436Y79280D02*
X201092Y79936D01*
X202404D01*
X203060Y79280D01*
Y78624D01*
X202404Y77968D01*
X201748D01*
X202404D01*
X203060Y77312D01*
Y76656D01*
X202404Y76000D01*
X201092D01*
X200436Y76656D01*
X206995Y76000D02*
X204372D01*
X206995Y78624D01*
Y79280D01*
X206339Y79936D01*
X205027D01*
X204372Y79280D01*
X199624Y56780D02*
X198968Y57436D01*
X197656D01*
X197000Y56780D01*
Y54156D01*
X197656Y53500D01*
X198968D01*
X199624Y54156D01*
X200936Y56780D02*
X201592Y57436D01*
X202904D01*
X203560Y56780D01*
Y56124D01*
X202904Y55468D01*
X202248D01*
X202904D01*
X203560Y54812D01*
Y54156D01*
X202904Y53500D01*
X201592D01*
X200936Y54156D01*
X204872Y53500D02*
X206183D01*
X205527D01*
Y57436D01*
X204872Y56780D01*
X31624Y202780D02*
X30968Y203436D01*
X29656D01*
X29000Y202780D01*
Y200156D01*
X29656Y199500D01*
X30968D01*
X31624Y200156D01*
X35560Y199500D02*
X32936D01*
X35560Y202124D01*
Y202780D01*
X34904Y203436D01*
X33592D01*
X32936Y202780D01*
X39495Y199500D02*
X36871D01*
X39495Y202124D01*
Y202780D01*
X38839Y203436D01*
X37527D01*
X36871Y202780D01*
X92124Y71780D02*
X91468Y72436D01*
X90156D01*
X89500Y71780D01*
Y69156D01*
X90156Y68500D01*
X91468D01*
X92124Y69156D01*
X96060Y68500D02*
X93436D01*
X96060Y71124D01*
Y71780D01*
X95404Y72436D01*
X94092D01*
X93436Y71780D01*
X97372Y68500D02*
X98683D01*
X98027D01*
Y72436D01*
X97372Y71780D01*
X143624Y116280D02*
X142968Y116936D01*
X141656D01*
X141000Y116280D01*
Y113656D01*
X141656Y113000D01*
X142968D01*
X143624Y113656D01*
X147560Y113000D02*
X144936D01*
X147560Y115624D01*
Y116280D01*
X146904Y116936D01*
X145592D01*
X144936Y116280D01*
X148872D02*
X149527Y116936D01*
X150839D01*
X151495Y116280D01*
Y113656D01*
X150839Y113000D01*
X149527D01*
X148872Y113656D01*
Y116280D01*
X95624Y123780D02*
X94968Y124436D01*
X93656D01*
X93000Y123780D01*
Y121156D01*
X93656Y120500D01*
X94968D01*
X95624Y121156D01*
X96936Y120500D02*
X98248D01*
X97592D01*
Y124436D01*
X96936Y123780D01*
X100215Y121156D02*
X100872Y120500D01*
X102183D01*
X102839Y121156D01*
Y123780D01*
X102183Y124436D01*
X100872D01*
X100215Y123780D01*
Y123124D01*
X100872Y122468D01*
X102839D01*
X83624Y94280D02*
X82968Y94936D01*
X81656D01*
X81000Y94280D01*
Y91656D01*
X81656Y91000D01*
X82968D01*
X83624Y91656D01*
X84936Y91000D02*
X86248D01*
X85592D01*
Y94936D01*
X84936Y94280D01*
X88216D02*
X88872Y94936D01*
X90183D01*
X90839Y94280D01*
Y93624D01*
X90183Y92968D01*
X90839Y92312D01*
Y91656D01*
X90183Y91000D01*
X88872D01*
X88216Y91656D01*
Y92312D01*
X88872Y92968D01*
X88216Y93624D01*
Y94280D01*
X88872Y92968D02*
X90183D01*
X149720Y90124D02*
X149064Y89468D01*
Y88156D01*
X149720Y87500D01*
X152344D01*
X153000Y88156D01*
Y89468D01*
X152344Y90124D01*
X153000Y91436D02*
Y92748D01*
Y92092D01*
X149064D01*
X149720Y91436D01*
X149064Y94715D02*
Y97339D01*
X149720D01*
X152344Y94715D01*
X153000D01*
X136220Y58624D02*
X135564Y57968D01*
Y56656D01*
X136220Y56000D01*
X138844D01*
X139500Y56656D01*
Y57968D01*
X138844Y58624D01*
X139500Y59936D02*
Y61248D01*
Y60592D01*
X135564D01*
X136220Y59936D01*
X135564Y65839D02*
X136220Y64527D01*
X137532Y63216D01*
X138844D01*
X139500Y63872D01*
Y65183D01*
X138844Y65839D01*
X138188D01*
X137532Y65183D01*
Y63216D01*
X94720Y57624D02*
X94064Y56968D01*
Y55656D01*
X94720Y55000D01*
X97344D01*
X98000Y55656D01*
Y56968D01*
X97344Y57624D01*
X98000Y58936D02*
Y60248D01*
Y59592D01*
X94064D01*
X94720Y58936D01*
X94064Y64839D02*
Y62216D01*
X96032D01*
X95376Y63527D01*
Y64183D01*
X96032Y64839D01*
X97344D01*
X98000Y64183D01*
Y62871D01*
X97344Y62216D01*
X74720Y106124D02*
X74064Y105468D01*
Y104156D01*
X74720Y103500D01*
X77344D01*
X78000Y104156D01*
Y105468D01*
X77344Y106124D01*
X78000Y107436D02*
Y108748D01*
Y108092D01*
X74064D01*
X74720Y107436D01*
X78000Y112683D02*
X74064D01*
X76032Y110715D01*
Y113339D01*
X360220Y64124D02*
X359564Y63468D01*
Y62156D01*
X360220Y61500D01*
X362844D01*
X363500Y62156D01*
Y63468D01*
X362844Y64124D01*
X363500Y65436D02*
Y66748D01*
Y66092D01*
X359564D01*
X360220Y65436D01*
Y68716D02*
X359564Y69371D01*
Y70683D01*
X360220Y71339D01*
X360876D01*
X361532Y70683D01*
Y70027D01*
Y70683D01*
X362188Y71339D01*
X362844D01*
X363500Y70683D01*
Y69371D01*
X362844Y68716D01*
X343720Y53124D02*
X343064Y52468D01*
Y51156D01*
X343720Y50500D01*
X346344D01*
X347000Y51156D01*
Y52468D01*
X346344Y53124D01*
X347000Y54436D02*
Y55748D01*
Y55092D01*
X343064D01*
X343720Y54436D01*
X347000Y60339D02*
Y57715D01*
X344376Y60339D01*
X343720D01*
X343064Y59683D01*
Y58372D01*
X343720Y57715D01*
X338124Y95280D02*
X337468Y95936D01*
X336156D01*
X335500Y95280D01*
Y92656D01*
X336156Y92000D01*
X337468D01*
X338124Y92656D01*
X339436Y92000D02*
X340748D01*
X340092D01*
Y95936D01*
X339436Y95280D01*
X342716Y92000D02*
X344027D01*
X343372D01*
Y95936D01*
X342716Y95280D01*
X336124Y89780D02*
X335468Y90436D01*
X334156D01*
X333500Y89780D01*
Y87156D01*
X334156Y86500D01*
X335468D01*
X336124Y87156D01*
X337436Y86500D02*
X338748D01*
X338092D01*
Y90436D01*
X337436Y89780D01*
X340716D02*
X341371Y90436D01*
X342683D01*
X343339Y89780D01*
Y87156D01*
X342683Y86500D01*
X341371D01*
X340716Y87156D01*
Y89780D01*
X372296Y156899D02*
X371640Y157555D01*
X370328D01*
X369672Y156899D01*
Y154275D01*
X370328Y153619D01*
X371640D01*
X372296Y154275D01*
X373608D02*
X374264Y153619D01*
X375576D01*
X376232Y154275D01*
Y156899D01*
X375576Y157555D01*
X374264D01*
X373608Y156899D01*
Y156243D01*
X374264Y155587D01*
X376232D01*
X271624Y96780D02*
X270968Y97436D01*
X269656D01*
X269000Y96780D01*
Y94156D01*
X269656Y93500D01*
X270968D01*
X271624Y94156D01*
X274904Y93500D02*
Y97436D01*
X272936Y95468D01*
X275560D01*
X70500Y140936D02*
X73124D01*
X71812D01*
Y137000D01*
X74436D02*
X75748D01*
X75092D01*
Y140936D01*
X74436Y140280D01*
X84999Y40498D02*
X83999Y41498D01*
X82000D01*
X81000Y40498D01*
Y39499D01*
X82000Y38499D01*
X83999D01*
X84999Y37499D01*
Y36500D01*
X83999Y35500D01*
X82000D01*
X81000Y36500D01*
X86998Y41498D02*
Y36500D01*
X87998Y35500D01*
X89997D01*
X90997Y36500D01*
Y41498D01*
X92996Y35500D02*
Y41498D01*
X96995Y35500D01*
Y41498D01*
X102993Y40498D02*
X101993Y41498D01*
X99994D01*
X98994Y40498D01*
Y39499D01*
X99994Y38499D01*
X101993D01*
X102993Y37499D01*
Y36500D01*
X101993Y35500D01*
X99994D01*
X98994Y36500D01*
X104992Y41498D02*
X108991D01*
X106992D01*
Y35500D01*
X110990D02*
Y41498D01*
X113989D01*
X114989Y40498D01*
Y38499D01*
X113989Y37499D01*
X110990D01*
X112990D02*
X114989Y35500D01*
X116988Y41498D02*
X118988D01*
X117988D01*
Y35500D01*
X116988D01*
X118988D01*
X121987D02*
Y41498D01*
X124986D01*
X125985Y40498D01*
Y38499D01*
X124986Y37499D01*
X121987D01*
X133983Y41498D02*
Y35500D01*
X137982D01*
X143980Y41498D02*
X139981D01*
Y35500D01*
X143980D01*
X139981Y38499D02*
X141980D01*
X145979Y41498D02*
Y35500D01*
X148978D01*
X149978Y36500D01*
Y40498D01*
X148978Y41498D01*
X145979D01*
X157975Y35500D02*
X159975D01*
X158975D01*
Y41498D01*
X157975Y40498D01*
X162973D02*
X163973Y41498D01*
X165972D01*
X166972Y40498D01*
Y36500D01*
X165972Y35500D01*
X163973D01*
X162973Y36500D01*
Y40498D01*
X168972Y39499D02*
X172970Y35500D01*
X170971Y37499D01*
X172970Y39499D01*
X168972Y35500D01*
X174970D02*
X176969D01*
X175969D01*
Y41498D01*
X174970Y40498D01*
X179968D02*
X180968Y41498D01*
X182967D01*
X183967Y40498D01*
Y36500D01*
X182967Y35500D01*
X180968D01*
X179968Y36500D01*
Y40498D01*
X185966Y41498D02*
Y35500D01*
X187965Y37499D01*
X189965Y35500D01*
Y41498D01*
X81000Y30998D02*
Y26999D01*
X82999Y25000D01*
X84999Y26999D01*
Y30998D01*
X86998Y25000D02*
X88997D01*
X87998D01*
Y30998D01*
X86998Y29998D01*
X91996Y25000D02*
Y26000D01*
X92996D01*
Y25000D01*
X91996D01*
X96995Y29998D02*
X97995Y30998D01*
X99994D01*
X100994Y29998D01*
Y26000D01*
X99994Y25000D01*
X97995D01*
X96995Y26000D01*
Y29998D01*
X132983D02*
X133983Y30998D01*
X135982D01*
X136982Y29998D01*
Y26000D01*
X135982Y25000D01*
X133983D01*
X132983Y26000D01*
Y29998D01*
X138981D02*
X139981Y30998D01*
X141980D01*
X142980Y29998D01*
Y28999D01*
X141980Y27999D01*
X140981D01*
X141980D01*
X142980Y26999D01*
Y26000D01*
X141980Y25000D01*
X139981D01*
X138981Y26000D01*
X144979Y27999D02*
X148978D01*
X154976Y25000D02*
X150977D01*
X154976Y28999D01*
Y29998D01*
X153976Y30998D01*
X151977D01*
X150977Y29998D01*
X156975D02*
X157975Y30998D01*
X159975D01*
X160974Y29998D01*
Y26000D01*
X159975Y25000D01*
X157975D01*
X156975Y26000D01*
Y29998D01*
X348624Y42780D02*
X347968Y43436D01*
X346656D01*
X346000Y42780D01*
Y40156D01*
X346656Y39500D01*
X347968D01*
X348624Y40156D01*
Y41468D01*
X347312D01*
X349936Y39500D02*
Y43436D01*
X352560Y39500D01*
Y43436D01*
X353871D02*
Y39500D01*
X355839D01*
X356495Y40156D01*
Y42780D01*
X355839Y43436D01*
X353871D01*
X348624Y32780D02*
X347968Y33436D01*
X346656D01*
X346000Y32780D01*
Y32124D01*
X346656Y31468D01*
X347968D01*
X348624Y30812D01*
Y30156D01*
X347968Y29500D01*
X346656D01*
X346000Y30156D01*
X349936Y33436D02*
Y29500D01*
X351904D01*
X352560Y30156D01*
Y32780D01*
X351904Y33436D01*
X349936D01*
X353871Y29500D02*
Y32124D01*
X355183Y33436D01*
X356495Y32124D01*
Y29500D01*
Y31468D01*
X353871D01*
X348624Y22280D02*
X347968Y22936D01*
X346656D01*
X346000Y22280D01*
Y21624D01*
X346656Y20968D01*
X347968D01*
X348624Y20312D01*
Y19656D01*
X347968Y19000D01*
X346656D01*
X346000Y19656D01*
X352560Y22280D02*
X351904Y22936D01*
X350592D01*
X349936Y22280D01*
Y19656D01*
X350592Y19000D01*
X351904D01*
X352560Y19656D01*
X353871Y22936D02*
Y19000D01*
X356495D01*
X339000Y11468D02*
X341624D01*
X340312Y12780D02*
Y10156D01*
X342936Y9500D02*
Y12124D01*
X344248Y13436D01*
X345560Y12124D01*
Y9500D01*
Y11468D01*
X342936D01*
X346871Y13436D02*
Y9500D01*
X349495D01*
X350807Y13436D02*
X352119D01*
X351463D01*
Y9500D01*
X350807D01*
X352119D01*
X354087D02*
Y13436D01*
X355399Y12124D01*
X356711Y13436D01*
Y9500D01*
X39624Y12780D02*
X38968Y13436D01*
X37656D01*
X37000Y12780D01*
Y10156D01*
X37656Y9500D01*
X38968D01*
X39624Y10156D01*
Y11468D01*
X38312D01*
X40936Y9500D02*
Y13436D01*
X43560Y9500D01*
Y13436D01*
X44872D02*
Y9500D01*
X46839D01*
X47495Y10156D01*
Y12780D01*
X46839Y13436D01*
X44872D01*
X39624Y22280D02*
X38968Y22936D01*
X37656D01*
X37000Y22280D01*
Y21624D01*
X37656Y20968D01*
X38968D01*
X39624Y20312D01*
Y19656D01*
X38968Y19000D01*
X37656D01*
X37000Y19656D01*
X40936Y22936D02*
Y19000D01*
X42904D01*
X43560Y19656D01*
Y22280D01*
X42904Y22936D01*
X40936D01*
X44872Y19000D02*
Y21624D01*
X46183Y22936D01*
X47495Y21624D01*
Y19000D01*
Y20968D01*
X44872D01*
X39624Y32280D02*
X38968Y32936D01*
X37656D01*
X37000Y32280D01*
Y31624D01*
X37656Y30968D01*
X38968D01*
X39624Y30312D01*
Y29656D01*
X38968Y29000D01*
X37656D01*
X37000Y29656D01*
X43560Y32280D02*
X42904Y32936D01*
X41592D01*
X40936Y32280D01*
Y29656D01*
X41592Y29000D01*
X42904D01*
X43560Y29656D01*
X44872Y32936D02*
Y29000D01*
X47495D01*
X37000Y40968D02*
X39624D01*
X38312Y42280D02*
Y39656D01*
X40936Y39000D02*
Y41624D01*
X42248Y42936D01*
X43560Y41624D01*
Y39000D01*
Y40968D01*
X40936D01*
X44872Y42936D02*
Y39000D01*
X47495D01*
X48807Y42936D02*
X50119D01*
X49463D01*
Y39000D01*
X48807D01*
X50119D01*
X52087D02*
Y42936D01*
X53399Y41624D01*
X54711Y42936D01*
Y39000D01*
X22624Y176936D02*
X20000D01*
Y174968D01*
X21312D01*
X20000D01*
Y173000D01*
X23936D02*
Y175624D01*
X25248Y176936D01*
X26560Y175624D01*
Y173000D01*
Y174968D01*
X23936D01*
X27872Y173000D02*
Y176936D01*
X30495Y173000D01*
Y176936D01*
X20000Y164468D02*
X22624D01*
X21312Y165780D02*
Y163156D01*
X23936Y162500D02*
Y165124D01*
X25248Y166436D01*
X26560Y165124D01*
Y162500D01*
Y164468D01*
X23936D01*
X27872Y166436D02*
Y162500D01*
X30495D01*
X31807Y166436D02*
X33119D01*
X32463D01*
Y162500D01*
X31807D01*
X33119D01*
X35087D02*
Y166436D01*
X36399Y165124D01*
X37711Y166436D01*
Y162500D01*
X20000Y152500D02*
Y156436D01*
X22624Y152500D01*
Y156436D01*
X23936Y152500D02*
Y153156D01*
X24592D01*
Y152500D01*
X23936D01*
X29839Y155780D02*
X29183Y156436D01*
X27872D01*
X27215Y155780D01*
Y153156D01*
X27872Y152500D01*
X29183D01*
X29839Y153156D01*
X31151Y152500D02*
Y153156D01*
X31807D01*
Y152500D01*
X31151D01*
X229124Y43280D02*
X228468Y43936D01*
X227156D01*
X226500Y43280D01*
Y40656D01*
X227156Y40000D01*
X228468D01*
X229124Y40656D01*
Y41968D01*
X227812D01*
X230436Y40000D02*
Y43936D01*
X233060Y40000D01*
Y43936D01*
X234371D02*
Y40000D01*
X236339D01*
X236995Y40656D01*
Y43280D01*
X236339Y43936D01*
X234371D01*
X229124Y32780D02*
X228468Y33436D01*
X227156D01*
X226500Y32780D01*
Y32124D01*
X227156Y31468D01*
X228468D01*
X229124Y30812D01*
Y30156D01*
X228468Y29500D01*
X227156D01*
X226500Y30156D01*
X230436Y33436D02*
Y29500D01*
X232404D01*
X233060Y30156D01*
Y32780D01*
X232404Y33436D01*
X230436D01*
X234371Y29500D02*
Y32124D01*
X235683Y33436D01*
X236995Y32124D01*
Y29500D01*
Y31468D01*
X234371D01*
X230500Y23936D02*
X233124D01*
X231812D01*
Y20000D01*
X234436Y23280D02*
X235092Y23936D01*
X236404D01*
X237060Y23280D01*
Y22624D01*
X236404Y21968D01*
X235748D01*
X236404D01*
X237060Y21312D01*
Y20656D01*
X236404Y20000D01*
X235092D01*
X234436Y20656D01*
X232000Y13936D02*
X234624D01*
X233312D01*
Y10000D01*
X235936D02*
X237248D01*
X236592D01*
Y13936D01*
X235936Y13280D01*
X267624Y33280D02*
X266968Y33936D01*
X265656D01*
X265000Y33280D01*
Y32624D01*
X265656Y31968D01*
X266968D01*
X267624Y31312D01*
Y30656D01*
X266968Y30000D01*
X265656D01*
X265000Y30656D01*
X271560Y33280D02*
X270904Y33936D01*
X269592D01*
X268936Y33280D01*
Y30656D01*
X269592Y30000D01*
X270904D01*
X271560Y30656D01*
X272871Y33936D02*
Y30000D01*
X275495D01*
X265000Y23936D02*
X267624D01*
X266312D01*
Y20000D01*
X271560D02*
X268936D01*
X271560Y22624D01*
Y23280D01*
X270904Y23936D01*
X269592D01*
X268936Y23280D01*
X265000Y11968D02*
X267624D01*
X266312Y13280D02*
Y10656D01*
X268936Y13280D02*
X269592Y13936D01*
X270904D01*
X271560Y13280D01*
Y12624D01*
X270904Y11968D01*
X270248D01*
X270904D01*
X271560Y11312D01*
Y10656D01*
X270904Y10000D01*
X269592D01*
X268936Y10656D01*
X272871Y10000D02*
Y10656D01*
X273527D01*
Y10000D01*
X272871D01*
X276151Y13280D02*
X276807Y13936D01*
X278119D01*
X278775Y13280D01*
Y12624D01*
X278119Y11968D01*
X277463D01*
X278119D01*
X278775Y11312D01*
Y10656D01*
X278119Y10000D01*
X276807D01*
X276151Y10656D01*
X280087Y13936D02*
Y11312D01*
X281399Y10000D01*
X282711Y11312D01*
Y13936D01*
X390032Y161500D02*
Y164124D01*
X388720Y162812D02*
X391344D01*
X392000Y165436D02*
Y166748D01*
Y166092D01*
X388064D01*
X388720Y165436D01*
X392000Y171339D02*
Y168716D01*
X389376Y171339D01*
X388720D01*
X388064Y170683D01*
Y169371D01*
X388720Y168716D01*
X388064Y172651D02*
X390688D01*
X392000Y173963D01*
X390688Y175275D01*
X388064D01*
X388720Y187624D02*
X388064Y186968D01*
Y185656D01*
X388720Y185000D01*
X391344D01*
X392000Y185656D01*
Y186968D01*
X391344Y187624D01*
X390032D01*
Y186312D01*
X392000Y188936D02*
X388064D01*
X392000Y191560D01*
X388064D01*
Y192871D02*
X392000D01*
Y194839D01*
X391344Y195495D01*
X388720D01*
X388064Y194839D01*
Y192871D01*
D59*
X221236Y76492D02*
G03*
X221236Y80724I49J2116D01*
G01*
X225418Y73568D02*
G03*
X225272Y77083I1946J1841D01*
G01*
X90067Y145673D02*
G03*
X90067Y145673I-394J0D01*
G01*
X111067D02*
G03*
X111067Y145673I-394J0D01*
G01*
X132067D02*
G03*
X132067Y145673I-394J0D01*
G01*
X153067D02*
G03*
X153067Y145673I-394J0D01*
G01*
X174067D02*
G03*
X174067Y145673I-394J0D01*
G01*
X195067D02*
G03*
X195067Y145673I-394J0D01*
G01*
X216067D02*
G03*
X216067Y145673I-394J0D01*
G01*
X237067D02*
G03*
X237067Y145673I-394J0D01*
G01*
X258067D02*
G03*
X258067Y145673I-394J0D01*
G01*
X101744Y81154D02*
G03*
X101744Y81154I-492J0D01*
G01*
X69067Y145673D02*
G03*
X69067Y145673I-394J0D01*
G01*
X217949Y72496D02*
Y80725D01*
X225272Y72358D02*
Y80725D01*
X217949Y76492D02*
X221236D01*
X217949Y80725D02*
X221236D01*
X281095Y199894D02*
X289854D01*
X281095Y103437D02*
Y199894D01*
X309933Y103437D02*
Y103535D01*
Y103437D02*
X318201D01*
Y103929D02*
Y200091D01*
X309933Y200090D02*
X318004D01*
X281095Y103437D02*
X289067D01*
X384173Y164252D02*
Y176063D01*
X388110Y180000D01*
X384173Y164252D02*
X388110Y160315D01*
X384173Y183937D02*
X388110Y180000D01*
X384173Y195748D02*
X388110Y199685D01*
X384173Y183937D02*
Y195748D01*
D60*
X244531Y79543D02*
G03*
X244531Y72457I0J-3543D01*
G01*
X251618Y79445D02*
G03*
X251618Y72358I0J-3543D01*
G01*
X248075Y76000D02*
X251421D01*
D61*
X261280Y87425D02*
G03*
X261280Y87425I-394J0D01*
G01*
D62*
X201114Y108165D02*
X202886D01*
X201114Y103835D02*
X202886D01*
X368835Y144614D02*
Y146386D01*
X373165Y144614D02*
Y146386D01*
X84835Y135614D02*
Y137386D01*
X89165Y135614D02*
Y137386D01*
X105835Y135614D02*
Y137386D01*
X110165Y135614D02*
Y137386D01*
X126835Y135614D02*
Y137386D01*
X131165Y135614D02*
Y137386D01*
X147835Y135614D02*
Y137386D01*
X152165Y135614D02*
Y137386D01*
X168835Y135614D02*
Y137386D01*
X173165Y135614D02*
Y137386D01*
X189835Y135614D02*
Y137386D01*
X194165Y135614D02*
Y137386D01*
X210835Y135614D02*
Y137386D01*
X215165Y135614D02*
Y137386D01*
X231835Y135614D02*
Y137386D01*
X236165Y135614D02*
Y137386D01*
X252835Y135614D02*
Y137386D01*
X257165Y135614D02*
Y137386D01*
X273835Y135614D02*
Y137386D01*
X278165Y135614D02*
Y137386D01*
X263165Y114614D02*
Y116386D01*
X258835Y114614D02*
Y116386D01*
X263165Y103614D02*
Y105386D01*
X258835Y103614D02*
Y105386D01*
X271614Y87835D02*
X273386D01*
X271614Y92165D02*
X273386D01*
X179614Y105335D02*
X181386D01*
X179614Y109665D02*
X181386D01*
X179614Y115335D02*
X181386D01*
X179614Y119665D02*
X181386D01*
X145114Y111165D02*
X146886D01*
X145114Y106835D02*
X146886D01*
X97614Y114335D02*
X99386D01*
X97614Y118665D02*
X99386D01*
X72165Y108114D02*
Y109886D01*
X67835Y108114D02*
Y109886D01*
X72165Y119114D02*
Y120886D01*
X67835Y119114D02*
Y120886D01*
X59165Y92614D02*
Y94386D01*
X54835Y92614D02*
Y94386D01*
X59165Y81614D02*
Y83386D01*
X54835Y81614D02*
Y83386D01*
X53165Y81614D02*
Y83386D01*
X48835Y81614D02*
Y83386D01*
X53165Y92614D02*
Y94386D01*
X48835Y92614D02*
Y94386D01*
X77665Y74614D02*
Y76386D01*
X73335Y74614D02*
Y76386D01*
X85114Y84835D02*
X86886D01*
X85114Y89165D02*
X86886D01*
X93614Y73835D02*
X95386D01*
X93614Y78165D02*
X95386D01*
X103838Y60033D02*
Y61805D01*
X99507Y60033D02*
Y61805D01*
X133665Y60114D02*
Y61886D01*
X129335Y60114D02*
Y61886D01*
X201114Y114165D02*
X202886D01*
X201114Y109835D02*
X202886D01*
X200614Y91665D02*
X202386D01*
X200614Y87335D02*
X202386D01*
X200614Y85665D02*
X202386D01*
X200614Y81335D02*
X202386D01*
X200614Y69165D02*
X202386D01*
X200614Y64835D02*
X202386D01*
X200614Y63165D02*
X202386D01*
X200614Y58835D02*
X202386D01*
X21114Y203665D02*
X22886D01*
X21114Y199335D02*
X22886D01*
X21114Y193835D02*
X22886D01*
X21114Y198165D02*
X22886D01*
X29335Y186114D02*
Y187886D01*
X33665Y186114D02*
Y187886D01*
X351665Y99114D02*
Y100886D01*
X347335Y99114D02*
Y100886D01*
X342835Y66114D02*
Y67886D01*
X347165Y66114D02*
Y67886D01*
D63*
X353377Y133295D02*
X364906D01*
X337877D02*
X349406D01*
X321877D02*
X333405D01*
X71746Y51218D02*
X79935D01*
D64*
X290142Y49622D02*
X317701D01*
Y2378D02*
Y49622D01*
X290142Y2378D02*
X317701D01*
X290142D02*
Y49622D01*
X289689Y99748D02*
X317248D01*
Y52504D02*
Y99748D01*
X289689Y52504D02*
X317248D01*
X289689D02*
Y99748D01*
D65*
X237000Y93465D02*
D03*
D66*
X234244Y99174D02*
D03*
D67*
X238181Y111772D02*
D03*
D68*
X236606Y117087D02*
D03*
D69*
X243496Y116694D02*
D03*
D70*
X237393Y118662D02*
D03*
M02*
