G04 Layer_Physical_Order=1*
G04 Layer_Color=255*
%FSLAX25Y25*%
%MOIN*%
G70*
G01*
G75*
%ADD10R,0.03150X0.03937*%
%ADD11R,0.03937X0.03150*%
%ADD12R,0.09842X0.05905*%
%ADD13C,0.02756*%
%ADD14R,0.02362X0.04724*%
%ADD15R,0.04803X0.03583*%
%ADD16R,0.04724X0.02362*%
%ADD17R,0.07087X0.04724*%
%ADD18R,0.01181X0.07677*%
%ADD19R,0.07677X0.01181*%
%ADD20R,0.06299X0.05118*%
%ADD21R,0.06299X0.05118*%
%ADD22R,0.06299X0.05118*%
%ADD23R,0.03150X0.03150*%
%ADD24R,0.04331X0.08465*%
%ADD25R,0.04331X0.08465*%
%ADD26R,0.13780X0.08465*%
%ADD27R,0.03248X0.06000*%
%ADD28R,0.03583X0.04803*%
%ADD29C,0.07874*%
%ADD30C,0.09842*%
%ADD31C,0.11811*%
%ADD32C,0.01181*%
%ADD33C,0.00787*%
%ADD34C,0.03937*%
%ADD35R,0.12000X0.12000*%
%ADD36R,0.17000X0.07000*%
%ADD37R,1.44000X0.11500*%
%ADD38R,0.59000X0.11500*%
%ADD39C,0.13780*%
G04:AMPARAMS|DCode=40|XSize=70.87mil|YSize=70.87mil|CornerRadius=8.86mil|HoleSize=0mil|Usage=FLASHONLY|Rotation=0.000|XOffset=0mil|YOffset=0mil|HoleType=Round|Shape=RoundedRectangle|*
%AMROUNDEDRECTD40*
21,1,0.07087,0.05315,0,0,0.0*
21,1,0.05315,0.07087,0,0,0.0*
1,1,0.01772,0.02657,-0.02657*
1,1,0.01772,-0.02657,-0.02657*
1,1,0.01772,-0.02657,0.02657*
1,1,0.01772,0.02657,0.02657*
%
%ADD40ROUNDEDRECTD40*%
%ADD41C,0.07087*%
%ADD42C,0.06693*%
%ADD43R,0.06693X0.06693*%
%ADD44C,0.07874*%
%ADD45R,0.07874X0.07874*%
%ADD46C,0.05905*%
%ADD47R,0.05905X0.05905*%
%ADD48R,0.06693X0.06693*%
%ADD49C,0.05905*%
%ADD50C,0.11811*%
G04:AMPARAMS|DCode=51|XSize=98.42mil|YSize=98.42mil|CornerRadius=12.3mil|HoleSize=0mil|Usage=FLASHONLY|Rotation=90.000|XOffset=0mil|YOffset=0mil|HoleType=Round|Shape=RoundedRectangle|*
%AMROUNDEDRECTD51*
21,1,0.09842,0.07382,0,0,90.0*
21,1,0.07382,0.09842,0,0,90.0*
1,1,0.02461,0.03691,0.03691*
1,1,0.02461,0.03691,-0.03691*
1,1,0.02461,-0.03691,-0.03691*
1,1,0.02461,-0.03691,0.03691*
%
%ADD51ROUNDEDRECTD51*%
%ADD52C,0.09842*%
%ADD53C,0.04724*%
%ADD54C,0.03937*%
%ADD55C,0.02362*%
G36*
X370937Y136330D02*
X370850Y135656D01*
X368070Y133594D01*
X365132Y130931D01*
X362469Y127994D01*
X360107Y124809D01*
X358069Y121408D01*
X356373Y117824D01*
X355038Y114091D01*
X354074Y110244D01*
X353844Y108696D01*
X353313Y108520D01*
X349748Y112085D01*
X349795Y112319D01*
Y114681D01*
X349734Y114988D01*
X349560Y115249D01*
X349299Y115423D01*
X348992Y115484D01*
X344268D01*
X343960Y115423D01*
X343700Y115249D01*
X343526Y114988D01*
X343465Y114681D01*
Y112319D01*
X343526Y112012D01*
X343700Y111751D01*
X343960Y111577D01*
X344268Y111516D01*
X346911D01*
X351468Y106959D01*
Y105744D01*
X350484D01*
Y103150D01*
Y100555D01*
X350795D01*
X351002Y100055D01*
X350174Y99228D01*
X347531D01*
X347224Y99167D01*
X346964Y98993D01*
X346790Y98733D01*
X346729Y98425D01*
Y98255D01*
X344500D01*
X344197Y98755D01*
X344240Y98972D01*
Y102220D01*
X341055D01*
Y103205D01*
X340071D01*
Y108457D01*
X338890D01*
X338500Y108379D01*
X338169Y108158D01*
X337948Y107827D01*
X337870Y107437D01*
Y104522D01*
X337429Y104286D01*
X337357Y104335D01*
Y102369D01*
X335388D01*
Y104360D01*
X334968Y104584D01*
Y107437D01*
X334907Y107744D01*
X334733Y108005D01*
X334472Y108179D01*
X334165Y108240D01*
X329835D01*
X329527Y108179D01*
X329267Y108005D01*
X329093Y107744D01*
X329032Y107437D01*
Y102734D01*
X328532Y102401D01*
X328000Y102507D01*
X327232Y102354D01*
X326581Y101919D01*
X326413Y101668D01*
X325913Y101820D01*
Y107437D01*
X325852Y107744D01*
X325678Y108005D01*
X325417Y108179D01*
X325110Y108240D01*
X320780D01*
X320472Y108179D01*
X320212Y108005D01*
X320038Y107744D01*
X319977Y107437D01*
Y98972D01*
X320020Y98755D01*
X319845Y98424D01*
X319710Y98255D01*
X318850D01*
X318313Y98149D01*
X317948Y97905D01*
X286500D01*
X285962Y97798D01*
X285962Y97798D01*
X285507Y97493D01*
X282137Y94123D01*
X281832Y93668D01*
X281832Y93668D01*
X281725Y93130D01*
Y90915D01*
X281263Y90724D01*
X280993Y90993D01*
X280538Y91298D01*
X280000Y91405D01*
X278027D01*
Y91969D01*
X277966Y92276D01*
X277792Y92536D01*
X277532Y92710D01*
X277224Y92771D01*
X274075D01*
X273704Y93208D01*
Y113610D01*
X273704Y113610D01*
X273613Y114070D01*
X273352Y114461D01*
X273352Y114461D01*
X272524Y115289D01*
X272133Y115550D01*
X271704Y115635D01*
Y116228D01*
X271643Y116536D01*
X271469Y116796D01*
X271246Y116945D01*
X271241Y116982D01*
X271547Y117445D01*
X316005D01*
X320802Y112649D01*
X320802Y112649D01*
X321193Y112388D01*
X321654Y112296D01*
X322210D01*
X322266Y112012D01*
X322440Y111751D01*
X322701Y111577D01*
X323008Y111516D01*
X327732D01*
X328040Y111577D01*
X328300Y111751D01*
X328474Y112012D01*
X328531Y112296D01*
X329772D01*
X329772Y112296D01*
X330233Y112388D01*
X330624Y112649D01*
X330724Y112749D01*
X330985Y113139D01*
X331077Y113600D01*
Y128580D01*
X331525Y128801D01*
X331614Y128733D01*
X332524Y128356D01*
X333500Y128228D01*
X334476Y128356D01*
X335386Y128733D01*
X336168Y129332D01*
X336767Y130114D01*
X337144Y131024D01*
X337272Y132000D01*
X337144Y132976D01*
X336767Y133886D01*
X336168Y134668D01*
X335386Y135267D01*
X334476Y135644D01*
X333872Y135723D01*
X333603Y136263D01*
X333693Y136422D01*
X337776D01*
Y134673D01*
X337837Y134366D01*
X338011Y134106D01*
X338271Y133932D01*
X338579Y133870D01*
X348421D01*
X348728Y133932D01*
X348989Y134106D01*
X349163Y134366D01*
X349224Y134673D01*
Y136422D01*
X353276D01*
Y134673D01*
X353337Y134366D01*
X353511Y134106D01*
X353771Y133932D01*
X354079Y133870D01*
X363921D01*
X364228Y133932D01*
X364489Y134106D01*
X364663Y134366D01*
X364724Y134673D01*
Y136422D01*
X370865D01*
X370937Y136330D01*
D02*
G37*
G36*
X166551Y121215D02*
X165922Y120732D01*
X165165Y119745D01*
X164689Y118596D01*
X164526Y117362D01*
X164689Y116129D01*
X165165Y114980D01*
X165745Y114223D01*
X165498Y113723D01*
X154571D01*
X152224Y116071D01*
X151833Y116332D01*
X151373Y116423D01*
X151373Y116423D01*
X129220D01*
Y119047D01*
X129159Y119354D01*
X128985Y119615D01*
X128725Y119789D01*
X128417Y119850D01*
X127236D01*
X127063Y119993D01*
Y120706D01*
X128071Y121715D01*
X136971D01*
X137290Y121215D01*
X137195Y120984D01*
X142805D01*
X142710Y121215D01*
X143028Y121715D01*
X166382D01*
X166551Y121215D01*
D02*
G37*
G36*
X252500Y187500D02*
Y182500D01*
X258000Y177000D01*
X274000D01*
X277000Y174000D01*
Y170512D01*
X276984D01*
Y167130D01*
X276000D01*
Y166146D01*
X273799D01*
Y165000D01*
X273201D01*
Y166146D01*
X271000D01*
X268799D01*
Y165000D01*
X268201D01*
Y166146D01*
X266000D01*
X263799D01*
Y165000D01*
X263201D01*
Y166146D01*
X261000D01*
Y167130D01*
X260016D01*
Y170512D01*
X259819D01*
X259429Y170434D01*
X259098Y170213D01*
X258877Y169882D01*
X258799Y169492D01*
Y166854D01*
X258337Y166663D01*
X256984Y168016D01*
Y169492D01*
X256923Y169799D01*
X256803Y169979D01*
Y172000D01*
X256742Y172307D01*
X256568Y172568D01*
X256307Y172742D01*
X256000Y172803D01*
X252197D01*
X247500Y177500D01*
X238000D01*
X237514Y189639D01*
X237861Y190000D01*
X250000D01*
X252500Y187500D01*
D02*
G37*
G36*
X392697Y142716D02*
X389741Y142571D01*
X385819Y141989D01*
X381973Y141025D01*
X378239Y139690D01*
X374655Y137994D01*
X374163Y137700D01*
X373853Y138097D01*
X374624Y138868D01*
X374885Y139258D01*
X374977Y139719D01*
X374977Y139719D01*
Y148550D01*
X374885Y149011D01*
X374624Y149401D01*
X374524Y149501D01*
X374133Y149762D01*
X373771Y149834D01*
Y150224D01*
X373710Y150532D01*
X373536Y150792D01*
X373276Y150966D01*
X372968Y151027D01*
X369031D01*
X368724Y150966D01*
X368464Y150792D01*
X368290Y150532D01*
X368229Y150224D01*
Y147075D01*
X368290Y146768D01*
X368464Y146507D01*
X368724Y146333D01*
X369031Y146272D01*
X372568D01*
Y144945D01*
X371984D01*
Y142350D01*
X371000D01*
Y141366D01*
X368012D01*
Y140776D01*
X368090Y140385D01*
X368310Y140055D01*
X368641Y139834D01*
X369031Y139756D01*
X371453D01*
X371644Y139294D01*
X371181Y138830D01*
X364724D01*
Y140579D01*
X364663Y140886D01*
X364489Y141147D01*
X364228Y141321D01*
X363921Y141382D01*
X354079D01*
X353771Y141321D01*
X353511Y141147D01*
X353337Y140886D01*
X353276Y140579D01*
Y138830D01*
X349224D01*
Y140579D01*
X349163Y140886D01*
X348989Y141147D01*
X348728Y141321D01*
X348421Y141382D01*
X338579D01*
X338271Y141321D01*
X338011Y141147D01*
X337837Y140886D01*
X337776Y140579D01*
Y138830D01*
X333224D01*
Y140579D01*
X333163Y140886D01*
X332989Y141147D01*
X332728Y141321D01*
X332421Y141382D01*
X322579D01*
X322271Y141321D01*
X322011Y141147D01*
X321837Y140886D01*
X321776Y140579D01*
Y134673D01*
X321837Y134366D01*
X322011Y134106D01*
X322271Y133932D01*
X322579Y133870D01*
X327325D01*
X328668Y132527D01*
Y130558D01*
X328604Y130505D01*
X328168Y130337D01*
X328040Y130423D01*
X327732Y130484D01*
X323008D01*
X322701Y130423D01*
X322440Y130249D01*
X322266Y129988D01*
X322205Y129681D01*
Y127319D01*
X322266Y127012D01*
X322440Y126751D01*
X322701Y126577D01*
X323008Y126516D01*
X327732D01*
X328040Y126577D01*
X328168Y126663D01*
X328604Y126496D01*
X328668Y126442D01*
Y125860D01*
X328168Y125593D01*
X328122Y125623D01*
X327732Y125701D01*
X326354D01*
Y123500D01*
Y121299D01*
X327732D01*
X327923Y121337D01*
X328344Y121046D01*
X328374Y121000D01*
X328344Y120954D01*
X327923Y120663D01*
X327732Y120701D01*
X326354D01*
Y118500D01*
Y116299D01*
X327732D01*
X328122Y116377D01*
X328168Y116408D01*
X328668Y116140D01*
Y115558D01*
X328604Y115505D01*
X328168Y115337D01*
X328040Y115423D01*
X327732Y115484D01*
X323008D01*
X322701Y115423D01*
X322440Y115249D01*
X322390Y115174D01*
X321872Y115063D01*
X321775Y115082D01*
X317355Y119501D01*
X316965Y119762D01*
X316504Y119854D01*
X316504Y119854D01*
X263771D01*
Y120224D01*
X263710Y120532D01*
X263536Y120792D01*
X263276Y120966D01*
X262968Y121027D01*
X259031D01*
X258724Y120966D01*
X258464Y120792D01*
X258290Y120532D01*
X258229Y120224D01*
Y117075D01*
X258290Y116768D01*
X258464Y116507D01*
X258724Y116333D01*
X259031Y116272D01*
X262968D01*
X263276Y116333D01*
X263536Y116507D01*
X263710Y116768D01*
X263771Y117075D01*
Y117445D01*
X265453D01*
X265758Y116982D01*
X265754Y116945D01*
X265531Y116796D01*
X265357Y116536D01*
X265296Y116228D01*
Y115548D01*
X264908Y115289D01*
X264908Y115289D01*
X264126Y114507D01*
X263536Y114493D01*
X263276Y114667D01*
X262968Y114728D01*
X259031D01*
X258724Y114667D01*
X258464Y114493D01*
X258290Y114233D01*
X258229Y113925D01*
Y110776D01*
X258290Y110468D01*
X258464Y110208D01*
Y109792D01*
X258290Y109532D01*
X258229Y109224D01*
Y106075D01*
X258290Y105768D01*
X258464Y105507D01*
X258724Y105333D01*
X259031Y105272D01*
X262968D01*
X263276Y105333D01*
X263536Y105507D01*
X263710Y105768D01*
X263771Y106075D01*
Y109224D01*
X263710Y109532D01*
X263536Y109792D01*
Y110208D01*
X263710Y110468D01*
X263771Y110776D01*
Y111166D01*
X264133Y111238D01*
X264524Y111499D01*
X265142Y112116D01*
X265531Y112078D01*
X265791Y111904D01*
X266098Y111843D01*
X270901D01*
X271296Y111411D01*
Y104805D01*
X270901Y104374D01*
X269484D01*
Y101563D01*
Y98752D01*
X270901D01*
X271296Y98321D01*
Y93292D01*
X270925Y92988D01*
X270335D01*
Y90000D01*
Y87012D01*
X270925D01*
X271060Y86901D01*
X271086Y86289D01*
X270921Y86124D01*
X270660Y85733D01*
X270568Y85273D01*
X270568Y85273D01*
Y10018D01*
X269574Y9023D01*
X260649D01*
Y15296D01*
X262703D01*
X262703Y15296D01*
X263164Y15387D01*
X263555Y15649D01*
X266976Y19069D01*
X266976Y19069D01*
X267237Y19460D01*
X267329Y19921D01*
Y70267D01*
X267237Y70728D01*
X266976Y71119D01*
X265824Y72271D01*
X265433Y72532D01*
X265317Y72555D01*
X265211Y73086D01*
X265305Y73149D01*
X267124Y74967D01*
X267124Y74968D01*
X267385Y75358D01*
X267477Y75819D01*
Y86767D01*
X267776Y87012D01*
X268366D01*
Y90000D01*
Y92988D01*
X267776D01*
X267385Y92911D01*
X267055Y92690D01*
X266957Y92544D01*
X266375Y92420D01*
X260501Y98294D01*
X260692Y98756D01*
X262968D01*
X263359Y98834D01*
X263689Y99055D01*
X263910Y99385D01*
X263988Y99776D01*
Y100366D01*
X261000D01*
Y101350D01*
X260016D01*
Y103945D01*
X259031D01*
X258641Y103867D01*
X258311Y103646D01*
X258089Y103315D01*
X258012Y102925D01*
Y101436D01*
X257550Y101245D01*
X251877Y106918D01*
Y130056D01*
X252092Y130200D01*
X252527Y130851D01*
X252549Y130961D01*
X252724Y131034D01*
X253031Y130973D01*
X256220D01*
X256495Y130473D01*
X256365Y129819D01*
X256518Y129051D01*
X256953Y128400D01*
X257605Y127965D01*
X258372Y127812D01*
X259141Y127965D01*
X259792Y128400D01*
X260227Y129051D01*
X260380Y129819D01*
X260227Y130587D01*
X259792Y131238D01*
X259577Y131382D01*
Y132069D01*
X259485Y132530D01*
X259224Y132921D01*
X259224Y132921D01*
X257943Y134202D01*
X257771Y134317D01*
Y134925D01*
X257710Y135232D01*
X257536Y135493D01*
X257276Y135667D01*
X256968Y135728D01*
X253031D01*
X252724Y135667D01*
X252464Y135493D01*
X252290Y135232D01*
X252229Y134925D01*
Y133548D01*
X251729Y133281D01*
X251441Y133473D01*
X250673Y133626D01*
X249904Y133473D01*
X249253Y133038D01*
X248818Y132387D01*
X248665Y131619D01*
X248818Y130851D01*
X249253Y130200D01*
X249468Y130056D01*
Y106419D01*
X249468Y106419D01*
X249560Y105958D01*
X249821Y105568D01*
X265068Y90320D01*
Y86171D01*
X264568Y85904D01*
X264540Y85923D01*
X264232Y85984D01*
X259508D01*
X259201Y85923D01*
X258940Y85749D01*
X258766Y85488D01*
X258707Y85191D01*
X258312Y85113D01*
X257921Y84852D01*
X257921Y84852D01*
X256648Y83579D01*
X256387Y83188D01*
X256296Y82727D01*
X256296Y82727D01*
Y72692D01*
X256296Y72692D01*
X256387Y72231D01*
X256648Y71840D01*
X257921Y70568D01*
X257921Y70568D01*
X258312Y70306D01*
X258714Y70227D01*
X258705Y70181D01*
Y67819D01*
X258766Y67512D01*
X258940Y67251D01*
X259201Y67077D01*
X259508Y67016D01*
X260668D01*
Y44046D01*
X260168Y43946D01*
X260111Y44085D01*
X259448Y44948D01*
X258585Y45611D01*
X257579Y46027D01*
X256500Y46170D01*
X255421Y46027D01*
X254415Y45611D01*
X253552Y44948D01*
X252889Y44085D01*
X252472Y43079D01*
X252330Y42000D01*
X252472Y40921D01*
X252889Y39915D01*
X253435Y39204D01*
X253230Y38704D01*
X250237D01*
X249991Y39204D01*
X250454Y39808D01*
X250892Y40865D01*
X250912Y41016D01*
X246657D01*
Y42000D01*
X245673D01*
Y46255D01*
X245523Y46235D01*
X244466Y45797D01*
X243558Y45100D01*
X243202Y44636D01*
X242702Y44806D01*
Y86594D01*
X242610Y87055D01*
X242349Y87445D01*
X206024Y123771D01*
X205633Y124032D01*
X205172Y124123D01*
X205172Y124123D01*
X202633D01*
X202442Y124585D01*
X204094Y126238D01*
X204232Y126146D01*
X205000Y125993D01*
X205768Y126146D01*
X206419Y126581D01*
X206854Y127232D01*
X207007Y128000D01*
X206854Y128768D01*
X206734Y128949D01*
X206969Y129390D01*
X233959D01*
X234166Y129431D01*
X234374Y129463D01*
X234395Y129476D01*
X234420Y129481D01*
X234595Y129598D01*
X234775Y129708D01*
X234790Y129728D01*
X234811Y129742D01*
X234928Y129918D01*
X235052Y130088D01*
X235058Y130112D01*
X235072Y130133D01*
X235113Y130340D01*
X235162Y130544D01*
X235180Y130973D01*
X235968D01*
X236276Y131034D01*
X236536Y131208D01*
X236710Y131468D01*
X236771Y131776D01*
Y134925D01*
X236710Y135232D01*
X236536Y135493D01*
X236276Y135667D01*
X235968Y135728D01*
X232031D01*
X231724Y135667D01*
X231464Y135493D01*
X231290Y135232D01*
X231229Y134925D01*
Y131798D01*
X215771D01*
Y134925D01*
X215710Y135232D01*
X215536Y135493D01*
X215276Y135667D01*
X214968Y135728D01*
X211031D01*
X210724Y135667D01*
X210464Y135493D01*
X210290Y135232D01*
X210229Y134925D01*
Y134555D01*
X197640D01*
X195624Y136571D01*
X195233Y136832D01*
X194773Y136923D01*
X194773Y136923D01*
X194562D01*
X194411Y137423D01*
X194536Y137507D01*
X194710Y137768D01*
X194771Y138075D01*
Y141225D01*
X194710Y141532D01*
X194536Y141792D01*
X194276Y141966D01*
X193968Y142027D01*
X193405D01*
Y142750D01*
X193488Y142766D01*
X193749Y142940D01*
X193923Y143201D01*
X193984Y143508D01*
Y148232D01*
X193923Y148539D01*
X193749Y148800D01*
X193488Y148974D01*
X193181Y149035D01*
X190819D01*
X190512Y148974D01*
X190251Y148800D01*
X190077Y148539D01*
X190016Y148232D01*
Y143508D01*
X190077Y143201D01*
X190251Y142940D01*
X190512Y142766D01*
X190595Y142750D01*
Y142027D01*
X190031D01*
X189728Y141967D01*
X188904Y142790D01*
X189123Y143118D01*
X189201Y143508D01*
Y144886D01*
X187000D01*
X184799D01*
Y143523D01*
X184201D01*
Y144886D01*
X182000D01*
X179799D01*
Y144028D01*
X179701Y143968D01*
X179390Y144095D01*
X179201Y144332D01*
Y144886D01*
X177000D01*
X174799D01*
Y143508D01*
X174877Y143118D01*
X175098Y142787D01*
X175429Y142566D01*
X175819Y142488D01*
X177385D01*
X177577Y142026D01*
X174271Y138721D01*
X174063Y138751D01*
X173771Y138898D01*
Y141225D01*
X173710Y141532D01*
X173536Y141792D01*
X173276Y141966D01*
X172968Y142027D01*
X172405D01*
Y142750D01*
X172488Y142766D01*
X172749Y142940D01*
X172923Y143201D01*
X172984Y143508D01*
Y148232D01*
X172923Y148539D01*
X172749Y148800D01*
X172488Y148974D01*
X172181Y149035D01*
X169819D01*
X169512Y148974D01*
X169251Y148800D01*
X169077Y148539D01*
X169016Y148232D01*
Y143508D01*
X169077Y143201D01*
X169251Y142940D01*
X169512Y142766D01*
X169595Y142750D01*
Y142027D01*
X169031D01*
X168724Y141966D01*
X168464Y141792D01*
X168290Y141532D01*
X168229Y141225D01*
Y138075D01*
X168290Y137768D01*
X168464Y137507D01*
X168724Y137333D01*
X169031Y137272D01*
X172968D01*
X173276Y137333D01*
X173368Y137395D01*
X173868Y137173D01*
Y135827D01*
X173368Y135605D01*
X173276Y135667D01*
X172968Y135728D01*
X169031D01*
X168724Y135667D01*
X168464Y135493D01*
X168290Y135232D01*
X168229Y134925D01*
Y134555D01*
X160504D01*
X160043Y134463D01*
X159652Y134202D01*
X159652Y134202D01*
X152826Y127376D01*
X152573Y127426D01*
X151804Y127273D01*
X151153Y126838D01*
X150718Y126187D01*
X150566Y125419D01*
X150684Y124823D01*
X150382Y124323D01*
X148033D01*
X147842Y124785D01*
X150424Y127367D01*
X150424Y127368D01*
X150685Y127758D01*
X150777Y128219D01*
X150777Y128219D01*
Y130973D01*
X151968D01*
X152276Y131034D01*
X152536Y131208D01*
X152710Y131468D01*
X152771Y131776D01*
Y134925D01*
X152710Y135232D01*
X152536Y135493D01*
X152276Y135667D01*
X151968Y135728D01*
X148031D01*
X147724Y135667D01*
X147464Y135493D01*
X147290Y135232D01*
X147229Y134925D01*
Y131776D01*
X147290Y131468D01*
X147464Y131208D01*
X147724Y131034D01*
X148031Y130973D01*
X148368D01*
Y128718D01*
X145704Y126054D01*
X121323D01*
X121323Y126054D01*
X120862Y125962D01*
X120471Y125701D01*
X119650Y124880D01*
X119189Y125072D01*
Y128164D01*
X123171Y132146D01*
X126229D01*
Y131776D01*
X126290Y131468D01*
X126464Y131208D01*
X126724Y131034D01*
X127031Y130973D01*
X130968D01*
X131276Y131034D01*
X131536Y131208D01*
X131710Y131468D01*
X131771Y131776D01*
Y134925D01*
X131710Y135232D01*
X131536Y135493D01*
X131276Y135667D01*
X130968Y135728D01*
X127031D01*
X126724Y135667D01*
X126464Y135493D01*
X126290Y135232D01*
X126229Y134925D01*
Y134555D01*
X122673D01*
X122672Y134555D01*
X122212Y134463D01*
X121821Y134202D01*
X121821Y134202D01*
X117901Y130282D01*
X117439Y130473D01*
Y132188D01*
X117439Y132188D01*
X117347Y132649D01*
X117086Y133040D01*
X115924Y134202D01*
X115533Y134463D01*
X115073Y134555D01*
X115073Y134555D01*
X110771D01*
Y134925D01*
X110710Y135232D01*
X110536Y135493D01*
X110276Y135667D01*
X109968Y135728D01*
X106031D01*
X105724Y135667D01*
X105464Y135493D01*
X105290Y135232D01*
X105229Y134925D01*
Y131776D01*
X105239Y131723D01*
X104898Y131223D01*
X95103D01*
X92124Y134202D01*
X91733Y134463D01*
X91272Y134555D01*
X91272Y134555D01*
X89771D01*
Y134925D01*
X89710Y135232D01*
X89536Y135493D01*
X89276Y135667D01*
X88968Y135728D01*
X85031D01*
X84724Y135667D01*
X84464Y135493D01*
X84290Y135232D01*
X84229Y134925D01*
Y131776D01*
X84290Y131468D01*
X84464Y131208D01*
X84724Y131034D01*
X85031Y130973D01*
X88968D01*
X89276Y131034D01*
X89536Y131208D01*
X89710Y131468D01*
X89771Y131776D01*
Y132146D01*
X90774D01*
X93752Y129168D01*
X94143Y128907D01*
X94604Y128815D01*
X109149D01*
X109906Y128058D01*
X109741Y127515D01*
X109342Y127436D01*
X108691Y127001D01*
X108256Y126349D01*
X108103Y125582D01*
X108256Y124813D01*
X108691Y124162D01*
X108906Y124019D01*
Y120209D01*
X108732Y120067D01*
X107551D01*
X107161Y119989D01*
X106909Y119821D01*
X106764Y119850D01*
X105583D01*
X105275Y119789D01*
X105015Y119615D01*
X104841Y119354D01*
X104780Y119047D01*
Y117905D01*
X104027D01*
Y118469D01*
X103966Y118776D01*
X103792Y119036D01*
X103532Y119210D01*
X103224Y119271D01*
X100075D01*
X99768Y119210D01*
X99507Y119036D01*
X99333Y118776D01*
X99272Y118469D01*
Y115825D01*
X98445Y114998D01*
X97945Y115205D01*
Y115516D01*
X95350D01*
X92756D01*
Y114532D01*
X92792Y114351D01*
X92472Y113851D01*
X87143D01*
X76994Y124001D01*
X76603Y124262D01*
X76142Y124354D01*
X76142Y124354D01*
X72771D01*
Y124724D01*
X72710Y125032D01*
X72536Y125292D01*
X72276Y125466D01*
X71968Y125527D01*
X69325D01*
X45377Y149476D01*
Y174126D01*
X45845Y174359D01*
X45877Y174351D01*
X47074Y172398D01*
X48583Y170631D01*
X50350Y169121D01*
X52332Y167907D01*
X54479Y167018D01*
X56738Y166475D01*
X59055Y166293D01*
X61372Y166475D01*
X63631Y167018D01*
X65778Y167907D01*
X67760Y169121D01*
X69527Y170631D01*
X69728Y170866D01*
X70197Y170693D01*
Y169979D01*
X70077Y169799D01*
X70016Y169492D01*
Y164768D01*
X70077Y164460D01*
X70251Y164200D01*
X70512Y164026D01*
X70819Y163965D01*
X73181D01*
X73488Y164026D01*
X73745Y164197D01*
X75255D01*
X75512Y164026D01*
X75819Y163965D01*
X78181D01*
X78488Y164026D01*
X78745Y164197D01*
X80255D01*
X80512Y164026D01*
X80819Y163965D01*
X83181D01*
X83488Y164026D01*
X83745Y164197D01*
X85255D01*
X85512Y164026D01*
X85819Y163965D01*
X88181D01*
X88488Y164026D01*
X88749Y164200D01*
X88923Y164460D01*
X88984Y164768D01*
Y169492D01*
X88923Y169799D01*
X88803Y169979D01*
Y171792D01*
X91235Y174224D01*
X91697Y174033D01*
X91697Y172743D01*
X91693Y172742D01*
X91432Y172568D01*
X91258Y172307D01*
X91197Y172000D01*
Y169979D01*
X91077Y169799D01*
X91016Y169492D01*
Y164768D01*
X91077Y164460D01*
X91251Y164200D01*
X91512Y164026D01*
X91819Y163965D01*
X94181D01*
X94488Y164026D01*
X94745Y164197D01*
X95200D01*
X95201Y164197D01*
X95799D01*
X95800Y164197D01*
X96255D01*
X96512Y164026D01*
X96819Y163965D01*
X99181D01*
X99488Y164026D01*
X99745Y164197D01*
X100200D01*
X100201Y164197D01*
X100799D01*
X100800Y164197D01*
X101255D01*
X101512Y164026D01*
X101819Y163965D01*
X104181D01*
X104488Y164026D01*
X104745Y164197D01*
X105200D01*
X105201Y164197D01*
X105799D01*
X105800Y164197D01*
X106255D01*
X106512Y164026D01*
X106819Y163965D01*
X109181D01*
X109488Y164026D01*
X109749Y164200D01*
X109923Y164460D01*
X109984Y164768D01*
Y168019D01*
X110201Y168197D01*
X112016D01*
Y164768D01*
X112077Y164460D01*
X112251Y164200D01*
X112512Y164026D01*
X112819Y163965D01*
X115181D01*
X115488Y164026D01*
X115745Y164197D01*
X117255D01*
X117512Y164026D01*
X117819Y163965D01*
X120181D01*
X120488Y164026D01*
X120745Y164197D01*
X122255D01*
X122512Y164026D01*
X122819Y163965D01*
X125181D01*
X125488Y164026D01*
X125745Y164197D01*
X127255D01*
X127512Y164026D01*
X127819Y163965D01*
X130181D01*
X130488Y164026D01*
X130749Y164200D01*
X130923Y164460D01*
X130984Y164768D01*
Y167841D01*
X132363Y169220D01*
X132363Y169220D01*
X132363Y169220D01*
X132516Y169420D01*
X133016Y169250D01*
Y164768D01*
X133077Y164460D01*
X133251Y164200D01*
X133512Y164026D01*
X133819Y163965D01*
X136181D01*
X136488Y164026D01*
X136745Y164197D01*
X138255D01*
X138512Y164026D01*
X138819Y163965D01*
X141181D01*
X141488Y164026D01*
X141745Y164197D01*
X143255D01*
X143512Y164026D01*
X143819Y163965D01*
X146181D01*
X146488Y164026D01*
X146745Y164197D01*
X148255D01*
X148512Y164026D01*
X148819Y163965D01*
X151181D01*
X151488Y164026D01*
X151749Y164200D01*
X151923Y164460D01*
X151984Y164768D01*
Y169492D01*
X151923Y169799D01*
X151803Y169979D01*
Y171391D01*
X154782Y174371D01*
X155697Y175563D01*
X156273Y176952D01*
X156451Y178308D01*
X157571Y179429D01*
X158486Y180621D01*
X159062Y182010D01*
X159258Y183500D01*
X159062Y184990D01*
X158486Y186379D01*
X157571Y187572D01*
X156379Y188487D01*
X154990Y189062D01*
X153500Y189258D01*
X152010Y189062D01*
X150621Y188487D01*
X149428Y187572D01*
X146640Y184783D01*
X145724Y183590D01*
X145149Y182201D01*
X144971Y180845D01*
X139428Y175303D01*
X138513Y174110D01*
X137972Y172803D01*
X136514D01*
X136345Y173303D01*
X136780Y173637D01*
X136780Y173637D01*
X136780Y173637D01*
X142571Y179429D01*
X143486Y180621D01*
X144062Y182010D01*
X144258Y183500D01*
X144062Y184990D01*
X143486Y186379D01*
X142571Y187572D01*
X141379Y188487D01*
X139990Y189062D01*
X138500Y189258D01*
X137010Y189062D01*
X135621Y188487D01*
X134428Y187572D01*
X131265Y184408D01*
X130803Y184599D01*
Y190000D01*
X130742Y190307D01*
X130568Y190568D01*
X130307Y190742D01*
X130000Y190803D01*
X117500D01*
X117193Y190742D01*
X116932Y190568D01*
X113516Y187151D01*
X112950Y187293D01*
X112713Y188074D01*
X112092Y189236D01*
X111255Y190256D01*
X110236Y191092D01*
X109074Y191713D01*
X107812Y192096D01*
X106500Y192225D01*
X93000D01*
X91688Y192096D01*
X90426Y191713D01*
X89264Y191092D01*
X88244Y190256D01*
X75744Y177756D01*
X74908Y176736D01*
X74287Y175574D01*
X73904Y174312D01*
X73775Y173000D01*
X73596Y172803D01*
X71796D01*
X71552Y173239D01*
X72250Y174379D01*
X73140Y176526D01*
X73682Y178786D01*
X73865Y181102D01*
X73682Y183419D01*
X73140Y185679D01*
X72250Y187826D01*
X71036Y189807D01*
X69527Y191574D01*
X67760Y193083D01*
X65778Y194298D01*
X63631Y195187D01*
X61372Y195729D01*
X59055Y195912D01*
X56738Y195729D01*
X54479Y195187D01*
X52332Y194298D01*
X50350Y193083D01*
X48583Y191574D01*
X47074Y189807D01*
X45877Y187853D01*
X45845Y187845D01*
X45377Y188078D01*
Y190319D01*
X45377Y190319D01*
X45285Y190780D01*
X45024Y191171D01*
X45024Y191171D01*
X39324Y196871D01*
X38933Y197132D01*
X38473Y197223D01*
X38473Y197223D01*
X27527D01*
Y197969D01*
X27466Y198276D01*
X27292Y198536D01*
X27549Y198966D01*
X27666Y199141D01*
X27744Y199532D01*
Y200516D01*
X25150D01*
X22555D01*
Y199532D01*
X22633Y199141D01*
X22750Y198966D01*
X23007Y198536D01*
X22833Y198276D01*
X22772Y197969D01*
Y194032D01*
X22833Y193724D01*
X22973Y193514D01*
X22990Y193376D01*
X22906Y192930D01*
X22704Y192796D01*
X22483Y192465D01*
X22406Y192075D01*
Y191484D01*
X25000D01*
X27594D01*
Y192075D01*
X27517Y192465D01*
X27296Y192796D01*
X27210Y192853D01*
X27209Y192856D01*
X27244Y193432D01*
X27292Y193464D01*
X27466Y193724D01*
X27527Y194032D01*
Y194815D01*
X37974D01*
X42968Y189820D01*
Y148977D01*
X42968Y148977D01*
X43060Y148516D01*
X43321Y148126D01*
X67229Y124218D01*
Y123608D01*
X66729Y123456D01*
X66419Y123919D01*
X65768Y124354D01*
X65000Y124507D01*
X64906Y124488D01*
X63824Y125571D01*
X63433Y125832D01*
X62972Y125923D01*
X62972Y125923D01*
X58673D01*
X58672Y125923D01*
X58212Y125832D01*
X57821Y125571D01*
X56421Y124171D01*
X56245Y123907D01*
X55808Y123820D01*
X55661Y123837D01*
X54928Y124327D01*
X54000Y124511D01*
X53285Y124369D01*
X53132Y124574D01*
X53037Y124829D01*
X53427Y125413D01*
X53580Y126181D01*
X53427Y126949D01*
X52992Y127601D01*
X52341Y128036D01*
X51573Y128188D01*
X50805Y128036D01*
X50153Y127601D01*
X49718Y126949D01*
X49566Y126181D01*
X49718Y125413D01*
X50153Y124762D01*
X50368Y124618D01*
Y120733D01*
X49612Y120583D01*
X48896Y120104D01*
X48417Y119388D01*
X48249Y118543D01*
X48417Y117698D01*
X48896Y116982D01*
X49601Y116511D01*
X49675Y116458D01*
X49762Y115965D01*
X49605Y115808D01*
X49344Y115418D01*
X49253Y114957D01*
X49253Y114957D01*
Y113256D01*
X48896Y113018D01*
X48417Y112302D01*
X48249Y111457D01*
X48319Y111106D01*
X46377Y109165D01*
X45877Y109372D01*
Y143919D01*
X45877Y143919D01*
X45785Y144380D01*
X45524Y144771D01*
X45524Y144771D01*
X26204Y164091D01*
Y180642D01*
X26575D01*
X26882Y180703D01*
X27142Y180877D01*
X27316Y181138D01*
X27378Y181445D01*
Y181524D01*
X27773Y181815D01*
X28233Y181907D01*
X28285Y181942D01*
X28775Y181968D01*
X28911Y181787D01*
X28964Y181708D01*
X29224Y181534D01*
X29531Y181473D01*
X33468D01*
X33776Y181534D01*
X34036Y181708D01*
X34210Y181968D01*
X34271Y182276D01*
Y185425D01*
X34210Y185732D01*
X34036Y185993D01*
X33776Y186167D01*
X33468Y186228D01*
X29531D01*
X29224Y186167D01*
X28964Y185993D01*
X28790Y185732D01*
X28746Y185515D01*
X28603Y185055D01*
X28142Y184963D01*
X27853Y184769D01*
X27403Y184868D01*
X27288Y184945D01*
X27142Y185162D01*
X26882Y185336D01*
X26575Y185397D01*
X23425D01*
X23177Y185601D01*
Y187228D01*
X23177Y187229D01*
X23132Y187454D01*
X23301Y187715D01*
X23478Y187888D01*
X23513Y187906D01*
X24016D01*
Y189516D01*
X22406D01*
Y189206D01*
X21905Y188998D01*
X20924Y189980D01*
X20533Y190241D01*
X20073Y190333D01*
X20073Y190333D01*
X14773D01*
X14312Y190241D01*
X13921Y189980D01*
X13921Y189980D01*
X11964Y188023D01*
X8309D01*
X8027Y188523D01*
X8231Y189016D01*
X5000D01*
Y190000D01*
X4016D01*
Y193232D01*
X3477Y193008D01*
X2977Y193263D01*
Y196738D01*
X3477Y196992D01*
X4016Y196769D01*
Y200000D01*
X5000D01*
Y200984D01*
X8231D01*
X8177Y201115D01*
X8512Y201615D01*
X16473D01*
Y199532D01*
X16534Y199224D01*
X16708Y198964D01*
Y198536D01*
X16534Y198276D01*
X16473Y197969D01*
Y194032D01*
X16534Y193724D01*
X16708Y193464D01*
X16968Y193290D01*
X17276Y193229D01*
X20425D01*
X20732Y193290D01*
X20993Y193464D01*
X21167Y193724D01*
X21228Y194032D01*
Y197969D01*
X21167Y198276D01*
X20993Y198536D01*
Y198964D01*
X21167Y199224D01*
X21228Y199532D01*
Y203469D01*
X21435Y203721D01*
X22348D01*
X22555Y203469D01*
Y202484D01*
X25150D01*
X27744D01*
Y203469D01*
X27951Y203721D01*
X47521D01*
X47553Y203221D01*
X47281Y203185D01*
X46610Y202907D01*
X46035Y202466D01*
X45593Y201890D01*
X45315Y201219D01*
X45220Y200500D01*
X45315Y199781D01*
X45593Y199110D01*
X46035Y198535D01*
X46610Y198093D01*
X47281Y197815D01*
X48000Y197720D01*
X72848D01*
X73017Y197220D01*
X72883Y197117D01*
X72407Y196497D01*
X72195Y195984D01*
X77805D01*
X77593Y196497D01*
X77117Y197117D01*
X76983Y197220D01*
X77152Y197720D01*
X251697D01*
Y190092D01*
X251235Y189900D01*
X250568Y190568D01*
X250307Y190742D01*
X250000Y190803D01*
X237861D01*
X237853Y190801D01*
X237845Y190803D01*
X237700Y190771D01*
X237554Y190742D01*
X237547Y190737D01*
X237539Y190735D01*
X237417Y190650D01*
X237293Y190568D01*
X237289Y190561D01*
X237282Y190556D01*
X236935Y190196D01*
X236931Y190189D01*
X236925Y190184D01*
X236847Y190057D01*
X236767Y189932D01*
X236765Y189924D01*
X236761Y189917D01*
X236738Y189770D01*
X236712Y189623D01*
X236714Y189615D01*
X236712Y189607D01*
X236859Y185935D01*
X236401Y185734D01*
X235803Y186332D01*
Y190000D01*
X235742Y190307D01*
X235568Y190568D01*
X235307Y190742D01*
X235000Y190803D01*
X222500D01*
X222193Y190742D01*
X221932Y190568D01*
X221758Y190307D01*
X221697Y190000D01*
Y186168D01*
X221235Y185977D01*
X218957Y188256D01*
X217937Y189092D01*
X216775Y189713D01*
X215513Y190096D01*
X214201Y190225D01*
X213500D01*
X212188Y190096D01*
X210926Y189713D01*
X209764Y189092D01*
X208744Y188256D01*
X207908Y187236D01*
X207287Y186074D01*
X206904Y184812D01*
X206775Y183500D01*
X206904Y182188D01*
X207287Y180926D01*
X207908Y179764D01*
X208744Y178745D01*
X209764Y177908D01*
X210877Y177313D01*
X211841Y176350D01*
X211594Y175889D01*
X211000Y176007D01*
X210232Y175854D01*
X209581Y175419D01*
X209400Y175149D01*
X208778Y175118D01*
X208255Y175756D01*
X205225Y178786D01*
Y183500D01*
X205096Y184812D01*
X204713Y186074D01*
X204092Y187236D01*
X203255Y188256D01*
X202236Y189092D01*
X201074Y189713D01*
X199812Y190096D01*
X198500Y190225D01*
X197188Y190096D01*
X195926Y189713D01*
X194764Y189092D01*
X193744Y188256D01*
X192908Y187236D01*
X192287Y186074D01*
X191904Y184812D01*
X191775Y183500D01*
Y176000D01*
X191904Y174688D01*
X192287Y173426D01*
X192391Y173232D01*
X192134Y172803D01*
X190225D01*
Y183500D01*
X190096Y184812D01*
X189713Y186074D01*
X189092Y187236D01*
X188255Y188256D01*
X187236Y189092D01*
X186074Y189713D01*
X184812Y190096D01*
X183500Y190225D01*
X182188Y190096D01*
X180926Y189713D01*
X179764Y189092D01*
X178744Y188256D01*
X177908Y187236D01*
X177287Y186074D01*
X176904Y184812D01*
X176775Y183500D01*
Y172803D01*
X176000D01*
X175693Y172742D01*
X175432Y172568D01*
X175258Y172307D01*
X175197Y172000D01*
Y169979D01*
X175077Y169799D01*
X175016Y169492D01*
Y164768D01*
X175077Y164460D01*
X175251Y164200D01*
X175512Y164026D01*
X175819Y163965D01*
X178181D01*
X178488Y164026D01*
X178745Y164197D01*
X180255D01*
X180512Y164026D01*
X180819Y163965D01*
X183181D01*
X183488Y164026D01*
X183745Y164197D01*
X185255D01*
X185512Y164026D01*
X185819Y163965D01*
X188181D01*
X188488Y164026D01*
X188745Y164197D01*
X190255D01*
X190512Y164026D01*
X190819Y163965D01*
X193181D01*
X193488Y164026D01*
X193749Y164200D01*
X193923Y164460D01*
X193984Y164768D01*
Y169492D01*
X193923Y169799D01*
X193803Y169979D01*
Y170533D01*
X194265Y170724D01*
X196016Y168973D01*
Y164768D01*
X196077Y164460D01*
X196251Y164200D01*
X196512Y164026D01*
X196819Y163965D01*
X199181D01*
X199488Y164026D01*
X199745Y164197D01*
X201255D01*
X201512Y164026D01*
X201819Y163965D01*
X204181D01*
X204488Y164026D01*
X204745Y164197D01*
X206255D01*
X206512Y164026D01*
X206819Y163965D01*
X209181D01*
X209488Y164026D01*
X209745Y164197D01*
X211255D01*
X211512Y164026D01*
X211819Y163965D01*
X214095D01*
Y149035D01*
X211819D01*
X211512Y148974D01*
X211251Y148800D01*
X211077Y148539D01*
X211016Y148232D01*
Y143508D01*
X211077Y143201D01*
X211251Y142940D01*
X211512Y142766D01*
X211595Y142750D01*
Y142027D01*
X211031D01*
X210724Y141966D01*
X210464Y141792D01*
X210290Y141532D01*
X210229Y141225D01*
Y138075D01*
X210290Y137768D01*
X210464Y137507D01*
X210724Y137333D01*
X211031Y137272D01*
X214968D01*
X215276Y137333D01*
X215536Y137507D01*
X215710Y137768D01*
X215771Y138075D01*
Y140535D01*
X216271Y140742D01*
X217595Y139418D01*
Y137929D01*
X217581Y137919D01*
X217146Y137268D01*
X216993Y136500D01*
X217146Y135732D01*
X217581Y135081D01*
X218232Y134646D01*
X219000Y134493D01*
X219768Y134646D01*
X220419Y135081D01*
X220854Y135732D01*
X221007Y136500D01*
X220854Y137268D01*
X220419Y137919D01*
X220405Y137929D01*
Y140000D01*
X220298Y140538D01*
X219993Y140993D01*
X218961Y142026D01*
X219152Y142488D01*
X220181D01*
X220571Y142566D01*
X220902Y142787D01*
X221123Y143118D01*
X221201Y143508D01*
Y144886D01*
X219000D01*
Y145870D01*
X218016D01*
Y149252D01*
X217819D01*
X217429Y149174D01*
X217405Y149158D01*
X216905Y149426D01*
Y163876D01*
X216926Y163896D01*
X217405Y164097D01*
X217512Y164026D01*
X217819Y163965D01*
X220181D01*
X220488Y164026D01*
X220745Y164197D01*
X222255D01*
X222512Y164026D01*
X222819Y163965D01*
X225181D01*
X225488Y164026D01*
X225745Y164197D01*
X227255D01*
X227512Y164026D01*
X227819Y163965D01*
X230181D01*
X230488Y164026D01*
X230745Y164197D01*
X232255D01*
X232512Y164026D01*
X232819Y163965D01*
X235181D01*
X235488Y164026D01*
X235749Y164200D01*
X235775Y164239D01*
X235984Y164197D01*
X237799D01*
X238106Y164258D01*
X238180Y164307D01*
X238251Y164200D01*
X238512Y164026D01*
X238819Y163965D01*
X241181D01*
X241488Y164026D01*
X241745Y164197D01*
X242200D01*
X242201Y164197D01*
X242799D01*
X242800Y164197D01*
X243255D01*
X243512Y164026D01*
X243819Y163965D01*
X246181D01*
X246488Y164026D01*
X246745Y164197D01*
X247200D01*
X247201Y164197D01*
X247799D01*
X247800Y164197D01*
X248255D01*
X248512Y164026D01*
X248819Y163965D01*
X251181D01*
X251488Y164026D01*
X251745Y164197D01*
X253255D01*
X253512Y164026D01*
X253819Y163965D01*
X256181D01*
X256488Y164026D01*
X256749Y164200D01*
X256923Y164460D01*
X256984Y164768D01*
Y166227D01*
X257446Y166419D01*
X257770Y166095D01*
X258030Y165921D01*
X258337Y165860D01*
X258516Y165895D01*
X259016Y165614D01*
Y164768D01*
X259077Y164460D01*
X259251Y164200D01*
X259512Y164026D01*
X259819Y163965D01*
X262181D01*
X262488Y164026D01*
X262745Y164197D01*
X263200D01*
X263201Y164197D01*
X263799D01*
X263800Y164197D01*
X264255D01*
X264512Y164026D01*
X264819Y163965D01*
X267181D01*
X267488Y164026D01*
X267745Y164197D01*
X268200D01*
X268201Y164197D01*
X268799D01*
X268800Y164197D01*
X269255D01*
X269512Y164026D01*
X269819Y163965D01*
X272181D01*
X272488Y164026D01*
X272745Y164197D01*
X273200D01*
X273201Y164197D01*
X273799D01*
X273800Y164197D01*
X274255D01*
X274512Y164026D01*
X274819Y163965D01*
X277181D01*
X277488Y164026D01*
X277749Y164200D01*
X277923Y164460D01*
X277984Y164768D01*
Y169492D01*
X277923Y169799D01*
X277803Y169979D01*
Y170511D01*
X277803Y170512D01*
Y174000D01*
X277965Y174197D01*
X289761D01*
X290068Y174258D01*
X290329Y174432D01*
X309068Y193171D01*
X309242Y193432D01*
X309303Y193739D01*
Y203721D01*
X392697D01*
Y142716D01*
D02*
G37*
G36*
X130000Y183210D02*
X128756Y182695D01*
X128450Y182460D01*
X128353Y182516D01*
X119047D01*
X119074Y182314D01*
X119531Y181209D01*
X120260Y180260D01*
X121209Y179532D01*
X122314Y179074D01*
X123500Y178918D01*
X124069Y178992D01*
X124303Y178519D01*
X124220Y178436D01*
X123305Y177244D01*
X122742Y175885D01*
X121429Y174572D01*
X120514Y173379D01*
X120275Y172803D01*
X113000D01*
X112693Y172742D01*
X112432Y172568D01*
X112258Y172307D01*
X112197Y172000D01*
Y169979D01*
X112077Y169799D01*
X112016Y169492D01*
Y169000D01*
X110201D01*
Y169492D01*
X110123Y169882D01*
X109902Y170213D01*
X109571Y170434D01*
X109181Y170512D01*
X108984D01*
Y167130D01*
X108000D01*
Y166146D01*
X105799D01*
Y165000D01*
X105201D01*
Y166146D01*
X103000D01*
X100799D01*
Y165000D01*
X100201D01*
Y166146D01*
X98000D01*
X95799D01*
Y165000D01*
X95201D01*
Y166146D01*
X93000D01*
Y168114D01*
X95201D01*
Y169492D01*
X95123Y169882D01*
X94902Y170213D01*
X94571Y170434D01*
X94181Y170512D01*
X92500D01*
X92500Y175489D01*
X95786Y178775D01*
X106500D01*
X107812Y178904D01*
X108579Y179137D01*
X111157D01*
X111810Y179267D01*
X112364Y179636D01*
X112734Y180190D01*
X112863Y180843D01*
Y183421D01*
X113096Y184188D01*
X113225Y185500D01*
X113205Y185705D01*
X117500Y190000D01*
X130000D01*
Y183210D01*
D02*
G37*
G36*
X20768Y186730D02*
Y162119D01*
X20768Y162119D01*
X20860Y161658D01*
X21121Y161268D01*
X41468Y140920D01*
Y76019D01*
X41468Y76019D01*
X41560Y75558D01*
X41821Y75168D01*
X46968Y70020D01*
Y66282D01*
X46753Y66138D01*
X46318Y65487D01*
X46165Y64719D01*
X46318Y63951D01*
X46753Y63300D01*
X47405Y62865D01*
X48173Y62712D01*
X48941Y62865D01*
X49592Y63300D01*
X50027Y63951D01*
X50180Y64719D01*
X50027Y65487D01*
X49592Y66138D01*
X49377Y66282D01*
Y70519D01*
X49285Y70980D01*
X49024Y71371D01*
X49024Y71371D01*
X43877Y76518D01*
Y86616D01*
X44377Y86883D01*
X44732Y86646D01*
X45500Y86493D01*
X46268Y86646D01*
X46919Y87081D01*
X47354Y87732D01*
X47507Y88500D01*
X47354Y89268D01*
X46919Y89919D01*
X46704Y90063D01*
Y98192D01*
X46613Y98652D01*
X46352Y99043D01*
X45540Y99855D01*
Y104430D01*
X46040Y104637D01*
X49253Y101424D01*
Y99027D01*
X49031D01*
X48724Y98966D01*
X48464Y98792D01*
X48290Y98532D01*
X48229Y98225D01*
Y95075D01*
X48290Y94768D01*
X48464Y94507D01*
X48724Y94333D01*
X49031Y94272D01*
X50847D01*
X51038Y93810D01*
X50148Y92921D01*
X50020Y92728D01*
X49031D01*
X48724Y92667D01*
X48464Y92493D01*
X48290Y92233D01*
X48229Y91925D01*
Y88776D01*
X48290Y88468D01*
X48464Y88208D01*
Y87792D01*
X48290Y87532D01*
X48229Y87225D01*
Y84075D01*
X48290Y83768D01*
X48464Y83507D01*
X48724Y83333D01*
X49031Y83272D01*
X52968D01*
X53276Y83333D01*
X53536Y83507D01*
X53710Y83768D01*
X53745Y83943D01*
X54255D01*
X54290Y83768D01*
X54464Y83507D01*
X54724Y83333D01*
X55031Y83272D01*
X58968D01*
X59276Y83333D01*
X59536Y83507D01*
X59710Y83768D01*
X59771Y84075D01*
Y87225D01*
X59710Y87532D01*
X59536Y87792D01*
Y88208D01*
X59710Y88468D01*
X59771Y88776D01*
Y89146D01*
X68242D01*
X69416Y87973D01*
X69366Y87719D01*
X69518Y86951D01*
X69953Y86300D01*
X70604Y85865D01*
X71372Y85712D01*
X72141Y85865D01*
X72792Y86300D01*
X73227Y86951D01*
X73380Y87719D01*
X73227Y88487D01*
X72792Y89138D01*
X72141Y89573D01*
X71372Y89726D01*
X71119Y89676D01*
X69593Y91202D01*
X69202Y91463D01*
X68741Y91555D01*
X68741Y91555D01*
X60107D01*
X59970Y91912D01*
X60305Y92315D01*
X65073D01*
X65073Y92315D01*
X65533Y92406D01*
X65924Y92668D01*
X68089Y94833D01*
X68089Y94833D01*
X68350Y95223D01*
X68442Y95684D01*
X68442Y95684D01*
Y103256D01*
X69016D01*
Y105851D01*
X70984D01*
Y103256D01*
X71968D01*
X72359Y103334D01*
X72689Y103555D01*
X72910Y103885D01*
X72988Y104276D01*
Y106063D01*
X73450Y106254D01*
X86508Y93196D01*
X86899Y92935D01*
X87360Y92843D01*
X88211D01*
X88493Y92500D01*
X88646Y91732D01*
X89081Y91081D01*
X89732Y90646D01*
X90500Y90493D01*
X91268Y90646D01*
X91610Y90874D01*
X94007D01*
X94150Y90701D01*
Y89520D01*
X94179Y89374D01*
X94011Y89122D01*
X93933Y88732D01*
Y87578D01*
X91527D01*
Y88969D01*
X91466Y89276D01*
X91292Y89536D01*
X91032Y89710D01*
X90724Y89771D01*
X87575D01*
X87268Y89710D01*
X87007Y89536D01*
X86833Y89276D01*
X86772Y88969D01*
Y85032D01*
X86833Y84724D01*
X87007Y84464D01*
X87268Y84290D01*
X87575Y84229D01*
X90724D01*
X91032Y84290D01*
X91292Y84464D01*
X91314Y84497D01*
X91898Y84564D01*
X91911Y84559D01*
X92296Y84175D01*
Y81500D01*
X92296Y81500D01*
X92387Y81039D01*
X92649Y80648D01*
X94148Y79149D01*
X94539Y78887D01*
X95000Y78796D01*
X95000Y78796D01*
X95079D01*
X95346Y78296D01*
X95333Y78276D01*
X95272Y77969D01*
Y74032D01*
X95333Y73724D01*
X95507Y73464D01*
X95767Y73290D01*
X96075Y73229D01*
X99224D01*
X99532Y73290D01*
X99792Y73464D01*
X99966Y73724D01*
X100027Y74032D01*
Y74595D01*
X104000D01*
X104328Y74660D01*
X104616Y74652D01*
X104999Y74409D01*
X105015Y74385D01*
X105275Y74211D01*
X105583Y74150D01*
X106764D01*
X107071Y74211D01*
X107157Y74269D01*
X107244Y74211D01*
X107551Y74150D01*
X108732D01*
X109039Y74211D01*
X109126Y74269D01*
X109213Y74211D01*
X109520Y74150D01*
X110701D01*
X111008Y74211D01*
X111094Y74269D01*
X111181Y74211D01*
X111488Y74150D01*
X112642D01*
Y69953D01*
X112749Y69415D01*
X112858Y69253D01*
X112804Y68983D01*
X112791Y68958D01*
X112268Y68618D01*
X112189Y68634D01*
X111254D01*
X111029Y69055D01*
X107050D01*
X106825Y68634D01*
X105890D01*
X105500Y68556D01*
X105169Y68335D01*
X104948Y68005D01*
X104870Y67614D01*
Y66504D01*
X104370Y66352D01*
X104362Y66364D01*
X104031Y66585D01*
X103641Y66663D01*
X102657D01*
Y64069D01*
Y61474D01*
X103641D01*
X104031Y61552D01*
X104362Y61773D01*
X104488Y61962D01*
X104551Y61982D01*
X104976Y61983D01*
X105044Y61962D01*
X105169Y61775D01*
X105500Y61554D01*
X105890Y61477D01*
X108055D01*
Y65055D01*
X110024D01*
Y61477D01*
X111822D01*
X112029Y60977D01*
X110414Y59362D01*
X105890D01*
X105582Y59301D01*
X105322Y59127D01*
X105148Y58866D01*
X105087Y58559D01*
Y56905D01*
X104524D01*
X104444Y56985D01*
Y59344D01*
X104383Y59651D01*
X104209Y59912D01*
X103948Y60086D01*
X103641Y60147D01*
X99704D01*
X99397Y60086D01*
X99136Y59912D01*
X98962Y59651D01*
X98901Y59344D01*
Y56195D01*
X98962Y55888D01*
X99136Y55627D01*
X99397Y55453D01*
X99704Y55392D01*
X102063D01*
X102948Y54507D01*
X103404Y54202D01*
X103942Y54095D01*
X105087D01*
Y53441D01*
X105148Y53134D01*
X105322Y52873D01*
X105582Y52699D01*
X105890Y52638D01*
X112189D01*
X112496Y52699D01*
X112757Y52873D01*
X112931Y53134D01*
X112992Y53441D01*
Y57966D01*
X115493Y60467D01*
X115798Y60923D01*
X115905Y61461D01*
Y67955D01*
X116367Y68146D01*
X120047Y64466D01*
Y62496D01*
X120109Y62189D01*
X120283Y61928D01*
X120543Y61755D01*
X120850Y61693D01*
X127149D01*
X127457Y61755D01*
X127717Y61928D01*
X127891Y62189D01*
X127952Y62496D01*
Y63650D01*
X128729D01*
Y62575D01*
X128790Y62268D01*
X128964Y62007D01*
X129224Y61833D01*
X129531Y61772D01*
X133468D01*
X133776Y61833D01*
X134036Y62007D01*
X134210Y62268D01*
X134271Y62575D01*
Y65724D01*
X134210Y66032D01*
X134036Y66292D01*
X133776Y66466D01*
X133468Y66527D01*
X129531D01*
X129224Y66466D01*
X129215Y66460D01*
X127952D01*
Y67614D01*
X127891Y67922D01*
X127717Y68182D01*
X127457Y68356D01*
X127149Y68417D01*
X120850D01*
X120543Y68356D01*
X120296Y68191D01*
X117421Y71066D01*
Y74150D01*
X118575D01*
X118720Y74179D01*
X118968Y74013D01*
Y74269D01*
X119143Y74385D01*
X119317Y74645D01*
X119378Y74953D01*
Y78791D01*
X120528D01*
Y74953D01*
X120589Y74645D01*
X120763Y74385D01*
X120937Y74269D01*
Y74013D01*
X121185Y74179D01*
X121331Y74150D01*
X122512D01*
X122819Y74211D01*
X122906Y74269D01*
X122992Y74211D01*
X123299Y74150D01*
X124480D01*
X124787Y74211D01*
X124874Y74269D01*
X124961Y74211D01*
X125268Y74150D01*
X126449D01*
X126756Y74211D01*
X126842Y74269D01*
X126929Y74211D01*
X127236Y74150D01*
X127301D01*
X127366Y74107D01*
X127827Y74015D01*
X136974D01*
X184516Y26473D01*
X184466Y26219D01*
X184618Y25451D01*
X185053Y24800D01*
X185705Y24365D01*
X186472Y24212D01*
X187241Y24365D01*
X187892Y24800D01*
X188327Y25451D01*
X188480Y26219D01*
X188327Y26987D01*
X187892Y27638D01*
X187241Y28073D01*
X186472Y28226D01*
X186219Y28176D01*
X138324Y76071D01*
X137933Y76332D01*
X137472Y76423D01*
X137472Y76423D01*
X129220D01*
Y82630D01*
X129159Y82937D01*
X128985Y83198D01*
X128725Y83372D01*
X128417Y83433D01*
X127236D01*
X127063Y83575D01*
Y85469D01*
X127563Y85676D01*
X133371Y79868D01*
X133371Y79868D01*
X133762Y79606D01*
X134223Y79515D01*
X134223Y79515D01*
X158440D01*
X230988Y6967D01*
X231378Y6707D01*
X231839Y6615D01*
X231839Y6615D01*
X270073D01*
X270073Y6615D01*
X270533Y6707D01*
X270924Y6967D01*
X272624Y8668D01*
X272624Y8668D01*
X272885Y9058D01*
X272977Y9519D01*
Y84774D01*
X273352Y85149D01*
X273352Y85149D01*
X273613Y85539D01*
X273704Y86000D01*
Y86793D01*
X274075Y87229D01*
X277224D01*
X277532Y87290D01*
X277792Y87464D01*
X277966Y87724D01*
X278027Y88032D01*
Y88595D01*
X279418D01*
X281529Y86484D01*
X281322Y85984D01*
X280768D01*
X280461Y85923D01*
X280200Y85749D01*
X280026Y85488D01*
X279965Y85181D01*
Y82819D01*
X280026Y82512D01*
X280200Y82251D01*
X280461Y82077D01*
X280768Y82016D01*
X285492D01*
X285799Y82077D01*
X286060Y82251D01*
X286234Y82512D01*
X286295Y82819D01*
Y85181D01*
X286234Y85488D01*
X286060Y85749D01*
X285799Y85923D01*
X285492Y85984D01*
X284535D01*
Y92548D01*
X287082Y95095D01*
X292801D01*
X292970Y94688D01*
X292981Y94595D01*
X292948Y94557D01*
X292927Y94542D01*
X292911Y94521D01*
X292851Y94469D01*
X292378Y93852D01*
X292343Y93781D01*
X292327Y93760D01*
X292317Y93736D01*
X292273Y93670D01*
X291976Y92952D01*
X291960Y92874D01*
X291950Y92851D01*
X291947Y92825D01*
X291922Y92750D01*
X291820Y91979D01*
X291824Y91926D01*
X291813Y91874D01*
X291824Y91822D01*
X291820Y91769D01*
X291922Y90999D01*
X291947Y90924D01*
X291950Y90898D01*
X291960Y90874D01*
X291976Y90796D01*
X292273Y90078D01*
X292317Y90012D01*
X292327Y89988D01*
X292343Y89967D01*
X292378Y89896D01*
X292851Y89279D01*
X292911Y89227D01*
X292927Y89207D01*
X292948Y89191D01*
X293000Y89131D01*
X293617Y88658D01*
X293688Y88623D01*
X293708Y88607D01*
X293732Y88597D01*
X293798Y88553D01*
X294516Y88256D01*
X294594Y88240D01*
X294618Y88230D01*
X294644Y88227D01*
X294719Y88201D01*
X295490Y88100D01*
X295568Y88105D01*
X295594Y88102D01*
X295620Y88105D01*
X295699Y88100D01*
X296470Y88201D01*
X296545Y88227D01*
X296571Y88230D01*
X296595Y88240D01*
X296672Y88256D01*
X297391Y88553D01*
X297457Y88597D01*
X297481Y88607D01*
X297501Y88623D01*
X297572Y88658D01*
X298189Y89131D01*
X298241Y89191D01*
X298262Y89207D01*
X298278Y89227D01*
X298337Y89279D01*
X298811Y89896D01*
X298846Y89967D01*
X298861Y89988D01*
X298871Y90012D01*
X298915Y90078D01*
X299213Y90796D01*
X299228Y90874D01*
X299238Y90898D01*
X299242Y90924D01*
X299267Y90999D01*
X299369Y91769D01*
X299365Y91822D01*
X299375Y91874D01*
X299365Y91926D01*
X299369Y91979D01*
X299267Y92750D01*
X299242Y92825D01*
X299238Y92851D01*
X299228Y92874D01*
X299213Y92952D01*
X298915Y93670D01*
X298871Y93736D01*
X298861Y93760D01*
X298846Y93781D01*
X298811Y93852D01*
X298337Y94469D01*
X298278Y94521D01*
X298262Y94542D01*
X298241Y94557D01*
X298208Y94595D01*
X298218Y94688D01*
X298387Y95095D01*
X318500D01*
X319038Y95202D01*
X319402Y95446D01*
X346729D01*
Y95276D01*
X346790Y94968D01*
X346964Y94708D01*
X347224Y94534D01*
X347531Y94473D01*
X348296D01*
Y92919D01*
X348296Y92919D01*
X348387Y92458D01*
X348648Y92068D01*
X349039Y91677D01*
X348832Y91177D01*
X346957D01*
X346649Y91116D01*
X346389Y90942D01*
X346215Y90681D01*
X346154Y90374D01*
Y85650D01*
X346215Y85342D01*
X346389Y85082D01*
X346649Y84908D01*
X346957Y84847D01*
X354043D01*
X354350Y84908D01*
X354611Y85082D01*
X354785Y85342D01*
X354846Y85650D01*
Y89685D01*
X355346Y89772D01*
X356373Y86901D01*
X358069Y83316D01*
X360107Y79915D01*
X362469Y76731D01*
X365132Y73793D01*
X368070Y71130D01*
X371254Y68768D01*
X374655Y66730D01*
X378239Y65035D01*
X381973Y63699D01*
X385819Y62735D01*
X389741Y62154D01*
X392697Y62008D01*
Y1003D01*
X1003D01*
Y62008D01*
X3960Y62154D01*
X7882Y62735D01*
X11728Y63699D01*
X15462Y65035D01*
X19046Y66730D01*
X22447Y68768D01*
X25631Y71130D01*
X28569Y73793D01*
X31232Y76731D01*
X33594Y79915D01*
X35632Y83316D01*
X37328Y86901D01*
X38663Y90634D01*
X39627Y94480D01*
X40209Y98402D01*
X40403Y102362D01*
X40209Y106322D01*
X39627Y110244D01*
X38663Y114091D01*
X37328Y117824D01*
X35632Y121408D01*
X33594Y124809D01*
X31232Y127994D01*
X28569Y130931D01*
X25631Y133594D01*
X22447Y135956D01*
X19046Y137994D01*
X15462Y139690D01*
X11728Y141025D01*
X7882Y141989D01*
X3960Y142571D01*
X1003Y142716D01*
Y186732D01*
X1465Y186923D01*
X2421Y185968D01*
X2812Y185706D01*
X3272Y185615D01*
X3273Y185615D01*
X12463D01*
X12463Y185615D01*
X12924Y185706D01*
X13315Y185968D01*
X14286Y186939D01*
X14748Y186748D01*
Y185185D01*
X14809Y184878D01*
X14983Y184617D01*
X15244Y184443D01*
X15551Y184382D01*
X15922D01*
Y179625D01*
X14158Y177861D01*
X13476Y178144D01*
X12500Y178272D01*
X11524Y178144D01*
X10614Y177767D01*
X9832Y177168D01*
X9233Y176386D01*
X8856Y175476D01*
X8727Y174500D01*
X8856Y173524D01*
X9233Y172614D01*
X9832Y171833D01*
X10614Y171233D01*
X11524Y170856D01*
X12500Y170728D01*
X13476Y170856D01*
X14386Y171233D01*
X15167Y171833D01*
X15767Y172614D01*
X16144Y173524D01*
X16272Y174500D01*
X16144Y175476D01*
X15861Y176158D01*
X17977Y178275D01*
X17977Y178275D01*
X18238Y178665D01*
X18330Y179126D01*
Y184382D01*
X18701D01*
X19008Y184443D01*
X19268Y184617D01*
X19443Y184878D01*
X19504Y185185D01*
Y187287D01*
X20004Y187494D01*
X20768Y186730D01*
D02*
G37*
G36*
X191121Y105149D02*
X191430Y104942D01*
X191374Y104546D01*
X191335Y104450D01*
X191000Y104494D01*
X190225Y104392D01*
X189503Y104093D01*
X188883Y103617D01*
X188407Y102997D01*
X188195Y102484D01*
X193805D01*
X193593Y102997D01*
X193117Y103617D01*
X192497Y104093D01*
X192007Y104296D01*
X192107Y104796D01*
X196473D01*
Y104032D01*
X196534Y103724D01*
X196708Y103464D01*
X196968Y103290D01*
X197275Y103229D01*
X197646D01*
Y98418D01*
X197499Y98271D01*
X197238Y97880D01*
X197146Y97419D01*
X197146Y97419D01*
Y92271D01*
X196775D01*
X196468Y92210D01*
X196208Y92036D01*
X196034Y91776D01*
X195973Y91469D01*
Y87532D01*
X196034Y87224D01*
X196208Y86964D01*
X196468Y86790D01*
X196644Y86755D01*
Y86245D01*
X196468Y86210D01*
X196208Y86036D01*
X196034Y85776D01*
X195973Y85469D01*
Y81532D01*
X196034Y81224D01*
X196208Y80964D01*
X196468Y80790D01*
X196775Y80729D01*
X197146D01*
Y72396D01*
X197146Y72396D01*
X197146Y72396D01*
Y69771D01*
X196775D01*
X196468Y69710D01*
X196208Y69536D01*
X196034Y69276D01*
X195973Y68969D01*
Y65032D01*
X196034Y64724D01*
X196208Y64464D01*
X196468Y64290D01*
X196644Y64255D01*
Y63745D01*
X196468Y63710D01*
X196208Y63536D01*
X196034Y63276D01*
X195973Y62969D01*
Y59602D01*
X195493Y59389D01*
X195204Y59615D01*
Y66192D01*
X195113Y66653D01*
X194852Y67043D01*
X194852Y67043D01*
X184129Y77766D01*
X184180Y78019D01*
X184027Y78787D01*
X183592Y79438D01*
X182941Y79873D01*
X182173Y80026D01*
X181404Y79873D01*
X180753Y79438D01*
X180318Y78787D01*
X180166Y78019D01*
X180318Y77251D01*
X180753Y76600D01*
X181404Y76165D01*
X182173Y76012D01*
X182426Y76063D01*
X192796Y65693D01*
Y59000D01*
X192796Y59000D01*
X192869Y58633D01*
X192598Y58404D01*
X192456Y58338D01*
X178555Y72240D01*
Y85527D01*
X179055Y85751D01*
X179503Y85407D01*
X180016Y85195D01*
Y88000D01*
Y90805D01*
X179503Y90593D01*
X179055Y90249D01*
X178555Y90473D01*
Y104729D01*
X178925D01*
X179110Y104765D01*
X179153Y104700D01*
X179805Y104265D01*
X180572Y104112D01*
X181341Y104265D01*
X181992Y104700D01*
X182018Y104740D01*
X182075Y104729D01*
X185224D01*
X185532Y104790D01*
X185792Y104964D01*
X185966Y105224D01*
X186027Y105532D01*
Y106296D01*
X189974D01*
X191121Y105149D01*
D02*
G37*
G36*
X109718Y100391D02*
Y91536D01*
X105560Y87378D01*
X103792D01*
X103649Y87551D01*
Y88732D01*
X103573Y89115D01*
X103789Y89259D01*
X106206Y91676D01*
X106207Y91676D01*
X106467Y92067D01*
X106549Y92474D01*
X106774Y92625D01*
X107209Y93276D01*
X107362Y94044D01*
X107209Y94812D01*
X106774Y95464D01*
X106123Y95899D01*
X105355Y96051D01*
X104587Y95899D01*
X103936Y95464D01*
X103933Y95459D01*
X103433Y95611D01*
Y96606D01*
X103372Y96913D01*
X103314Y97000D01*
X103372Y97087D01*
X103433Y97394D01*
Y98575D01*
X103575Y98748D01*
X106953D01*
X106953Y98748D01*
X107413Y98840D01*
X107804Y99101D01*
X109164Y100461D01*
X109164Y100461D01*
X109218Y100542D01*
X109718Y100391D01*
D02*
G37*
G36*
X239106Y81082D02*
Y45309D01*
X235648Y41851D01*
X235387Y41461D01*
X235296Y41000D01*
X235296Y41000D01*
Y36000D01*
X235296Y36000D01*
X235387Y35539D01*
X235648Y35149D01*
X239648Y31149D01*
X240039Y30887D01*
X240500Y30796D01*
X242682D01*
X243047Y29915D01*
X243709Y29052D01*
X244573Y28389D01*
X245578Y27973D01*
X246657Y27831D01*
X247737Y27973D01*
X248742Y28389D01*
X249376Y28876D01*
X249746Y28529D01*
X249685Y28438D01*
X249593Y27977D01*
X249593Y27977D01*
Y26639D01*
X248617Y25663D01*
X247737Y26028D01*
X246657Y26170D01*
X245578Y26028D01*
X244573Y25611D01*
X243709Y24948D01*
X243047Y24085D01*
X242682Y23204D01*
X237999D01*
X219656Y41547D01*
X219890Y42020D01*
X220000Y42006D01*
X220775Y42108D01*
X221497Y42407D01*
X222117Y42883D01*
X222593Y43503D01*
X222805Y44016D01*
X220000D01*
Y45000D01*
X219016D01*
Y47805D01*
X218704Y47676D01*
X218204Y47948D01*
Y55000D01*
X218113Y55461D01*
X217851Y55852D01*
X217851Y55852D01*
X212704Y60999D01*
Y62390D01*
X213204Y62636D01*
X213503Y62407D01*
X214016Y62195D01*
Y65000D01*
Y67805D01*
X213503Y67593D01*
X213204Y67364D01*
X212704Y67610D01*
Y74001D01*
X215663Y76960D01*
X215663Y76960D01*
X215924Y77350D01*
X216015Y77811D01*
X216015Y77811D01*
Y86058D01*
X215924Y86518D01*
X215663Y86909D01*
X215663Y86909D01*
X206354Y96218D01*
Y103229D01*
X206724D01*
X207032Y103290D01*
X207292Y103464D01*
X207466Y103724D01*
X207527Y104032D01*
Y107969D01*
X207466Y108276D01*
X207292Y108536D01*
X207032Y108710D01*
X206856Y108745D01*
Y109255D01*
X207032Y109290D01*
X207292Y109464D01*
X207466Y109724D01*
X207527Y110032D01*
Y112008D01*
X207989Y112199D01*
X239106Y81082D01*
D02*
G37*
G36*
X235000Y186000D02*
X236934Y184066D01*
X237198Y177468D01*
X237231Y177331D01*
X237258Y177193D01*
X237267Y177179D01*
X237271Y177163D01*
X237354Y177049D01*
X237432Y176932D01*
X237446Y176923D01*
X237456Y176910D01*
X237576Y176837D01*
X237693Y176758D01*
X237709Y176755D01*
X237723Y176747D01*
X237862Y176725D01*
X238000Y176697D01*
X244303D01*
X250026Y170974D01*
X249835Y170512D01*
X248819D01*
X248429Y170434D01*
X248098Y170213D01*
X247877Y169882D01*
X247799Y169492D01*
Y168114D01*
X250000D01*
Y166146D01*
X247799D01*
Y165000D01*
X247201D01*
Y166146D01*
X245000D01*
X242799D01*
Y165000D01*
X242201D01*
Y166146D01*
X240000D01*
X237799D01*
Y165000D01*
X235984D01*
Y169492D01*
X235923Y169799D01*
X235803Y169979D01*
Y172000D01*
X235742Y172307D01*
X235568Y172568D01*
X235307Y172742D01*
X235000Y172803D01*
X231225D01*
Y173201D01*
X231096Y174513D01*
X230713Y175775D01*
X230092Y176938D01*
X229255Y177957D01*
X228764Y178448D01*
X228943Y178976D01*
X229686Y179074D01*
X230791Y179532D01*
X231740Y180260D01*
X232469Y181209D01*
X232926Y182314D01*
X232953Y182516D01*
X228500D01*
Y183500D01*
X227516D01*
Y187953D01*
X227314Y187926D01*
X226209Y187469D01*
X225260Y186740D01*
X224531Y185791D01*
X224074Y184686D01*
X223976Y183943D01*
X223448Y183764D01*
X222500Y184712D01*
Y190000D01*
X235000D01*
Y186000D01*
D02*
G37*
G36*
X108717Y111370D02*
X108778Y111063D01*
X108952Y110802D01*
X109126Y110686D01*
Y110431D01*
X109374Y110596D01*
X109520Y110567D01*
X110701D01*
X111008Y110628D01*
X111094Y110686D01*
X111181Y110628D01*
X111488Y110567D01*
X112669D01*
X112977Y110628D01*
X113063Y110686D01*
X113150Y110628D01*
X113457Y110567D01*
X114638D01*
X114945Y110628D01*
X115032Y110686D01*
X115118Y110628D01*
X115425Y110567D01*
X116606D01*
X116913Y110628D01*
X117000Y110686D01*
X117087Y110628D01*
X117394Y110567D01*
X118575D01*
X118882Y110628D01*
X118968Y110686D01*
X119055Y110628D01*
X119362Y110567D01*
X120543D01*
X120851Y110628D01*
X120937Y110686D01*
X121024Y110628D01*
X121331Y110567D01*
X122512D01*
X122819Y110628D01*
X122906Y110686D01*
X122992Y110628D01*
X123299Y110567D01*
X124480D01*
X124787Y110628D01*
X124874Y110686D01*
X124961Y110628D01*
X125268Y110567D01*
X126449D01*
X126756Y110628D01*
X126842Y110686D01*
X126929Y110628D01*
X127236Y110567D01*
X128417D01*
X128725Y110628D01*
X128985Y110802D01*
X129159Y111063D01*
X129220Y111370D01*
Y114015D01*
X142271D01*
X142471Y113552D01*
X142464Y113515D01*
X142309Y113411D01*
X142124Y113295D01*
X142114Y113281D01*
X142099Y113271D01*
X141978Y113090D01*
X141941Y113038D01*
X141513Y112941D01*
X141491Y112942D01*
X141346Y112968D01*
X140768Y113354D01*
X140000Y113507D01*
X139232Y113354D01*
X138581Y112919D01*
X138146Y112268D01*
X138141Y112243D01*
X136283Y110385D01*
X136076Y110344D01*
X135844Y110298D01*
X135844Y110298D01*
X135844Y110298D01*
X135590Y110128D01*
X135389Y109994D01*
X135389Y109994D01*
X135388Y109994D01*
X134615Y109220D01*
X131370D01*
X131063Y109159D01*
X130803Y108985D01*
X130628Y108724D01*
X130567Y108417D01*
Y107236D01*
X130596Y107091D01*
X130430Y106843D01*
X130686D01*
X130802Y106668D01*
X131063Y106494D01*
X131370Y106433D01*
X135151D01*
X135209Y106422D01*
Y105283D01*
X131370D01*
X131063Y105222D01*
X130802Y105048D01*
X130686Y104874D01*
X130430D01*
X130596Y104626D01*
X130567Y104480D01*
Y103299D01*
X130628Y102992D01*
X130686Y102905D01*
X130628Y102819D01*
X130567Y102512D01*
Y101331D01*
X130628Y101023D01*
X130686Y100937D01*
X130628Y100850D01*
X130567Y100543D01*
Y100016D01*
X130067Y99809D01*
X129331Y100545D01*
X128940Y100806D01*
X128479Y100898D01*
X128479Y100898D01*
X126039D01*
X125891Y101398D01*
X126417Y101750D01*
X126852Y102401D01*
X127005Y103169D01*
X126852Y103937D01*
X126417Y104588D01*
X125766Y105023D01*
X124998Y105176D01*
X124230Y105023D01*
X123579Y104588D01*
X123144Y103937D01*
X122991Y103169D01*
X123041Y102916D01*
X121979Y101853D01*
X120924Y102908D01*
X120533Y103169D01*
X120072Y103261D01*
X120072Y103261D01*
X114921D01*
X114729Y103723D01*
X117821Y106815D01*
X120210D01*
X120353Y106600D01*
X121004Y106165D01*
X121773Y106012D01*
X122541Y106165D01*
X123192Y106600D01*
X123627Y107251D01*
X123780Y108019D01*
X123627Y108787D01*
X123192Y109438D01*
X122541Y109873D01*
X121773Y110026D01*
X121004Y109873D01*
X120353Y109438D01*
X120210Y109223D01*
X117323D01*
X117323Y109223D01*
X116862Y109132D01*
X116471Y108871D01*
X116471Y108871D01*
X110071Y102471D01*
X110017Y102390D01*
X109517Y102541D01*
Y105187D01*
X109425Y105648D01*
X109164Y106039D01*
X104976Y110227D01*
X105275Y110628D01*
X105583Y110567D01*
X106764D01*
X106909Y110596D01*
X107158Y110431D01*
Y110686D01*
X107332Y110802D01*
X107506Y111063D01*
X107567Y111370D01*
Y115150D01*
X107578Y115209D01*
X107578Y115209D01*
X108717D01*
Y111370D01*
D02*
G37*
G36*
X146555Y110969D02*
Y109984D01*
X149150D01*
X151744D01*
Y110738D01*
X152244Y110945D01*
X162050Y101139D01*
X161858Y100677D01*
X155457D01*
X155149Y100616D01*
X154889Y100442D01*
X154715Y100181D01*
X154654Y99874D01*
Y95150D01*
X154715Y94842D01*
X154889Y94582D01*
X155149Y94408D01*
X155457Y94347D01*
X162543D01*
X162850Y94408D01*
X163111Y94582D01*
X163285Y94842D01*
X163346Y95150D01*
Y95957D01*
X164760D01*
X165165Y94980D01*
X165922Y93993D01*
X166909Y93235D01*
X167915Y92819D01*
X167815Y92319D01*
X165354D01*
X164964Y92241D01*
X164633Y92020D01*
X164412Y91689D01*
X164335Y91299D01*
Y88346D01*
X169291D01*
X174248D01*
Y91299D01*
X174170Y91689D01*
X173949Y92020D01*
X173618Y92241D01*
X173228Y92319D01*
X170768D01*
X170668Y92819D01*
X171674Y93235D01*
X172661Y93993D01*
X173418Y94980D01*
X173894Y96129D01*
X174056Y97362D01*
X173894Y98596D01*
X173418Y99745D01*
X172661Y100732D01*
X171674Y101489D01*
X170525Y101965D01*
X169423Y102110D01*
Y102614D01*
X170525Y102760D01*
X171674Y103235D01*
X172661Y103993D01*
X173418Y104980D01*
X173880Y106095D01*
X174973D01*
Y105532D01*
X175034Y105224D01*
X175208Y104964D01*
X175468Y104790D01*
X175776Y104729D01*
X176146D01*
Y73302D01*
X175684Y73111D01*
X166851Y81944D01*
X167042Y82406D01*
X168307D01*
Y86378D01*
X164335D01*
Y85265D01*
X163853Y84874D01*
X163564Y84936D01*
X163563Y84939D01*
Y85504D01*
X159000D01*
X154437D01*
Y84523D01*
X151963D01*
X151661Y85023D01*
X151780Y85619D01*
X151627Y86387D01*
X151192Y87038D01*
X150977Y87182D01*
Y90153D01*
X150885Y90614D01*
X150624Y91004D01*
X150624Y91004D01*
X141984Y99645D01*
X142302Y100033D01*
X142404Y99965D01*
X143173Y99812D01*
X143941Y99965D01*
X144592Y100400D01*
X145027Y101051D01*
X145103Y101432D01*
X145501Y101762D01*
X145635Y101739D01*
X146272Y101612D01*
X147040Y101765D01*
X147691Y102200D01*
X148126Y102851D01*
X148279Y103619D01*
X148126Y104387D01*
X147691Y105038D01*
X147040Y105473D01*
X146272Y105626D01*
X145504Y105473D01*
X144936Y105094D01*
X140210D01*
X140067Y105268D01*
Y106449D01*
X139989Y106839D01*
X139821Y107091D01*
X139850Y107236D01*
Y107595D01*
X140473D01*
Y107032D01*
X140534Y106724D01*
X140708Y106464D01*
X140968Y106290D01*
X141276Y106229D01*
X144425D01*
X144732Y106290D01*
X144993Y106464D01*
X145167Y106724D01*
X145228Y107032D01*
Y110969D01*
X145430Y111215D01*
X146353D01*
X146555Y110969D01*
D02*
G37*
G36*
X308500Y193739D02*
X289761Y175000D01*
X277135D01*
X274568Y177568D01*
X274307Y177742D01*
X274000Y177803D01*
X258332D01*
X257604Y178531D01*
X257838Y179005D01*
X258500Y178918D01*
X259686Y179074D01*
X260791Y179532D01*
X261740Y180260D01*
X262469Y181209D01*
X262926Y182314D01*
X262953Y182516D01*
X258500D01*
Y183500D01*
X257516D01*
Y187953D01*
X257314Y187926D01*
X256209Y187469D01*
X255260Y186740D01*
X254531Y185791D01*
X254074Y184686D01*
X253917Y183500D01*
X253959Y183184D01*
X253491Y182907D01*
X253303Y183045D01*
Y187500D01*
X253303Y187500D01*
X253242Y187807D01*
X253068Y188068D01*
X252500Y188635D01*
Y203721D01*
X296364D01*
X296489Y203221D01*
X295645Y202770D01*
X294593Y201907D01*
X293730Y200855D01*
X293089Y199655D01*
X292694Y198354D01*
X292658Y197984D01*
X299500D01*
X306342D01*
X306306Y198354D01*
X305911Y199655D01*
X305269Y200855D01*
X304406Y201907D01*
X303355Y202770D01*
X302511Y203221D01*
X302636Y203721D01*
X308500D01*
Y193739D01*
D02*
G37*
%LPC*%
G36*
X348516Y102165D02*
X346512D01*
Y101575D01*
X346589Y101185D01*
X346811Y100854D01*
X347141Y100633D01*
X347531Y100555D01*
X348516D01*
Y102165D01*
D02*
G37*
G36*
X299500Y114040D02*
X298188Y113911D01*
X296926Y113528D01*
X295764Y112907D01*
X294744Y112071D01*
X293908Y111051D01*
X293287Y109889D01*
X292904Y108627D01*
X292775Y107315D01*
X292904Y106003D01*
X293287Y104741D01*
X293908Y103579D01*
X294744Y102560D01*
X295764Y101723D01*
X296926Y101102D01*
X298188Y100719D01*
X299500Y100590D01*
X300812Y100719D01*
X302074Y101102D01*
X303236Y101723D01*
X304255Y102560D01*
X305092Y103579D01*
X305713Y104741D01*
X306096Y106003D01*
X306225Y107315D01*
X306096Y108627D01*
X305713Y109889D01*
X305092Y111051D01*
X304255Y112071D01*
X303236Y112907D01*
X302074Y113528D01*
X300812Y113911D01*
X299500Y114040D01*
D02*
G37*
G36*
X348516Y105744D02*
X347531D01*
X347141Y105666D01*
X346811Y105445D01*
X346589Y105115D01*
X346512Y104725D01*
Y104134D01*
X348516D01*
Y105744D01*
D02*
G37*
G36*
X350012Y117516D02*
X347614D01*
Y116299D01*
X348992D01*
X349382Y116377D01*
X349713Y116598D01*
X349934Y116929D01*
X350012Y117319D01*
Y117516D01*
D02*
G37*
G36*
X345646Y120701D02*
X344268D01*
X343878Y120623D01*
X343547Y120402D01*
X343326Y120071D01*
X343248Y119681D01*
Y119484D01*
X345646D01*
Y120701D01*
D02*
G37*
G36*
Y117516D02*
X343248D01*
Y117319D01*
X343326Y116929D01*
X343547Y116598D01*
X343878Y116377D01*
X344268Y116299D01*
X345646D01*
Y117516D01*
D02*
G37*
G36*
X343220Y108457D02*
X342039D01*
Y104189D01*
X344240D01*
Y107437D01*
X344163Y107827D01*
X343941Y108158D01*
X343611Y108379D01*
X343220Y108457D01*
D02*
G37*
G36*
X348992Y120701D02*
X347614D01*
Y119484D01*
X350012D01*
Y119681D01*
X349934Y120071D01*
X349713Y120402D01*
X349382Y120623D01*
X348992Y120701D01*
D02*
G37*
G36*
Y130484D02*
X344268D01*
X343960Y130423D01*
X343700Y130249D01*
X343526Y129988D01*
X343465Y129681D01*
Y127319D01*
X343526Y127012D01*
X343700Y126751D01*
X343960Y126577D01*
X344268Y126516D01*
X348992D01*
X349299Y126577D01*
X349560Y126751D01*
X349734Y127012D01*
X349795Y127319D01*
Y129681D01*
X349734Y129988D01*
X349560Y130249D01*
X349299Y130423D01*
X348992Y130484D01*
D02*
G37*
G36*
Y125701D02*
X347614D01*
Y124484D01*
X350012D01*
Y124681D01*
X349934Y125071D01*
X349713Y125402D01*
X349382Y125623D01*
X348992Y125701D01*
D02*
G37*
G36*
X345646D02*
X344268D01*
X343878Y125623D01*
X343547Y125402D01*
X343326Y125071D01*
X343248Y124681D01*
Y124484D01*
X345646D01*
Y125701D01*
D02*
G37*
G36*
X350012Y122516D02*
X347614D01*
Y121299D01*
X348992D01*
X349382Y121377D01*
X349713Y121598D01*
X349934Y121929D01*
X350012Y122319D01*
Y122516D01*
D02*
G37*
G36*
X345646D02*
X343248D01*
Y122319D01*
X343326Y121929D01*
X343547Y121598D01*
X343878Y121377D01*
X344268Y121299D01*
X345646D01*
Y122516D01*
D02*
G37*
G36*
X142805Y119016D02*
X140984D01*
Y117195D01*
X141497Y117407D01*
X142117Y117883D01*
X142593Y118503D01*
X142805Y119016D01*
D02*
G37*
G36*
X139016D02*
X137195D01*
X137407Y118503D01*
X137883Y117883D01*
X138503Y117407D01*
X139016Y117195D01*
Y119016D01*
D02*
G37*
G36*
X244484Y187953D02*
Y184484D01*
X247953D01*
X247926Y184686D01*
X247468Y185791D01*
X246740Y186740D01*
X245791Y187469D01*
X244686Y187926D01*
X244484Y187953D01*
D02*
G37*
G36*
X242516D02*
X242314Y187926D01*
X241209Y187469D01*
X240260Y186740D01*
X239531Y185791D01*
X239074Y184686D01*
X239047Y184484D01*
X242516D01*
Y187953D01*
D02*
G37*
G36*
X267181Y170512D02*
X266984D01*
Y168114D01*
X268201D01*
Y169492D01*
X268123Y169882D01*
X267902Y170213D01*
X267571Y170434D01*
X267181Y170512D01*
D02*
G37*
G36*
X272181D02*
X271984D01*
Y168114D01*
X273201D01*
Y169492D01*
X273123Y169882D01*
X272902Y170213D01*
X272571Y170434D01*
X272181Y170512D01*
D02*
G37*
G36*
X242516Y182516D02*
X239047D01*
X239074Y182314D01*
X239531Y181209D01*
X240260Y180260D01*
X241209Y179532D01*
X242314Y179074D01*
X242516Y179047D01*
Y182516D01*
D02*
G37*
G36*
X247953D02*
X244484D01*
Y179047D01*
X244686Y179074D01*
X245791Y179532D01*
X246740Y180260D01*
X247468Y181209D01*
X247926Y182314D01*
X247953Y182516D01*
D02*
G37*
G36*
X275016Y170512D02*
X274819D01*
X274429Y170434D01*
X274098Y170213D01*
X273877Y169882D01*
X273799Y169492D01*
Y168114D01*
X275016D01*
Y170512D01*
D02*
G37*
G36*
X265016D02*
X264819D01*
X264429Y170434D01*
X264098Y170213D01*
X263877Y169882D01*
X263799Y169492D01*
Y168114D01*
X265016D01*
Y170512D01*
D02*
G37*
G36*
X270016D02*
X269819D01*
X269429Y170434D01*
X269098Y170213D01*
X268877Y169882D01*
X268799Y169492D01*
Y168114D01*
X270016D01*
Y170512D01*
D02*
G37*
G36*
X262181D02*
X261984D01*
Y168114D01*
X263201D01*
Y169492D01*
X263123Y169882D01*
X262902Y170213D01*
X262571Y170434D01*
X262181Y170512D01*
D02*
G37*
G36*
X267516Y100579D02*
X265079D01*
Y99772D01*
X265156Y99382D01*
X265377Y99051D01*
X265708Y98830D01*
X266098Y98752D01*
X267516D01*
Y100579D01*
D02*
G37*
G36*
X158201Y144886D02*
X156984D01*
Y142488D01*
X157181D01*
X157571Y142566D01*
X157902Y142787D01*
X158123Y143118D01*
X158201Y143508D01*
Y144886D01*
D02*
G37*
G36*
X267516Y104374D02*
X266098D01*
X265708Y104296D01*
X265377Y104075D01*
X265156Y103745D01*
X265079Y103354D01*
Y102547D01*
X267516D01*
Y104374D01*
D02*
G37*
G36*
X262968Y103945D02*
X261984D01*
Y102335D01*
X263988D01*
Y102925D01*
X263910Y103315D01*
X263689Y103646D01*
X263359Y103867D01*
X262968Y103945D01*
D02*
G37*
G36*
X267488Y95035D02*
X266507D01*
X266900Y94447D01*
X267488Y94054D01*
Y95035D01*
D02*
G37*
G36*
X269457Y97985D02*
Y97003D01*
X270438D01*
X270045Y97592D01*
X269457Y97985D01*
D02*
G37*
G36*
X267488D02*
X266900Y97592D01*
X266507Y97003D01*
X267488D01*
Y97985D01*
D02*
G37*
G36*
X270438Y95035D02*
X269457D01*
Y94054D01*
X270045Y94447D01*
X270438Y95035D01*
D02*
G37*
G36*
X292805Y144016D02*
X290984D01*
Y142195D01*
X291497Y142407D01*
X292117Y142883D01*
X292593Y143503D01*
X292805Y144016D01*
D02*
G37*
G36*
X289016D02*
X287195D01*
X287407Y143503D01*
X287883Y142883D01*
X288503Y142407D01*
X289016Y142195D01*
Y144016D01*
D02*
G37*
G36*
X57805D02*
X55984D01*
Y142195D01*
X56497Y142407D01*
X57117Y142883D01*
X57593Y143503D01*
X57805Y144016D01*
D02*
G37*
G36*
X299016D02*
X297195D01*
X297407Y143503D01*
X297883Y142883D01*
X298503Y142407D01*
X299016Y142195D01*
Y144016D01*
D02*
G37*
G36*
X71016Y144886D02*
X69799D01*
Y143508D01*
X69877Y143118D01*
X70098Y142787D01*
X70429Y142566D01*
X70819Y142488D01*
X71016D01*
Y144886D01*
D02*
G37*
G36*
X302805Y144016D02*
X300984D01*
Y142195D01*
X301497Y142407D01*
X302117Y142883D01*
X302593Y143503D01*
X302805Y144016D01*
D02*
G37*
G36*
X126201Y144886D02*
X124984D01*
Y142488D01*
X125181D01*
X125571Y142566D01*
X125902Y142787D01*
X126123Y143118D01*
X126201Y143508D01*
Y144886D01*
D02*
G37*
G36*
X54016Y144016D02*
X52195D01*
X52407Y143503D01*
X52883Y142883D01*
X53503Y142407D01*
X54016Y142195D01*
Y144016D01*
D02*
G37*
G36*
X130181Y149035D02*
X127819D01*
X127512Y148974D01*
X127251Y148800D01*
X127077Y148539D01*
X127016Y148232D01*
Y143508D01*
X127077Y143201D01*
X127251Y142940D01*
X127512Y142766D01*
X127595Y142750D01*
Y142027D01*
X127031D01*
X126724Y141966D01*
X126464Y141792D01*
X126290Y141532D01*
X126229Y141225D01*
Y138075D01*
X126290Y137768D01*
X126464Y137507D01*
X126724Y137333D01*
X127031Y137272D01*
X130968D01*
X131276Y137333D01*
X131536Y137507D01*
X131710Y137768D01*
X131771Y138075D01*
Y141225D01*
X131710Y141532D01*
X131536Y141792D01*
X131276Y141966D01*
X130968Y142027D01*
X130405D01*
Y142750D01*
X130488Y142766D01*
X130749Y142940D01*
X130923Y143201D01*
X130984Y143508D01*
Y148232D01*
X130923Y148539D01*
X130749Y148800D01*
X130488Y148974D01*
X130181Y149035D01*
D02*
G37*
G36*
X109181D02*
X106819D01*
X106512Y148974D01*
X106251Y148800D01*
X106077Y148539D01*
X106016Y148232D01*
Y143508D01*
X106077Y143201D01*
X106251Y142940D01*
X106512Y142766D01*
X106595Y142750D01*
Y142027D01*
X106031D01*
X105724Y141966D01*
X105464Y141792D01*
X105290Y141532D01*
X105229Y141225D01*
Y138075D01*
X105290Y137768D01*
X105464Y137507D01*
X105724Y137333D01*
X106031Y137272D01*
X109968D01*
X110276Y137333D01*
X110536Y137507D01*
X110710Y137768D01*
X110771Y138075D01*
Y141225D01*
X110710Y141532D01*
X110536Y141792D01*
X110276Y141966D01*
X109968Y142027D01*
X109405D01*
Y142750D01*
X109488Y142766D01*
X109749Y142940D01*
X109923Y143201D01*
X109984Y143508D01*
Y148232D01*
X109923Y148539D01*
X109749Y148800D01*
X109488Y148974D01*
X109181Y149035D01*
D02*
G37*
G36*
X88181D02*
X85819D01*
X85512Y148974D01*
X85251Y148800D01*
X85077Y148539D01*
X85016Y148232D01*
Y143508D01*
X85077Y143201D01*
X85251Y142940D01*
X85512Y142766D01*
X85595Y142750D01*
Y142027D01*
X85031D01*
X84724Y141966D01*
X84464Y141792D01*
X84290Y141532D01*
X84229Y141225D01*
Y138075D01*
X84290Y137768D01*
X84464Y137507D01*
X84724Y137333D01*
X85031Y137272D01*
X88968D01*
X89276Y137333D01*
X89536Y137507D01*
X89710Y137768D01*
X89771Y138075D01*
Y141225D01*
X89710Y141532D01*
X89536Y141792D01*
X89276Y141966D01*
X88968Y142027D01*
X88405D01*
Y142750D01*
X88488Y142766D01*
X88749Y142940D01*
X88923Y143201D01*
X88984Y143508D01*
Y148232D01*
X88923Y148539D01*
X88749Y148800D01*
X88488Y148974D01*
X88181Y149035D01*
D02*
G37*
G36*
X151181D02*
X148819D01*
X148512Y148974D01*
X148251Y148800D01*
X148077Y148539D01*
X148016Y148232D01*
Y143508D01*
X148077Y143201D01*
X148251Y142940D01*
X148512Y142766D01*
X148595Y142750D01*
Y142027D01*
X148031D01*
X147724Y141966D01*
X147464Y141792D01*
X147290Y141532D01*
X147229Y141225D01*
Y138075D01*
X147290Y137768D01*
X147464Y137507D01*
X147724Y137333D01*
X148031Y137272D01*
X151968D01*
X152276Y137333D01*
X152536Y137507D01*
X152710Y137768D01*
X152771Y138075D01*
Y141225D01*
X152710Y141532D01*
X152536Y141792D01*
X152276Y141966D01*
X151968Y142027D01*
X151405D01*
Y142750D01*
X151488Y142766D01*
X151749Y142940D01*
X151923Y143201D01*
X151984Y143508D01*
Y148232D01*
X151923Y148539D01*
X151749Y148800D01*
X151488Y148974D01*
X151181Y149035D01*
D02*
G37*
G36*
X277181D02*
X274819D01*
X274512Y148974D01*
X274251Y148800D01*
X274077Y148539D01*
X274016Y148232D01*
Y143508D01*
X274077Y143201D01*
X274251Y142940D01*
X274512Y142766D01*
X274595Y142750D01*
Y142027D01*
X274031D01*
X273724Y141966D01*
X273464Y141792D01*
X273290Y141532D01*
X273229Y141225D01*
Y138075D01*
X273290Y137768D01*
X273464Y137507D01*
X273724Y137333D01*
X274031Y137272D01*
X277968D01*
X278276Y137333D01*
X278536Y137507D01*
X278710Y137768D01*
X278771Y138075D01*
Y141225D01*
X278710Y141532D01*
X278536Y141792D01*
X278276Y141966D01*
X277968Y142027D01*
X277405D01*
Y142750D01*
X277488Y142766D01*
X277749Y142940D01*
X277923Y143201D01*
X277984Y143508D01*
Y148232D01*
X277923Y148539D01*
X277749Y148800D01*
X277488Y148974D01*
X277181Y149035D01*
D02*
G37*
G36*
X256181D02*
X253819D01*
X253512Y148974D01*
X253251Y148800D01*
X253077Y148539D01*
X253016Y148232D01*
Y143508D01*
X253077Y143201D01*
X253251Y142940D01*
X253512Y142766D01*
X253595Y142750D01*
Y142027D01*
X253031D01*
X252724Y141966D01*
X252464Y141792D01*
X252290Y141532D01*
X252229Y141225D01*
Y138075D01*
X252290Y137768D01*
X252464Y137507D01*
X252724Y137333D01*
X253031Y137272D01*
X256968D01*
X257276Y137333D01*
X257536Y137507D01*
X257710Y137768D01*
X257771Y138075D01*
Y141225D01*
X257710Y141532D01*
X257536Y141792D01*
X257276Y141966D01*
X256968Y142027D01*
X256405D01*
Y142750D01*
X256488Y142766D01*
X256749Y142940D01*
X256923Y143201D01*
X256984Y143508D01*
Y148232D01*
X256923Y148539D01*
X256749Y148800D01*
X256488Y148974D01*
X256181Y149035D01*
D02*
G37*
G36*
X235181D02*
X232819D01*
X232512Y148974D01*
X232251Y148800D01*
X232077Y148539D01*
X232016Y148232D01*
Y143508D01*
X232077Y143201D01*
X232251Y142940D01*
X232512Y142766D01*
X232595Y142750D01*
Y142027D01*
X232031D01*
X231724Y141966D01*
X231464Y141792D01*
X231290Y141532D01*
X231229Y141225D01*
Y138075D01*
X231290Y137768D01*
X231464Y137507D01*
X231724Y137333D01*
X232031Y137272D01*
X235968D01*
X236276Y137333D01*
X236536Y137507D01*
X236710Y137768D01*
X236771Y138075D01*
Y141225D01*
X236710Y141532D01*
X236536Y141792D01*
X236276Y141966D01*
X235968Y142027D01*
X235405D01*
Y142750D01*
X235488Y142766D01*
X235749Y142940D01*
X235923Y143201D01*
X235984Y143508D01*
Y148232D01*
X235923Y148539D01*
X235749Y148800D01*
X235488Y148974D01*
X235181Y149035D01*
D02*
G37*
G36*
X123016Y144886D02*
X121799D01*
Y143508D01*
X121877Y143118D01*
X122098Y142787D01*
X122429Y142566D01*
X122819Y142488D01*
X123016D01*
Y144886D01*
D02*
G37*
G36*
X105201D02*
X103984D01*
Y142488D01*
X104181D01*
X104571Y142566D01*
X104902Y142787D01*
X105123Y143118D01*
X105201Y143508D01*
Y144886D01*
D02*
G37*
G36*
X102016D02*
X100799D01*
Y143508D01*
X100877Y143118D01*
X101098Y142787D01*
X101429Y142566D01*
X101819Y142488D01*
X102016D01*
Y144886D01*
D02*
G37*
G36*
X100201D02*
X98984D01*
Y142488D01*
X99181D01*
X99571Y142566D01*
X99902Y142787D01*
X100123Y143118D01*
X100201Y143508D01*
Y144886D01*
D02*
G37*
G36*
X113016D02*
X111799D01*
Y143508D01*
X111877Y143118D01*
X112098Y142787D01*
X112429Y142566D01*
X112819Y142488D01*
X113016D01*
Y144886D01*
D02*
G37*
G36*
X118016D02*
X116799D01*
Y143508D01*
X116877Y143118D01*
X117098Y142787D01*
X117429Y142566D01*
X117819Y142488D01*
X118016D01*
Y144886D01*
D02*
G37*
G36*
X121201D02*
X119984D01*
Y142488D01*
X120181D01*
X120571Y142566D01*
X120902Y142787D01*
X121123Y143118D01*
X121201Y143508D01*
Y144886D01*
D02*
G37*
G36*
X116201D02*
X114984D01*
Y142488D01*
X115181D01*
X115571Y142566D01*
X115902Y142787D01*
X116123Y143118D01*
X116201Y143508D01*
Y144886D01*
D02*
G37*
G36*
X97016D02*
X95799D01*
Y143508D01*
X95877Y143118D01*
X96098Y142787D01*
X96429Y142566D01*
X96819Y142488D01*
X97016D01*
Y144886D01*
D02*
G37*
G36*
X79201D02*
X77984D01*
Y142488D01*
X78181D01*
X78571Y142566D01*
X78902Y142787D01*
X79123Y143118D01*
X79201Y143508D01*
Y144886D01*
D02*
G37*
G36*
X76016D02*
X74799D01*
Y143508D01*
X74877Y143118D01*
X75098Y142787D01*
X75429Y142566D01*
X75819Y142488D01*
X76016D01*
Y144886D01*
D02*
G37*
G36*
X74201D02*
X72984D01*
Y142488D01*
X73181D01*
X73571Y142566D01*
X73902Y142787D01*
X74123Y143118D01*
X74201Y143508D01*
Y144886D01*
D02*
G37*
G36*
X81016D02*
X79799D01*
Y143508D01*
X79877Y143118D01*
X80098Y142787D01*
X80429Y142566D01*
X80819Y142488D01*
X81016D01*
Y144886D01*
D02*
G37*
G36*
X95201D02*
X93984D01*
Y142488D01*
X94181D01*
X94571Y142566D01*
X94902Y142787D01*
X95123Y143118D01*
X95201Y143508D01*
Y144886D01*
D02*
G37*
G36*
X92016D02*
X90799D01*
Y143508D01*
X90877Y143118D01*
X91098Y142787D01*
X91429Y142566D01*
X91819Y142488D01*
X92016D01*
Y144886D01*
D02*
G37*
G36*
X84201D02*
X82984D01*
Y142488D01*
X83181D01*
X83571Y142566D01*
X83902Y142787D01*
X84123Y143118D01*
X84201Y143508D01*
Y144886D01*
D02*
G37*
G36*
X290984Y137805D02*
Y135984D01*
X292805D01*
X292593Y136497D01*
X292117Y137117D01*
X291497Y137593D01*
X290984Y137805D01*
D02*
G37*
G36*
X94366Y119488D02*
X93775D01*
X93385Y119411D01*
X93055Y119190D01*
X92834Y118859D01*
X92756Y118469D01*
Y117484D01*
X94366D01*
Y119488D01*
D02*
G37*
G36*
X324386Y120701D02*
X323008D01*
X322618Y120623D01*
X322287Y120402D01*
X322066Y120071D01*
X321988Y119681D01*
Y119484D01*
X324386D01*
Y120701D01*
D02*
G37*
G36*
X96925Y119488D02*
X96335D01*
Y117484D01*
X97945D01*
Y118469D01*
X97867Y118859D01*
X97646Y119190D01*
X97315Y119411D01*
X96925Y119488D01*
D02*
G37*
G36*
X155016Y144886D02*
X153799D01*
Y143508D01*
X153877Y143118D01*
X154098Y142787D01*
X154429Y142566D01*
X154819Y142488D01*
X155016D01*
Y144886D01*
D02*
G37*
G36*
X324386Y117516D02*
X321988D01*
Y117319D01*
X322066Y116929D01*
X322287Y116598D01*
X322618Y116377D01*
X323008Y116299D01*
X324386D01*
Y117516D01*
D02*
G37*
G36*
X144016Y144886D02*
X142799D01*
Y143508D01*
X142877Y143118D01*
X143098Y142787D01*
X143429Y142566D01*
X143819Y142488D01*
X144016D01*
Y144886D01*
D02*
G37*
G36*
X147201D02*
X145984D01*
Y142488D01*
X146181D01*
X146571Y142566D01*
X146902Y142787D01*
X147123Y143118D01*
X147201Y143508D01*
Y144886D01*
D02*
G37*
G36*
X324386Y125701D02*
X323008D01*
X322618Y125623D01*
X322287Y125402D01*
X322066Y125071D01*
X321988Y124681D01*
Y124484D01*
X324386D01*
Y125701D01*
D02*
G37*
G36*
X289016Y134016D02*
X287195D01*
X287407Y133503D01*
X287883Y132883D01*
X288503Y132407D01*
X289016Y132195D01*
Y134016D01*
D02*
G37*
G36*
Y137805D02*
X288503Y137593D01*
X287883Y137117D01*
X287407Y136497D01*
X287195Y135984D01*
X289016D01*
Y137805D01*
D02*
G37*
G36*
X134016Y144886D02*
X132799D01*
Y143508D01*
X132877Y143118D01*
X133098Y142787D01*
X133429Y142566D01*
X133819Y142488D01*
X134016D01*
Y144886D01*
D02*
G37*
G36*
X292805Y134016D02*
X290984D01*
Y132195D01*
X291497Y132407D01*
X292117Y132883D01*
X292593Y133503D01*
X292805Y134016D01*
D02*
G37*
G36*
X137201Y144886D02*
X135984D01*
Y142488D01*
X136181D01*
X136571Y142566D01*
X136902Y142787D01*
X137123Y143118D01*
X137201Y143508D01*
Y144886D01*
D02*
G37*
G36*
X139016D02*
X137799D01*
Y143508D01*
X137877Y143118D01*
X138098Y142787D01*
X138429Y142566D01*
X138819Y142488D01*
X139016D01*
Y144886D01*
D02*
G37*
G36*
X142201D02*
X140984D01*
Y142488D01*
X141181D01*
X141571Y142566D01*
X141902Y142787D01*
X142123Y143118D01*
X142201Y143508D01*
Y144886D01*
D02*
G37*
G36*
X324386Y122516D02*
X321988D01*
Y122319D01*
X322066Y121929D01*
X322287Y121598D01*
X322618Y121377D01*
X323008Y121299D01*
X324386D01*
Y122516D01*
D02*
G37*
G36*
X277968Y135728D02*
X274031D01*
X273724Y135667D01*
X273464Y135493D01*
X273290Y135232D01*
X273229Y134925D01*
Y131776D01*
X273290Y131468D01*
X273464Y131208D01*
X273724Y131034D01*
X274031Y130973D01*
X274296D01*
Y126063D01*
X274081Y125919D01*
X273646Y125268D01*
X273493Y124500D01*
X273646Y123732D01*
X274081Y123081D01*
X274732Y122646D01*
X275500Y122493D01*
X276268Y122646D01*
X276919Y123081D01*
X277354Y123732D01*
X277507Y124500D01*
X277354Y125268D01*
X276919Y125919D01*
X276704Y126063D01*
Y130973D01*
X277968D01*
X278276Y131034D01*
X278536Y131208D01*
X278710Y131468D01*
X278771Y131776D01*
Y134925D01*
X278710Y135232D01*
X278536Y135493D01*
X278276Y135667D01*
X277968Y135728D01*
D02*
G37*
G36*
X247642Y46255D02*
Y42984D01*
X250912D01*
X250892Y43135D01*
X250454Y44192D01*
X249758Y45100D01*
X248850Y45797D01*
X247792Y46235D01*
X247642Y46255D01*
D02*
G37*
G36*
X160016Y144886D02*
X158799D01*
Y143508D01*
X158877Y143118D01*
X159098Y142787D01*
X159429Y142566D01*
X159819Y142488D01*
X160016D01*
Y144886D01*
D02*
G37*
G36*
X165984Y157806D02*
Y155984D01*
X167805D01*
X167593Y156497D01*
X167117Y157117D01*
X166497Y157593D01*
X165984Y157806D01*
D02*
G37*
G36*
X174016D02*
X173503Y157593D01*
X172883Y157117D01*
X172407Y156497D01*
X172195Y155984D01*
X174016D01*
Y157806D01*
D02*
G37*
G36*
X155984D02*
Y155984D01*
X157805D01*
X157593Y156497D01*
X157117Y157117D01*
X156497Y157593D01*
X155984Y157806D01*
D02*
G37*
G36*
X164016D02*
X163503Y157593D01*
X162883Y157117D01*
X162407Y156497D01*
X162195Y155984D01*
X164016D01*
Y157806D01*
D02*
G37*
G36*
X185984D02*
Y155984D01*
X187805D01*
X187593Y156497D01*
X187117Y157117D01*
X186497Y157593D01*
X185984Y157806D01*
D02*
G37*
G36*
X194016D02*
X193503Y157593D01*
X192883Y157117D01*
X192407Y156497D01*
X192194Y155984D01*
X194016D01*
Y157806D01*
D02*
G37*
G36*
X175984D02*
Y155984D01*
X177805D01*
X177593Y156497D01*
X177117Y157117D01*
X176497Y157593D01*
X175984Y157806D01*
D02*
G37*
G36*
X184016D02*
X183503Y157593D01*
X182883Y157117D01*
X182407Y156497D01*
X182194Y155984D01*
X184016D01*
Y157806D01*
D02*
G37*
G36*
X125984D02*
Y155984D01*
X127805D01*
X127593Y156497D01*
X127117Y157117D01*
X126497Y157593D01*
X125984Y157806D01*
D02*
G37*
G36*
X134016D02*
X133503Y157593D01*
X132883Y157117D01*
X132407Y156497D01*
X132194Y155984D01*
X134016D01*
Y157806D01*
D02*
G37*
G36*
X115984D02*
Y155984D01*
X117805D01*
X117593Y156497D01*
X117117Y157117D01*
X116497Y157593D01*
X115984Y157806D01*
D02*
G37*
G36*
X124016D02*
X123503Y157593D01*
X122883Y157117D01*
X122407Y156497D01*
X122195Y155984D01*
X124016D01*
Y157806D01*
D02*
G37*
G36*
X145984D02*
Y155984D01*
X147805D01*
X147593Y156497D01*
X147117Y157117D01*
X146497Y157593D01*
X145984Y157806D01*
D02*
G37*
G36*
X154016D02*
X153503Y157593D01*
X152883Y157117D01*
X152407Y156497D01*
X152194Y155984D01*
X154016D01*
Y157806D01*
D02*
G37*
G36*
X135984D02*
Y155984D01*
X137805D01*
X137593Y156497D01*
X137117Y157117D01*
X136497Y157593D01*
X135984Y157806D01*
D02*
G37*
G36*
X144016D02*
X143503Y157593D01*
X142883Y157117D01*
X142407Y156497D01*
X142194Y155984D01*
X144016D01*
Y157806D01*
D02*
G37*
G36*
X195984D02*
Y155984D01*
X197805D01*
X197593Y156497D01*
X197117Y157117D01*
X196497Y157593D01*
X195984Y157806D01*
D02*
G37*
G36*
X264016D02*
X263503Y157593D01*
X262883Y157117D01*
X262407Y156497D01*
X262194Y155984D01*
X264016D01*
Y157806D01*
D02*
G37*
G36*
X265984D02*
Y155984D01*
X267805D01*
X267593Y156497D01*
X267117Y157117D01*
X266497Y157593D01*
X265984Y157806D01*
D02*
G37*
G36*
X254016D02*
X253503Y157593D01*
X252883Y157117D01*
X252407Y156497D01*
X252194Y155984D01*
X254016D01*
Y157806D01*
D02*
G37*
G36*
X255984D02*
Y155984D01*
X257805D01*
X257593Y156497D01*
X257117Y157117D01*
X256497Y157593D01*
X255984Y157806D01*
D02*
G37*
G36*
X309016Y159016D02*
X307195D01*
X307407Y158503D01*
X307883Y157883D01*
X308503Y157407D01*
X309016Y157195D01*
Y159016D01*
D02*
G37*
G36*
X312805D02*
X310984D01*
Y157195D01*
X311497Y157407D01*
X312117Y157883D01*
X312593Y158503D01*
X312805Y159016D01*
D02*
G37*
G36*
X274016Y157806D02*
X273503Y157593D01*
X272883Y157117D01*
X272407Y156497D01*
X272195Y155984D01*
X274016D01*
Y157806D01*
D02*
G37*
G36*
X275984D02*
Y155984D01*
X277805D01*
X277593Y156497D01*
X277117Y157117D01*
X276497Y157593D01*
X275984Y157806D01*
D02*
G37*
G36*
X224016D02*
X223503Y157593D01*
X222883Y157117D01*
X222407Y156497D01*
X222195Y155984D01*
X224016D01*
Y157806D01*
D02*
G37*
G36*
X225984D02*
Y155984D01*
X227805D01*
X227593Y156497D01*
X227117Y157117D01*
X226497Y157593D01*
X225984Y157806D01*
D02*
G37*
G36*
X204016D02*
X203503Y157593D01*
X202883Y157117D01*
X202407Y156497D01*
X202194Y155984D01*
X204016D01*
Y157806D01*
D02*
G37*
G36*
X205984D02*
Y155984D01*
X207805D01*
X207593Y156497D01*
X207117Y157117D01*
X206497Y157593D01*
X205984Y157806D01*
D02*
G37*
G36*
X244016D02*
X243503Y157593D01*
X242883Y157117D01*
X242407Y156497D01*
X242195Y155984D01*
X244016D01*
Y157806D01*
D02*
G37*
G36*
X245984D02*
Y155984D01*
X247805D01*
X247593Y156497D01*
X247117Y157117D01*
X246497Y157593D01*
X245984Y157806D01*
D02*
G37*
G36*
X234016D02*
X233503Y157593D01*
X232883Y157117D01*
X232407Y156497D01*
X232194Y155984D01*
X234016D01*
Y157806D01*
D02*
G37*
G36*
X235984D02*
Y155984D01*
X237805D01*
X237593Y156497D01*
X237117Y157117D01*
X236497Y157593D01*
X235984Y157806D01*
D02*
G37*
G36*
X267805Y154016D02*
X265984D01*
Y152195D01*
X266497Y152407D01*
X267117Y152883D01*
X267593Y153503D01*
X267805Y154016D01*
D02*
G37*
G36*
X274016D02*
X272195D01*
X272407Y153503D01*
X272883Y152883D01*
X273503Y152407D01*
X274016Y152195D01*
Y154016D01*
D02*
G37*
G36*
X257805D02*
X255984D01*
Y152195D01*
X256497Y152407D01*
X257117Y152883D01*
X257593Y153503D01*
X257805Y154016D01*
D02*
G37*
G36*
X264016D02*
X262194D01*
X262407Y153503D01*
X262883Y152883D01*
X263503Y152407D01*
X264016Y152195D01*
Y154016D01*
D02*
G37*
G36*
X342516Y157346D02*
X338579D01*
X338189Y157269D01*
X337858Y157048D01*
X337637Y156717D01*
X337559Y156327D01*
Y154358D01*
X342516D01*
Y157346D01*
D02*
G37*
G36*
X358016D02*
X354079D01*
X353689Y157269D01*
X353358Y157048D01*
X353137Y156717D01*
X353059Y156327D01*
Y154358D01*
X358016D01*
Y157346D01*
D02*
G37*
G36*
X277805Y154016D02*
X275984D01*
Y152195D01*
X276497Y152407D01*
X277117Y152883D01*
X277593Y153503D01*
X277805Y154016D01*
D02*
G37*
G36*
X326516Y157346D02*
X322579D01*
X322188Y157269D01*
X321858Y157048D01*
X321637Y156717D01*
X321559Y156327D01*
Y154358D01*
X326516D01*
Y157346D01*
D02*
G37*
G36*
X227805Y154016D02*
X225984D01*
Y152195D01*
X226497Y152407D01*
X227117Y152883D01*
X227593Y153503D01*
X227805Y154016D01*
D02*
G37*
G36*
X234016D02*
X232194D01*
X232407Y153503D01*
X232883Y152883D01*
X233503Y152407D01*
X234016Y152195D01*
Y154016D01*
D02*
G37*
G36*
X207805D02*
X205984D01*
Y152195D01*
X206497Y152407D01*
X207117Y152883D01*
X207593Y153503D01*
X207805Y154016D01*
D02*
G37*
G36*
X224016D02*
X222195D01*
X222407Y153503D01*
X222883Y152883D01*
X223503Y152407D01*
X224016Y152195D01*
Y154016D01*
D02*
G37*
G36*
X247805D02*
X245984D01*
Y152195D01*
X246497Y152407D01*
X247117Y152883D01*
X247593Y153503D01*
X247805Y154016D01*
D02*
G37*
G36*
X254016D02*
X252194D01*
X252407Y153503D01*
X252883Y152883D01*
X253503Y152407D01*
X254016Y152195D01*
Y154016D01*
D02*
G37*
G36*
X237805D02*
X235984D01*
Y152195D01*
X236497Y152407D01*
X237117Y152883D01*
X237593Y153503D01*
X237805Y154016D01*
D02*
G37*
G36*
X244016D02*
X242195D01*
X242407Y153503D01*
X242883Y152883D01*
X243503Y152407D01*
X244016Y152195D01*
Y154016D01*
D02*
G37*
G36*
X332421Y157346D02*
X328484D01*
Y154358D01*
X333441D01*
Y156327D01*
X333363Y156717D01*
X333142Y157048D01*
X332811Y157269D01*
X332421Y157346D01*
D02*
G37*
G36*
X85984Y157806D02*
Y155984D01*
X87805D01*
X87593Y156497D01*
X87117Y157117D01*
X86497Y157593D01*
X85984Y157806D01*
D02*
G37*
G36*
X94016D02*
X93503Y157593D01*
X92883Y157117D01*
X92407Y156497D01*
X92194Y155984D01*
X94016D01*
Y157806D01*
D02*
G37*
G36*
X75984D02*
Y155984D01*
X77805D01*
X77593Y156497D01*
X77117Y157117D01*
X76497Y157593D01*
X75984Y157806D01*
D02*
G37*
G36*
X84016D02*
X83503Y157593D01*
X82883Y157117D01*
X82407Y156497D01*
X82195Y155984D01*
X84016D01*
Y157806D01*
D02*
G37*
G36*
X105984D02*
Y155984D01*
X107805D01*
X107593Y156497D01*
X107117Y157117D01*
X106497Y157593D01*
X105984Y157806D01*
D02*
G37*
G36*
X114016D02*
X113503Y157593D01*
X112883Y157117D01*
X112407Y156497D01*
X112195Y155984D01*
X114016D01*
Y157806D01*
D02*
G37*
G36*
X95984D02*
Y155984D01*
X97805D01*
X97593Y156497D01*
X97117Y157117D01*
X96497Y157593D01*
X95984Y157806D01*
D02*
G37*
G36*
X104016D02*
X103503Y157593D01*
X102883Y157117D01*
X102407Y156497D01*
X102194Y155984D01*
X104016D01*
Y157806D01*
D02*
G37*
G36*
X57805Y159016D02*
X52195D01*
X52407Y158503D01*
X52883Y157883D01*
X53056Y157750D01*
Y157250D01*
X52883Y157117D01*
X52407Y156497D01*
X52195Y155984D01*
X57805D01*
X57593Y156497D01*
X57117Y157117D01*
X56944Y157250D01*
Y157750D01*
X57117Y157883D01*
X57593Y158503D01*
X57805Y159016D01*
D02*
G37*
G36*
X289016Y157805D02*
X288503Y157593D01*
X287883Y157117D01*
X287407Y156497D01*
X287195Y155984D01*
X289016D01*
Y157805D01*
D02*
G37*
G36*
X348421Y157346D02*
X344484D01*
Y154358D01*
X349441D01*
Y156327D01*
X349363Y156717D01*
X349142Y157048D01*
X348811Y157269D01*
X348421Y157346D01*
D02*
G37*
G36*
X363921D02*
X359984D01*
Y154358D01*
X364941D01*
Y156327D01*
X364863Y156717D01*
X364642Y157048D01*
X364311Y157269D01*
X363921Y157346D01*
D02*
G37*
G36*
X300984Y157805D02*
Y155984D01*
X302805D01*
X302593Y156497D01*
X302117Y157117D01*
X301497Y157593D01*
X300984Y157805D01*
D02*
G37*
G36*
X74016Y157806D02*
X73503Y157593D01*
X72883Y157117D01*
X72407Y156497D01*
X72194Y155984D01*
X74016D01*
Y157806D01*
D02*
G37*
G36*
X290984Y157805D02*
Y155984D01*
X292805D01*
X292593Y156497D01*
X292117Y157117D01*
X291497Y157593D01*
X290984Y157805D01*
D02*
G37*
G36*
X299016D02*
X298503Y157593D01*
X297883Y157117D01*
X297407Y156497D01*
X297195Y155984D01*
X299016D01*
Y157805D01*
D02*
G37*
G36*
X369016Y188858D02*
X364147D01*
X364164Y188682D01*
X364503Y187566D01*
X365053Y186537D01*
X365793Y185635D01*
X366694Y184895D01*
X367723Y184345D01*
X368839Y184007D01*
X369016Y183990D01*
Y188858D01*
D02*
G37*
G36*
X375853D02*
X370984D01*
Y183990D01*
X371161Y184007D01*
X372277Y184345D01*
X373306Y184895D01*
X374207Y185635D01*
X374947Y186537D01*
X375497Y187566D01*
X375835Y188682D01*
X375853Y188858D01*
D02*
G37*
G36*
X309016Y172805D02*
X308503Y172593D01*
X307883Y172117D01*
X307407Y171497D01*
X307195Y170984D01*
X309016D01*
Y172805D01*
D02*
G37*
G36*
X310984D02*
Y170984D01*
X312805D01*
X312593Y171497D01*
X312117Y172117D01*
X311497Y172593D01*
X310984Y172805D01*
D02*
G37*
G36*
X79016Y189016D02*
X77195D01*
X77407Y188503D01*
X77883Y187883D01*
X78503Y187407D01*
X79016Y187195D01*
Y189016D01*
D02*
G37*
G36*
X5984Y193232D02*
Y190984D01*
X8231D01*
X7937Y191696D01*
X7398Y192398D01*
X6696Y192937D01*
X5984Y193232D01*
D02*
G37*
G36*
X30516Y192744D02*
X29531D01*
X29141Y192666D01*
X28811Y192445D01*
X28589Y192115D01*
X28512Y191725D01*
Y191134D01*
X30516D01*
Y192744D01*
D02*
G37*
G36*
X79016Y192805D02*
X78503Y192593D01*
X77883Y192117D01*
X77407Y191497D01*
X77195Y190984D01*
X79016D01*
Y192805D01*
D02*
G37*
G36*
X80984D02*
Y190984D01*
X82805D01*
X82593Y191497D01*
X82117Y192117D01*
X81497Y192593D01*
X80984Y192805D01*
D02*
G37*
G36*
X77805Y194016D02*
X75984D01*
Y192195D01*
X76497Y192407D01*
X77117Y192883D01*
X77593Y193503D01*
X77805Y194016D01*
D02*
G37*
G36*
X8231Y199016D02*
X5984D01*
Y196769D01*
X6696Y197063D01*
X7398Y197602D01*
X7937Y198304D01*
X8231Y199016D01*
D02*
G37*
G36*
X33468Y192744D02*
X32484D01*
Y191134D01*
X34488D01*
Y191725D01*
X34410Y192115D01*
X34189Y192445D01*
X33859Y192666D01*
X33468Y192744D01*
D02*
G37*
G36*
X74016Y194016D02*
X72195D01*
X72407Y193503D01*
X72883Y192883D01*
X73503Y192407D01*
X74016Y192195D01*
Y194016D01*
D02*
G37*
G36*
X34488Y189165D02*
X32484D01*
Y187555D01*
X33468D01*
X33859Y187633D01*
X34189Y187854D01*
X34410Y188185D01*
X34488Y188575D01*
Y189165D01*
D02*
G37*
G36*
X27594Y189516D02*
X25984D01*
Y187906D01*
X26575D01*
X26965Y187983D01*
X27296Y188204D01*
X27517Y188535D01*
X27594Y188925D01*
Y189516D01*
D02*
G37*
G36*
X82805Y189016D02*
X80984D01*
Y187195D01*
X81497Y187407D01*
X82117Y187883D01*
X82593Y188503D01*
X82805Y189016D01*
D02*
G37*
G36*
X30516Y189165D02*
X28512D01*
Y188575D01*
X28589Y188185D01*
X28811Y187854D01*
X29141Y187633D01*
X29531Y187555D01*
X30516D01*
Y189165D01*
D02*
G37*
G36*
X369016Y195695D02*
X368839Y195678D01*
X367723Y195340D01*
X366694Y194790D01*
X365793Y194050D01*
X365053Y193148D01*
X364503Y192119D01*
X364164Y191003D01*
X364147Y190827D01*
X369016D01*
Y195695D01*
D02*
G37*
G36*
X370984D02*
Y190827D01*
X375853D01*
X375835Y191003D01*
X375497Y192119D01*
X374947Y193148D01*
X374207Y194050D01*
X373306Y194790D01*
X372277Y195340D01*
X371161Y195678D01*
X370984Y195695D01*
D02*
G37*
G36*
X302805Y164016D02*
X300984D01*
Y162195D01*
X301497Y162407D01*
X302117Y162883D01*
X302593Y163503D01*
X302805Y164016D01*
D02*
G37*
G36*
X168500Y190225D02*
X167188Y190096D01*
X165926Y189713D01*
X164764Y189092D01*
X163744Y188256D01*
X162908Y187236D01*
X162287Y186074D01*
X161904Y184812D01*
X161775Y183500D01*
Y177786D01*
X159744Y175756D01*
X158908Y174736D01*
X158287Y173574D01*
X158053Y172803D01*
X155000D01*
X154693Y172742D01*
X154432Y172568D01*
X154258Y172307D01*
X154197Y172000D01*
Y169979D01*
X154077Y169799D01*
X154016Y169492D01*
Y164768D01*
X154077Y164460D01*
X154251Y164200D01*
X154512Y164026D01*
X154819Y163965D01*
X157181D01*
X157488Y164026D01*
X157745Y164197D01*
X159255D01*
X159512Y164026D01*
X159819Y163965D01*
X162181D01*
X162488Y164026D01*
X162745Y164197D01*
X164255D01*
X164512Y164026D01*
X164819Y163965D01*
X167181D01*
X167488Y164026D01*
X167745Y164197D01*
X169255D01*
X169512Y164026D01*
X169819Y163965D01*
X172181D01*
X172488Y164026D01*
X172749Y164200D01*
X172923Y164460D01*
X172984Y164768D01*
Y169492D01*
X172923Y169799D01*
X172878Y169867D01*
X173255Y170245D01*
X174092Y171264D01*
X174713Y172426D01*
X175096Y173688D01*
X175225Y175000D01*
Y183500D01*
X175096Y184812D01*
X174713Y186074D01*
X174092Y187236D01*
X173255Y188256D01*
X172236Y189092D01*
X171074Y189713D01*
X169812Y190096D01*
X168500Y190225D01*
D02*
G37*
G36*
X310984Y162805D02*
Y160984D01*
X312805D01*
X312593Y161497D01*
X312117Y162117D01*
X311497Y162593D01*
X310984Y162805D01*
D02*
G37*
G36*
X299016Y164016D02*
X297195D01*
X297407Y163503D01*
X297883Y162883D01*
X298503Y162407D01*
X299016Y162195D01*
Y164016D01*
D02*
G37*
G36*
X300984Y167805D02*
Y165984D01*
X302805D01*
X302593Y166497D01*
X302117Y167117D01*
X301497Y167593D01*
X300984Y167805D01*
D02*
G37*
G36*
X334646Y195912D02*
X332329Y195729D01*
X330069Y195187D01*
X327922Y194298D01*
X325941Y193083D01*
X324174Y191574D01*
X322665Y189807D01*
X321450Y187826D01*
X320561Y185679D01*
X320019Y183419D01*
X319836Y181102D01*
X320019Y178786D01*
X320561Y176526D01*
X321450Y174379D01*
X322665Y172398D01*
X324174Y170631D01*
X325941Y169121D01*
X327922Y167907D01*
X330069Y167018D01*
X332329Y166475D01*
X334646Y166293D01*
X336962Y166475D01*
X339222Y167018D01*
X341369Y167907D01*
X343350Y169121D01*
X345117Y170631D01*
X346627Y172398D01*
X347841Y174379D01*
X348730Y176526D01*
X349273Y178786D01*
X349455Y181102D01*
X349273Y183419D01*
X348730Y185679D01*
X347841Y187826D01*
X346627Y189807D01*
X345117Y191574D01*
X343350Y193083D01*
X341369Y194298D01*
X339222Y195187D01*
X336962Y195729D01*
X334646Y195912D01*
D02*
G37*
G36*
X373691Y175906D02*
X366309D01*
X365522Y175749D01*
X364854Y175303D01*
X364408Y174636D01*
X364252Y173848D01*
Y166466D01*
X364408Y165679D01*
X364854Y165012D01*
X365522Y164566D01*
X366309Y164409D01*
X373691D01*
X374478Y164566D01*
X375146Y165012D01*
X375591Y165679D01*
X375748Y166466D01*
Y173848D01*
X375591Y174636D01*
X375146Y175303D01*
X374478Y175749D01*
X373691Y175906D01*
D02*
G37*
G36*
X299016Y167805D02*
X298503Y167593D01*
X297883Y167117D01*
X297407Y166497D01*
X297195Y165984D01*
X299016D01*
Y167805D01*
D02*
G37*
G36*
X55984Y162805D02*
Y160984D01*
X57805D01*
X57593Y161497D01*
X57117Y162117D01*
X56497Y162593D01*
X55984Y162805D01*
D02*
G37*
G36*
X309016D02*
X308503Y162593D01*
X307883Y162117D01*
X307407Y161497D01*
X307195Y160984D01*
X309016D01*
Y162805D01*
D02*
G37*
G36*
X54016D02*
X53503Y162593D01*
X52883Y162117D01*
X52407Y161497D01*
X52195Y160984D01*
X54016D01*
Y162805D01*
D02*
G37*
G36*
X309016Y169016D02*
X307195D01*
X307407Y168503D01*
X307883Y167883D01*
X308503Y167407D01*
X309016Y167195D01*
Y169016D01*
D02*
G37*
G36*
X312805D02*
X310984D01*
Y167195D01*
X311497Y167407D01*
X312117Y167883D01*
X312593Y168503D01*
X312805Y169016D01*
D02*
G37*
G36*
X204016Y154016D02*
X202194D01*
X202407Y153503D01*
X202883Y152883D01*
X203503Y152407D01*
X204016Y152195D01*
Y154016D01*
D02*
G37*
G36*
X239016Y149252D02*
X238819D01*
X238429Y149174D01*
X238098Y148953D01*
X237877Y148623D01*
X237799Y148232D01*
Y146854D01*
X239016D01*
Y149252D01*
D02*
G37*
G36*
X244016D02*
X243819D01*
X243429Y149174D01*
X243098Y148953D01*
X242877Y148623D01*
X242799Y148232D01*
Y146854D01*
X244016D01*
Y149252D01*
D02*
G37*
G36*
X223016D02*
X222819D01*
X222429Y149174D01*
X222098Y148953D01*
X221877Y148623D01*
X221799Y148232D01*
Y146854D01*
X223016D01*
Y149252D01*
D02*
G37*
G36*
X228016D02*
X227819D01*
X227429Y149174D01*
X227098Y148953D01*
X226877Y148623D01*
X226799Y148232D01*
Y146854D01*
X228016D01*
Y149252D01*
D02*
G37*
G36*
X265016D02*
X264819D01*
X264429Y149174D01*
X264098Y148953D01*
X263877Y148623D01*
X263799Y148232D01*
Y146854D01*
X265016D01*
Y149252D01*
D02*
G37*
G36*
X270016D02*
X269819D01*
X269429Y149174D01*
X269098Y148953D01*
X268877Y148623D01*
X268799Y148232D01*
Y146854D01*
X270016D01*
Y149252D01*
D02*
G37*
G36*
X249016D02*
X248819D01*
X248429Y149174D01*
X248098Y148953D01*
X247877Y148623D01*
X247799Y148232D01*
Y146854D01*
X249016D01*
Y149252D01*
D02*
G37*
G36*
X260016D02*
X259819D01*
X259429Y149174D01*
X259098Y148953D01*
X258877Y148623D01*
X258799Y148232D01*
Y146854D01*
X260016D01*
Y149252D01*
D02*
G37*
G36*
X176016D02*
X175819D01*
X175429Y149174D01*
X175098Y148953D01*
X174877Y148623D01*
X174799Y148232D01*
Y146854D01*
X176016D01*
Y149252D01*
D02*
G37*
G36*
X181016D02*
X180819D01*
X180429Y149174D01*
X180098Y148953D01*
X179877Y148623D01*
X179799Y148232D01*
Y146854D01*
X181016D01*
Y149252D01*
D02*
G37*
G36*
X160016D02*
X159819D01*
X159429Y149174D01*
X159098Y148953D01*
X158877Y148623D01*
X158799Y148232D01*
Y146854D01*
X160016D01*
Y149252D01*
D02*
G37*
G36*
X165016D02*
X164819D01*
X164429Y149174D01*
X164098Y148953D01*
X163877Y148623D01*
X163799Y148232D01*
Y146854D01*
X165016D01*
Y149252D01*
D02*
G37*
G36*
X202016D02*
X201819D01*
X201429Y149174D01*
X201098Y148953D01*
X200877Y148623D01*
X200799Y148232D01*
Y146854D01*
X202016D01*
Y149252D01*
D02*
G37*
G36*
X207016D02*
X206819D01*
X206429Y149174D01*
X206098Y148953D01*
X205877Y148623D01*
X205799Y148232D01*
Y146854D01*
X207016D01*
Y149252D01*
D02*
G37*
G36*
X186016D02*
X185819D01*
X185429Y149174D01*
X185098Y148953D01*
X184877Y148623D01*
X184799Y148232D01*
Y146854D01*
X186016D01*
Y149252D01*
D02*
G37*
G36*
X197016D02*
X196819D01*
X196429Y149174D01*
X196098Y148953D01*
X195877Y148623D01*
X195799Y148232D01*
Y146854D01*
X197016D01*
Y149252D01*
D02*
G37*
G36*
X71016D02*
X70819D01*
X70429Y149174D01*
X70098Y148953D01*
X69877Y148623D01*
X69799Y148232D01*
Y146854D01*
X71016D01*
Y149252D01*
D02*
G37*
G36*
X73181D02*
X72984D01*
Y146854D01*
X74201D01*
Y148232D01*
X74123Y148623D01*
X73902Y148953D01*
X73571Y149174D01*
X73181Y149252D01*
D02*
G37*
G36*
X78181D02*
X77984D01*
Y146854D01*
X79201D01*
Y148232D01*
X79123Y148623D01*
X78902Y148953D01*
X78571Y149174D01*
X78181Y149252D01*
D02*
G37*
G36*
X134016D02*
X133819D01*
X133429Y149174D01*
X133098Y148953D01*
X132877Y148623D01*
X132799Y148232D01*
Y146854D01*
X134016D01*
Y149252D01*
D02*
G37*
G36*
X139016D02*
X138819D01*
X138429Y149174D01*
X138098Y148953D01*
X137877Y148623D01*
X137799Y148232D01*
Y146854D01*
X139016D01*
Y149252D01*
D02*
G37*
G36*
X99181D02*
X98984D01*
Y146854D01*
X100201D01*
Y148232D01*
X100123Y148623D01*
X99902Y148953D01*
X99571Y149174D01*
X99181Y149252D01*
D02*
G37*
G36*
X104181D02*
X103984D01*
Y146854D01*
X105201D01*
Y148232D01*
X105123Y148623D01*
X104902Y148953D01*
X104571Y149174D01*
X104181Y149252D01*
D02*
G37*
G36*
X83181D02*
X82984D01*
Y146854D01*
X84201D01*
Y148232D01*
X84123Y148623D01*
X83902Y148953D01*
X83571Y149174D01*
X83181Y149252D01*
D02*
G37*
G36*
X94181D02*
X93984D01*
Y146854D01*
X95201D01*
Y148232D01*
X95123Y148623D01*
X94902Y148953D01*
X94571Y149174D01*
X94181Y149252D01*
D02*
G37*
G36*
X92016D02*
X91819D01*
X91429Y149174D01*
X91098Y148953D01*
X90877Y148623D01*
X90799Y148232D01*
Y146854D01*
X92016D01*
Y149252D01*
D02*
G37*
G36*
X97016D02*
X96819D01*
X96429Y149174D01*
X96098Y148953D01*
X95877Y148623D01*
X95799Y148232D01*
Y146854D01*
X97016D01*
Y149252D01*
D02*
G37*
G36*
X76016D02*
X75819D01*
X75429Y149174D01*
X75098Y148953D01*
X74877Y148623D01*
X74799Y148232D01*
Y146854D01*
X76016D01*
Y149252D01*
D02*
G37*
G36*
X81016D02*
X80819D01*
X80429Y149174D01*
X80098Y148953D01*
X79877Y148623D01*
X79799Y148232D01*
Y146854D01*
X81016D01*
Y149252D01*
D02*
G37*
G36*
X118016D02*
X117819D01*
X117429Y149174D01*
X117098Y148953D01*
X116877Y148623D01*
X116799Y148232D01*
Y146854D01*
X118016D01*
Y149252D01*
D02*
G37*
G36*
X123016D02*
X122819D01*
X122429Y149174D01*
X122098Y148953D01*
X121877Y148623D01*
X121799Y148232D01*
Y146854D01*
X123016D01*
Y149252D01*
D02*
G37*
G36*
X102016D02*
X101819D01*
X101429Y149174D01*
X101098Y148953D01*
X100877Y148623D01*
X100799Y148232D01*
Y146854D01*
X102016D01*
Y149252D01*
D02*
G37*
G36*
X113016D02*
X112819D01*
X112429Y149174D01*
X112098Y148953D01*
X111877Y148623D01*
X111799Y148232D01*
Y146854D01*
X113016D01*
Y149252D01*
D02*
G37*
G36*
X226201Y144886D02*
X224984D01*
Y142488D01*
X225181D01*
X225571Y142566D01*
X225902Y142787D01*
X226123Y143118D01*
X226201Y143508D01*
Y144886D01*
D02*
G37*
G36*
X228016D02*
X226799D01*
Y143508D01*
X226877Y143118D01*
X227098Y142787D01*
X227429Y142566D01*
X227819Y142488D01*
X228016D01*
Y144886D01*
D02*
G37*
G36*
X210201D02*
X208984D01*
Y142488D01*
X209181D01*
X209571Y142566D01*
X209902Y142787D01*
X210123Y143118D01*
X210201Y143508D01*
Y144886D01*
D02*
G37*
G36*
X223016D02*
X221799D01*
Y143508D01*
X221877Y143118D01*
X222098Y142787D01*
X222429Y142566D01*
X222819Y142488D01*
X223016D01*
Y144886D01*
D02*
G37*
G36*
X242201D02*
X240984D01*
Y142488D01*
X241181D01*
X241571Y142566D01*
X241902Y142787D01*
X242123Y143118D01*
X242201Y143508D01*
Y144886D01*
D02*
G37*
G36*
X244016D02*
X242799D01*
Y143508D01*
X242877Y143118D01*
X243098Y142787D01*
X243429Y142566D01*
X243819Y142488D01*
X244016D01*
Y144886D01*
D02*
G37*
G36*
X231201D02*
X229984D01*
Y142488D01*
X230181D01*
X230571Y142566D01*
X230902Y142787D01*
X231123Y143118D01*
X231201Y143508D01*
Y144886D01*
D02*
G37*
G36*
X239016D02*
X237799D01*
Y143508D01*
X237877Y143118D01*
X238098Y142787D01*
X238429Y142566D01*
X238819Y142488D01*
X239016D01*
Y144886D01*
D02*
G37*
G36*
X168201D02*
X166984D01*
Y142488D01*
X167181D01*
X167571Y142566D01*
X167902Y142787D01*
X168123Y143118D01*
X168201Y143508D01*
Y144886D01*
D02*
G37*
G36*
X197016D02*
X195799D01*
Y143508D01*
X195877Y143118D01*
X196098Y142787D01*
X196429Y142566D01*
X196819Y142488D01*
X197016D01*
Y144886D01*
D02*
G37*
G36*
X163201D02*
X161984D01*
Y142488D01*
X162181D01*
X162571Y142566D01*
X162902Y142787D01*
X163123Y143118D01*
X163201Y143508D01*
Y144886D01*
D02*
G37*
G36*
X165016D02*
X163799D01*
Y143508D01*
X163877Y143118D01*
X164098Y142787D01*
X164429Y142566D01*
X164819Y142488D01*
X165016D01*
Y144886D01*
D02*
G37*
G36*
X205201D02*
X203984D01*
Y142488D01*
X204181D01*
X204571Y142566D01*
X204902Y142787D01*
X205123Y143118D01*
X205201Y143508D01*
Y144886D01*
D02*
G37*
G36*
X207016D02*
X205799D01*
Y143508D01*
X205877Y143118D01*
X206098Y142787D01*
X206429Y142566D01*
X206819Y142488D01*
X207016D01*
Y144886D01*
D02*
G37*
G36*
X200201D02*
X198984D01*
Y142488D01*
X199181D01*
X199571Y142566D01*
X199902Y142787D01*
X200123Y143118D01*
X200201Y143508D01*
Y144886D01*
D02*
G37*
G36*
X202016D02*
X200799D01*
Y143508D01*
X200877Y143118D01*
X201098Y142787D01*
X201429Y142566D01*
X201819Y142488D01*
X202016D01*
Y144886D01*
D02*
G37*
G36*
X247201D02*
X245984D01*
Y142488D01*
X246181D01*
X246571Y142566D01*
X246902Y142787D01*
X247123Y143118D01*
X247201Y143508D01*
Y144886D01*
D02*
G37*
G36*
X289016Y147805D02*
X288503Y147593D01*
X287883Y147117D01*
X287407Y146497D01*
X287195Y145984D01*
X289016D01*
Y147805D01*
D02*
G37*
G36*
X290984D02*
Y145984D01*
X292805D01*
X292593Y146497D01*
X292117Y147117D01*
X291497Y147593D01*
X290984Y147805D01*
D02*
G37*
G36*
X370016Y144945D02*
X369031D01*
X368641Y144867D01*
X368310Y144646D01*
X368090Y144316D01*
X368012Y143925D01*
Y143335D01*
X370016D01*
Y144945D01*
D02*
G37*
G36*
X57805Y149016D02*
X52195D01*
X52407Y148503D01*
X52883Y147883D01*
X53056Y147750D01*
Y147250D01*
X52883Y147117D01*
X52407Y146497D01*
X52195Y145984D01*
X57805D01*
X57593Y146497D01*
X57117Y147117D01*
X56944Y147250D01*
Y147750D01*
X57117Y147883D01*
X57593Y148503D01*
X57805Y149016D01*
D02*
G37*
G36*
X144016Y149252D02*
X143819D01*
X143429Y149174D01*
X143098Y148953D01*
X142877Y148623D01*
X142799Y148232D01*
Y146854D01*
X144016D01*
Y149252D01*
D02*
G37*
G36*
X155016D02*
X154819D01*
X154429Y149174D01*
X154098Y148953D01*
X153877Y148623D01*
X153799Y148232D01*
Y146854D01*
X155016D01*
Y149252D01*
D02*
G37*
G36*
X299016Y147805D02*
X298503Y147593D01*
X297883Y147117D01*
X297407Y146497D01*
X297195Y145984D01*
X299016D01*
Y147805D01*
D02*
G37*
G36*
X300984D02*
Y145984D01*
X302805D01*
X302593Y146497D01*
X302117Y147117D01*
X301497Y147593D01*
X300984Y147805D01*
D02*
G37*
G36*
X260016Y144886D02*
X258799D01*
Y143508D01*
X258877Y143118D01*
X259098Y142787D01*
X259429Y142566D01*
X259819Y142488D01*
X260016D01*
Y144886D01*
D02*
G37*
G36*
X263201D02*
X261984D01*
Y142488D01*
X262181D01*
X262571Y142566D01*
X262902Y142787D01*
X263123Y143118D01*
X263201Y143508D01*
Y144886D01*
D02*
G37*
G36*
X249016D02*
X247799D01*
Y143508D01*
X247877Y143118D01*
X248098Y142787D01*
X248429Y142566D01*
X248819Y142488D01*
X249016D01*
Y144886D01*
D02*
G37*
G36*
X252201D02*
X250984D01*
Y142488D01*
X251181D01*
X251571Y142566D01*
X251902Y142787D01*
X252123Y143118D01*
X252201Y143508D01*
Y144886D01*
D02*
G37*
G36*
X270016D02*
X268799D01*
Y143508D01*
X268877Y143118D01*
X269098Y142787D01*
X269429Y142566D01*
X269819Y142488D01*
X270016D01*
Y144886D01*
D02*
G37*
G36*
X273201D02*
X271984D01*
Y142488D01*
X272181D01*
X272571Y142566D01*
X272902Y142787D01*
X273123Y143118D01*
X273201Y143508D01*
Y144886D01*
D02*
G37*
G36*
X265016D02*
X263799D01*
Y143508D01*
X263877Y143118D01*
X264098Y142787D01*
X264429Y142566D01*
X264819Y142488D01*
X265016D01*
Y144886D01*
D02*
G37*
G36*
X268201D02*
X266984D01*
Y142488D01*
X267181D01*
X267571Y142566D01*
X267902Y142787D01*
X268123Y143118D01*
X268201Y143508D01*
Y144886D01*
D02*
G37*
G36*
X87805Y154016D02*
X85984D01*
Y152195D01*
X86497Y152407D01*
X87117Y152883D01*
X87593Y153503D01*
X87805Y154016D01*
D02*
G37*
G36*
X94016D02*
X92194D01*
X92407Y153503D01*
X92883Y152883D01*
X93503Y152407D01*
X94016Y152195D01*
Y154016D01*
D02*
G37*
G36*
X77805D02*
X75984D01*
Y152195D01*
X76497Y152407D01*
X77117Y152883D01*
X77593Y153503D01*
X77805Y154016D01*
D02*
G37*
G36*
X84016D02*
X82195D01*
X82407Y153503D01*
X82883Y152883D01*
X83503Y152407D01*
X84016Y152195D01*
Y154016D01*
D02*
G37*
G36*
X107805D02*
X105984D01*
Y152195D01*
X106497Y152407D01*
X107117Y152883D01*
X107593Y153503D01*
X107805Y154016D01*
D02*
G37*
G36*
X114016D02*
X112195D01*
X112407Y153503D01*
X112883Y152883D01*
X113503Y152407D01*
X114016Y152195D01*
Y154016D01*
D02*
G37*
G36*
X97805D02*
X95984D01*
Y152195D01*
X96497Y152407D01*
X97117Y152883D01*
X97593Y153503D01*
X97805Y154016D01*
D02*
G37*
G36*
X104016D02*
X102194D01*
X102407Y153503D01*
X102883Y152883D01*
X103503Y152407D01*
X104016Y152195D01*
Y154016D01*
D02*
G37*
G36*
X310984Y152805D02*
Y150984D01*
X312805D01*
X312593Y151497D01*
X312117Y152117D01*
X311497Y152593D01*
X310984Y152805D01*
D02*
G37*
G36*
X289016Y154016D02*
X287195D01*
X287407Y153503D01*
X287883Y152883D01*
X288503Y152407D01*
X289016Y152195D01*
Y154016D01*
D02*
G37*
G36*
X57805D02*
X52195D01*
X52407Y153503D01*
X52883Y152883D01*
X53056Y152750D01*
Y152250D01*
X52883Y152117D01*
X52407Y151497D01*
X52195Y150984D01*
X57805D01*
X57593Y151497D01*
X57117Y152117D01*
X56944Y152250D01*
Y152750D01*
X57117Y152883D01*
X57593Y153503D01*
X57805Y154016D01*
D02*
G37*
G36*
X309016Y152805D02*
X308503Y152593D01*
X307883Y152117D01*
X307407Y151497D01*
X307195Y150984D01*
X309016D01*
Y152805D01*
D02*
G37*
G36*
X302805Y154016D02*
X300984D01*
Y152195D01*
X301497Y152407D01*
X302117Y152883D01*
X302593Y153503D01*
X302805Y154016D01*
D02*
G37*
G36*
X74016Y154016D02*
X72194D01*
X72407Y153503D01*
X72883Y152883D01*
X73503Y152407D01*
X74016Y152195D01*
Y154016D01*
D02*
G37*
G36*
X292805Y154016D02*
X290984D01*
Y152195D01*
X291497Y152407D01*
X292117Y152883D01*
X292593Y153503D01*
X292805Y154016D01*
D02*
G37*
G36*
X299016D02*
X297195D01*
X297407Y153503D01*
X297883Y152883D01*
X298503Y152407D01*
X299016Y152195D01*
Y154016D01*
D02*
G37*
G36*
X117805Y154016D02*
X115984D01*
Y152195D01*
X116497Y152407D01*
X117117Y152883D01*
X117593Y153503D01*
X117805Y154016D01*
D02*
G37*
G36*
X174016D02*
X172195D01*
X172407Y153503D01*
X172883Y152883D01*
X173503Y152407D01*
X174016Y152195D01*
Y154016D01*
D02*
G37*
G36*
X177805D02*
X175984D01*
Y152195D01*
X176497Y152407D01*
X177117Y152883D01*
X177593Y153503D01*
X177805Y154016D01*
D02*
G37*
G36*
X164016D02*
X162195D01*
X162407Y153503D01*
X162883Y152883D01*
X163503Y152407D01*
X164016Y152195D01*
Y154016D01*
D02*
G37*
G36*
X167805D02*
X165984D01*
Y152195D01*
X166497Y152407D01*
X167117Y152883D01*
X167593Y153503D01*
X167805Y154016D01*
D02*
G37*
G36*
X194016D02*
X192194D01*
X192407Y153503D01*
X192883Y152883D01*
X193503Y152407D01*
X194016Y152195D01*
Y154016D01*
D02*
G37*
G36*
X197805D02*
X195984D01*
Y152195D01*
X196497Y152407D01*
X197117Y152883D01*
X197593Y153503D01*
X197805Y154016D01*
D02*
G37*
G36*
X184016D02*
X182194D01*
X182407Y153503D01*
X182883Y152883D01*
X183503Y152407D01*
X184016Y152195D01*
Y154016D01*
D02*
G37*
G36*
X187805D02*
X185984D01*
Y152195D01*
X186497Y152407D01*
X187117Y152883D01*
X187593Y153503D01*
X187805Y154016D01*
D02*
G37*
G36*
X134016D02*
X132194D01*
X132407Y153503D01*
X132883Y152883D01*
X133503Y152407D01*
X134016Y152195D01*
Y154016D01*
D02*
G37*
G36*
X137805D02*
X135984D01*
Y152195D01*
X136497Y152407D01*
X137117Y152883D01*
X137593Y153503D01*
X137805Y154016D01*
D02*
G37*
G36*
X124016D02*
X122195D01*
X122407Y153503D01*
X122883Y152883D01*
X123503Y152407D01*
X124016Y152195D01*
Y154016D01*
D02*
G37*
G36*
X127805D02*
X125984D01*
Y152195D01*
X126497Y152407D01*
X127117Y152883D01*
X127593Y153503D01*
X127805Y154016D01*
D02*
G37*
G36*
X154016D02*
X152194D01*
X152407Y153503D01*
X152883Y152883D01*
X153503Y152407D01*
X154016Y152195D01*
Y154016D01*
D02*
G37*
G36*
X157805D02*
X155984D01*
Y152195D01*
X156497Y152407D01*
X157117Y152883D01*
X157593Y153503D01*
X157805Y154016D01*
D02*
G37*
G36*
X144016D02*
X142194D01*
X142407Y153503D01*
X142883Y152883D01*
X143503Y152407D01*
X144016Y152195D01*
Y154016D01*
D02*
G37*
G36*
X147805D02*
X145984D01*
Y152195D01*
X146497Y152407D01*
X147117Y152883D01*
X147593Y153503D01*
X147805Y154016D01*
D02*
G37*
G36*
X183181Y149252D02*
X182984D01*
Y146854D01*
X184201D01*
Y148232D01*
X184123Y148623D01*
X183902Y148953D01*
X183571Y149174D01*
X183181Y149252D01*
D02*
G37*
G36*
X188181D02*
X187984D01*
Y146854D01*
X189201D01*
Y148232D01*
X189123Y148623D01*
X188902Y148953D01*
X188571Y149174D01*
X188181Y149252D01*
D02*
G37*
G36*
X167181D02*
X166984D01*
Y146854D01*
X168201D01*
Y148232D01*
X168123Y148623D01*
X167902Y148953D01*
X167571Y149174D01*
X167181Y149252D01*
D02*
G37*
G36*
X178181D02*
X177984D01*
Y146854D01*
X179201D01*
Y148232D01*
X179123Y148623D01*
X178902Y148953D01*
X178571Y149174D01*
X178181Y149252D01*
D02*
G37*
G36*
X209181D02*
X208984D01*
Y146854D01*
X210201D01*
Y148232D01*
X210123Y148623D01*
X209902Y148953D01*
X209571Y149174D01*
X209181Y149252D01*
D02*
G37*
G36*
X220181D02*
X219984D01*
Y146854D01*
X221201D01*
Y148232D01*
X221123Y148623D01*
X220902Y148953D01*
X220571Y149174D01*
X220181Y149252D01*
D02*
G37*
G36*
X199181D02*
X198984D01*
Y146854D01*
X200201D01*
Y148232D01*
X200123Y148623D01*
X199902Y148953D01*
X199571Y149174D01*
X199181Y149252D01*
D02*
G37*
G36*
X204181D02*
X203984D01*
Y146854D01*
X205201D01*
Y148232D01*
X205123Y148623D01*
X204902Y148953D01*
X204571Y149174D01*
X204181Y149252D01*
D02*
G37*
G36*
X125181D02*
X124984D01*
Y146854D01*
X126201D01*
Y148232D01*
X126123Y148623D01*
X125902Y148953D01*
X125571Y149174D01*
X125181Y149252D01*
D02*
G37*
G36*
X136181D02*
X135984D01*
Y146854D01*
X137201D01*
Y148232D01*
X137123Y148623D01*
X136902Y148953D01*
X136571Y149174D01*
X136181Y149252D01*
D02*
G37*
G36*
X115181D02*
X114984D01*
Y146854D01*
X116201D01*
Y148232D01*
X116123Y148623D01*
X115902Y148953D01*
X115571Y149174D01*
X115181Y149252D01*
D02*
G37*
G36*
X120181D02*
X119984D01*
Y146854D01*
X121201D01*
Y148232D01*
X121123Y148623D01*
X120902Y148953D01*
X120571Y149174D01*
X120181Y149252D01*
D02*
G37*
G36*
X157181D02*
X156984D01*
Y146854D01*
X158201D01*
Y148232D01*
X158123Y148623D01*
X157902Y148953D01*
X157571Y149174D01*
X157181Y149252D01*
D02*
G37*
G36*
X162181D02*
X161984D01*
Y146854D01*
X163201D01*
Y148232D01*
X163123Y148623D01*
X162902Y148953D01*
X162571Y149174D01*
X162181Y149252D01*
D02*
G37*
G36*
X141181D02*
X140984D01*
Y146854D01*
X142201D01*
Y148232D01*
X142123Y148623D01*
X141902Y148953D01*
X141571Y149174D01*
X141181Y149252D01*
D02*
G37*
G36*
X146181D02*
X145984D01*
Y146854D01*
X147201D01*
Y148232D01*
X147123Y148623D01*
X146902Y148953D01*
X146571Y149174D01*
X146181Y149252D01*
D02*
G37*
G36*
X225181D02*
X224984D01*
Y146854D01*
X226201D01*
Y148232D01*
X226123Y148623D01*
X225902Y148953D01*
X225571Y149174D01*
X225181Y149252D01*
D02*
G37*
G36*
X333441Y152390D02*
X328484D01*
Y149402D01*
X332421D01*
X332811Y149479D01*
X333142Y149700D01*
X333363Y150031D01*
X333441Y150421D01*
Y152390D01*
D02*
G37*
G36*
X342516D02*
X337559D01*
Y150421D01*
X337637Y150031D01*
X337858Y149700D01*
X338189Y149479D01*
X338579Y149402D01*
X342516D01*
Y152390D01*
D02*
G37*
G36*
X312805Y149016D02*
X310984D01*
Y147195D01*
X311497Y147407D01*
X312117Y147883D01*
X312593Y148503D01*
X312805Y149016D01*
D02*
G37*
G36*
X326516Y152390D02*
X321559D01*
Y150421D01*
X321637Y150031D01*
X321858Y149700D01*
X322188Y149479D01*
X322579Y149402D01*
X326516D01*
Y152390D01*
D02*
G37*
G36*
X364941D02*
X359984D01*
Y149402D01*
X363921D01*
X364311Y149479D01*
X364642Y149700D01*
X364863Y150031D01*
X364941Y150421D01*
Y152390D01*
D02*
G37*
G36*
X349441D02*
X344484D01*
Y149402D01*
X348421D01*
X348811Y149479D01*
X349142Y149700D01*
X349363Y150031D01*
X349441Y150421D01*
Y152390D01*
D02*
G37*
G36*
X358016D02*
X353059D01*
Y150421D01*
X353137Y150031D01*
X353358Y149700D01*
X353689Y149479D01*
X354079Y149402D01*
X358016D01*
Y152390D01*
D02*
G37*
G36*
X246181Y149252D02*
X245984D01*
Y146854D01*
X247201D01*
Y148232D01*
X247123Y148623D01*
X246902Y148953D01*
X246571Y149174D01*
X246181Y149252D01*
D02*
G37*
G36*
X251181D02*
X250984D01*
Y146854D01*
X252201D01*
Y148232D01*
X252123Y148623D01*
X251902Y148953D01*
X251571Y149174D01*
X251181Y149252D01*
D02*
G37*
G36*
X230181D02*
X229984D01*
Y146854D01*
X231201D01*
Y148232D01*
X231123Y148623D01*
X230902Y148953D01*
X230571Y149174D01*
X230181Y149252D01*
D02*
G37*
G36*
X241181D02*
X240984D01*
Y146854D01*
X242201D01*
Y148232D01*
X242123Y148623D01*
X241902Y148953D01*
X241571Y149174D01*
X241181Y149252D01*
D02*
G37*
G36*
X272181D02*
X271984D01*
Y146854D01*
X273201D01*
Y148232D01*
X273123Y148623D01*
X272902Y148953D01*
X272571Y149174D01*
X272181Y149252D01*
D02*
G37*
G36*
X309016Y149016D02*
X307195D01*
X307407Y148503D01*
X307883Y147883D01*
X308503Y147407D01*
X309016Y147195D01*
Y149016D01*
D02*
G37*
G36*
X262181Y149252D02*
X261984D01*
Y146854D01*
X263201D01*
Y148232D01*
X263123Y148623D01*
X262902Y148953D01*
X262571Y149174D01*
X262181Y149252D01*
D02*
G37*
G36*
X267181D02*
X266984D01*
Y146854D01*
X268201D01*
Y148232D01*
X268123Y148623D01*
X267902Y148953D01*
X267571Y149174D01*
X267181Y149252D01*
D02*
G37*
G36*
X122516Y187953D02*
X122314Y187926D01*
X121209Y187469D01*
X120260Y186740D01*
X119531Y185791D01*
X119074Y184686D01*
X119047Y184484D01*
X122516D01*
Y187953D01*
D02*
G37*
G36*
X124484D02*
Y184484D01*
X127953D01*
X127926Y184686D01*
X127469Y185791D01*
X126740Y186740D01*
X125791Y187469D01*
X124686Y187926D01*
X124484Y187953D01*
D02*
G37*
G36*
X99181Y170512D02*
X98984D01*
Y168114D01*
X100201D01*
Y169492D01*
X100123Y169882D01*
X99902Y170213D01*
X99571Y170434D01*
X99181Y170512D01*
D02*
G37*
G36*
X104181D02*
X103984D01*
Y168114D01*
X105201D01*
Y169492D01*
X105123Y169882D01*
X104902Y170213D01*
X104571Y170434D01*
X104181Y170512D01*
D02*
G37*
G36*
X97016D02*
X96819D01*
X96429Y170434D01*
X96098Y170213D01*
X95877Y169882D01*
X95799Y169492D01*
Y168114D01*
X97016D01*
Y170512D01*
D02*
G37*
G36*
X102016D02*
X101819D01*
X101429Y170434D01*
X101098Y170213D01*
X100877Y169882D01*
X100799Y169492D01*
Y168114D01*
X102016D01*
Y170512D01*
D02*
G37*
G36*
X107016D02*
X106819D01*
X106429Y170434D01*
X106098Y170213D01*
X105877Y169882D01*
X105799Y169492D01*
Y168114D01*
X107016D01*
Y170512D01*
D02*
G37*
G36*
X323088Y89685D02*
X322500Y89292D01*
X322107Y88703D01*
X323088D01*
Y89685D01*
D02*
G37*
G36*
X84425Y89988D02*
X83835D01*
Y87984D01*
X85445D01*
Y88969D01*
X85367Y89359D01*
X85146Y89689D01*
X84815Y89911D01*
X84425Y89988D01*
D02*
G37*
G36*
X81866D02*
X81275D01*
X80885Y89911D01*
X80555Y89689D01*
X80334Y89359D01*
X80256Y88969D01*
Y87984D01*
X81866D01*
Y89988D01*
D02*
G37*
G36*
Y86016D02*
X80256D01*
Y85032D01*
X80334Y84641D01*
X80555Y84311D01*
X80885Y84090D01*
X81275Y84012D01*
X81866D01*
Y86016D01*
D02*
G37*
G36*
X301500Y88170D02*
X300421Y88028D01*
X299415Y87611D01*
X298552Y86948D01*
X297889Y86085D01*
X297473Y85079D01*
X297330Y84000D01*
X297473Y82921D01*
X297889Y81915D01*
X298552Y81052D01*
X298778Y80879D01*
X298617Y80405D01*
X286250D01*
X286234Y80488D01*
X286060Y80749D01*
X285799Y80923D01*
X285492Y80984D01*
X280768D01*
X280461Y80923D01*
X280200Y80749D01*
X280026Y80488D01*
X280009Y80405D01*
X279000D01*
X278462Y80298D01*
X278462Y80298D01*
X278462Y80298D01*
X278233Y80145D01*
X278007Y79993D01*
X278007Y79993D01*
X278006Y79993D01*
X275426Y77412D01*
X275274Y77185D01*
X275121Y76956D01*
X275121Y76956D01*
X275121Y76956D01*
X275014Y76419D01*
Y40581D01*
X275121Y40043D01*
X275426Y39588D01*
X297007Y18007D01*
X297462Y17702D01*
X298000Y17595D01*
X304000D01*
X304538Y17702D01*
X304993Y18007D01*
X307125Y20138D01*
X307587Y19947D01*
Y19858D01*
X311953D01*
X316319D01*
Y21820D01*
X316493Y21958D01*
X316819Y22128D01*
X317500Y21993D01*
X318268Y22146D01*
X318919Y22581D01*
X319354Y23232D01*
X319362Y23272D01*
X319866Y23242D01*
X320019Y21305D01*
X320561Y19046D01*
X321450Y16899D01*
X322665Y14917D01*
X324174Y13150D01*
X325941Y11641D01*
X327922Y10427D01*
X330069Y9538D01*
X332329Y8995D01*
X334646Y8813D01*
X336962Y8995D01*
X339222Y9538D01*
X341369Y10427D01*
X343350Y11641D01*
X345117Y13150D01*
X346627Y14917D01*
X347841Y16899D01*
X348730Y19046D01*
X349273Y21305D01*
X349455Y23622D01*
X349273Y25939D01*
X348730Y28198D01*
X347841Y30345D01*
X346627Y32327D01*
X345117Y34094D01*
X343350Y35603D01*
X341369Y36817D01*
X339222Y37707D01*
X336962Y38249D01*
X334646Y38432D01*
X332329Y38249D01*
X330069Y37707D01*
X327922Y36817D01*
X325941Y35603D01*
X324174Y34094D01*
X322665Y32327D01*
X321450Y30345D01*
X320561Y28198D01*
X320019Y25939D01*
X319909Y24543D01*
X319405Y24514D01*
X319354Y24768D01*
X318919Y25419D01*
X318268Y25854D01*
X317677Y25972D01*
Y40320D01*
X319071Y41715D01*
X320209D01*
Y40500D01*
X320270Y40193D01*
X320444Y39932D01*
X320705Y39758D01*
X321012Y39697D01*
X324260D01*
X324567Y39758D01*
X324827Y39932D01*
X325002Y40193D01*
X325063Y40500D01*
Y46500D01*
X325002Y46807D01*
X324827Y47068D01*
X324567Y47242D01*
X324260Y47303D01*
X322350D01*
X322158Y47765D01*
X323487Y49094D01*
X323487Y49094D01*
X323556Y49197D01*
X324260D01*
X324567Y49258D01*
X324827Y49432D01*
X325002Y49693D01*
X325063Y50000D01*
Y56000D01*
X325002Y56307D01*
X324827Y56568D01*
X324567Y56742D01*
X324260Y56803D01*
X321012D01*
X320705Y56742D01*
X320444Y56568D01*
X320270Y56307D01*
X320209Y56000D01*
Y50000D01*
X320270Y49693D01*
X320434Y49447D01*
X311101Y40114D01*
X310840Y39723D01*
X310749Y39263D01*
X310749Y39262D01*
Y32850D01*
X309868Y32485D01*
X309004Y31822D01*
X308342Y30959D01*
X307925Y29953D01*
X307783Y28874D01*
X307925Y27795D01*
X308207Y27115D01*
X306382Y25290D01*
X305792Y25407D01*
X305564Y25959D01*
X304901Y26822D01*
X304037Y27485D01*
X303032Y27902D01*
X301953Y28044D01*
X300874Y27902D01*
X300194Y27620D01*
X279405Y48409D01*
Y67177D01*
X279905Y67310D01*
X280047Y67098D01*
X280378Y66877D01*
X280768Y66799D01*
X282146D01*
Y69000D01*
Y71201D01*
X280768D01*
X280378Y71123D01*
X280047Y70902D01*
X279905Y70690D01*
X279405Y70823D01*
Y71918D01*
X279655Y72168D01*
X280200Y72251D01*
X280461Y72077D01*
X280768Y72016D01*
X285492D01*
X285799Y72077D01*
X286060Y72251D01*
X286234Y72512D01*
X286250Y72595D01*
X297607D01*
X297889Y71915D01*
X298552Y71052D01*
X299415Y70389D01*
X300421Y69973D01*
X301500Y69831D01*
X302579Y69973D01*
X303585Y70389D01*
X304448Y71052D01*
X305111Y71915D01*
X305527Y72921D01*
X305669Y74000D01*
X305527Y75079D01*
X305111Y76085D01*
X304448Y76948D01*
X304222Y77122D01*
X304383Y77595D01*
X307607D01*
X307889Y76915D01*
X308552Y76052D01*
X309415Y75389D01*
X310421Y74973D01*
X311500Y74831D01*
X312579Y74973D01*
X313585Y75389D01*
X314448Y76052D01*
X315111Y76915D01*
X315527Y77921D01*
X315669Y79000D01*
X315527Y80079D01*
X315111Y81085D01*
X314448Y81948D01*
X313585Y82611D01*
X312579Y83027D01*
X311500Y83170D01*
X310421Y83027D01*
X309415Y82611D01*
X308552Y81948D01*
X307889Y81085D01*
X307607Y80405D01*
X304383D01*
X304222Y80879D01*
X304448Y81052D01*
X305111Y81915D01*
X305527Y82921D01*
X305669Y84000D01*
X305527Y85079D01*
X305111Y86085D01*
X304448Y86948D01*
X303585Y87611D01*
X302579Y88028D01*
X301500Y88170D01*
D02*
G37*
G36*
X56016Y81945D02*
X55031D01*
X54641Y81867D01*
X54311Y81646D01*
X54301Y81631D01*
X53699D01*
X53689Y81646D01*
X53359Y81867D01*
X52968Y81945D01*
X51984D01*
Y79351D01*
Y76756D01*
X52968D01*
X53359Y76834D01*
X53689Y77055D01*
X53699Y77069D01*
X54301D01*
X54311Y77055D01*
X54641Y76834D01*
X55031Y76756D01*
X56016D01*
Y79351D01*
Y81945D01*
D02*
G37*
G36*
X323088Y86735D02*
X322107D01*
X322500Y86147D01*
X323088Y85754D01*
Y86735D01*
D02*
G37*
G36*
X326038D02*
X325057D01*
Y85754D01*
X325645Y86147D01*
X326038Y86735D01*
D02*
G37*
G36*
X85445Y86016D02*
X83835D01*
Y84012D01*
X84425D01*
X84815Y84090D01*
X85146Y84311D01*
X85367Y84641D01*
X85445Y85032D01*
Y86016D01*
D02*
G37*
G36*
X325057Y89685D02*
Y88703D01*
X326038D01*
X325645Y89292D01*
X325057Y89685D01*
D02*
G37*
G36*
X154016Y72805D02*
X153503Y72593D01*
X152883Y72117D01*
X152407Y71497D01*
X152195Y70984D01*
X154016D01*
Y72805D01*
D02*
G37*
G36*
X294657Y70985D02*
Y70003D01*
X295638D01*
X295245Y70592D01*
X294657Y70985D01*
D02*
G37*
G36*
X292688D02*
X292100Y70592D01*
X291707Y70003D01*
X292688D01*
Y70985D01*
D02*
G37*
G36*
X155984Y72805D02*
Y70984D01*
X157805D01*
X157593Y71497D01*
X157117Y72117D01*
X156497Y72593D01*
X155984Y72805D01*
D02*
G37*
G36*
X90366Y75016D02*
X88756D01*
Y74032D01*
X88834Y73641D01*
X89055Y73311D01*
X89385Y73090D01*
X89776Y73012D01*
X90366D01*
Y75016D01*
D02*
G37*
G36*
X110024Y72005D02*
Y71024D01*
X111005D01*
X110612Y71612D01*
X110024Y72005D01*
D02*
G37*
G36*
X108055D02*
X107467Y71612D01*
X107074Y71024D01*
X108055D01*
Y72005D01*
D02*
G37*
G36*
X314846Y73366D02*
X312484D01*
Y69984D01*
X315866D01*
Y72347D01*
X315788Y72737D01*
X315567Y73067D01*
X315237Y73289D01*
X314846Y73366D01*
D02*
G37*
G36*
X157805Y69016D02*
X155984D01*
Y67195D01*
X156497Y67407D01*
X157117Y67883D01*
X157593Y68503D01*
X157805Y69016D01*
D02*
G37*
G36*
X154016D02*
X152195D01*
X152407Y68503D01*
X152883Y67883D01*
X153503Y67407D01*
X154016Y67195D01*
Y69016D01*
D02*
G37*
G36*
X295638Y68035D02*
X294657D01*
Y67054D01*
X295245Y67447D01*
X295638Y68035D01*
D02*
G37*
G36*
X323079Y71921D02*
X322272D01*
X321881Y71844D01*
X321551Y71623D01*
X321330Y71292D01*
X321252Y70902D01*
Y69484D01*
X323079D01*
Y71921D01*
D02*
G37*
G36*
X285492Y71201D02*
X284114D01*
Y69984D01*
X286512D01*
Y70181D01*
X286434Y70571D01*
X286213Y70902D01*
X285882Y71123D01*
X285492Y71201D01*
D02*
G37*
G36*
X310516Y73366D02*
X308154D01*
X307763Y73289D01*
X307433Y73067D01*
X307211Y72737D01*
X307134Y72347D01*
Y69984D01*
X310516D01*
Y73366D01*
D02*
G37*
G36*
X325854Y71921D02*
X325047D01*
Y69484D01*
X326874D01*
Y70902D01*
X326796Y71292D01*
X326575Y71623D01*
X326244Y71844D01*
X325854Y71921D01*
D02*
G37*
G36*
X93945Y75016D02*
X92335D01*
Y73012D01*
X92925D01*
X93315Y73090D01*
X93646Y73311D01*
X93867Y73641D01*
X93945Y74032D01*
Y75016D01*
D02*
G37*
G36*
X349516Y80370D02*
X346957D01*
X346567Y80292D01*
X346236Y80071D01*
X346015Y79741D01*
X345937Y79351D01*
Y77973D01*
X349516D01*
Y80370D01*
D02*
G37*
G36*
X354043D02*
X351484D01*
Y77973D01*
X355063D01*
Y79351D01*
X354985Y79741D01*
X354764Y80071D01*
X354433Y80292D01*
X354043Y80370D01*
D02*
G37*
G36*
X58968Y81945D02*
X57984D01*
Y80335D01*
X59988D01*
Y80925D01*
X59910Y81315D01*
X59689Y81646D01*
X59359Y81867D01*
X58968Y81945D01*
D02*
G37*
G36*
X50016D02*
X49031D01*
X48641Y81867D01*
X48311Y81646D01*
X48090Y81315D01*
X48012Y80925D01*
Y80335D01*
X50016D01*
Y81945D01*
D02*
G37*
G36*
X83573Y82326D02*
X82805Y82173D01*
X82153Y81738D01*
X81718Y81087D01*
X81565Y80319D01*
X81572Y80284D01*
X81202Y79854D01*
X78271D01*
Y80225D01*
X78210Y80532D01*
X78036Y80792D01*
X77776Y80966D01*
X77468Y81027D01*
X73531D01*
X73224Y80966D01*
X72964Y80792D01*
X72790Y80532D01*
X72729Y80225D01*
Y77075D01*
X72790Y76768D01*
X72964Y76507D01*
X73224Y76333D01*
X73531Y76272D01*
X77468D01*
X77776Y76333D01*
X78036Y76507D01*
X78210Y76768D01*
X78271Y77075D01*
Y77445D01*
X81903D01*
X81903Y77445D01*
X82364Y77537D01*
X82755Y77798D01*
X83319Y78363D01*
X83573Y78312D01*
X84341Y78465D01*
X84992Y78900D01*
X85427Y79551D01*
X85580Y80319D01*
X85427Y81087D01*
X84992Y81738D01*
X84341Y82173D01*
X83573Y82326D01*
D02*
G37*
G36*
X92925Y78988D02*
X92335D01*
Y76984D01*
X93945D01*
Y77969D01*
X93867Y78359D01*
X93646Y78689D01*
X93315Y78911D01*
X92925Y78988D01*
D02*
G37*
G36*
X355063Y76004D02*
X351484D01*
Y73606D01*
X354043D01*
X354433Y73684D01*
X354764Y73905D01*
X354985Y74236D01*
X355063Y74626D01*
Y76004D01*
D02*
G37*
G36*
X349516D02*
X345937D01*
Y74626D01*
X346015Y74236D01*
X346236Y73905D01*
X346567Y73684D01*
X346957Y73606D01*
X349516D01*
Y76004D01*
D02*
G37*
G36*
X90366Y78988D02*
X89776D01*
X89385Y78911D01*
X89055Y78689D01*
X88834Y78359D01*
X88756Y77969D01*
Y76984D01*
X90366D01*
Y78988D01*
D02*
G37*
G36*
X59988Y78366D02*
X57984D01*
Y76756D01*
X58968D01*
X59359Y76834D01*
X59689Y77055D01*
X59910Y77385D01*
X59988Y77776D01*
Y78366D01*
D02*
G37*
G36*
X50016D02*
X48012D01*
Y77776D01*
X48090Y77385D01*
X48311Y77055D01*
X48641Y76834D01*
X49031Y76756D01*
X50016D01*
Y78366D01*
D02*
G37*
G36*
X130984Y12805D02*
Y10984D01*
X132805D01*
X132593Y11497D01*
X132117Y12117D01*
X131497Y12593D01*
X130984Y12805D01*
D02*
G37*
G36*
X139016D02*
X138503Y12593D01*
X137883Y12117D01*
X137407Y11497D01*
X137195Y10984D01*
X139016D01*
Y12805D01*
D02*
G37*
G36*
X120984D02*
Y10984D01*
X122805D01*
X122593Y11497D01*
X122117Y12117D01*
X121497Y12593D01*
X120984Y12805D01*
D02*
G37*
G36*
X129016D02*
X128503Y12593D01*
X127883Y12117D01*
X127407Y11497D01*
X127195Y10984D01*
X129016D01*
Y12805D01*
D02*
G37*
G36*
X150984D02*
Y10984D01*
X152805D01*
X152593Y11497D01*
X152117Y12117D01*
X151497Y12593D01*
X150984Y12805D01*
D02*
G37*
G36*
X159016D02*
X158503Y12593D01*
X157883Y12117D01*
X157407Y11497D01*
X157195Y10984D01*
X159016D01*
Y12805D01*
D02*
G37*
G36*
X140984D02*
Y10984D01*
X142805D01*
X142593Y11497D01*
X142117Y12117D01*
X141497Y12593D01*
X140984Y12805D01*
D02*
G37*
G36*
X149016D02*
X148503Y12593D01*
X147883Y12117D01*
X147407Y11497D01*
X147195Y10984D01*
X149016D01*
Y12805D01*
D02*
G37*
G36*
X90984D02*
Y10984D01*
X92805D01*
X92593Y11497D01*
X92117Y12117D01*
X91497Y12593D01*
X90984Y12805D01*
D02*
G37*
G36*
X99016D02*
X98503Y12593D01*
X97883Y12117D01*
X97407Y11497D01*
X97195Y10984D01*
X99016D01*
Y12805D01*
D02*
G37*
G36*
X80984D02*
Y10984D01*
X82805D01*
X82593Y11497D01*
X82117Y12117D01*
X81497Y12593D01*
X80984Y12805D01*
D02*
G37*
G36*
X89016D02*
X88503Y12593D01*
X87883Y12117D01*
X87407Y11497D01*
X87195Y10984D01*
X89016D01*
Y12805D01*
D02*
G37*
G36*
X110984D02*
Y10984D01*
X112805D01*
X112593Y11497D01*
X112117Y12117D01*
X111497Y12593D01*
X110984Y12805D01*
D02*
G37*
G36*
X119016D02*
X118503Y12593D01*
X117883Y12117D01*
X117407Y11497D01*
X117195Y10984D01*
X119016D01*
Y12805D01*
D02*
G37*
G36*
X100984D02*
Y10984D01*
X102805D01*
X102593Y11497D01*
X102117Y12117D01*
X101497Y12593D01*
X100984Y12805D01*
D02*
G37*
G36*
X109016D02*
X108503Y12593D01*
X107883Y12117D01*
X107407Y11497D01*
X107195Y10984D01*
X109016D01*
Y12805D01*
D02*
G37*
G36*
X160984D02*
Y10984D01*
X162805D01*
X162593Y11497D01*
X162117Y12117D01*
X161497Y12593D01*
X160984Y12805D01*
D02*
G37*
G36*
X26516Y15569D02*
X26365Y15550D01*
X25308Y15112D01*
X24400Y14415D01*
X23703Y13507D01*
X23265Y12449D01*
X23246Y12299D01*
X26516D01*
Y15569D01*
D02*
G37*
G36*
X28484D02*
Y12299D01*
X31754D01*
X31734Y12449D01*
X31297Y13507D01*
X30600Y14415D01*
X29692Y15112D01*
X28635Y15550D01*
X28484Y15569D01*
D02*
G37*
G36*
X209016Y12805D02*
X208503Y12593D01*
X207883Y12117D01*
X207407Y11497D01*
X207195Y10984D01*
X209016D01*
Y12805D01*
D02*
G37*
G36*
X210984D02*
Y10984D01*
X212805D01*
X212593Y11497D01*
X212117Y12117D01*
X211497Y12593D01*
X210984Y12805D01*
D02*
G37*
G36*
X316319Y17890D02*
X312937D01*
Y14508D01*
X315299D01*
X315689Y14586D01*
X316020Y14807D01*
X316241Y15137D01*
X316319Y15528D01*
Y17890D01*
D02*
G37*
G36*
X27500Y25327D02*
X26421Y25185D01*
X25415Y24768D01*
X24552Y24106D01*
X23889Y23242D01*
X23472Y22237D01*
X23330Y21158D01*
X23472Y20078D01*
X23889Y19073D01*
X24552Y18209D01*
X25415Y17547D01*
X26421Y17130D01*
X27500Y16988D01*
X28579Y17130D01*
X29585Y17547D01*
X30448Y18209D01*
X31111Y19073D01*
X31527Y20078D01*
X31670Y21158D01*
X31527Y22237D01*
X31111Y23242D01*
X30448Y24106D01*
X29585Y24768D01*
X28579Y25185D01*
X27500Y25327D01*
D02*
G37*
G36*
X296152Y14026D02*
X296073Y14021D01*
X296047Y14025D01*
X296021Y14021D01*
X295942Y14026D01*
X295171Y13925D01*
X295097Y13899D01*
X295071Y13896D01*
X295047Y13886D01*
X294969Y13871D01*
X294251Y13573D01*
X294185Y13529D01*
X294161Y13519D01*
X294140Y13503D01*
X294069Y13468D01*
X293453Y12995D01*
X293400Y12935D01*
X293380Y12920D01*
X293364Y12899D01*
X293304Y12847D01*
X292831Y12230D01*
X292796Y12159D01*
X292780Y12138D01*
X292770Y12114D01*
X292726Y12048D01*
X292429Y11330D01*
X292413Y11253D01*
X292403Y11228D01*
X292400Y11203D01*
X292374Y11128D01*
X292273Y10357D01*
X292276Y10304D01*
X292266Y10252D01*
X292276Y10200D01*
X292273Y10147D01*
X292374Y9376D01*
X292400Y9302D01*
X292403Y9276D01*
X292413Y9252D01*
X292429Y9174D01*
X292726Y8456D01*
X292770Y8390D01*
X292780Y8366D01*
X292796Y8345D01*
X292831Y8274D01*
X293304Y7657D01*
X293364Y7605D01*
X293380Y7585D01*
X293400Y7569D01*
X293453Y7509D01*
X294069Y7036D01*
X294140Y7001D01*
X294161Y6985D01*
X294185Y6975D01*
X294251Y6931D01*
X294969Y6634D01*
X295047Y6618D01*
X295071Y6608D01*
X295097Y6605D01*
X295171Y6579D01*
X295942Y6478D01*
X296021Y6483D01*
X296047Y6480D01*
X296073Y6483D01*
X296152Y6478D01*
X296923Y6579D01*
X296998Y6605D01*
X297024Y6608D01*
X297048Y6618D01*
X297125Y6634D01*
X297844Y6931D01*
X297909Y6975D01*
X297933Y6985D01*
X297954Y7001D01*
X298025Y7036D01*
X298642Y7509D01*
X298694Y7569D01*
X298715Y7585D01*
X298730Y7605D01*
X298790Y7657D01*
X299263Y8274D01*
X299298Y8345D01*
X299314Y8366D01*
X299324Y8390D01*
X299368Y8456D01*
X299666Y9174D01*
X299681Y9252D01*
X299691Y9276D01*
X299694Y9302D01*
X299720Y9376D01*
X299821Y10147D01*
X299818Y10200D01*
X299828Y10252D01*
X299818Y10304D01*
X299821Y10357D01*
X299720Y11128D01*
X299694Y11203D01*
X299691Y11228D01*
X299681Y11253D01*
X299666Y11330D01*
X299368Y12048D01*
X299324Y12114D01*
X299314Y12138D01*
X299298Y12159D01*
X299263Y12230D01*
X298790Y12847D01*
X298730Y12899D01*
X298715Y12920D01*
X298694Y12935D01*
X298642Y12995D01*
X298025Y13468D01*
X297954Y13503D01*
X297933Y13519D01*
X297909Y13529D01*
X297844Y13573D01*
X297125Y13871D01*
X297048Y13886D01*
X297024Y13896D01*
X296998Y13899D01*
X296923Y13925D01*
X296152Y14026D01*
D02*
G37*
G36*
X310968Y17890D02*
X307587D01*
Y15528D01*
X307664Y15137D01*
X307885Y14807D01*
X308216Y14586D01*
X308606Y14508D01*
X310968D01*
Y17890D01*
D02*
G37*
G36*
X179016Y12805D02*
X178503Y12593D01*
X177883Y12117D01*
X177407Y11497D01*
X177195Y10984D01*
X179016D01*
Y12805D01*
D02*
G37*
G36*
X180984D02*
Y10984D01*
X182805D01*
X182593Y11497D01*
X182117Y12117D01*
X181497Y12593D01*
X180984Y12805D01*
D02*
G37*
G36*
X169016D02*
X168503Y12593D01*
X167883Y12117D01*
X167407Y11497D01*
X167195Y10984D01*
X169016D01*
Y12805D01*
D02*
G37*
G36*
X170984D02*
Y10984D01*
X172805D01*
X172593Y11497D01*
X172117Y12117D01*
X171497Y12593D01*
X170984Y12805D01*
D02*
G37*
G36*
X199016D02*
X198503Y12593D01*
X197883Y12117D01*
X197407Y11497D01*
X197195Y10984D01*
X199016D01*
Y12805D01*
D02*
G37*
G36*
X200984D02*
Y10984D01*
X202805D01*
X202593Y11497D01*
X202117Y12117D01*
X201497Y12593D01*
X200984Y12805D01*
D02*
G37*
G36*
X189016D02*
X188503Y12593D01*
X187883Y12117D01*
X187407Y11497D01*
X187195Y10984D01*
X189016D01*
Y12805D01*
D02*
G37*
G36*
X190984D02*
Y10984D01*
X192805D01*
X192593Y11497D01*
X192117Y12117D01*
X191497Y12593D01*
X190984Y12805D01*
D02*
G37*
G36*
X119016Y9016D02*
X117195D01*
X117407Y8503D01*
X117883Y7883D01*
X118503Y7407D01*
X119016Y7195D01*
Y9016D01*
D02*
G37*
G36*
X122805D02*
X120984D01*
Y7195D01*
X121497Y7407D01*
X122117Y7883D01*
X122593Y8503D01*
X122805Y9016D01*
D02*
G37*
G36*
X109016D02*
X107195D01*
X107407Y8503D01*
X107883Y7883D01*
X108503Y7407D01*
X109016Y7195D01*
Y9016D01*
D02*
G37*
G36*
X112805D02*
X110984D01*
Y7195D01*
X111497Y7407D01*
X112117Y7883D01*
X112593Y8503D01*
X112805Y9016D01*
D02*
G37*
G36*
X139016D02*
X137195D01*
X137407Y8503D01*
X137883Y7883D01*
X138503Y7407D01*
X139016Y7195D01*
Y9016D01*
D02*
G37*
G36*
X142805D02*
X140984D01*
Y7195D01*
X141497Y7407D01*
X142117Y7883D01*
X142593Y8503D01*
X142805Y9016D01*
D02*
G37*
G36*
X129016D02*
X127195D01*
X127407Y8503D01*
X127883Y7883D01*
X128503Y7407D01*
X129016Y7195D01*
Y9016D01*
D02*
G37*
G36*
X132805D02*
X130984D01*
Y7195D01*
X131497Y7407D01*
X132117Y7883D01*
X132593Y8503D01*
X132805Y9016D01*
D02*
G37*
G36*
X79016D02*
X77195D01*
X77407Y8503D01*
X77883Y7883D01*
X78503Y7407D01*
X79016Y7195D01*
Y9016D01*
D02*
G37*
G36*
X82805D02*
X80984D01*
Y7195D01*
X81497Y7407D01*
X82117Y7883D01*
X82593Y8503D01*
X82805Y9016D01*
D02*
G37*
G36*
X26516Y10331D02*
X23246D01*
X23265Y10180D01*
X23703Y9123D01*
X24400Y8215D01*
X25308Y7518D01*
X26365Y7080D01*
X26516Y7061D01*
Y10331D01*
D02*
G37*
G36*
X31754D02*
X28484D01*
Y7061D01*
X28635Y7080D01*
X29692Y7518D01*
X30600Y8215D01*
X31297Y9123D01*
X31734Y10180D01*
X31754Y10331D01*
D02*
G37*
G36*
X99016Y9016D02*
X97195D01*
X97407Y8503D01*
X97883Y7883D01*
X98503Y7407D01*
X99016Y7195D01*
Y9016D01*
D02*
G37*
G36*
X102805D02*
X100984D01*
Y7195D01*
X101497Y7407D01*
X102117Y7883D01*
X102593Y8503D01*
X102805Y9016D01*
D02*
G37*
G36*
X89016D02*
X87195D01*
X87407Y8503D01*
X87883Y7883D01*
X88503Y7407D01*
X89016Y7195D01*
Y9016D01*
D02*
G37*
G36*
X92805D02*
X90984D01*
Y7195D01*
X91497Y7407D01*
X92117Y7883D01*
X92593Y8503D01*
X92805Y9016D01*
D02*
G37*
G36*
X149016D02*
X147195D01*
X147407Y8503D01*
X147883Y7883D01*
X148503Y7407D01*
X149016Y7195D01*
Y9016D01*
D02*
G37*
G36*
X202805D02*
X200984D01*
Y7195D01*
X201497Y7407D01*
X202117Y7883D01*
X202593Y8503D01*
X202805Y9016D01*
D02*
G37*
G36*
X209016D02*
X207195D01*
X207407Y8503D01*
X207883Y7883D01*
X208503Y7407D01*
X209016Y7195D01*
Y9016D01*
D02*
G37*
G36*
X192805D02*
X190984D01*
Y7195D01*
X191497Y7407D01*
X192117Y7883D01*
X192593Y8503D01*
X192805Y9016D01*
D02*
G37*
G36*
X199016D02*
X197195D01*
X197407Y8503D01*
X197883Y7883D01*
X198503Y7407D01*
X199016Y7195D01*
Y9016D01*
D02*
G37*
G36*
X59055Y38432D02*
X56738Y38249D01*
X54479Y37707D01*
X52332Y36817D01*
X50350Y35603D01*
X48583Y34094D01*
X47074Y32327D01*
X45860Y30345D01*
X44971Y28198D01*
X44428Y25939D01*
X44246Y23622D01*
X44428Y21305D01*
X44971Y19046D01*
X45860Y16899D01*
X47074Y14917D01*
X48583Y13150D01*
X50350Y11641D01*
X52332Y10427D01*
X54479Y9538D01*
X56738Y8995D01*
X59055Y8813D01*
X61372Y8995D01*
X63631Y9538D01*
X65778Y10427D01*
X67760Y11641D01*
X69527Y13150D01*
X71036Y14917D01*
X72250Y16899D01*
X73140Y19046D01*
X73682Y21305D01*
X73865Y23622D01*
X73682Y25939D01*
X73140Y28198D01*
X72250Y30345D01*
X71036Y32327D01*
X69527Y34094D01*
X67760Y35603D01*
X65778Y36817D01*
X63631Y37707D01*
X61372Y38249D01*
X59055Y38432D01*
D02*
G37*
G36*
X79016Y12805D02*
X78503Y12593D01*
X77883Y12117D01*
X77407Y11497D01*
X77195Y10984D01*
X79016D01*
Y12805D01*
D02*
G37*
G36*
X212805Y9016D02*
X210984D01*
Y7195D01*
X211497Y7407D01*
X212117Y7883D01*
X212593Y8503D01*
X212805Y9016D01*
D02*
G37*
G36*
X366142Y15981D02*
X365063Y15838D01*
X364057Y15422D01*
X363193Y14759D01*
X362531Y13896D01*
X362114Y12890D01*
X361972Y11811D01*
X362114Y10732D01*
X362531Y9726D01*
X363193Y8863D01*
X364057Y8200D01*
X365063Y7784D01*
X366142Y7642D01*
X367221Y7784D01*
X368227Y8200D01*
X369090Y8863D01*
X369753Y9726D01*
X370169Y10732D01*
X370311Y11811D01*
X370169Y12890D01*
X369753Y13896D01*
X369090Y14759D01*
X368227Y15422D01*
X367221Y15838D01*
X366142Y15981D01*
D02*
G37*
G36*
X162805Y9016D02*
X160984D01*
Y7195D01*
X161497Y7407D01*
X162117Y7883D01*
X162593Y8503D01*
X162805Y9016D01*
D02*
G37*
G36*
X169016D02*
X167195D01*
X167407Y8503D01*
X167883Y7883D01*
X168503Y7407D01*
X169016Y7195D01*
Y9016D01*
D02*
G37*
G36*
X152805D02*
X150984D01*
Y7195D01*
X151497Y7407D01*
X152117Y7883D01*
X152593Y8503D01*
X152805Y9016D01*
D02*
G37*
G36*
X159016D02*
X157195D01*
X157407Y8503D01*
X157883Y7883D01*
X158503Y7407D01*
X159016Y7195D01*
Y9016D01*
D02*
G37*
G36*
X182805D02*
X180984D01*
Y7195D01*
X181497Y7407D01*
X182117Y7883D01*
X182593Y8503D01*
X182805Y9016D01*
D02*
G37*
G36*
X189016D02*
X187195D01*
X187407Y8503D01*
X187883Y7883D01*
X188503Y7407D01*
X189016Y7195D01*
Y9016D01*
D02*
G37*
G36*
X172805D02*
X170984D01*
Y7195D01*
X171497Y7407D01*
X172117Y7883D01*
X172593Y8503D01*
X172805Y9016D01*
D02*
G37*
G36*
X179016D02*
X177195D01*
X177407Y8503D01*
X177883Y7883D01*
X178503Y7407D01*
X179016Y7195D01*
Y9016D01*
D02*
G37*
G36*
X130516Y60445D02*
X129531D01*
X129141Y60367D01*
X128811Y60146D01*
X128589Y59816D01*
X128512Y59425D01*
Y59204D01*
X128012Y59069D01*
X127871Y59280D01*
X127540Y59501D01*
X127149Y59579D01*
X124984D01*
Y56000D01*
X124000D01*
Y55016D01*
X119831D01*
Y53441D01*
X119908Y53051D01*
X120129Y52720D01*
X120460Y52499D01*
X120850Y52421D01*
X122296D01*
X122530Y51984D01*
X126470D01*
X126704Y52421D01*
X127149D01*
X127540Y52499D01*
X127871Y52720D01*
X128092Y53051D01*
X128169Y53441D01*
Y55631D01*
X128669Y55766D01*
X128811Y55555D01*
X129141Y55334D01*
X129531Y55256D01*
X130516D01*
Y57850D01*
Y60445D01*
D02*
G37*
G36*
X353016Y61870D02*
X350457D01*
X350066Y61792D01*
X349736Y61571D01*
X349515Y61241D01*
X349437Y60851D01*
Y59473D01*
X353016D01*
Y61870D01*
D02*
G37*
G36*
X133468Y60445D02*
X132484D01*
Y58835D01*
X134488D01*
Y59425D01*
X134410Y59816D01*
X134189Y60146D01*
X133859Y60367D01*
X133468Y60445D01*
D02*
G37*
G36*
X165984Y62805D02*
Y60984D01*
X167805D01*
X167593Y61497D01*
X167117Y62117D01*
X166497Y62593D01*
X165984Y62805D01*
D02*
G37*
G36*
X357543Y61870D02*
X354984D01*
Y59473D01*
X358563D01*
Y60851D01*
X358485Y61241D01*
X358264Y61571D01*
X357933Y61792D01*
X357543Y61870D01*
D02*
G37*
G36*
X164016Y62805D02*
X163503Y62593D01*
X162883Y62117D01*
X162407Y61497D01*
X162195Y60984D01*
X164016D01*
Y62805D01*
D02*
G37*
G36*
X74797Y58487D02*
X72631D01*
X72241Y58409D01*
X71910Y58188D01*
X71689Y57858D01*
X71612Y57467D01*
Y55892D01*
X74797D01*
Y58487D01*
D02*
G37*
G36*
X78930D02*
X76765D01*
Y55892D01*
X79950D01*
Y57467D01*
X79873Y57858D01*
X79651Y58188D01*
X79321Y58409D01*
X78930Y58487D01*
D02*
G37*
G36*
X358563Y57504D02*
X354984D01*
Y55107D01*
X357543D01*
X357933Y55184D01*
X358264Y55405D01*
X358485Y55736D01*
X358563Y56126D01*
Y57504D01*
D02*
G37*
G36*
X134488Y56866D02*
X132484D01*
Y55256D01*
X133468D01*
X133859Y55334D01*
X134189Y55555D01*
X134410Y55885D01*
X134488Y56276D01*
Y56866D01*
D02*
G37*
G36*
X167805Y59016D02*
X165984D01*
Y57195D01*
X166497Y57407D01*
X167117Y57883D01*
X167593Y58503D01*
X167805Y59016D01*
D02*
G37*
G36*
X123016Y59579D02*
X120850D01*
X120460Y59501D01*
X120129Y59280D01*
X119908Y58949D01*
X119831Y58559D01*
Y56984D01*
X123016D01*
Y59579D01*
D02*
G37*
G36*
X164016Y59016D02*
X162195D01*
X162407Y58503D01*
X162883Y57883D01*
X163503Y57407D01*
X164016Y57195D01*
Y59016D01*
D02*
G37*
G36*
X100688Y66663D02*
X99704D01*
X99314Y66585D01*
X98983Y66364D01*
X98762Y66034D01*
X98685Y65644D01*
Y65053D01*
X100688D01*
Y66663D01*
D02*
G37*
G36*
X323079Y67516D02*
X321252D01*
Y66098D01*
X321330Y65708D01*
X321551Y65377D01*
X321881Y65157D01*
X322272Y65079D01*
X323079D01*
Y67516D01*
D02*
G37*
G36*
X344016Y66445D02*
X343031D01*
X342641Y66367D01*
X342311Y66146D01*
X342090Y65816D01*
X342012Y65425D01*
Y64835D01*
X344016D01*
Y66445D01*
D02*
G37*
G36*
X346968D02*
X345984D01*
Y64835D01*
X347988D01*
Y65425D01*
X347910Y65816D01*
X347689Y66146D01*
X347359Y66367D01*
X346968Y66445D01*
D02*
G37*
G36*
X286512Y68016D02*
X284114D01*
Y66799D01*
X285492D01*
X285882Y66877D01*
X286213Y67098D01*
X286434Y67429D01*
X286512Y67819D01*
Y68016D01*
D02*
G37*
G36*
X292688Y68035D02*
X291707D01*
X292100Y67447D01*
X292688Y67054D01*
Y68035D01*
D02*
G37*
G36*
X332000Y94507D02*
X331232Y94354D01*
X330581Y93919D01*
X330146Y93268D01*
X329993Y92500D01*
X330146Y91732D01*
X330581Y91081D01*
X330796Y90937D01*
Y83830D01*
X325110D01*
X324803Y83769D01*
X324542Y83595D01*
X324369Y83335D01*
X324307Y83028D01*
Y74563D01*
X324369Y74256D01*
X324542Y73995D01*
X324803Y73821D01*
X325110Y73760D01*
X332593D01*
X334605Y71748D01*
X334578Y71469D01*
X334404Y71209D01*
X334343Y70902D01*
Y67538D01*
X333528Y66723D01*
X330535D01*
X330392Y66938D01*
X329741Y67373D01*
X328973Y67526D01*
X328204Y67373D01*
X327553Y66938D01*
X327374Y66670D01*
X326874Y66821D01*
Y67516D01*
X325047D01*
Y65079D01*
X325854D01*
X326244Y65157D01*
X326495Y65324D01*
X326842Y65255D01*
X327036Y65166D01*
X327118Y64751D01*
X327553Y64100D01*
X328204Y63665D01*
X328973Y63512D01*
X329741Y63665D01*
X330392Y64100D01*
X330535Y64315D01*
X334027D01*
X334027Y64315D01*
X334488Y64407D01*
X334879Y64668D01*
X335507Y65296D01*
X338728D01*
X339036Y65357D01*
X339296Y65531D01*
X339470Y65791D01*
X339531Y66098D01*
Y67296D01*
X340072D01*
X340072Y67296D01*
X340533Y67387D01*
X340924Y67649D01*
X341741Y68465D01*
X342283Y68300D01*
X342290Y68268D01*
X342464Y68007D01*
X342724Y67833D01*
X343031Y67772D01*
X346968D01*
X347276Y67833D01*
X347536Y68007D01*
X347710Y68268D01*
X347771Y68575D01*
Y68945D01*
X349654D01*
Y67150D01*
X349715Y66842D01*
X349889Y66582D01*
X350149Y66408D01*
X350457Y66347D01*
X357543D01*
X357851Y66408D01*
X358111Y66582D01*
X358285Y66842D01*
X358346Y67150D01*
Y71874D01*
X358285Y72181D01*
X358111Y72442D01*
X357851Y72616D01*
X357543Y72677D01*
X350457D01*
X350149Y72616D01*
X349889Y72442D01*
X349715Y72181D01*
X349654Y71874D01*
Y71354D01*
X347771D01*
Y71724D01*
X347710Y72032D01*
X347536Y72292D01*
X347276Y72466D01*
X346968Y72527D01*
X343031D01*
X342724Y72466D01*
X342464Y72292D01*
X342290Y72032D01*
X342229Y71724D01*
Y71354D01*
X341722D01*
X341722Y71354D01*
X341261Y71262D01*
X340871Y71001D01*
X340871Y71001D01*
X340031Y70162D01*
X339531Y70369D01*
Y70902D01*
X339470Y71209D01*
X339296Y71469D01*
X339036Y71643D01*
X338728Y71705D01*
X337966D01*
X337789Y71971D01*
X337788Y71971D01*
X336461Y73298D01*
X336652Y73760D01*
X338890D01*
X339197Y73821D01*
X339457Y73995D01*
X339631Y74256D01*
X339692Y74563D01*
Y83028D01*
X339631Y83335D01*
X339457Y83595D01*
X339197Y83769D01*
X338890Y83830D01*
X333204D01*
Y90937D01*
X333419Y91081D01*
X333854Y91732D01*
X334007Y92500D01*
X333854Y93268D01*
X333419Y93919D01*
X332768Y94354D01*
X332000Y94507D01*
D02*
G37*
G36*
X100688Y63084D02*
X98685D01*
Y62494D01*
X98762Y62104D01*
X98983Y61773D01*
X99314Y61552D01*
X99704Y61474D01*
X100688D01*
Y63084D01*
D02*
G37*
G36*
X344016Y62866D02*
X342012D01*
Y62276D01*
X342090Y61885D01*
X342311Y61555D01*
X342641Y61334D01*
X343031Y61256D01*
X344016D01*
Y62866D01*
D02*
G37*
G36*
X347988D02*
X345984D01*
Y61256D01*
X346968D01*
X347359Y61334D01*
X347689Y61555D01*
X347910Y61885D01*
X347988Y62276D01*
Y62866D01*
D02*
G37*
G36*
X310516Y68016D02*
X307134D01*
Y65654D01*
X307211Y65263D01*
X307433Y64933D01*
X307763Y64712D01*
X308154Y64634D01*
X310516D01*
Y68016D01*
D02*
G37*
G36*
X315866D02*
X312484D01*
Y64634D01*
X314846D01*
X315237Y64712D01*
X315567Y64933D01*
X315788Y65263D01*
X315866Y65654D01*
Y68016D01*
D02*
G37*
G36*
X77468Y74728D02*
X73531D01*
X73224Y74667D01*
X72964Y74493D01*
X72790Y74233D01*
X72729Y73925D01*
Y70776D01*
X72790Y70468D01*
X72964Y70208D01*
X73224Y70034D01*
X73531Y69973D01*
X74296D01*
Y69100D01*
X74296Y69100D01*
X74212Y68999D01*
X72631D01*
X72324Y68937D01*
X72064Y68763D01*
X71890Y68503D01*
X71829Y68196D01*
Y63078D01*
X71890Y62770D01*
X72064Y62510D01*
X72324Y62336D01*
X72631Y62275D01*
X78930D01*
X79238Y62336D01*
X79498Y62510D01*
X79672Y62770D01*
X79733Y63078D01*
Y68196D01*
X79672Y68503D01*
X79498Y68763D01*
X79238Y68937D01*
X78930Y68999D01*
X76950D01*
X76894Y69280D01*
X76765Y69473D01*
X76923Y69973D01*
X77468D01*
X77776Y70034D01*
X78036Y70208D01*
X78210Y70468D01*
X78271Y70776D01*
Y73925D01*
X78210Y74233D01*
X78036Y74493D01*
X77776Y74667D01*
X77468Y74728D01*
D02*
G37*
G36*
X295699Y64152D02*
X295620Y64147D01*
X295594Y64151D01*
X295568Y64147D01*
X295490Y64152D01*
X294719Y64051D01*
X294644Y64025D01*
X294618Y64022D01*
X294594Y64012D01*
X294516Y63997D01*
X293798Y63699D01*
X293732Y63655D01*
X293708Y63645D01*
X293688Y63629D01*
X293617Y63594D01*
X293000Y63121D01*
X292948Y63061D01*
X292927Y63046D01*
X292911Y63025D01*
X292851Y62973D01*
X292378Y62356D01*
X292343Y62285D01*
X292327Y62264D01*
X292317Y62240D01*
X292273Y62174D01*
X291976Y61456D01*
X291960Y61379D01*
X291950Y61354D01*
X291947Y61329D01*
X291922Y61254D01*
X291820Y60483D01*
X291824Y60430D01*
X291813Y60378D01*
X291824Y60326D01*
X291820Y60273D01*
X291922Y59503D01*
X291947Y59428D01*
X291950Y59402D01*
X291960Y59378D01*
X291976Y59300D01*
X292273Y58582D01*
X292317Y58516D01*
X292327Y58492D01*
X292343Y58471D01*
X292378Y58400D01*
X292851Y57783D01*
X292911Y57731D01*
X292927Y57711D01*
X292948Y57695D01*
X293000Y57635D01*
X293617Y57162D01*
X293688Y57127D01*
X293708Y57111D01*
X293732Y57101D01*
X293798Y57057D01*
X294516Y56760D01*
X294594Y56744D01*
X294618Y56734D01*
X294644Y56731D01*
X294719Y56705D01*
X295490Y56604D01*
X295568Y56609D01*
X295594Y56606D01*
X295620Y56609D01*
X295699Y56604D01*
X296470Y56705D01*
X296545Y56731D01*
X296571Y56734D01*
X296595Y56744D01*
X296672Y56760D01*
X297391Y57057D01*
X297457Y57101D01*
X297481Y57111D01*
X297501Y57127D01*
X297572Y57162D01*
X298189Y57635D01*
X298241Y57695D01*
X298262Y57711D01*
X298278Y57731D01*
X298337Y57783D01*
X298811Y58400D01*
X298846Y58471D01*
X298861Y58492D01*
X298871Y58516D01*
X298915Y58582D01*
X299213Y59300D01*
X299228Y59378D01*
X299238Y59402D01*
X299242Y59428D01*
X299267Y59503D01*
X299369Y60273D01*
X299365Y60326D01*
X299375Y60378D01*
X299365Y60430D01*
X299369Y60483D01*
X299267Y61254D01*
X299242Y61329D01*
X299238Y61354D01*
X299228Y61379D01*
X299213Y61456D01*
X298915Y62174D01*
X298871Y62240D01*
X298861Y62264D01*
X298846Y62285D01*
X298811Y62356D01*
X298337Y62973D01*
X298278Y63025D01*
X298262Y63046D01*
X298241Y63061D01*
X298189Y63121D01*
X297572Y63594D01*
X297501Y63629D01*
X297481Y63645D01*
X297457Y63655D01*
X297391Y63699D01*
X296672Y63997D01*
X296595Y64012D01*
X296571Y64022D01*
X296545Y64025D01*
X296470Y64051D01*
X295699Y64152D01*
D02*
G37*
G36*
X370396Y40354D02*
X367126D01*
Y37084D01*
X367276Y37104D01*
X368334Y37542D01*
X369242Y38239D01*
X369938Y39147D01*
X370376Y40204D01*
X370396Y40354D01*
D02*
G37*
G36*
X332380Y42516D02*
X330721D01*
Y40500D01*
X330798Y40110D01*
X331019Y39779D01*
X331350Y39558D01*
X331740Y39481D01*
X332380D01*
Y42516D01*
D02*
G37*
G36*
X27500Y45012D02*
X26421Y44870D01*
X25415Y44453D01*
X24552Y43791D01*
X23889Y42927D01*
X23472Y41922D01*
X23330Y40843D01*
X23472Y39763D01*
X23889Y38758D01*
X24552Y37894D01*
X25415Y37232D01*
X26421Y36815D01*
X27500Y36673D01*
X28579Y36815D01*
X29585Y37232D01*
X30448Y37894D01*
X31111Y38758D01*
X31527Y39763D01*
X31670Y40843D01*
X31527Y41922D01*
X31111Y42927D01*
X30448Y43791D01*
X29585Y44453D01*
X28579Y44870D01*
X27500Y45012D01*
D02*
G37*
G36*
X365158Y40354D02*
X361887D01*
X361907Y40204D01*
X362345Y39147D01*
X363042Y38239D01*
X363950Y37542D01*
X365007Y37104D01*
X365158Y37084D01*
Y40354D01*
D02*
G37*
G36*
X367126Y45593D02*
Y42323D01*
X370396D01*
X370376Y42473D01*
X369938Y43531D01*
X369242Y44439D01*
X368334Y45135D01*
X367276Y45573D01*
X367126Y45593D01*
D02*
G37*
G36*
X336008Y42516D02*
X334348D01*
Y39481D01*
X334988D01*
X335378Y39558D01*
X335709Y39779D01*
X335930Y40110D01*
X336008Y40500D01*
Y42516D01*
D02*
G37*
G36*
X365158Y45593D02*
X365007Y45573D01*
X363950Y45135D01*
X363042Y44439D01*
X362345Y43531D01*
X361907Y42473D01*
X361887Y42323D01*
X365158D01*
Y45593D01*
D02*
G37*
G36*
X366142Y35666D02*
X365063Y35524D01*
X364057Y35107D01*
X363193Y34444D01*
X362531Y33581D01*
X362114Y32575D01*
X361972Y31496D01*
X362114Y30417D01*
X362531Y29411D01*
X363193Y28548D01*
X364057Y27885D01*
X365063Y27469D01*
X366142Y27327D01*
X367221Y27469D01*
X368227Y27885D01*
X369090Y28548D01*
X369753Y29411D01*
X370169Y30417D01*
X370311Y31496D01*
X370169Y32575D01*
X369753Y33581D01*
X369090Y34444D01*
X368227Y35107D01*
X367221Y35524D01*
X366142Y35666D01*
D02*
G37*
G36*
X301953Y38044D02*
X300874Y37901D01*
X299868Y37485D01*
X299004Y36822D01*
X298342Y35959D01*
X297925Y34953D01*
X297783Y33874D01*
X297925Y32795D01*
X298342Y31789D01*
X299004Y30926D01*
X299868Y30263D01*
X300874Y29847D01*
X301953Y29705D01*
X303032Y29847D01*
X304037Y30263D01*
X304901Y30926D01*
X305564Y31789D01*
X305980Y32795D01*
X306122Y33874D01*
X305980Y34953D01*
X305564Y35959D01*
X304901Y36822D01*
X304037Y37485D01*
X303032Y37901D01*
X301953Y38044D01*
D02*
G37*
G36*
X366142Y25823D02*
X365063Y25681D01*
X364057Y25264D01*
X363193Y24602D01*
X362531Y23738D01*
X362114Y22733D01*
X361972Y21654D01*
X362114Y20574D01*
X362531Y19569D01*
X363193Y18705D01*
X364057Y18043D01*
X365063Y17626D01*
X366142Y17484D01*
X367221Y17626D01*
X368227Y18043D01*
X369090Y18705D01*
X369753Y19569D01*
X370169Y20574D01*
X370311Y21654D01*
X370169Y22733D01*
X369753Y23738D01*
X369090Y24602D01*
X368227Y25264D01*
X367221Y25681D01*
X366142Y25823D01*
D02*
G37*
G36*
X27500Y35170D02*
X26421Y35028D01*
X25415Y34611D01*
X24552Y33948D01*
X23889Y33085D01*
X23472Y32079D01*
X23330Y31000D01*
X23472Y29921D01*
X23889Y28915D01*
X24552Y28052D01*
X25415Y27389D01*
X26421Y26973D01*
X27500Y26831D01*
X28579Y26973D01*
X29585Y27389D01*
X30448Y28052D01*
X31111Y28915D01*
X31527Y29921D01*
X31670Y31000D01*
X31527Y32079D01*
X31111Y33085D01*
X30448Y33948D01*
X29585Y34611D01*
X28579Y35028D01*
X27500Y35170D01*
D02*
G37*
G36*
X194016Y37805D02*
X193503Y37593D01*
X192883Y37117D01*
X192407Y36497D01*
X192195Y35984D01*
X194016D01*
Y37805D01*
D02*
G37*
G36*
X195984D02*
Y35984D01*
X197805D01*
X197593Y36497D01*
X197117Y37117D01*
X196497Y37593D01*
X195984Y37805D01*
D02*
G37*
G36*
X194016Y34016D02*
X192195D01*
X192407Y33503D01*
X192883Y32883D01*
X193503Y32407D01*
X194016Y32195D01*
Y34016D01*
D02*
G37*
G36*
X197805D02*
X195984D01*
Y32195D01*
X196497Y32407D01*
X197117Y32883D01*
X197593Y33503D01*
X197805Y34016D01*
D02*
G37*
G36*
X332380Y47520D02*
X331740D01*
X331350Y47442D01*
X331019Y47221D01*
X330798Y46890D01*
X330721Y46500D01*
Y44484D01*
X332380D01*
Y47520D01*
D02*
G37*
G36*
X175984Y52805D02*
Y50984D01*
X177805D01*
X177593Y51497D01*
X177117Y52117D01*
X176497Y52593D01*
X175984Y52805D01*
D02*
G37*
G36*
X74797Y53924D02*
X71612D01*
Y52349D01*
X71689Y51959D01*
X71910Y51628D01*
X72241Y51407D01*
X72631Y51330D01*
X74797D01*
Y53924D01*
D02*
G37*
G36*
X126465Y50016D02*
X125484D01*
Y49035D01*
X126072Y49428D01*
X126465Y50016D01*
D02*
G37*
G36*
X174016Y52805D02*
X173503Y52593D01*
X172883Y52117D01*
X172407Y51497D01*
X172195Y50984D01*
X174016D01*
Y52805D01*
D02*
G37*
G36*
X334988Y57020D02*
X334348D01*
Y53984D01*
X336008D01*
Y56000D01*
X335930Y56390D01*
X335709Y56721D01*
X335378Y56942D01*
X334988Y57020D01*
D02*
G37*
G36*
X353016Y57504D02*
X349437D01*
Y56126D01*
X349515Y55736D01*
X349736Y55405D01*
X350066Y55184D01*
X350457Y55107D01*
X353016D01*
Y57504D01*
D02*
G37*
G36*
X79950Y53924D02*
X76765D01*
Y51330D01*
X78930D01*
X79321Y51407D01*
X79651Y51628D01*
X79873Y51959D01*
X79950Y52349D01*
Y53924D01*
D02*
G37*
G36*
X332380Y57020D02*
X331740D01*
X331350Y56942D01*
X331019Y56721D01*
X330798Y56390D01*
X330721Y56000D01*
Y53984D01*
X332380D01*
Y57020D01*
D02*
G37*
G36*
X174016Y49016D02*
X172195D01*
X172407Y48503D01*
X172883Y47883D01*
X173503Y47407D01*
X174016Y47195D01*
Y49016D01*
D02*
G37*
G36*
X334988Y47520D02*
X334348D01*
Y44484D01*
X336008D01*
Y46500D01*
X335930Y46890D01*
X335709Y47221D01*
X335378Y47442D01*
X334988Y47520D01*
D02*
G37*
G36*
X296152Y45522D02*
X296073Y45517D01*
X296047Y45520D01*
X296021Y45517D01*
X295942Y45522D01*
X295171Y45421D01*
X295097Y45395D01*
X295071Y45392D01*
X295047Y45382D01*
X294969Y45367D01*
X294251Y45069D01*
X294185Y45025D01*
X294161Y45015D01*
X294140Y44999D01*
X294069Y44964D01*
X293453Y44491D01*
X293400Y44431D01*
X293380Y44416D01*
X293364Y44395D01*
X293304Y44343D01*
X292831Y43726D01*
X292796Y43655D01*
X292780Y43634D01*
X292770Y43610D01*
X292726Y43544D01*
X292429Y42826D01*
X292413Y42748D01*
X292403Y42724D01*
X292400Y42699D01*
X292374Y42624D01*
X292273Y41853D01*
X292276Y41800D01*
X292266Y41748D01*
X292276Y41696D01*
X292273Y41643D01*
X292374Y40872D01*
X292400Y40798D01*
X292403Y40772D01*
X292413Y40748D01*
X292429Y40670D01*
X292726Y39952D01*
X292770Y39886D01*
X292780Y39862D01*
X292796Y39841D01*
X292831Y39770D01*
X293304Y39153D01*
X293364Y39101D01*
X293380Y39081D01*
X293400Y39065D01*
X293453Y39005D01*
X294069Y38532D01*
X294140Y38497D01*
X294161Y38481D01*
X294185Y38471D01*
X294251Y38427D01*
X294969Y38130D01*
X295047Y38114D01*
X295071Y38104D01*
X295097Y38101D01*
X295171Y38075D01*
X295942Y37974D01*
X296021Y37979D01*
X296047Y37976D01*
X296073Y37979D01*
X296152Y37974D01*
X296923Y38075D01*
X296998Y38101D01*
X297024Y38104D01*
X297048Y38114D01*
X297125Y38130D01*
X297844Y38427D01*
X297909Y38471D01*
X297933Y38481D01*
X297954Y38497D01*
X298025Y38532D01*
X298642Y39005D01*
X298694Y39065D01*
X298715Y39081D01*
X298730Y39101D01*
X298790Y39153D01*
X299263Y39770D01*
X299298Y39841D01*
X299314Y39862D01*
X299324Y39886D01*
X299368Y39952D01*
X299666Y40670D01*
X299681Y40748D01*
X299691Y40772D01*
X299694Y40798D01*
X299720Y40872D01*
X299821Y41643D01*
X299818Y41696D01*
X299828Y41748D01*
X299818Y41800D01*
X299821Y41853D01*
X299720Y42624D01*
X299694Y42699D01*
X299691Y42724D01*
X299681Y42748D01*
X299666Y42826D01*
X299368Y43544D01*
X299324Y43610D01*
X299314Y43634D01*
X299298Y43655D01*
X299263Y43726D01*
X298790Y44343D01*
X298730Y44395D01*
X298715Y44416D01*
X298694Y44431D01*
X298642Y44491D01*
X298025Y44964D01*
X297954Y44999D01*
X297933Y45015D01*
X297909Y45025D01*
X297844Y45069D01*
X297125Y45367D01*
X297048Y45382D01*
X297024Y45392D01*
X296998Y45395D01*
X296923Y45421D01*
X296152Y45522D01*
D02*
G37*
G36*
X336008Y52016D02*
X334348D01*
Y48981D01*
X334988D01*
X335378Y49058D01*
X335709Y49279D01*
X335930Y49610D01*
X336008Y50000D01*
Y52016D01*
D02*
G37*
G36*
X123516Y50016D02*
X122534D01*
X122927Y49428D01*
X123516Y49035D01*
Y50016D01*
D02*
G37*
G36*
X177805Y49016D02*
X175984D01*
Y47195D01*
X176497Y47407D01*
X177117Y47883D01*
X177593Y48503D01*
X177805Y49016D01*
D02*
G37*
G36*
X332380Y52016D02*
X330721D01*
Y50000D01*
X330798Y49610D01*
X331019Y49279D01*
X331350Y49058D01*
X331740Y48981D01*
X332380D01*
Y52016D01*
D02*
G37*
G36*
X4016Y171966D02*
X3427Y171572D01*
X3035Y170984D01*
X4016D01*
Y171966D01*
D02*
G37*
G36*
X5984D02*
Y170984D01*
X6966D01*
X6572Y171572D01*
X5984Y171966D01*
D02*
G37*
G36*
X18016Y161485D02*
X17427Y161092D01*
X17034Y160503D01*
X18016D01*
Y161485D01*
D02*
G37*
G36*
X19984D02*
Y160503D01*
X20966D01*
X20572Y161092D01*
X19984Y161485D01*
D02*
G37*
G36*
X18016Y158535D02*
X17034D01*
X17427Y157947D01*
X18016Y157554D01*
Y158535D01*
D02*
G37*
G36*
X20966D02*
X19984D01*
Y157554D01*
X20572Y157947D01*
X20966Y158535D01*
D02*
G37*
G36*
X12500Y168272D02*
X11524Y168144D01*
X10614Y167767D01*
X9832Y167168D01*
X9233Y166386D01*
X8856Y165476D01*
X8727Y164500D01*
X8856Y163524D01*
X9233Y162614D01*
X9832Y161833D01*
X10614Y161233D01*
X11524Y160856D01*
X12500Y160728D01*
X13476Y160856D01*
X14386Y161233D01*
X15167Y161833D01*
X15767Y162614D01*
X16144Y163524D01*
X16272Y164500D01*
X16144Y165476D01*
X15767Y166386D01*
X15167Y167168D01*
X14386Y167767D01*
X13476Y168144D01*
X12500Y168272D01*
D02*
G37*
G36*
X6966Y169016D02*
X5984D01*
Y168035D01*
X6572Y168428D01*
X6966Y169016D01*
D02*
G37*
G36*
X4016D02*
X3035D01*
X3427Y168428D01*
X4016Y168035D01*
Y169016D01*
D02*
G37*
G36*
X15453Y158256D02*
X9547D01*
X9240Y158195D01*
X8980Y158020D01*
X8805Y157760D01*
X8744Y157453D01*
Y151547D01*
X8805Y151240D01*
X8980Y150980D01*
X9240Y150806D01*
X9547Y150744D01*
X15453D01*
X15760Y150806D01*
X16020Y150980D01*
X16194Y151240D01*
X16255Y151547D01*
Y157453D01*
X16194Y157760D01*
X16020Y158020D01*
X15760Y158195D01*
X15453Y158256D01*
D02*
G37*
G36*
X183805Y87016D02*
X181984D01*
Y85195D01*
X182497Y85407D01*
X183117Y85883D01*
X183593Y86503D01*
X183805Y87016D01*
D02*
G37*
G36*
X193805Y100516D02*
X191984D01*
Y98695D01*
X192497Y98907D01*
X193117Y99383D01*
X193593Y100003D01*
X193805Y100516D01*
D02*
G37*
G36*
X190016D02*
X188195D01*
X188407Y100003D01*
X188883Y99383D01*
X189503Y98907D01*
X190016Y98695D01*
Y100516D01*
D02*
G37*
G36*
X181984Y90805D02*
Y88984D01*
X183805D01*
X183593Y89497D01*
X183117Y90117D01*
X182497Y90593D01*
X181984Y90805D01*
D02*
G37*
G36*
X193484Y79305D02*
Y77484D01*
X195305D01*
X195093Y77997D01*
X194617Y78617D01*
X193997Y79093D01*
X193484Y79305D01*
D02*
G37*
G36*
X191516D02*
X191003Y79093D01*
X190383Y78617D01*
X189907Y77997D01*
X189695Y77484D01*
X191516D01*
Y79305D01*
D02*
G37*
G36*
Y75516D02*
X189695D01*
X189907Y75003D01*
X190383Y74383D01*
X191003Y73907D01*
X191516Y73695D01*
Y75516D01*
D02*
G37*
G36*
X195305D02*
X193484D01*
Y73695D01*
X193997Y73907D01*
X194617Y74383D01*
X195093Y75003D01*
X195305Y75516D01*
D02*
G37*
G36*
X219016Y89016D02*
X217195D01*
X217407Y88503D01*
X217883Y87883D01*
X218503Y87407D01*
X219016Y87195D01*
Y89016D01*
D02*
G37*
G36*
X222805D02*
X220984D01*
Y87195D01*
X221497Y87407D01*
X222117Y87883D01*
X222593Y88503D01*
X222805Y89016D01*
D02*
G37*
G36*
X220984Y92805D02*
Y90984D01*
X222805D01*
X222593Y91497D01*
X222117Y92117D01*
X221497Y92593D01*
X220984Y92805D01*
D02*
G37*
G36*
X219016D02*
X218503Y92593D01*
X217883Y92117D01*
X217407Y91497D01*
X217195Y90984D01*
X219016D01*
Y92805D01*
D02*
G37*
G36*
X232805Y59016D02*
X230984D01*
Y57195D01*
X231497Y57407D01*
X232117Y57883D01*
X232593Y58503D01*
X232805Y59016D01*
D02*
G37*
G36*
X229016Y62805D02*
X228503Y62593D01*
X227883Y62117D01*
X227407Y61497D01*
X227195Y60984D01*
X229016D01*
Y62805D01*
D02*
G37*
G36*
Y59016D02*
X227195D01*
X227407Y58503D01*
X227883Y57883D01*
X228503Y57407D01*
X229016Y57195D01*
Y59016D01*
D02*
G37*
G36*
X230984Y62805D02*
Y60984D01*
X232805D01*
X232593Y61497D01*
X232117Y62117D01*
X231497Y62593D01*
X230984Y62805D01*
D02*
G37*
G36*
X215984Y67805D02*
Y65984D01*
X217805D01*
X217593Y66497D01*
X217117Y67117D01*
X216497Y67593D01*
X215984Y67805D01*
D02*
G37*
G36*
X217805Y64016D02*
X215984D01*
Y62195D01*
X216497Y62407D01*
X217117Y62883D01*
X217593Y63503D01*
X217805Y64016D01*
D02*
G37*
G36*
X220984Y47805D02*
Y45984D01*
X222805D01*
X222593Y46497D01*
X222117Y47117D01*
X221497Y47593D01*
X220984Y47805D01*
D02*
G37*
G36*
X229484Y187953D02*
Y184484D01*
X232953D01*
X232926Y184686D01*
X232469Y185791D01*
X231740Y186740D01*
X230791Y187469D01*
X229686Y187926D01*
X229484Y187953D01*
D02*
G37*
G36*
X246181Y170512D02*
X245984D01*
Y168114D01*
X247201D01*
Y169492D01*
X247123Y169882D01*
X246902Y170213D01*
X246571Y170434D01*
X246181Y170512D01*
D02*
G37*
G36*
X241181D02*
X240984D01*
Y168114D01*
X242201D01*
Y169492D01*
X242123Y169882D01*
X241902Y170213D01*
X241571Y170434D01*
X241181Y170512D01*
D02*
G37*
G36*
X239016D02*
X238819D01*
X238429Y170434D01*
X238098Y170213D01*
X237877Y169882D01*
X237799Y169492D01*
Y168114D01*
X239016D01*
Y170512D01*
D02*
G37*
G36*
X244016D02*
X243819D01*
X243429Y170434D01*
X243098Y170213D01*
X242877Y169882D01*
X242799Y169492D01*
Y168114D01*
X244016D01*
Y170512D01*
D02*
G37*
G36*
X158016Y89870D02*
X155457D01*
X155067Y89793D01*
X154736Y89571D01*
X154515Y89241D01*
X154437Y88850D01*
Y87472D01*
X158016D01*
Y89870D01*
D02*
G37*
G36*
X162543D02*
X159984D01*
Y87472D01*
X163563D01*
Y88850D01*
X163485Y89241D01*
X163264Y89571D01*
X162933Y89793D01*
X162543Y89870D01*
D02*
G37*
G36*
X174248Y86378D02*
X170276D01*
Y82406D01*
X173228D01*
X173618Y82483D01*
X173949Y82704D01*
X174170Y83035D01*
X174248Y83425D01*
Y86378D01*
D02*
G37*
G36*
X148165Y108016D02*
X146555D01*
Y107032D01*
X146633Y106641D01*
X146854Y106311D01*
X147185Y106090D01*
X147575Y106012D01*
X148165D01*
Y108016D01*
D02*
G37*
G36*
X151744D02*
X150134D01*
Y106012D01*
X150724D01*
X151114Y106090D01*
X151445Y106311D01*
X151666Y106641D01*
X151744Y107032D01*
Y108016D01*
D02*
G37*
G36*
X259484Y187953D02*
Y184484D01*
X262953D01*
X262926Y184686D01*
X262469Y185791D01*
X261740Y186740D01*
X260791Y187469D01*
X259686Y187926D01*
X259484Y187953D01*
D02*
G37*
G36*
X298516Y196016D02*
X292658D01*
X292694Y195646D01*
X293089Y194345D01*
X293730Y193145D01*
X294593Y192094D01*
X295645Y191231D01*
X296845Y190589D01*
X298146Y190194D01*
X298516Y190158D01*
Y196016D01*
D02*
G37*
G36*
X306342D02*
X300484D01*
Y190158D01*
X300854Y190194D01*
X302155Y190589D01*
X303355Y191231D01*
X304406Y192094D01*
X305269Y193145D01*
X305911Y194345D01*
X306306Y195646D01*
X306342Y196016D01*
D02*
G37*
%LPD*%
D10*
X205150Y106000D02*
D03*
X198850D02*
D03*
X269350Y90000D02*
D03*
X275649D02*
D03*
X183650Y107500D02*
D03*
X177350D02*
D03*
X183650Y117500D02*
D03*
X177350D02*
D03*
X149150Y109000D02*
D03*
X142850D02*
D03*
X95350Y116500D02*
D03*
X101649D02*
D03*
X82850Y87000D02*
D03*
X89149D02*
D03*
X91350Y76000D02*
D03*
X97650D02*
D03*
X198850Y112000D02*
D03*
X205150D02*
D03*
X198350Y89500D02*
D03*
X204649D02*
D03*
Y83500D02*
D03*
X198350D02*
D03*
Y67000D02*
D03*
X204649D02*
D03*
Y61000D02*
D03*
X198350D02*
D03*
X25150Y201500D02*
D03*
X18850D02*
D03*
X25150Y196000D02*
D03*
X18850D02*
D03*
D11*
X371000Y148650D02*
D03*
Y142350D02*
D03*
X87000Y133351D02*
D03*
Y139650D02*
D03*
X108000Y133351D02*
D03*
Y139650D02*
D03*
X129000Y133351D02*
D03*
Y139650D02*
D03*
X150000Y133351D02*
D03*
Y139650D02*
D03*
X171000Y133351D02*
D03*
Y139650D02*
D03*
X192000Y133351D02*
D03*
Y139650D02*
D03*
X213000Y133351D02*
D03*
Y139650D02*
D03*
X234000Y133351D02*
D03*
Y139650D02*
D03*
X255000Y133351D02*
D03*
Y139650D02*
D03*
X276000Y133351D02*
D03*
Y139650D02*
D03*
X261000Y118650D02*
D03*
Y112350D02*
D03*
Y107650D02*
D03*
Y101350D02*
D03*
X70000Y105851D02*
D03*
Y112150D02*
D03*
Y123150D02*
D03*
Y116850D02*
D03*
X57000Y96650D02*
D03*
Y90351D02*
D03*
Y85650D02*
D03*
Y79351D02*
D03*
X51000Y85650D02*
D03*
Y79351D02*
D03*
Y96650D02*
D03*
Y90351D02*
D03*
X75500Y78650D02*
D03*
Y72351D02*
D03*
X101672Y57770D02*
D03*
Y64069D02*
D03*
X131500Y57850D02*
D03*
Y64150D02*
D03*
X31500Y183851D02*
D03*
Y190150D02*
D03*
X349500Y96851D02*
D03*
Y103150D02*
D03*
X345000Y70150D02*
D03*
Y63850D02*
D03*
D12*
X359000Y153374D02*
D03*
Y137626D02*
D03*
X343500Y153374D02*
D03*
Y137626D02*
D03*
X327500Y153374D02*
D03*
Y137626D02*
D03*
D13*
X50457Y118543D02*
D03*
X54000Y115000D02*
D03*
X50457Y111457D02*
D03*
X54000Y107913D02*
D03*
Y122087D02*
D03*
X57543Y118543D02*
D03*
Y111457D02*
D03*
D14*
X93000Y145870D02*
D03*
X98000D02*
D03*
X93000Y167130D02*
D03*
X103000D02*
D03*
X108000Y145870D02*
D03*
X103000D02*
D03*
X98000Y167130D02*
D03*
X108000D02*
D03*
X114000Y145870D02*
D03*
X119000D02*
D03*
X114000Y167130D02*
D03*
X124000D02*
D03*
X129000Y145870D02*
D03*
X124000D02*
D03*
X119000Y167130D02*
D03*
X129000D02*
D03*
X135000Y145870D02*
D03*
X140000D02*
D03*
X135000Y167130D02*
D03*
X145000D02*
D03*
X150000Y145870D02*
D03*
X145000D02*
D03*
X140000Y167130D02*
D03*
X150000D02*
D03*
X156000Y145870D02*
D03*
X161000D02*
D03*
X156000Y167130D02*
D03*
X166000D02*
D03*
X171000Y145870D02*
D03*
X166000D02*
D03*
X161000Y167130D02*
D03*
X171000D02*
D03*
X177000Y145870D02*
D03*
X182000D02*
D03*
X177000Y167130D02*
D03*
X187000D02*
D03*
X192000Y145870D02*
D03*
X187000D02*
D03*
X182000Y167130D02*
D03*
X192000D02*
D03*
X198000Y145870D02*
D03*
X203000D02*
D03*
X198000Y167130D02*
D03*
X208000D02*
D03*
X213000Y145870D02*
D03*
X208000D02*
D03*
X203000Y167130D02*
D03*
X213000D02*
D03*
X219000Y145870D02*
D03*
X224000D02*
D03*
X219000Y167130D02*
D03*
X229000D02*
D03*
X234000Y145870D02*
D03*
X229000D02*
D03*
X224000Y167130D02*
D03*
X234000D02*
D03*
X240000Y145870D02*
D03*
X245000D02*
D03*
X240000Y167130D02*
D03*
X250000D02*
D03*
X255000Y145870D02*
D03*
X250000D02*
D03*
X245000Y167130D02*
D03*
X255000D02*
D03*
X261000Y145870D02*
D03*
X266000D02*
D03*
X261000Y167130D02*
D03*
X271000D02*
D03*
X276000Y145870D02*
D03*
X271000D02*
D03*
X266000Y167130D02*
D03*
X276000D02*
D03*
X72000Y145870D02*
D03*
X77000D02*
D03*
X72000Y167130D02*
D03*
X82000D02*
D03*
X87000Y145870D02*
D03*
X82000D02*
D03*
X77000Y167130D02*
D03*
X87000D02*
D03*
D15*
X268500Y114437D02*
D03*
Y101563D02*
D03*
D16*
X283130Y69000D02*
D03*
Y79000D02*
D03*
X261870Y74000D02*
D03*
Y69000D02*
D03*
X283130Y74000D02*
D03*
Y84000D02*
D03*
X261870Y79000D02*
D03*
Y84000D02*
D03*
X325370Y128500D02*
D03*
Y118500D02*
D03*
X346630Y123500D02*
D03*
Y128500D02*
D03*
X325370Y123500D02*
D03*
Y113500D02*
D03*
X346630Y118500D02*
D03*
Y113500D02*
D03*
D17*
X159000Y86488D02*
D03*
Y97512D02*
D03*
X350500Y76988D02*
D03*
Y88012D02*
D03*
X354000Y58488D02*
D03*
Y69512D02*
D03*
D18*
X106173Y78791D02*
D03*
X108142D02*
D03*
X110110D02*
D03*
X112079D02*
D03*
X114047D02*
D03*
X116016D02*
D03*
X117984D02*
D03*
X119953D02*
D03*
X121921D02*
D03*
X123890D02*
D03*
X125858D02*
D03*
X127827D02*
D03*
Y115209D02*
D03*
X125858D02*
D03*
X123890D02*
D03*
X121921D02*
D03*
X119953D02*
D03*
X117984D02*
D03*
X116016D02*
D03*
X114047D02*
D03*
X112079D02*
D03*
X110110D02*
D03*
X108142D02*
D03*
X106173D02*
D03*
D19*
X135209Y86173D02*
D03*
Y88142D02*
D03*
Y90110D02*
D03*
Y92079D02*
D03*
Y94047D02*
D03*
Y96016D02*
D03*
Y97984D02*
D03*
Y99953D02*
D03*
Y101921D02*
D03*
Y103890D02*
D03*
Y105858D02*
D03*
Y107827D02*
D03*
X98791D02*
D03*
Y105858D02*
D03*
Y103890D02*
D03*
Y101921D02*
D03*
Y99953D02*
D03*
Y97984D02*
D03*
Y96016D02*
D03*
Y94047D02*
D03*
Y92079D02*
D03*
Y90110D02*
D03*
Y88142D02*
D03*
Y86173D02*
D03*
D20*
X75781Y65637D02*
D03*
D21*
Y54908D02*
D03*
D22*
X124000Y65055D02*
D03*
X109039D02*
D03*
Y56000D02*
D03*
X124000D02*
D03*
D23*
X17126Y186760D02*
D03*
X25000Y183020D02*
D03*
Y190500D02*
D03*
D24*
X341055Y103205D02*
D03*
X322945D02*
D03*
D25*
X332000D02*
D03*
D26*
Y78795D02*
D03*
D27*
X333364Y53000D02*
D03*
X322636D02*
D03*
X333364Y43500D02*
D03*
X322636D02*
D03*
D28*
X336937Y68500D02*
D03*
X324063D02*
D03*
D29*
X351930Y189842D02*
X370000D01*
X342268Y199504D02*
X351930Y189842D01*
X321005Y199504D02*
X342268D01*
X277500Y156000D02*
X321005Y199504D01*
X75000Y155000D02*
X85000D01*
X95000D01*
X105000D01*
X115000D01*
X125000D01*
X135000D01*
X145000D01*
X155000D01*
X165000D01*
X175000D01*
X185000D01*
X195000D01*
X205000D01*
X225000D02*
X235000D01*
X245000D01*
X255000D02*
X265000D01*
X275000D01*
X245000D02*
X255000D01*
D30*
X150711Y180711D02*
X153500Y183500D01*
X150711Y178442D02*
Y180711D01*
X143500Y171231D02*
X150711Y178442D01*
X132709Y177709D02*
X138500Y183500D01*
X131635Y177709D02*
X132709D01*
X128291Y174365D02*
X131635Y177709D01*
X128291Y173291D02*
Y174365D01*
X125500Y170500D02*
X125565Y170565D01*
X128291Y173291D01*
D31*
X168500Y175000D02*
Y183500D01*
X183500Y171000D02*
Y183500D01*
X80500Y173000D02*
X93000Y185500D01*
X198500Y176000D02*
Y183500D01*
X213500D02*
X214201D01*
X224500Y173201D01*
Y171000D02*
Y173201D01*
X93000Y185500D02*
X106500D01*
X198500Y176000D02*
X203500Y171000D01*
X164500D02*
X168500Y175000D01*
D32*
X215500Y143500D02*
X219000Y140000D01*
X215500Y143500D02*
Y172449D01*
X213949Y174000D02*
X215500Y172449D01*
X87000Y139650D02*
Y145870D01*
X108000Y139650D02*
Y145870D01*
X129000Y139650D02*
Y145870D01*
X150000Y139650D02*
Y145870D01*
X171000Y139650D02*
Y145870D01*
X192000Y139650D02*
Y145870D01*
X213000Y139650D02*
Y145870D01*
X234000Y139650D02*
Y145870D01*
X276000Y139650D02*
Y145870D01*
X255000Y139650D02*
Y145870D01*
X114500Y61461D02*
Y69500D01*
X109039Y56000D02*
X114500Y61461D01*
X114047Y69953D02*
X114500Y69500D01*
X114047Y69953D02*
Y78791D01*
X116016Y70484D02*
Y78791D01*
Y70484D02*
X121445Y65055D01*
X124000D01*
X130594D01*
X131500Y64150D01*
X102659Y65055D02*
X109039D01*
X101672Y64069D02*
X102659Y65055D01*
X101672Y57770D02*
X103942Y55500D01*
X108539D01*
X109039Y56000D01*
X124000D02*
X129649D01*
X131500Y57850D01*
X109039Y65055D02*
Y70039D01*
X124500Y51000D02*
Y55500D01*
X124000Y56000D02*
X124500Y55500D01*
X106173Y78173D02*
Y78791D01*
X97650Y76000D02*
X104000D01*
X89149Y87000D02*
X89976Y86173D01*
X82850Y87000D02*
Y89850D01*
X84000Y91000D01*
X82850Y84500D02*
X91350Y76000D01*
X82850Y84500D02*
Y87000D01*
X119953Y72547D02*
Y78791D01*
Y72547D02*
X123000Y69500D01*
X133000D01*
X136000Y66500D01*
Y62350D02*
Y66500D01*
X131500Y57850D02*
X136000Y62350D01*
X91350Y74391D02*
X101672Y64069D01*
X91350Y74391D02*
Y76000D01*
X101649Y116500D02*
X104882D01*
X95350D02*
Y119351D01*
X97500Y121500D02*
X107000D01*
X108142Y120358D01*
Y115209D02*
Y120358D01*
X135209Y107827D02*
X136382Y109000D01*
X159000Y86488D02*
X168417D01*
X169291Y87362D01*
X159150Y97362D02*
X169291D01*
X159000Y97512D02*
X159150Y97362D01*
X135209Y105858D02*
X147858D01*
X149150Y107150D01*
Y109000D01*
X169429Y117500D02*
X177350D01*
X169291Y117362D02*
X169429Y117500D01*
Y107500D02*
X177350D01*
X169291Y107362D02*
X169429Y107500D01*
X283130Y74000D02*
X301500D01*
X283130Y79000D02*
X311500D01*
X323563Y69000D02*
X324063Y68500D01*
X278000Y47827D02*
X301953Y23874D01*
X278000Y47827D02*
Y72500D01*
X279500Y74000D01*
X283130D01*
X276419Y40581D02*
X298000Y19000D01*
X304000D01*
X307000Y22000D01*
Y23921D01*
X311953Y28874D01*
X276419Y76419D02*
X279000Y79000D01*
X283130D01*
X276419Y40581D02*
Y76419D01*
X280000Y90000D02*
X283130Y86870D01*
X275649Y90000D02*
X280000D01*
X283130Y93130D02*
X286500Y96500D01*
X322945Y97945D02*
Y103205D01*
X283130Y84000D02*
Y86870D01*
Y93130D01*
X318500Y96500D02*
X318850Y96851D01*
X321850D01*
X322945Y97945D01*
X286500Y96500D02*
X318500D01*
X104882Y116500D02*
X106173Y115209D01*
X104000Y76000D02*
X106173Y78173D01*
X311500Y69000D02*
X323563D01*
X321850Y96851D02*
X349500D01*
X93358Y88142D02*
X98791D01*
X84000Y91000D02*
X88929D01*
X89600Y90328D01*
X91172D01*
X93358Y88142D01*
X219000Y136500D02*
Y140000D01*
X89976Y86173D02*
X98791D01*
X136382Y109000D02*
X142850D01*
X211000Y174000D02*
X213949D01*
X95350Y119351D02*
X97500Y121500D01*
X283130Y69000D02*
X311500D01*
D33*
X198350Y61000D02*
Y67000D01*
Y83500D02*
Y89500D01*
Y97419D01*
X198850Y97919D01*
Y106000D01*
Y112000D01*
X183650Y107500D02*
X190472D01*
X191972Y106000D01*
X198850D01*
X183650Y107500D02*
Y117500D01*
X336937Y68500D02*
X340072D01*
X341722Y70150D01*
X345000D01*
X336937Y68500D02*
Y71119D01*
X332000Y76056D02*
X336937Y71119D01*
X332000Y76056D02*
Y78795D01*
X350500Y88012D02*
Y91919D01*
X349500Y92919D02*
X350500Y91919D01*
X349500Y92919D02*
Y96851D01*
X343500Y137626D02*
X359000D01*
X329872D02*
X343500D01*
X51000Y85650D02*
Y90351D01*
X57000Y85650D02*
Y90351D01*
X18850Y196000D02*
Y201500D01*
X25000Y183020D02*
X27773D01*
X28603Y183851D01*
X31500D01*
X346630Y118500D02*
Y123500D01*
X325370Y118500D02*
Y123500D01*
X343500Y153374D02*
X359000D01*
X327500D02*
X343500D01*
X333364Y43500D02*
Y53000D01*
Y56019D01*
X324063Y65320D02*
X333364Y56019D01*
X324063Y65320D02*
Y68500D01*
X345000Y63850D02*
X346773D01*
X352135Y58488D01*
X354000D01*
X269350Y90000D02*
Y95319D01*
X268500Y96170D02*
Y101563D01*
X51212Y79351D02*
X57000D01*
X25000Y190500D02*
X28073D01*
X28423Y190150D01*
X31500D01*
X5000Y190000D02*
Y200000D01*
X75781Y65637D02*
Y68819D01*
X75500Y69100D02*
X75781Y68819D01*
X75500Y69100D02*
Y72351D01*
X70000Y112150D02*
Y116850D01*
X204649Y61000D02*
Y67000D01*
X205150Y106000D02*
Y112000D01*
X261000Y107650D02*
Y112350D01*
X263672D01*
X265759Y114437D01*
X268500D01*
X346630Y113500D02*
X352673Y107457D01*
Y100023D02*
Y107457D01*
X349500Y96851D02*
X352673Y100023D01*
X89272Y64069D02*
X101672D01*
X80112Y54908D02*
X89272Y64069D01*
X75781Y54908D02*
X80112D01*
X350500Y76988D02*
X356323D01*
X345000Y70150D02*
X351003D01*
X351641Y69512D01*
X354000D01*
X205150Y95719D02*
Y106000D01*
X64173Y116850D02*
X70000D01*
X62322Y115000D02*
X64173Y116850D01*
X54000Y115000D02*
X62322D01*
X106173Y183500D02*
X108500D01*
X106173Y185500D02*
X106500D01*
X258273Y101350D02*
X261000D01*
X258172Y126219D02*
X261000Y129046D01*
Y145870D01*
X261870Y79000D02*
X261877D01*
X333364Y62142D02*
X335072Y63850D01*
X345000D01*
X321654Y113500D02*
X325370D01*
X316504Y118650D02*
X321654Y113500D01*
X70000Y105851D02*
X73246D01*
X82850Y96246D01*
X232892Y12000D02*
X246657D01*
X214173Y30719D02*
X232892Y12000D01*
X214173Y30719D02*
Y31119D01*
X81903Y78650D02*
X83573Y80319D01*
X75500Y78650D02*
X81903D01*
X127827Y115209D02*
Y115219D01*
X151373D02*
X154072Y112519D01*
X179023D01*
X181072Y114569D01*
Y120219D01*
X181173Y120319D01*
X197123D01*
X202000Y90173D02*
X202673Y89500D01*
X204649D01*
X127573Y123119D02*
X199273D01*
X125858Y121405D02*
X127573Y123119D01*
X122672Y133351D02*
X129000D01*
X117984Y128662D02*
X122672Y133351D01*
X117984Y115209D02*
Y128662D01*
X108000Y133351D02*
X115073D01*
X116235Y132188D01*
Y119457D02*
Y132188D01*
X116016Y119238D02*
X116235Y119457D01*
X116016Y115209D02*
Y119238D01*
X93855Y97984D02*
X98791D01*
X84095Y107744D02*
X93855Y97984D01*
X76298Y107744D02*
X84095D01*
X74623Y109419D02*
X76298Y107744D01*
X66172Y109419D02*
X74623D01*
X64135Y111457D02*
X66172Y109419D01*
X57543Y111457D02*
X64135D01*
X82000Y167130D02*
Y173000D01*
X80500D02*
X82000D01*
X54000Y122087D02*
Y130292D01*
X52573Y131719D02*
X54000Y130292D01*
X50072Y131719D02*
X52573D01*
X46672Y128319D02*
X50072Y131719D01*
X46672Y80819D02*
X48141Y79351D01*
X51000D01*
X246657Y42000D02*
Y154569D01*
X316473Y40819D02*
X318572Y42919D01*
X322636D02*
Y43500D01*
X130189Y97984D02*
X135209D01*
X128479Y99694D02*
X130189Y97984D01*
X124073Y99694D02*
X128479D01*
X123898Y99519D02*
X124073Y99694D01*
X123898Y91044D02*
Y99519D01*
Y91044D02*
X134223Y80719D01*
X158939D01*
X231839Y7819D01*
X270073D01*
X271773Y9519D01*
X268500Y114437D02*
X271673D01*
X123890Y78791D02*
Y85044D01*
X122710Y86224D02*
X123890Y85044D01*
X122710Y86224D02*
Y100881D01*
X124998Y103169D01*
X152573Y125419D02*
X160504Y133351D01*
X171000D01*
X70000Y112150D02*
X75842D01*
X78272Y109719D01*
X117984Y78791D02*
Y98019D01*
X5000Y190000D02*
X13570D01*
X14070Y190500D01*
X25000D01*
X322572Y153374D02*
X327500D01*
X321322Y152124D02*
X322572Y153374D01*
X321322Y124750D02*
Y152124D01*
Y124750D02*
X322572Y123500D01*
X325370D01*
X327500Y137626D02*
X329872D01*
X329772Y113500D02*
X329872Y113600D01*
X325370Y113500D02*
X329772D01*
X359000Y137626D02*
X371679D01*
X373773Y139719D01*
Y148550D01*
X373673Y148650D02*
X373773Y148550D01*
X371000Y148650D02*
X373673D01*
X149773Y85619D02*
Y90153D01*
X139972Y99953D02*
X149773Y90153D01*
X135209Y99953D02*
X139972D01*
X183650Y106119D02*
Y107500D01*
X125858Y78791D02*
Y85883D01*
X124723Y87019D02*
X125858Y85883D01*
X186972Y132019D02*
X188304Y133351D01*
X192000D01*
X125858Y115209D02*
Y121205D01*
X127573Y122919D01*
X205172D01*
X241498Y86594D01*
X251985Y27485D02*
X256500Y32000D01*
X251985Y19772D02*
Y27485D01*
X197273Y51819D02*
X204513D01*
X177350Y71741D02*
X197273Y51819D01*
X177350Y71741D02*
Y107500D01*
Y117500D02*
Y120247D01*
X178823Y121719D01*
X200172D01*
X240310Y81581D01*
X135209Y107827D02*
X138573D01*
X87000Y133351D02*
X91272D01*
X94604Y130019D01*
X109647D01*
X115047Y124619D01*
Y121619D02*
Y124619D01*
X114047Y120619D02*
X115047Y121619D01*
X114047Y115209D02*
Y120619D01*
X76142Y123150D02*
X86645Y112647D01*
X70000Y123150D02*
X76142D01*
X336372Y102369D02*
X337622Y101119D01*
X341055D02*
Y103205D01*
X209472Y55519D02*
X214173Y50819D01*
X209472Y55519D02*
Y68319D01*
X142850Y109000D02*
X142950Y112419D01*
X152472D01*
X164073Y100819D01*
Y99012D02*
Y100819D01*
X162573Y97512D02*
X164073Y99012D01*
X159000Y97512D02*
X162573D01*
X117323Y108019D02*
X121773D01*
X111360Y102057D02*
X120072D01*
X121490Y100639D01*
Y83857D02*
Y100639D01*
Y83857D02*
X121921Y83425D01*
Y78791D02*
Y83425D01*
X44172Y148977D02*
X70000Y123150D01*
X44172Y148977D02*
Y190319D01*
X38473Y196019D02*
X44172Y190319D01*
X25150Y196000D02*
Y196019D01*
X73188Y108219D02*
X87360Y94047D01*
X67338Y108219D02*
X73188D01*
X67238Y108119D02*
X67338Y108219D01*
X67238Y95684D02*
Y108119D01*
X65073Y93519D02*
X67238Y95684D01*
X52450Y93519D02*
X65073D01*
X51000Y92069D02*
X52450Y93519D01*
X51000Y90351D02*
Y92069D01*
X18850Y201500D02*
Y202819D01*
X7773Y203219D02*
X8173Y202819D01*
X1873Y203219D02*
X7773D01*
X1773Y203119D02*
X1873Y203219D01*
X1773Y188319D02*
Y203119D01*
Y188319D02*
X3272Y186819D01*
X12463D01*
X14773Y189128D01*
X20073D01*
X48173Y64719D02*
Y70519D01*
X135209Y86173D02*
X143718D01*
X146572Y83319D01*
X163772D01*
X213580Y33511D01*
X216589D01*
X266124Y19921D02*
Y70267D01*
X264972Y71419D02*
X266124Y70267D01*
X258772Y71419D02*
X264972D01*
X258772Y84000D02*
X261870D01*
X322636Y49946D02*
Y53000D01*
X311953Y39263D02*
X322636Y49946D01*
X311953Y28874D02*
Y39263D01*
X127827Y75219D02*
Y78791D01*
X137472Y75219D02*
X186472Y26219D01*
X261870Y69000D02*
X261873D01*
X12500Y174500D02*
X17126Y179126D01*
Y186760D01*
X125873Y97719D02*
X127576Y96016D01*
X135209D01*
X345228Y103150D02*
X349500D01*
X341055Y103205D02*
X345228Y103150D01*
X359000Y153374D02*
X364967D01*
X367572Y150769D01*
Y143600D02*
Y150769D01*
Y143600D02*
X368823Y142350D01*
X371000D01*
X317773Y37069D02*
X319523Y38819D01*
X366142Y41339D02*
Y51169D01*
X358822Y58488D02*
X366142Y51169D01*
X354000Y58488D02*
X358822D01*
X261000Y101350D02*
X264785Y101563D01*
X155072Y86488D02*
X159000D01*
X153602Y87959D02*
X155072Y86488D01*
X153602Y87959D02*
Y101489D01*
X149150Y105941D02*
X153602Y101489D01*
X93000Y138319D02*
Y145870D01*
X91750Y137069D02*
X93000Y138319D01*
X85623Y137069D02*
X91750D01*
X84172Y135619D02*
X85623Y137069D01*
X84172Y125769D02*
Y135619D01*
Y125769D02*
X86322Y123619D01*
X93822D01*
X95350Y122091D01*
X82750Y84219D02*
X82850Y87000D01*
X60972Y84219D02*
X82750D01*
X58272Y81519D02*
X60972Y84219D01*
X57000Y79351D02*
X58272D01*
X38072Y31019D02*
X51212Y44159D01*
X38072Y18319D02*
Y31019D01*
X36823Y17069D02*
X38072Y18319D01*
X28850Y17069D02*
X36823D01*
X27500Y15719D02*
X28850Y17069D01*
X27500Y11315D02*
Y15719D01*
X119953Y115209D02*
Y123479D01*
X121323Y124849D01*
X146203D01*
X149573Y128219D01*
Y133351D02*
X150000D01*
X197141D02*
X213000D01*
X194773Y135719D02*
X197141Y133351D01*
X190523Y135719D02*
X194773D01*
X189172Y137069D02*
X190523Y135719D01*
X189172Y137069D02*
Y140819D01*
X187673Y142319D02*
X189172Y140819D01*
X179572Y142319D02*
X187673D01*
X175073Y137819D02*
X179572Y142319D01*
X175073Y129069D02*
Y137819D01*
X173822Y127819D02*
X175073Y129069D01*
X165472Y127819D02*
X173822D01*
X143070Y101921D02*
X143173Y101819D01*
X135209Y101921D02*
X143070D01*
X234000Y133351D02*
X234072D01*
X146002Y103890D02*
X146272Y103619D01*
X135209Y103890D02*
X146002D01*
X258372Y129819D02*
Y132069D01*
X257091Y133351D02*
X258372Y132069D01*
X255000Y133351D02*
X257091D01*
X275572D02*
X276000D01*
X264454Y74000D02*
X266272Y75819D01*
Y90819D01*
X250673Y106419D02*
X266272Y90819D01*
X250673Y106419D02*
Y131619D01*
X57272Y118814D02*
X57543Y118543D01*
X57272Y118814D02*
Y123319D01*
X58672Y124719D01*
X62972D01*
X87137Y97869D02*
X88991Y96016D01*
X98791D01*
X54000Y107913D02*
X57194Y104719D01*
X62673D01*
X110110Y115209D02*
Y125582D01*
X51573Y119659D02*
Y126181D01*
X50457Y118543D02*
X51573Y119659D01*
X263873Y29373D02*
Y45119D01*
X256500Y22000D02*
X263873Y29373D01*
X51000Y96650D02*
X57000D01*
X106173Y77119D02*
Y78173D01*
Y78791D01*
X328973Y65519D02*
X334027D01*
X336934Y68426D01*
X336937Y68500D01*
X261000Y118650D02*
X316504D01*
X51000Y79351D02*
X51212D01*
X82850Y87000D02*
Y89850D01*
Y96246D01*
X95350Y119819D02*
Y122091D01*
Y119819D02*
X95823Y119823D01*
X149150Y105941D02*
Y107150D01*
Y109000D01*
X258172Y121219D02*
Y126219D01*
X264785Y101563D02*
X268500D01*
X333364Y56019D02*
Y62142D01*
X289854Y123500D02*
X322572D01*
X106173Y183500D02*
Y185500D01*
X149573Y128219D02*
Y133351D01*
X261870Y74000D02*
X261877D01*
X264454D01*
X204649Y58319D02*
Y61000D01*
Y83500D02*
Y89500D01*
X125858Y121205D02*
Y121405D01*
X112897Y87944D02*
Y99881D01*
X98791Y99953D02*
X98791Y99953D01*
X110923Y101619D02*
X111360Y102057D01*
X117323Y108019D01*
X108142Y108358D02*
Y115209D01*
Y108358D02*
X109500Y107000D01*
Y94795D02*
Y107000D01*
X106953Y99953D02*
X108313Y101313D01*
X98791Y99953D02*
X106953D01*
X105421Y101921D02*
X106000Y102500D01*
X98791Y101921D02*
X105421D01*
X54881Y117619D02*
X56313Y116188D01*
X61757D01*
X50457Y111457D02*
Y114957D01*
X53119Y117619D01*
X54881D01*
X45523Y105178D02*
Y108287D01*
X46672Y109437D01*
Y128319D01*
X44335Y108779D02*
X44673Y109116D01*
Y143919D01*
X46710Y105670D02*
Y107795D01*
X50457Y97193D02*
X51000Y96650D01*
X50372Y111457D02*
X50457D01*
X46710Y107795D02*
X50372Y111457D01*
X57000Y90351D02*
X68741D01*
X71372Y87719D01*
X112211Y87258D02*
X112897Y87944D01*
X112079Y78791D02*
X112211Y78924D01*
Y87258D01*
X110236Y78917D02*
Y86614D01*
X110110Y78791D02*
X110236Y78917D01*
X98791Y90110D02*
X102937D01*
X103465Y88760D02*
X109500Y94795D01*
X103434Y88760D02*
X103465D01*
X98791Y88142D02*
X102816D01*
X103434Y88760D01*
X110923Y91037D02*
Y101619D01*
X98791Y86173D02*
X106059D01*
X110923Y91037D01*
X107500Y84500D02*
X108142Y83858D01*
Y78791D02*
Y83858D01*
X98418Y84500D02*
X107500D01*
X96245Y82326D02*
X98418Y84500D01*
X104964Y80000D02*
X106173Y78791D01*
X95000Y80000D02*
X104964D01*
X93500Y81500D02*
X95000Y80000D01*
X93500Y81500D02*
Y84673D01*
X92000Y86173D02*
X93500Y84673D01*
X198350Y67000D02*
Y72396D01*
Y83500D01*
X199247Y71500D02*
X206292D01*
X198350Y72396D02*
X199247Y71500D01*
X206292D02*
X209472Y68319D01*
X197123Y120319D02*
X202000Y115442D01*
Y90173D02*
Y115442D01*
X204649Y83500D02*
X206930Y81219D01*
X210273D01*
X204649Y89500D02*
X205500D01*
X177822Y137069D02*
X185892Y129000D01*
X234072Y133347D02*
Y133348D01*
X234072Y133351D01*
X185892Y129000D02*
X189500D01*
X191094Y130594D01*
X233959D01*
X257500Y72692D02*
X258772Y71419D01*
X257500Y72692D02*
Y82727D01*
X258772Y84000D01*
X342000Y105760D02*
Y118353D01*
X346630Y118500D01*
X329872Y113600D02*
Y135254D01*
X25000Y163592D02*
X44673Y143919D01*
X25000Y163592D02*
Y183020D01*
X20073Y189128D02*
X21972Y187229D01*
Y162119D02*
Y187229D01*
Y162119D02*
X42673Y141419D01*
X5000Y161500D02*
X6981Y159519D01*
X19000D01*
X5000Y161500D02*
Y170000D01*
X50457Y97193D02*
Y101923D01*
X46710Y105670D02*
X50457Y101923D01*
X42673Y76019D02*
X48173Y70519D01*
X44335Y99356D02*
Y108779D01*
X42673Y76019D02*
Y141419D01*
X44335Y99356D02*
X45500Y98192D01*
Y88500D02*
Y98192D01*
X46672Y80819D02*
Y86880D01*
X47475Y87682D01*
Y103226D01*
X45523Y105178D02*
X47475Y103226D01*
X95353Y113500D02*
X98650D01*
X94500Y112647D02*
X95353Y113500D01*
X86645Y112647D02*
X94500D01*
X101500Y112000D02*
X108313Y105187D01*
Y101313D02*
Y105187D01*
X98650Y113500D02*
X101649Y116500D01*
X98650Y111650D02*
Y113500D01*
X98000Y111000D02*
X98650Y111650D01*
X194000Y59000D02*
Y66192D01*
X182173Y78019D02*
X194000Y66192D01*
X201500Y56000D02*
X202330D01*
X197000D02*
X201500D01*
X202330D02*
X204649Y58319D01*
X194000Y59000D02*
X197000Y56000D01*
X137000Y109399D02*
X139101Y111500D01*
X140000D01*
X22500Y201500D02*
X25150D01*
X22000Y201000D02*
X22500Y201500D01*
X22000Y193500D02*
Y201000D01*
Y193500D02*
X25000Y190500D01*
X316473Y25027D02*
X317500Y24000D01*
X316473Y25027D02*
Y40819D01*
X317773Y26520D02*
Y37069D01*
X311953Y18874D02*
X316874D01*
X317773Y26520D02*
X318980D01*
X319794Y25706D01*
Y21794D02*
Y25706D01*
X316874Y18874D02*
X319794Y21794D01*
X333364Y42683D02*
Y43500D01*
X329500Y38819D02*
X333364Y42683D01*
X319523Y38819D02*
X329500D01*
X359350Y63850D02*
X360500Y65000D01*
Y72811D01*
X346773Y63850D02*
X359350D01*
X356323Y76988D02*
X360500Y72811D01*
X332000Y92500D02*
X332000Y92500D01*
X332000Y78795D02*
Y92500D01*
Y100000D02*
Y100500D01*
Y103205D01*
X65569Y120000D02*
X66850D01*
X70000Y123150D01*
X61757Y116188D02*
X65569Y120000D01*
X62972Y124719D02*
X65000Y122692D01*
Y122500D02*
Y122692D01*
X102937Y90110D02*
X105355Y92528D01*
Y94044D01*
X87360Y94047D02*
X89254D01*
X90500Y92500D02*
X90921Y92079D01*
X98791D01*
X199273Y123119D02*
X204153Y128000D01*
X205000D01*
X241000Y37500D02*
X260854D01*
X261873Y38519D01*
X236500Y41000D02*
X240310Y44810D01*
Y81581D01*
X236500Y36000D02*
X240500Y32000D01*
X246657D01*
X236500Y36000D02*
Y41000D01*
X237687Y40508D02*
X241498Y44319D01*
X237687Y36492D02*
Y40508D01*
X241498Y44319D02*
Y86594D01*
X239679Y34500D02*
X241975D01*
X237687Y36492D02*
X239679Y34500D01*
X243787Y36313D02*
X249054D01*
X241975Y34500D02*
X243787Y36313D01*
X246657Y22000D02*
X250798Y26140D01*
Y27977D01*
X251500Y28679D01*
Y33867D01*
X249054Y36313D02*
X251500Y33867D01*
X322000Y69611D02*
X322591Y69019D01*
X322000Y69611D02*
Y85781D01*
X216589Y33511D02*
X233601Y16500D01*
X262703D01*
X266124Y19921D01*
X204513Y51819D02*
X238645Y17687D01*
X249900D01*
X251985Y19772D01*
X271773Y85273D02*
X272500Y86000D01*
Y113610D01*
X271773Y9519D02*
Y85273D01*
X271673Y114437D02*
X272500Y113610D01*
X257000Y102623D02*
X258273Y101350D01*
X257000Y102623D02*
Y120046D01*
X258945Y121991D02*
X288445Y122091D01*
X289854Y123500D01*
X275500Y133278D02*
X275572Y133351D01*
X275500Y124500D02*
Y133278D01*
X257000Y120046D02*
X258172Y121219D01*
X258945Y121991D01*
X89254Y94047D02*
X89682Y94475D01*
X91318D01*
X91746Y94047D01*
X98791D01*
X130047D02*
X135209D01*
X128500Y90000D02*
Y92500D01*
X130047Y94047D01*
X89500Y108000D02*
X89673Y107827D01*
X98791D01*
X214811Y77811D02*
Y86058D01*
X211500Y74500D02*
X214811Y77811D01*
X211500Y60500D02*
Y74500D01*
Y60500D02*
X217000Y55000D01*
Y42500D02*
Y55000D01*
Y42500D02*
X237500Y22000D01*
X246657D01*
X205150Y95719D02*
X214811Y86058D01*
X318572Y42919D02*
X322636D01*
X233959Y130594D02*
X234072Y133347D01*
X8173Y202819D02*
X18850D01*
X127827Y75219D02*
X137472D01*
X261873Y38519D02*
Y69000D01*
X261877Y74000D02*
Y79000D01*
X137000Y109399D02*
X138573Y107827D01*
X25150Y196019D02*
X38473D01*
X180572Y106119D02*
X183650D01*
X328000Y100500D02*
X332000D01*
X127827Y115219D02*
X151373D01*
X51212Y44159D02*
Y79351D01*
X58272D02*
Y81519D01*
X268500Y96170D02*
X269350Y95319D01*
X293672Y69019D02*
X322591D01*
X322000Y85781D02*
X324063Y87844D01*
X337622Y101119D02*
X341055D01*
X342000Y105760D02*
X342678Y105211D01*
X246657Y154569D02*
X248089Y156000D01*
X277500D01*
X329872Y135254D02*
Y137626D01*
D34*
X333126Y132000D02*
X333500D01*
X327500Y137626D02*
X329872Y135254D01*
X333126Y132000D01*
X256355Y197000D02*
X299500D01*
X252855Y200500D02*
X256355Y197000D01*
X48000Y200500D02*
X252855D01*
D35*
X77000Y149500D02*
D03*
X98000D02*
D03*
X119000D02*
D03*
X140000D02*
D03*
X161000D02*
D03*
X182000D02*
D03*
X203000D02*
D03*
X224000D02*
D03*
X245000D02*
D03*
X266000D02*
D03*
D36*
X79500Y168500D02*
D03*
X100500D02*
D03*
X121500D02*
D03*
X142500D02*
D03*
X163500D02*
D03*
X184500D02*
D03*
X205500D02*
D03*
X226500D02*
D03*
X247500D02*
D03*
X268500D02*
D03*
D37*
X142000Y155750D02*
D03*
D38*
X247500D02*
D03*
D39*
X59055Y181102D02*
D03*
X334646D02*
D03*
Y23622D02*
D03*
X59055D02*
D03*
D40*
X108500Y183500D02*
D03*
D41*
X123500D02*
D03*
X138500D02*
D03*
X153500D02*
D03*
X168500D02*
D03*
X183500D02*
D03*
X198500D02*
D03*
X213500D02*
D03*
X228500D02*
D03*
X243500D02*
D03*
X258500D02*
D03*
D42*
X256500Y42000D02*
D03*
Y32000D02*
D03*
Y22000D02*
D03*
X246657Y12000D02*
D03*
Y22000D02*
D03*
Y32000D02*
D03*
Y42000D02*
D03*
X301953Y33874D02*
D03*
Y23874D02*
D03*
X311953Y28874D02*
D03*
X301500Y84000D02*
D03*
Y74000D02*
D03*
X311500Y79000D02*
D03*
X366142Y41339D02*
D03*
Y31496D02*
D03*
Y21654D02*
D03*
Y11811D02*
D03*
X27500Y11315D02*
D03*
Y21158D02*
D03*
Y31000D02*
D03*
Y40843D02*
D03*
D43*
X256500Y12000D02*
D03*
D44*
X169291Y117362D02*
D03*
Y107362D02*
D03*
Y97362D02*
D03*
D45*
Y87362D02*
D03*
D46*
X12500Y174500D02*
D03*
Y164500D02*
D03*
X333500Y132000D02*
D03*
D47*
X12500Y154500D02*
D03*
D48*
X311953Y18874D02*
D03*
X311500Y69000D02*
D03*
D49*
X296047Y10252D02*
D03*
Y41748D02*
D03*
X295594Y60378D02*
D03*
Y91874D02*
D03*
D50*
X299500Y197000D02*
D03*
Y107315D02*
D03*
D51*
X370000Y170158D02*
D03*
D52*
Y189842D02*
D03*
D53*
X5000Y190000D02*
D03*
Y200000D02*
D03*
D54*
X75000Y155000D02*
D03*
X85000D02*
D03*
X95000D02*
D03*
X105000D02*
D03*
X115000D02*
D03*
X125000D02*
D03*
X135000D02*
D03*
X145000D02*
D03*
X155000D02*
D03*
X165000D02*
D03*
X175000D02*
D03*
X185000D02*
D03*
X195000D02*
D03*
X205000D02*
D03*
X225000D02*
D03*
X235000D02*
D03*
X245000D02*
D03*
X255000D02*
D03*
X265000D02*
D03*
X275000D02*
D03*
X48000Y200500D02*
D03*
X80000Y10000D02*
D03*
X90000D02*
D03*
X100000D02*
D03*
X110000D02*
D03*
X120000D02*
D03*
X130000D02*
D03*
X140000D02*
D03*
X150000D02*
D03*
X160000D02*
D03*
X170000D02*
D03*
X180000D02*
D03*
X190000D02*
D03*
X200000D02*
D03*
X210000D02*
D03*
X140000Y120000D02*
D03*
X80000Y190000D02*
D03*
X75000Y195000D02*
D03*
X55000Y160000D02*
D03*
Y155000D02*
D03*
Y150000D02*
D03*
Y145000D02*
D03*
X310000Y170000D02*
D03*
Y160000D02*
D03*
X300000Y165000D02*
D03*
Y155000D02*
D03*
Y145000D02*
D03*
X290000Y155000D02*
D03*
Y145000D02*
D03*
Y135000D02*
D03*
X310000Y150000D02*
D03*
X155000Y70000D02*
D03*
X165000Y60000D02*
D03*
X175000Y50000D02*
D03*
X195000Y35000D02*
D03*
X230000Y60000D02*
D03*
X215000Y65000D02*
D03*
X220000Y45000D02*
D03*
Y90000D02*
D03*
X181000Y88000D02*
D03*
X191000Y101500D02*
D03*
X192500Y76500D02*
D03*
D55*
X109039Y70039D02*
D03*
X124500Y51000D02*
D03*
X214173Y31119D02*
D03*
X83573Y80319D02*
D03*
X324073Y87719D02*
D03*
X268473Y96019D02*
D03*
X124998Y103169D02*
D03*
X152573Y125419D02*
D03*
X78272Y109719D02*
D03*
X117984Y98019D02*
D03*
X149773Y85619D02*
D03*
X180572Y106119D02*
D03*
X124723Y87019D02*
D03*
X186972Y132019D02*
D03*
X336372Y102369D02*
D03*
X328973Y65519D02*
D03*
X214173Y50819D02*
D03*
X121773Y108019D02*
D03*
X48173Y64719D02*
D03*
X186472Y26219D02*
D03*
X125873Y97719D02*
D03*
X293672Y69019D02*
D03*
X165472Y127819D02*
D03*
X143173Y101819D02*
D03*
X177822Y137069D02*
D03*
X146272Y103619D02*
D03*
X258372Y129819D02*
D03*
X250673Y131619D02*
D03*
X87137Y97869D02*
D03*
X62673Y104719D02*
D03*
X110110Y125582D02*
D03*
X51573Y126181D02*
D03*
X182173Y78019D02*
D03*
X210273Y81219D02*
D03*
X263873Y45119D02*
D03*
X112897Y99881D02*
D03*
X106000Y102500D02*
D03*
X71372Y87719D02*
D03*
X110236Y86614D02*
D03*
X96245Y82326D02*
D03*
X19000Y159519D02*
D03*
X5000Y170000D02*
D03*
X45500Y88500D02*
D03*
X98000Y111000D02*
D03*
X101500Y112000D02*
D03*
X201500Y56000D02*
D03*
X140000Y111500D02*
D03*
X317500Y24000D02*
D03*
X332000Y92500D02*
D03*
X328000Y100500D02*
D03*
X65000Y122500D02*
D03*
X105355Y94044D02*
D03*
X90500Y92500D02*
D03*
X219000Y136500D02*
D03*
X205000Y128000D02*
D03*
X241000Y37500D02*
D03*
X275500Y124500D02*
D03*
X128500Y90000D02*
D03*
X89500Y108000D02*
D03*
X211000Y174000D02*
D03*
M02*
