G04 Layer_Color=32896*
%FSLAX25Y25*%
%MOIN*%
G70*
G01*
G75*
%ADD33C,0.00787*%
%ADD58C,0.01000*%
D33*
X185039Y140748D02*
Y166339D01*
X208661Y140748D02*
Y166339D01*
X185039Y89567D02*
Y115157D01*
X208661Y89567D02*
Y115157D01*
X185039Y38386D02*
Y63977D01*
X208661Y38386D02*
Y63977D01*
X252500Y189000D02*
Y196000D01*
X222500Y189000D02*
Y196000D01*
X192500Y189000D02*
Y196000D01*
X162500Y189000D02*
Y196000D01*
X132500Y189000D02*
Y196000D01*
D58*
X211720Y154876D02*
X211064Y155532D01*
Y156844D01*
X211720Y157500D01*
X212376D01*
X213032Y156844D01*
Y155532D01*
X213688Y154876D01*
X214344D01*
X215000Y155532D01*
Y156844D01*
X214344Y157500D01*
X211064Y150940D02*
X211720Y152252D01*
X213032Y153564D01*
X214344D01*
X215000Y152908D01*
Y151596D01*
X214344Y150940D01*
X213688D01*
X213032Y151596D01*
Y153564D01*
X211720Y102376D02*
X211064Y103032D01*
Y104344D01*
X211720Y105000D01*
X212376D01*
X213032Y104344D01*
Y103032D01*
X213688Y102376D01*
X214344D01*
X215000Y103032D01*
Y104344D01*
X214344Y105000D01*
X211064Y98440D02*
Y101064D01*
X213032D01*
X212376Y99752D01*
Y99096D01*
X213032Y98440D01*
X214344D01*
X215000Y99096D01*
Y100408D01*
X214344Y101064D01*
X211720Y52376D02*
X211064Y53032D01*
Y54344D01*
X211720Y55000D01*
X212376D01*
X213032Y54344D01*
Y53032D01*
X213688Y52376D01*
X214344D01*
X215000Y53032D01*
Y54344D01*
X214344Y55000D01*
X215000Y49096D02*
X211064D01*
X213032Y51064D01*
Y48440D01*
X13500Y193000D02*
Y196936D01*
X11532D01*
X10876Y196280D01*
Y194968D01*
X11532Y194312D01*
X13500D01*
X9564Y193000D02*
X8252D01*
X8908D01*
Y196936D01*
X9564Y196280D01*
X171500Y80000D02*
X167564D01*
X168876Y78688D01*
X167564Y77376D01*
X171500D01*
Y76064D02*
Y74752D01*
Y75408D01*
X167564D01*
X168220Y76064D01*
X275500Y192468D02*
X272876D01*
X274188Y193780D02*
Y191156D01*
X271564Y190500D02*
Y193124D01*
X270252Y194436D01*
X268940Y193124D01*
Y190500D01*
Y192468D01*
X271564D01*
X267629Y194436D02*
Y190500D01*
X265005D01*
X263693Y194436D02*
X262381D01*
X263037D01*
Y190500D01*
X263693D01*
X262381D01*
X260413D02*
Y194436D01*
X259101Y193124D01*
X257789Y194436D01*
Y190500D01*
X259532Y201936D02*
X260844D01*
X261500Y201280D01*
Y198656D01*
X260844Y198000D01*
X259532D01*
X258876Y198656D01*
Y201280D01*
X259532Y201936D01*
X257564D02*
Y198656D01*
X256908Y198000D01*
X255596D01*
X254940Y198656D01*
Y201936D01*
X253628D02*
X251005D01*
X252317D01*
Y198000D01*
X249693D02*
X248381D01*
X249037D01*
Y201936D01*
X249693Y201280D01*
X246413D02*
X245757Y201936D01*
X244445D01*
X243789Y201280D01*
Y198656D01*
X244445Y198000D01*
X245757D01*
X246413Y198656D01*
Y201280D01*
X243032Y194436D02*
X244344D01*
X245000Y193780D01*
Y191156D01*
X244344Y190500D01*
X243032D01*
X242376Y191156D01*
Y193780D01*
X243032Y194436D01*
X241064D02*
Y191156D01*
X240408Y190500D01*
X239096D01*
X238440Y191156D01*
Y194436D01*
X237128D02*
X234505D01*
X235817D01*
Y190500D01*
X233193Y191156D02*
X232537Y190500D01*
X231225D01*
X230569Y191156D01*
Y193780D01*
X231225Y194436D01*
X232537D01*
X233193Y193780D01*
Y193124D01*
X232537Y192468D01*
X230569D01*
X228032Y201936D02*
X229344D01*
X230000Y201280D01*
Y198656D01*
X229344Y198000D01*
X228032D01*
X227376Y198656D01*
Y201280D01*
X228032Y201936D01*
X226064D02*
Y198656D01*
X225408Y198000D01*
X224096D01*
X223440Y198656D01*
Y201936D01*
X222129D02*
X219505D01*
X220817D01*
Y198000D01*
X218193Y201280D02*
X217537Y201936D01*
X216225D01*
X215569Y201280D01*
Y200624D01*
X216225Y199968D01*
X215569Y199312D01*
Y198656D01*
X216225Y198000D01*
X217537D01*
X218193Y198656D01*
Y199312D01*
X217537Y199968D01*
X218193Y200624D01*
Y201280D01*
X217537Y199968D02*
X216225D01*
X213032Y194436D02*
X214344D01*
X215000Y193780D01*
Y191156D01*
X214344Y190500D01*
X213032D01*
X212376Y191156D01*
Y193780D01*
X213032Y194436D01*
X211064D02*
Y191156D01*
X210408Y190500D01*
X209096D01*
X208440Y191156D01*
Y194436D01*
X207129D02*
X204505D01*
X205817D01*
Y190500D01*
X203193Y194436D02*
X200569D01*
Y193780D01*
X203193Y191156D01*
Y190500D01*
X198032Y201936D02*
X199344D01*
X200000Y201280D01*
Y198656D01*
X199344Y198000D01*
X198032D01*
X197376Y198656D01*
Y201280D01*
X198032Y201936D01*
X196064D02*
Y198656D01*
X195408Y198000D01*
X194096D01*
X193440Y198656D01*
Y201936D01*
X192129D02*
X189505D01*
X190817D01*
Y198000D01*
X185569Y201936D02*
X186881Y201280D01*
X188193Y199968D01*
Y198656D01*
X187537Y198000D01*
X186225D01*
X185569Y198656D01*
Y199312D01*
X186225Y199968D01*
X188193D01*
X183032Y194436D02*
X184344D01*
X185000Y193780D01*
Y191156D01*
X184344Y190500D01*
X183032D01*
X182376Y191156D01*
Y193780D01*
X183032Y194436D01*
X181064D02*
Y191156D01*
X180408Y190500D01*
X179096D01*
X178440Y191156D01*
Y194436D01*
X177129D02*
X174505D01*
X175817D01*
Y190500D01*
X170569Y194436D02*
X173193D01*
Y192468D01*
X171881Y193124D01*
X171225D01*
X170569Y192468D01*
Y191156D01*
X171225Y190500D01*
X172537D01*
X173193Y191156D01*
X168032Y201936D02*
X169344D01*
X170000Y201280D01*
Y198656D01*
X169344Y198000D01*
X168032D01*
X167376Y198656D01*
Y201280D01*
X168032Y201936D01*
X166064D02*
Y198656D01*
X165408Y198000D01*
X164096D01*
X163440Y198656D01*
Y201936D01*
X162128D02*
X159505D01*
X160817D01*
Y198000D01*
X156225D02*
Y201936D01*
X158193Y199968D01*
X155569D01*
X153032Y194436D02*
X154344D01*
X155000Y193780D01*
Y191156D01*
X154344Y190500D01*
X153032D01*
X152376Y191156D01*
Y193780D01*
X153032Y194436D01*
X151064D02*
Y191156D01*
X150408Y190500D01*
X149096D01*
X148440Y191156D01*
Y194436D01*
X147128D02*
X144505D01*
X145817D01*
Y190500D01*
X143193Y193780D02*
X142537Y194436D01*
X141225D01*
X140569Y193780D01*
Y193124D01*
X141225Y192468D01*
X141881D01*
X141225D01*
X140569Y191812D01*
Y191156D01*
X141225Y190500D01*
X142537D01*
X143193Y191156D01*
X138032Y201936D02*
X139344D01*
X140000Y201280D01*
Y198656D01*
X139344Y198000D01*
X138032D01*
X137376Y198656D01*
Y201280D01*
X138032Y201936D01*
X136064D02*
Y198656D01*
X135408Y198000D01*
X134096D01*
X133440Y198656D01*
Y201936D01*
X132129D02*
X129505D01*
X130817D01*
Y198000D01*
X125569D02*
X128193D01*
X125569Y200624D01*
Y201280D01*
X126225Y201936D01*
X127537D01*
X128193Y201280D01*
X123032Y194436D02*
X124344D01*
X125000Y193780D01*
Y191156D01*
X124344Y190500D01*
X123032D01*
X122376Y191156D01*
Y193780D01*
X123032Y194436D01*
X121064D02*
Y191156D01*
X120408Y190500D01*
X119096D01*
X118440Y191156D01*
Y194436D01*
X117129D02*
X114505D01*
X115817D01*
Y190500D01*
X113193D02*
X111881D01*
X112537D01*
Y194436D01*
X113193Y193780D01*
X315376Y12280D02*
X316032Y12936D01*
X317344D01*
X318000Y12280D01*
Y9656D01*
X317344Y9000D01*
X316032D01*
X315376Y9656D01*
Y10968D01*
X316688D01*
X314064Y9000D02*
Y12936D01*
X311440Y9000D01*
Y12936D01*
X310128D02*
Y9000D01*
X308161D01*
X307505Y9656D01*
Y12280D01*
X308161Y12936D01*
X310128D01*
X296000Y25936D02*
Y22000D01*
X294032D01*
X293376Y22656D01*
Y25280D01*
X294032Y25936D01*
X296000D01*
X292064Y23968D02*
X289440D01*
X290752Y25280D02*
Y22656D01*
X324000Y30936D02*
Y27000D01*
X322032D01*
X321376Y27656D01*
Y30280D01*
X322032Y30936D01*
X324000D01*
X320064Y28968D02*
X317440D01*
X323547Y81062D02*
Y77126D01*
X321579D01*
X320923Y77782D01*
Y80406D01*
X321579Y81062D01*
X323547D01*
X319612Y79094D02*
X316988D01*
X295547Y76062D02*
Y72126D01*
X293579D01*
X292923Y72782D01*
Y75406D01*
X293579Y76062D01*
X295547D01*
X291612Y74094D02*
X288988D01*
X290300Y75406D02*
Y72782D01*
X314923Y62406D02*
X315579Y63062D01*
X316891D01*
X317547Y62406D01*
Y59782D01*
X316891Y59126D01*
X315579D01*
X314923Y59782D01*
Y61094D01*
X316235D01*
X313612Y59126D02*
Y63062D01*
X310988Y59126D01*
Y63062D01*
X309676D02*
Y59126D01*
X307708D01*
X307052Y59782D01*
Y62406D01*
X307708Y63062D01*
X309676D01*
X363423Y190906D02*
X364079Y191562D01*
X365391D01*
X366047Y190906D01*
Y188282D01*
X365391Y187626D01*
X364079D01*
X363423Y188282D01*
Y189594D01*
X364735D01*
X362111Y187626D02*
Y191562D01*
X359488Y187626D01*
Y191562D01*
X358176D02*
Y187626D01*
X356208D01*
X355552Y188282D01*
Y190906D01*
X356208Y191562D01*
X358176D01*
X366500Y169468D02*
X363876D01*
X365188Y170780D02*
Y168156D01*
X362564Y167500D02*
X361252D01*
X361908D01*
Y171436D01*
X362564Y170780D01*
X356661Y167500D02*
X359284D01*
X356661Y170124D01*
Y170780D01*
X357317Y171436D01*
X358629D01*
X359284Y170780D01*
X355349Y171436D02*
Y168812D01*
X354037Y167500D01*
X352725Y168812D01*
Y171436D01*
M02*
