G04 Layer_Color=8388736*
%FSLAX25Y25*%
%MOIN*%
G70*
G01*
G75*
%ADD39C,0.13780*%
%ADD71R,0.03950X0.04737*%
%ADD72R,0.04737X0.03950*%
%ADD73R,0.10642X0.06706*%
%ADD74C,0.03556*%
%ADD75R,0.03162X0.05524*%
%ADD76R,0.05603X0.04383*%
%ADD77R,0.05524X0.03162*%
%ADD78R,0.07887X0.05524*%
%ADD79R,0.01981X0.08477*%
%ADD80R,0.08477X0.01981*%
%ADD81R,0.07099X0.05918*%
%ADD82R,0.07099X0.05918*%
%ADD83R,0.07099X0.05918*%
%ADD84R,0.03950X0.03950*%
%ADD85R,0.05131X0.09265*%
%ADD86R,0.05131X0.09265*%
%ADD87R,0.14579X0.09265*%
%ADD88R,0.04048X0.06800*%
%ADD89R,0.04383X0.05603*%
%ADD90C,0.00800*%
G04:AMPARAMS|DCode=91|XSize=78.87mil|YSize=78.87mil|CornerRadius=12.86mil|HoleSize=0mil|Usage=FLASHONLY|Rotation=0.000|XOffset=0mil|YOffset=0mil|HoleType=Round|Shape=RoundedRectangle|*
%AMROUNDEDRECTD91*
21,1,0.07887,0.05315,0,0,0.0*
21,1,0.05315,0.07887,0,0,0.0*
1,1,0.02572,0.02657,-0.02657*
1,1,0.02572,-0.02657,-0.02657*
1,1,0.02572,-0.02657,0.02657*
1,1,0.02572,0.02657,0.02657*
%
%ADD91ROUNDEDRECTD91*%
%ADD92C,0.07887*%
%ADD93C,0.07493*%
%ADD94R,0.07493X0.07493*%
%ADD95C,0.08674*%
%ADD96R,0.08674X0.08674*%
%ADD97C,0.06706*%
%ADD98R,0.06706X0.06706*%
%ADD99R,0.07493X0.07493*%
%ADD100C,0.06706*%
%ADD101C,0.12611*%
G04:AMPARAMS|DCode=102|XSize=106.42mil|YSize=106.42mil|CornerRadius=16.3mil|HoleSize=0mil|Usage=FLASHONLY|Rotation=90.000|XOffset=0mil|YOffset=0mil|HoleType=Round|Shape=RoundedRectangle|*
%AMROUNDEDRECTD102*
21,1,0.10642,0.07382,0,0,90.0*
21,1,0.07382,0.10642,0,0,90.0*
1,1,0.03261,0.03691,0.03691*
1,1,0.03261,0.03691,-0.03691*
1,1,0.03261,-0.03691,-0.03691*
1,1,0.03261,-0.03691,0.03691*
%
%ADD102ROUNDEDRECTD102*%
%ADD103C,0.10642*%
%ADD104C,0.05524*%
%ADD105C,0.04737*%
D39*
X59055Y181102D02*
D03*
X334646D02*
D03*
Y23622D02*
D03*
X59055D02*
D03*
D71*
X205150Y106000D02*
D03*
X198850D02*
D03*
X269350Y90000D02*
D03*
X275649D02*
D03*
X183650Y107500D02*
D03*
X177350D02*
D03*
X183650Y117500D02*
D03*
X177350D02*
D03*
X149150Y109000D02*
D03*
X142850D02*
D03*
X95350Y116500D02*
D03*
X101649D02*
D03*
X82850Y87000D02*
D03*
X89149D02*
D03*
X91350Y76000D02*
D03*
X97650D02*
D03*
X198850Y112000D02*
D03*
X205150D02*
D03*
X198350Y89500D02*
D03*
X204649D02*
D03*
Y83500D02*
D03*
X198350D02*
D03*
Y67000D02*
D03*
X204649D02*
D03*
Y61000D02*
D03*
X198350D02*
D03*
X25150Y201500D02*
D03*
X18850D02*
D03*
X25150Y196000D02*
D03*
X18850D02*
D03*
D72*
X371000Y148650D02*
D03*
Y142350D02*
D03*
X87000Y133351D02*
D03*
Y139650D02*
D03*
X108000Y133351D02*
D03*
Y139650D02*
D03*
X129000Y133351D02*
D03*
Y139650D02*
D03*
X150000Y133351D02*
D03*
Y139650D02*
D03*
X171000Y133351D02*
D03*
Y139650D02*
D03*
X192000Y133351D02*
D03*
Y139650D02*
D03*
X213000Y133351D02*
D03*
Y139650D02*
D03*
X234000Y133351D02*
D03*
Y139650D02*
D03*
X255000Y133351D02*
D03*
Y139650D02*
D03*
X276000Y133351D02*
D03*
Y139650D02*
D03*
X261000Y118650D02*
D03*
Y112350D02*
D03*
Y107650D02*
D03*
Y101350D02*
D03*
X70000Y105851D02*
D03*
Y112150D02*
D03*
Y123150D02*
D03*
Y116850D02*
D03*
X57000Y96650D02*
D03*
Y90351D02*
D03*
Y85650D02*
D03*
Y79351D02*
D03*
X51000Y85650D02*
D03*
Y79351D02*
D03*
Y96650D02*
D03*
Y90351D02*
D03*
X75500Y78650D02*
D03*
Y72351D02*
D03*
X101672Y57770D02*
D03*
Y64069D02*
D03*
X131500Y57850D02*
D03*
Y64150D02*
D03*
X31500Y183851D02*
D03*
Y190150D02*
D03*
X349500Y96851D02*
D03*
Y103150D02*
D03*
X345000Y70150D02*
D03*
Y63850D02*
D03*
D73*
X359000Y153374D02*
D03*
Y137626D02*
D03*
X343500Y153374D02*
D03*
Y137626D02*
D03*
X327500Y153374D02*
D03*
Y137626D02*
D03*
D74*
X50457Y118543D02*
D03*
X54000Y115000D02*
D03*
X50457Y111457D02*
D03*
X54000Y107913D02*
D03*
Y122087D02*
D03*
X57543Y118543D02*
D03*
Y111457D02*
D03*
D75*
X93000Y145870D02*
D03*
X98000D02*
D03*
X93000Y167130D02*
D03*
X103000D02*
D03*
X108000Y145870D02*
D03*
X103000D02*
D03*
X98000Y167130D02*
D03*
X108000D02*
D03*
X114000Y145870D02*
D03*
X119000D02*
D03*
X114000Y167130D02*
D03*
X124000D02*
D03*
X129000Y145870D02*
D03*
X124000D02*
D03*
X119000Y167130D02*
D03*
X129000D02*
D03*
X135000Y145870D02*
D03*
X140000D02*
D03*
X135000Y167130D02*
D03*
X145000D02*
D03*
X150000Y145870D02*
D03*
X145000D02*
D03*
X140000Y167130D02*
D03*
X150000D02*
D03*
X156000Y145870D02*
D03*
X161000D02*
D03*
X156000Y167130D02*
D03*
X166000D02*
D03*
X171000Y145870D02*
D03*
X166000D02*
D03*
X161000Y167130D02*
D03*
X171000D02*
D03*
X177000Y145870D02*
D03*
X182000D02*
D03*
X177000Y167130D02*
D03*
X187000D02*
D03*
X192000Y145870D02*
D03*
X187000D02*
D03*
X182000Y167130D02*
D03*
X192000D02*
D03*
X198000Y145870D02*
D03*
X203000D02*
D03*
X198000Y167130D02*
D03*
X208000D02*
D03*
X213000Y145870D02*
D03*
X208000D02*
D03*
X203000Y167130D02*
D03*
X213000D02*
D03*
X219000Y145870D02*
D03*
X224000D02*
D03*
X219000Y167130D02*
D03*
X229000D02*
D03*
X234000Y145870D02*
D03*
X229000D02*
D03*
X224000Y167130D02*
D03*
X234000D02*
D03*
X240000Y145870D02*
D03*
X245000D02*
D03*
X240000Y167130D02*
D03*
X250000D02*
D03*
X255000Y145870D02*
D03*
X250000D02*
D03*
X245000Y167130D02*
D03*
X255000D02*
D03*
X261000Y145870D02*
D03*
X266000D02*
D03*
X261000Y167130D02*
D03*
X271000D02*
D03*
X276000Y145870D02*
D03*
X271000D02*
D03*
X266000Y167130D02*
D03*
X276000D02*
D03*
X72000Y145870D02*
D03*
X77000D02*
D03*
X72000Y167130D02*
D03*
X82000D02*
D03*
X87000Y145870D02*
D03*
X82000D02*
D03*
X77000Y167130D02*
D03*
X87000D02*
D03*
D76*
X268500Y114437D02*
D03*
Y101563D02*
D03*
D77*
X283130Y69000D02*
D03*
Y79000D02*
D03*
X261870Y74000D02*
D03*
Y69000D02*
D03*
X283130Y74000D02*
D03*
Y84000D02*
D03*
X261870Y79000D02*
D03*
Y84000D02*
D03*
X325370Y128500D02*
D03*
Y118500D02*
D03*
X346630Y123500D02*
D03*
Y128500D02*
D03*
X325370Y123500D02*
D03*
Y113500D02*
D03*
X346630Y118500D02*
D03*
Y113500D02*
D03*
D78*
X159000Y86488D02*
D03*
Y97512D02*
D03*
X350500Y76988D02*
D03*
Y88012D02*
D03*
X354000Y58488D02*
D03*
Y69512D02*
D03*
D79*
X106173Y78791D02*
D03*
X108142D02*
D03*
X110110D02*
D03*
X112079D02*
D03*
X114047D02*
D03*
X116016D02*
D03*
X117984D02*
D03*
X119953D02*
D03*
X121921D02*
D03*
X123890D02*
D03*
X125858D02*
D03*
X127827D02*
D03*
Y115209D02*
D03*
X125858D02*
D03*
X123890D02*
D03*
X121921D02*
D03*
X119953D02*
D03*
X117984D02*
D03*
X116016D02*
D03*
X114047D02*
D03*
X112079D02*
D03*
X110110D02*
D03*
X108142D02*
D03*
X106173D02*
D03*
D80*
X135209Y86173D02*
D03*
Y88142D02*
D03*
Y90110D02*
D03*
Y92079D02*
D03*
Y94047D02*
D03*
Y96016D02*
D03*
Y97984D02*
D03*
Y99953D02*
D03*
Y101921D02*
D03*
Y103890D02*
D03*
Y105858D02*
D03*
Y107827D02*
D03*
X98791D02*
D03*
Y105858D02*
D03*
Y103890D02*
D03*
Y101921D02*
D03*
Y99953D02*
D03*
Y97984D02*
D03*
Y96016D02*
D03*
Y94047D02*
D03*
Y92079D02*
D03*
Y90110D02*
D03*
Y88142D02*
D03*
Y86173D02*
D03*
D81*
X75781Y65637D02*
D03*
D82*
Y54908D02*
D03*
D83*
X124000Y65055D02*
D03*
X109039D02*
D03*
Y56000D02*
D03*
X124000D02*
D03*
D84*
X17126Y186760D02*
D03*
X25000Y183020D02*
D03*
Y190500D02*
D03*
D85*
X341055Y103205D02*
D03*
X322945D02*
D03*
D86*
X332000D02*
D03*
D87*
Y78795D02*
D03*
D88*
X333364Y53000D02*
D03*
X322636D02*
D03*
X333364Y43500D02*
D03*
X322636D02*
D03*
D89*
X336937Y68500D02*
D03*
X324063D02*
D03*
D90*
X59905Y107913D02*
D03*
Y122087D02*
D03*
X49275Y106732D02*
D03*
D91*
X108500Y183500D02*
D03*
D92*
X123500D02*
D03*
X138500D02*
D03*
X153500D02*
D03*
X168500D02*
D03*
X183500D02*
D03*
X198500D02*
D03*
X213500D02*
D03*
X228500D02*
D03*
X243500D02*
D03*
X258500D02*
D03*
D93*
X256500Y42000D02*
D03*
Y32000D02*
D03*
Y22000D02*
D03*
X246657Y12000D02*
D03*
Y22000D02*
D03*
Y32000D02*
D03*
Y42000D02*
D03*
X301953Y33874D02*
D03*
Y23874D02*
D03*
X311953Y28874D02*
D03*
X301500Y84000D02*
D03*
Y74000D02*
D03*
X311500Y79000D02*
D03*
X366142Y41339D02*
D03*
Y31496D02*
D03*
Y21654D02*
D03*
Y11811D02*
D03*
X27500Y11315D02*
D03*
Y21158D02*
D03*
Y31000D02*
D03*
Y40843D02*
D03*
D94*
X256500Y12000D02*
D03*
D95*
X169291Y117362D02*
D03*
Y107362D02*
D03*
Y97362D02*
D03*
D96*
Y87362D02*
D03*
D97*
X12500Y174500D02*
D03*
Y164500D02*
D03*
D98*
Y154500D02*
D03*
D99*
X311953Y18874D02*
D03*
X311500Y69000D02*
D03*
D100*
X296047Y10252D02*
D03*
Y41748D02*
D03*
X295594Y60378D02*
D03*
Y91874D02*
D03*
D101*
X299500Y197000D02*
D03*
Y107315D02*
D03*
D102*
X370000Y170158D02*
D03*
D103*
Y189842D02*
D03*
D104*
X5000Y190000D02*
D03*
Y200000D02*
D03*
D105*
X75000Y155000D02*
D03*
X85000D02*
D03*
X95000D02*
D03*
X105000D02*
D03*
X115000D02*
D03*
X125000D02*
D03*
X135000D02*
D03*
X145000D02*
D03*
X155000D02*
D03*
X165000D02*
D03*
X175000D02*
D03*
X185000D02*
D03*
X195000D02*
D03*
X205000D02*
D03*
X225000D02*
D03*
X235000D02*
D03*
X245000D02*
D03*
X255000D02*
D03*
X265000D02*
D03*
X275000D02*
D03*
X48000Y200500D02*
D03*
M02*
